<?xml version="1.0" standalone="no"?>
<!DOCTYPE svg PUBLIC "-//W3C//DTD SVG 1.1//EN" "http://www.w3.org/Graphics/SVG/1.1/DTD/svg11.dtd" >
<svg xmlns="http://www.w3.org/2000/svg" xmlns:xlink="http://www.w3.org/1999/xlink" version="1.1">
<metadata>
Created by FontForge 20170731 at Mon Jul  4 11:34:01 2016
 By ,,,
Copyright (c) 2012 Christian Schwartz for Commercial Type.
</metadata>
<defs>
<font id="GraphikLCG-Bold" horiz-adv-x="608" >
  <font-face 
    font-family="Graphik LCG"
    font-weight="700"
    font-stretch="normal"
    units-per-em="1000"
    panose-1="2 11 8 3 3 2 2 6 2 3"
    ascent="825"
    descent="-175"
    x-height="523"
    cap-height="715"
    bbox="-239 -232 1202 1137"
    underline-thickness="50"
    underline-position="-200"
    unicode-range="U+000D-FB02"
  />
<missing-glyph horiz-adv-x="519" 
 />
    <glyph glyph-name="f_f" unicode="ff" horiz-adv-x="724" 
d="M84 401h-66v122h66v40q0 94 54 142.5t150 48.5q47 0 80 -10v-131q-23 7 -48 7q-29 0 -43.5 -15.5t-14.5 -41.5v-40h152v46q0 95 56 145q53 47 149 47q44 0 82 -11v-131q-23 7 -49 7q-59 0 -59 -57v-46h106v-122h-106v-401h-179v401h-152v-401h-178v401z" />
    <glyph glyph-name=".notdef" horiz-adv-x="519" 
 />
    <glyph glyph-name=".null" horiz-adv-x="0" 
 />
    <glyph glyph-name="nonmarkingreturn" horiz-adv-x="333" 
 />
    <glyph glyph-name="NULL" horiz-adv-x="0" 
 />
    <glyph glyph-name="NULL" horiz-adv-x="0" 
 />
    <glyph glyph-name="CR" unicode="&#xd;" horiz-adv-x="197" 
 />
    <glyph glyph-name="space" unicode=" " horiz-adv-x="197" 
 />
    <glyph glyph-name="exclam" unicode="!" horiz-adv-x="342" 
d="M171 -11q-45 0 -75.5 28.5t-30.5 70.5t30.5 71t75.5 29q42 0 76 -29q31 -31 31 -71q0 -42 -31 -70q-31 -29 -76 -29zM70 715h202l-27 -480h-148z" />
    <glyph glyph-name="quotedbl" unicode="&#x22;" horiz-adv-x="470" 
d="M45 715h168l-21 -275h-127zM257 715h169l-21 -275h-127z" />
    <glyph glyph-name="numbersign" unicode="#" horiz-adv-x="584" 
d="M295 241h-62l-21 -142h-121l21 142h-69v141h90l11 76h-77v134h97l18 123h121l-18 -123h62l19 123h121l-19 -123h72v-134h-92l-11 -76h79v-141h-100l-21 -142h-121zM254 382h62l11 76h-62z" />
    <glyph glyph-name="dollar" unicode="$" horiz-adv-x="655" 
d="M292 -10q-126 9 -192.5 71.5t-71.5 164.5h185q8 -79 79 -94v146q-130 18 -189 71t-59 156q0 92 67 151q71 61 181 68v89h78v-90q226 -19 243 -216h-181q-6 31 -19.5 49t-42.5 26v-138q124 -18 184 -63q69 -55 69 -156q0 -98 -61 -159q-66 -69 -192 -76v-125h-78v125z
M437 203q0 26 -14 39.5t-53 22.5v-133q67 14 67 71zM224 520q0 -27 14 -41.5t54 -22.5v128q-68 -12 -68 -64z" />
    <glyph glyph-name="percent" unicode="%" horiz-adv-x="835" 
d="M219 468q27 0 42 20.5t15 56.5t-15 56t-42 20q-28 0 -43.5 -20t-15.5 -55q0 -78 59 -78zM218 364q-86 0 -138 52q-51 49 -51 129q0 77 55 127q53 51 135 51q80 0 135 -49q54 -52 54 -126q0 -78 -51 -131q-53 -53 -139 -53zM618 715h98l-496 -715h-98zM617 93q58 0 58 77
q0 75 -58 75q-27 0 -42.5 -20t-15.5 -55q0 -77 58 -77zM616 -12q-86 0 -138 52q-51 49 -51 129q0 77 55 127q53 51 135 51q83 0 135 -49q54 -51 54 -126q0 -78 -51 -131q-53 -53 -139 -53z" />
    <glyph glyph-name="ampersand" unicode="&#x26;" horiz-adv-x="770" 
d="M636 146l119 -146h-233l-42 52q-80 -64 -193 -64q-116 0 -182 57q-69 58 -69 159q0 133 157 208q-44 62 -44 125q0 89 68 140q62 47 162 47q91 0 151 -42q66 -46 66 -125q0 -116 -143 -177l90 -110l52 102h156zM318 137q42 0 70 30l-113 136q-48 -28 -48 -77
q0 -40 23.5 -64.5t67.5 -24.5zM325 535q0 -32 41 -80q71 34 71 87q0 24 -14.5 39.5t-38.5 15.5q-27 0 -43 -16.5t-16 -45.5z" />
    <glyph glyph-name="quotesingle" unicode="'" horiz-adv-x="264" 
d="M45 715h175l-21 -275h-134z" />
    <glyph glyph-name="parenleft" unicode="(" horiz-adv-x="364" 
d="M208 -148q-72 87 -112 182q-54 128 -54 279q0 152 54 280q40 95 112 182h140q-60 -93 -92 -190q-43 -132 -43 -272q0 -139 43 -270q32 -98 92 -191h-140z" />
    <glyph glyph-name="parenright" unicode=")" horiz-adv-x="364" 
d="M15 -148q62 96 93 191q42 128 42 271q0 142 -42 271q-31 94 -93 190h140q74 -89 113 -182q54 -128 54 -279q0 -152 -54 -280q-39 -93 -113 -182h-140z" />
    <glyph glyph-name="asterisk" unicode="*" horiz-adv-x="448" 
d="M61 447l89 90l-117 13l34 123l110 -53l-24 123h143l-24 -123l109 53l35 -123l-118 -13l89 -90l-107 -77l-56 115l-55 -115z" />
    <glyph glyph-name="plus" unicode="+" horiz-adv-x="578" 
d="M217 275h-176v130h176v192h144v-192h176v-130h-176v-192h-144v192z" />
    <glyph glyph-name="comma" unicode="," horiz-adv-x="314" 
d="M20 -81l84 263l166 -59l-144 -245z" />
    <glyph glyph-name="hyphen" unicode="-" horiz-adv-x="390" 
d="M55 353h280v-135h-280v135z" />
    <glyph glyph-name="period" unicode="." horiz-adv-x="307" 
d="M152 -11q-46 0 -73 30q-29 26 -29 71q0 43 29 72t73 29q43 0 75 -29q30 -30 30 -72q0 -44 -30 -71q-30 -30 -75 -30z" />
    <glyph glyph-name="slash" unicode="/" horiz-adv-x="442" 
d="M297 776h143l-318 -924h-142z" />
    <glyph glyph-name="zero" unicode="0" horiz-adv-x="740" 
d="M372 147q65 0 94 48t29 149v29q0 100 -30 148.5t-95 48.5t-95 -48t-30 -149v-30q0 -100 30.5 -148t96.5 -48zM366 -12q-153 0 -238 93q-88 94 -88 261v30q0 165 94 261q90 92 236 92q144 0 236 -87q94 -94 94 -262v-28q0 -169 -90 -265q-92 -95 -244 -95z" />
    <glyph glyph-name="one" unicode="1" horiz-adv-x="458" 
d="M172 513l-136 -84v171l164 115h177v-715h-205v513z" />
    <glyph glyph-name="two" unicode="2" horiz-adv-x="623" 
d="M12 29l250 265q59 63 88.5 109t29.5 88q0 37 -19.5 58.5t-56.5 21.5q-80 0 -92 -116h-186q5 132 80.5 201t207.5 69q128 0 200 -64q68 -62 68 -162q0 -68 -37 -132q-29 -50 -98 -117l-100 -97h240v-153h-575v29z" />
    <glyph glyph-name="three" unicode="3" horiz-adv-x="660" 
d="M330 -12q-146 0 -220 64t-78 183h182q6 -48 30 -73.5t75 -25.5q94 0 94 81q0 84 -94 84h-57v127h53q95 0 95 79q0 33 -21 52t-61 19q-83 0 -95 -91h-181q6 107 77 172q76 66 204 66q123 0 198 -53q71 -55 71 -143q0 -117 -121 -154q64 -13 101.5 -55t37.5 -107
q0 -104 -75.5 -164.5t-214.5 -60.5z" />
    <glyph glyph-name="four" unicode="4" horiz-adv-x="686" 
d="M370 137h-348v77l298 501h247v-437h92v-141h-92v-137h-197v137zM375 278v283l-160 -283h160z" />
    <glyph glyph-name="five" unicode="5" horiz-adv-x="639" 
d="M311 -12q-138 0 -209 68q-67 61 -72 169h186q7 -42 25 -60q20 -23 68 -23q43 0 64.5 28t21.5 73q0 48 -25 75t-72 27q-74 0 -118 -51h-122l15 421h482v-150h-334l-4 -158q53 76 167 76q98 0 158 -63q59 -65 59 -180q0 -114 -77 -183q-80 -69 -213 -69z" />
    <glyph glyph-name="six" unicode="6" horiz-adv-x="682" 
d="M355 -12q-163 0 -243 99q-72 86 -72 251v19q0 169 92 272q87 96 229 96q122 0 191 -53t80 -158h-188q-12 60 -76 60q-59 0 -90.5 -48.5t-34.5 -140.5q54 83 167 83q103 0 167 -58q70 -63 70 -171q0 -113 -77 -182q-80 -69 -215 -69zM353 133q43 0 69 29t26 75t-25.5 74.5
t-69.5 28.5t-70.5 -28.5t-26.5 -72.5q0 -48 26 -77t71 -29z" />
    <glyph glyph-name="seven" unicode="7" horiz-adv-x="584" 
d="M316 549h-288v166h544v-21l-248 -694h-208z" />
    <glyph glyph-name="eight" unicode="8" horiz-adv-x="665" 
d="M332 -12q-138 0 -217 55q-81 56 -81 159q0 128 130 175q-100 44 -100 148q0 91 80 148q77 52 190 52q118 0 192 -51q78 -57 78 -148q0 -102 -101 -148q128 -44 128 -171q0 -103 -82 -161t-217 -58zM333 132q43 0 70 24.5t27 66.5t-26.5 66.5t-69.5 24.5t-70.5 -24
t-27.5 -67q0 -42 27 -66.5t70 -24.5zM335 430q36 0 60 21.5t24 57.5q0 35 -24.5 56.5t-60.5 21.5t-60 -21.5t-24 -56.5q0 -36 24.5 -57.5t60.5 -21.5z" />
    <glyph glyph-name="nine" unicode="9" horiz-adv-x="683" 
d="M326 -11q-127 0 -199 55t-83 158h188q12 -61 84 -61q63 0 92 46t31 140q-53 -84 -162 -84t-172 59q-70 62 -70 172q0 114 79 182q81 70 215 70q154 0 237 -97q76 -94 76 -253v-24q0 -175 -81.5 -269t-234.5 -94zM326 375q44 0 71 28t27 72q0 48 -26.5 77.5t-71.5 29.5
q-42 0 -68.5 -29.5t-26.5 -75.5t25.5 -74t69.5 -28z" />
    <glyph glyph-name="colon" unicode=":" horiz-adv-x="313" 
d="M155 -11q-45 0 -72 30q-30 27 -30 71q0 42 30 72q29 29 72 29t75 -29q30 -30 30 -72q0 -44 -30 -71q-30 -30 -75 -30zM155 275q-44 0 -73 29t-29 72q0 42 30 72q29 29 72 29t75 -29q30 -30 30 -72q0 -43 -30 -72t-75 -29z" />
    <glyph glyph-name="semicolon" unicode=";" horiz-adv-x="329" 
d="M14 -81l83 263l166 -59l-143 -245zM178 275q-45 0 -73.5 29t-28.5 72t29 72t73 29q43 0 75 -29q30 -30 30 -72q0 -43 -30 -72t-75 -29z" />
    <glyph glyph-name="less" unicode="&#x3c;" horiz-adv-x="521" 
d="M46 305v34l421 246v-162l-190 -100l190 -106v-158z" />
    <glyph glyph-name="equal" unicode="=" horiz-adv-x="565" 
d="M43 289h479v-122h-479v122zM43 486h479v-122h-479v122z" />
    <glyph glyph-name="greater" unicode="&#x3e;" horiz-adv-x="521" 
d="M53 223l191 99l-191 106v158l422 -246v-34l-422 -246v163z" />
    <glyph glyph-name="question" unicode="?" horiz-adv-x="564" 
d="M173 254q0 51 32 96q14 20 66 72q33 31 49 52.5t16 45.5q0 60 -61 60q-32 0 -53 -23t-26 -65h-174q4 113 78 174q71 59 189 59q116 0 178.5 -49t62.5 -139q0 -79 -73 -150q-12 -12 -37 -35t-35 -33q-38 -38 -43 -69v-15h-169v19zM258 -11q-47 0 -76 29q-32 27 -32 70
q0 41 32 71q32 29 76 29q41 0 75 -29q31 -31 31 -71q0 -42 -31 -70q-31 -29 -75 -29z" />
    <glyph glyph-name="at" unicode="@" horiz-adv-x="929" 
d="M464 -158q-198 0 -317 119q-115 115 -115 290q0 193 137 320q131 120 314 120q179 0 296 -100q117 -103 117 -264q0 -138 -67 -212q-59 -63 -149 -63q-124 0 -147 82q-43 -84 -134 -84q-75 0 -119 50t-44 136q0 105 58 171q58 64 140 64t109 -60l7 52h147l-34 -273
q-8 -66 44 -66q46 0 75 48q34 54 34 157q0 130 -90 212q-89 80 -241 80q-159 0 -261 -100q-107 -104 -107 -271q0 -150 88 -241q94 -97 263 -97q83 0 149.5 24.5t107.5 63.5h91q-49 -71 -143 -115q-92 -43 -209 -43zM447 168q34 0 57 32.5t23 83.5q0 71 -64 71
q-34 0 -55.5 -31t-21.5 -82q0 -33 16 -53.5t45 -20.5z" />
    <glyph glyph-name="A" unicode="A" horiz-adv-x="755" 
d="M246 715h265l227 -715h-217l-38 133h-237l-38 -133h-191zM286 274h157l-78 275z" />
    <glyph glyph-name="B" unicode="B" horiz-adv-x="687" 
d="M73 715h319q123 0 184 -52q57 -48 57 -135v-4q0 -123 -121 -154q143 -24 143 -167v-4q0 -199 -260 -199h-322v715zM358 137q95 0 95 83v4q0 42 -24 62t-77 20h-79v-169h85zM351 431q48 0 68 17t20 56v4q0 37 -20.5 54t-67.5 17h-78v-148h78z" />
    <glyph glyph-name="C" unicode="C" horiz-adv-x="767" 
d="M409 -12q-185 0 -280 100q-93 94 -93 265v8q0 163 104 265q102 100 261 100q141 0 230 -66q90 -71 102 -209h-211q-12 113 -120 113q-70 0 -110 -52.5t-40 -149.5v-8q0 -97 39.5 -149.5t113.5 -52.5q117 0 133 117h204q-10 -134 -102 -210q-89 -71 -231 -71z" />
    <glyph glyph-name="D" unicode="D" horiz-adv-x="751" 
d="M326 158q91 0 133.5 48t42.5 149v8q0 103 -42 148.5t-136 45.5h-45v-399h47zM73 715h260q188 0 285.5 -90.5t97.5 -258.5v-8q0 -170 -97 -262q-99 -96 -287 -96h-259v715z" />
    <glyph glyph-name="E" unicode="E" horiz-adv-x="620" 
d="M73 715h494v-158h-290v-123h231v-146h-231v-130h306v-158h-510v715z" />
    <glyph glyph-name="F" unicode="F" horiz-adv-x="587" 
d="M73 715h483v-159h-277v-152h221v-151h-221v-253h-206v715z" />
    <glyph glyph-name="G" unicode="G" horiz-adv-x="795" 
d="M410 -12q-178 0 -278 103q-97 97 -97 262v8q0 162 107 264q106 101 268 101q137 0 225 -62q98 -70 108 -201h-203q-14 102 -129 102q-76 0 -119 -55t-43 -152v-8q0 -97 37 -146q44 -60 130 -60q69 0 107 33q30 26 35 75h-134v143h336v-88q0 -143 -88 -228
q-94 -91 -262 -91z" />
    <glyph glyph-name="H" unicode="H" horiz-adv-x="792" 
d="M73 715h206v-273h235v273h205v-715h-205v282h-235v-282h-206v715z" />
    <glyph glyph-name="I" unicode="I" horiz-adv-x="360" 
d="M77 715h207v-715h-207v715z" />
    <glyph glyph-name="J" unicode="J" horiz-adv-x="486" 
d="M167 -9q-84 0 -130 24v153q42 -14 87 -14q93 0 93 99v462h206v-464q0 -260 -256 -260z" />
    <glyph glyph-name="K" unicode="K" horiz-adv-x="734" 
d="M73 715h206v-283l215 283h214l-262 -332l276 -383h-237l-206 299v-299h-206v715z" />
    <glyph glyph-name="L" unicode="L" horiz-adv-x="583" 
d="M73 715h206v-556h270v-159h-476v715z" />
    <glyph glyph-name="M" unicode="M" horiz-adv-x="950" 
d="M73 715h267l137 -381l137 381h262v-715h-204v445l-175 -445h-68l-173 445v-445h-183v715z" />
    <glyph glyph-name="N" unicode="N" horiz-adv-x="785" 
d="M73 715h231l229 -403v403h179v-715h-198l-261 449v-449h-180v715z" />
    <glyph glyph-name="O" unicode="O" horiz-adv-x="827" 
d="M414 149q76 0 120 55t44 151v8q0 95 -44.5 148.5t-120.5 53.5q-77 0 -120.5 -53t-43.5 -150v-8q0 -97 44.5 -151t120.5 -54zM410 -12q-170 0 -274 102q-101 99 -101 263v8q0 161 109 264q106 100 269 100q165 0 272 -96q107 -101 107 -263v-8q0 -168 -104 -267
q-106 -103 -278 -103z" />
    <glyph glyph-name="P" unicode="P" horiz-adv-x="660" 
d="M73 715h272q145 0 216 -61.5t71 -177.5v-4q0 -113 -71.5 -172t-206.5 -59h-77v-241h-204v715zM336 381q101 0 101 90v4q0 86 -100 86h-60v-180h59z" />
    <glyph glyph-name="Q" unicode="Q" horiz-adv-x="827" 
d="M501 -3q-37 -9 -91 -9q-170 0 -274 102q-101 99 -101 263v8q0 161 109 264q106 100 269 100q165 0 272 -96q107 -101 107 -263v-8q0 -189 -133 -292l72 -72l-114 -114zM249 354q0 -160 103 -200l115 106l64 -65q47 54 47 160v8q0 95 -44.5 148.5t-120.5 53.5
q-77 0 -120.5 -53t-43.5 -150v-8z" />
    <glyph glyph-name="R" unicode="R" horiz-adv-x="705" 
d="M73 715h280q142 0 216.5 -57t74.5 -170v-4q0 -138 -129 -188l171 -296h-216l-145 256h-48v-256h-204v715zM343 389q103 0 103 87v4q0 43 -25 62t-77 19h-67v-172h66z" />
    <glyph glyph-name="S" unicode="S" horiz-adv-x="655" 
d="M335 -12q-297 0 -308 239h195q5 -45 27 -65q26 -28 86 -28q44 0 68 19t24 52q0 31 -24 47q-20 11 -89 22q-152 18 -210 69q-60 50 -60 159q0 98 74 160q76 63 203 63q263 0 282 -223h-190q-11 77 -92 77q-41 0 -62 -16.5t-21 -44.5q0 -30 23 -45q24 -18 88 -25
q144 -17 205 -60q69 -54 69 -162q0 -102 -75 -168q-80 -70 -213 -70z" />
    <glyph glyph-name="T" unicode="T" horiz-adv-x="626" 
d="M210 557h-185v158h576v-158h-185v-557h-206v557z" />
    <glyph glyph-name="U" unicode="U" horiz-adv-x="772" 
d="M385 -12q-154 0 -235.5 76.5t-81.5 225.5v425h205v-416q0 -79 24.5 -114.5t87.5 -35.5t87.5 35t24.5 118v413h207v-422q0 -154 -85 -230q-82 -75 -234 -75z" />
    <glyph glyph-name="V" unicode="V" horiz-adv-x="736" 
d="M16 715h221l145 -502l146 502h192l-234 -715h-233z" />
    <glyph glyph-name="W" unicode="W" horiz-adv-x="1004" 
d="M18 715h207l92 -446l96 446h182l104 -450l97 450h190l-167 -715h-214l-110 454l-111 -454h-200z" />
    <glyph glyph-name="X" unicode="X" horiz-adv-x="763" 
d="M247 368l-204 347h233l112 -213l110 213h210l-192 -340l221 -375h-234l-133 246l-133 -246h-211z" />
    <glyph glyph-name="Y" unicode="Y" horiz-adv-x="685" 
d="M245 306l-233 409h223l121 -241l121 241h196l-222 -409v-306h-206v306z" />
    <glyph glyph-name="Z" unicode="Z" horiz-adv-x="635" 
d="M17 23l304 535h-265v157h556v-22l-300 -535h285v-158h-580v23z" />
    <glyph glyph-name="bracketleft" unicode="[" horiz-adv-x="417" 
d="M70 776h305v-131h-125v-662h125v-131h-305v924z" />
    <glyph glyph-name="backslash" unicode="\" horiz-adv-x="442" 
d="M2 776h143l317 -924h-142z" />
    <glyph glyph-name="bracketright" unicode="]" horiz-adv-x="417" 
d="M43 -17h124v662h-124v131h304v-924h-304v131z" />
    <glyph glyph-name="asciicircum" unicode="^" horiz-adv-x="539" 
d="M191 715h157l164 -322h-153l-91 176l-91 -176h-150z" />
    <glyph glyph-name="underscore" unicode="_" horiz-adv-x="442" 
d="M3 -75h436v-86h-436v86z" />
    <glyph glyph-name="grave" unicode="`" horiz-adv-x="408" 
d="M42 749h180l53 -166h-128z" />
    <glyph glyph-name="a" unicode="a" horiz-adv-x="586" 
d="M204 -12q-76 0 -123 37q-54 41 -54 120q0 171 278 171h50v12q0 42 -14.5 62.5t-54.5 20.5q-63 0 -71 -62h-168q6 92 75 142q64 46 175 46q112 0 172 -47q64 -50 64 -151v-339h-174v61q-47 -73 -155 -73zM266 109q39 0 64 20.5t25 53.5v32h-47q-55 0 -79.5 -12.5
t-24.5 -44.5q0 -49 62 -49z" />
    <glyph glyph-name="b" unicode="b" horiz-adv-x="651" 
d="M398 -12q-117 0 -162 93v-81h-179v753h179v-308q56 92 163 92q96 0 156 -68q65 -73 65 -203v-8q0 -130 -65 -202q-60 -68 -157 -68zM335 125q103 0 103 133v8q0 68 -27 102t-76 34t-76.5 -35t-27.5 -100v-8q0 -66 27 -100t77 -34z" />
    <glyph glyph-name="c" unicode="c" horiz-adv-x="591" 
d="M304 -12q-122 0 -196 68q-79 71 -79 199v8q0 126 82 202q78 72 197 72q105 0 172 -47q77 -57 84 -168h-168q-12 76 -84 76q-100 0 -100 -133v-8q0 -138 103 -138q80 0 91 87h161q-4 -101 -71.5 -159.5t-191.5 -58.5z" />
    <glyph glyph-name="d" unicode="d" horiz-adv-x="650" 
d="M251 -12q-95 0 -155 66q-65 72 -65 202v8q0 129 64 204q61 69 158 69q110 0 161 -88v304h179v-753h-179v85q-21 -44 -63.5 -70.5t-99.5 -26.5zM314 125q50 0 77.5 34t27.5 100v8q0 135 -103 135t-103 -136v-8q0 -65 26.5 -99t74.5 -34z" />
    <glyph glyph-name="e" unicode="e" horiz-adv-x="606" 
d="M313 -12q-128 0 -203 69q-81 71 -81 198v8q0 123 82 200q79 74 201 74q115 0 187 -65q79 -72 79 -205v-47h-368q4 -52 32.5 -80.5t76.5 -28.5q79 0 91 62h168q-12 -90 -79.5 -137.5t-185.5 -47.5zM404 321q-5 98 -92 98q-86 0 -100 -98h192z" />
    <glyph glyph-name="f" unicode="f" horiz-adv-x="394" 
d="M84 401h-66v122h66v46q0 94 54.5 143t150.5 49q44 0 82 -11v-131q-23 7 -49 7q-60 0 -60 -57v-46h106v-122h-106v-401h-178v401z" />
    <glyph glyph-name="g" unicode="g" horiz-adv-x="649" 
d="M302 -194q-129 0 -198 52q-65 51 -76 142h178q14 -68 96 -68q111 0 111 110v80q-21 -41 -61 -66q-44 -30 -101 -30q-97 0 -157 65q-65 70 -65 186v8q0 113 65 184q62 68 157 68q111 0 162 -88v74h179v-479q0 -117 -74 -177.5t-216 -60.5zM314 158q48 0 76 32t28 88v7
q0 55 -26.5 86.5t-76.5 31.5t-76.5 -32t-26.5 -87v-8q0 -54 27 -86t75 -32z" />
    <glyph glyph-name="h" unicode="h" horiz-adv-x="632" 
d="M57 753h179v-314q50 98 172 98q78 0 124.5 -50t46.5 -147v-340h-179v304q0 88 -75 88q-41 0 -65 -25t-24 -74v-293h-179v753z" />
    <glyph glyph-name="i" unicode="i" horiz-adv-x="303" 
d="M62 523h179v-523h-179v523zM151 573q-42 0 -70 26t-28 66t28 66.5t70 26.5t70.5 -26.5t28.5 -66.5t-28.5 -66t-70.5 -26z" />
    <glyph glyph-name="j" unicode="j" horiz-adv-x="303" 
d="M-2 -54q33 2 48.5 17t15.5 45v515h178v-519q0 -92 -50 -137q-59 -51 -192 -51v130zM151 573q-42 0 -70 26t-28 66t28 66.5t70 26.5t70.5 -26.5t28.5 -66.5t-28.5 -66t-70.5 -26z" />
    <glyph glyph-name="k" unicode="k" horiz-adv-x="585" 
d="M57 753h179v-437l141 207h186l-171 -235l185 -288h-200l-141 229v-229h-179v753z" />
    <glyph glyph-name="l" unicode="l" horiz-adv-x="302" 
d="M62 753h178v-753h-178v753z" />
    <glyph glyph-name="m" unicode="m" horiz-adv-x="939" 
d="M57 523h179v-80q52 94 164 94q105 0 142 -87q64 87 173 87q77 0 123 -48q48 -55 48 -147v-342h-179v312q0 39 -18 59t-49 20q-37 0 -58.5 -23t-21.5 -65v-303h-177v312q0 39 -18 59t-49 20q-37 0 -58.5 -23t-21.5 -65v-303h-179v523z" />
    <glyph glyph-name="n" unicode="n" horiz-adv-x="632" 
d="M57 523h179v-84q50 98 172 98q78 0 124.5 -50t46.5 -147v-340h-179v304q0 88 -75 88q-41 0 -65 -25t-24 -74v-293h-179v523z" />
    <glyph glyph-name="o" unicode="o" horiz-adv-x="630" 
d="M316 121q103 0 103 137v8q0 137 -103 137q-104 0 -104 -135v-8q0 -139 104 -139zM315 -12q-124 0 -203 70q-83 72 -83 197v8q0 123 83 200q79 74 204 74t203 -72q82 -76 82 -197v-8q0 -124 -82 -200q-80 -72 -204 -72z" />
    <glyph glyph-name="p" unicode="p" horiz-adv-x="651" 
d="M57 523h179v-78q56 92 163 92q96 0 156 -68q65 -73 65 -203v-8q0 -130 -65 -202q-60 -68 -157 -68q-116 0 -162 89v-252h-179v698zM335 125q103 0 103 133v8q0 68 -27 102t-76 34t-76.5 -35t-27.5 -100v-8q0 -66 27 -100t77 -34z" />
    <glyph glyph-name="q" unicode="q" horiz-adv-x="650" 
d="M414 81q-22 -41 -64 -67t-99 -26q-95 0 -155 66q-65 72 -65 202v8q0 129 64 204q61 69 158 69q110 0 161 -88v74h179v-698h-179v256zM314 125q50 0 77.5 34t27.5 100v8q0 135 -103 135t-103 -136v-8q0 -65 26.5 -99t74.5 -34z" />
    <glyph glyph-name="r" unicode="r" horiz-adv-x="436" 
d="M57 523h179v-104q47 113 169 111v-167q-169 5 -169 -115v-248h-179v523z" />
    <glyph glyph-name="s" unicode="s" horiz-adv-x="523" 
d="M262 -12q-113 0 -175 45.5t-65 132.5h165q6 -31 21.5 -45t52.5 -14q64 0 64 43q0 19 -21 29t-76 18q-109 14 -152 50q-47 37 -47 118q0 83 67 130q60 42 157 42q103 0 159 -38q62 -42 72 -131h-162q-10 52 -67 52q-28 0 -43.5 -11t-15.5 -30q0 -18 19.5 -27.5t68.5 -15.5
q113 -14 162 -48q53 -40 53 -120q0 -91 -62.5 -135.5t-174.5 -44.5z" />
    <glyph glyph-name="t" unicode="t" horiz-adv-x="397" 
d="M265 -12q-184 0 -184 180v233h-63v122h63v109h179v-109h103v-122h-103v-216q0 -55 53 -55q30 0 51 9v-136q-49 -15 -99 -15z" />
    <glyph glyph-name="u" unicode="u" horiz-adv-x="631" 
d="M229 -12q-79 0 -125 47q-51 51 -51 147v341h179v-312q0 -88 74 -88q89 0 89 99v301h179v-523h-179v81q-47 -93 -166 -93z" />
    <glyph glyph-name="v" unicode="v" horiz-adv-x="601" 
d="M12 523h191l109 -337l107 337h171l-191 -523h-195z" />
    <glyph glyph-name="w" unicode="w" horiz-adv-x="853" 
d="M13 523h187l76 -313l88 313h144l78 -313l85 313h170l-166 -523h-171l-78 292l-81 -292h-174z" />
    <glyph glyph-name="x" unicode="x" 
d="M189 266l-163 257h206l81 -138l79 138h184l-165 -243l181 -280h-206l-93 156l-95 -156h-183z" />
    <glyph glyph-name="y" unicode="y" horiz-adv-x="597" 
d="M221 53l-209 470h194l108 -279l100 279h171l-280 -698h-171z" />
    <glyph glyph-name="z" unicode="z" horiz-adv-x="516" 
d="M14 18l229 370h-205v135h461v-19l-235 -369h223v-135h-473v18z" />
    <glyph glyph-name="braceleft" unicode="{" horiz-adv-x="426" 
d="M384 -148q-154 0 -220.5 56t-46.5 175l15 85q6 37 -18 61t-79 24v125q55 0 79 23.5t18 60.5l-15 84q-20 123 45.5 177t221.5 54v-130q-61 -5 -77 -23q-19 -19 -13 -73l13 -101q7 -51 -20.5 -85.5t-82.5 -47.5q55 -13 82.5 -48t20.5 -86l-13 -101q-7 -54 12.5 -75.5
t77.5 -23.5v-131z" />
    <glyph glyph-name="bar" unicode="|" horiz-adv-x="276" 
d="M75 776h125v-924h-125v924z" />
    <glyph glyph-name="braceright" unicode="}" horiz-adv-x="426" 
d="M42 -17q58 2 77.5 23.5t12.5 75.5l-13 101q-7 51 20.5 86t82.5 48q-55 13 -82.5 47.5t-20.5 85.5l13 101q6 52 -12 73q-18 18 -78 23v130q156 0 220 -53q66 -55 47 -178l-15 -84q-6 -37 18 -60.5t79 -23.5v-125q-55 0 -79 -24t-18 -61l15 -85q20 -119 -46.5 -175
t-220.5 -56v131z" />
    <glyph glyph-name="asciitilde" unicode="~" horiz-adv-x="526" 
d="M32 214q6 102 50 153q39 45 98 45q41 0 91 -22q48 -22 62 -22q39 0 45 46h116q-4 -96 -48 -149q-40 -49 -98 -49q-43 0 -91 22q-50 22 -63 22q-38 0 -46 -46h-116z" />
    <glyph glyph-name="uni00A0" unicode="&#xa0;" horiz-adv-x="258" 
 />
    <glyph glyph-name="exclamdown" unicode="&#xa1;" horiz-adv-x="342" 
d="M171 608q45 0 75.5 -28t30.5 -70t-30.5 -71t-75.5 -29q-42 0 -76 29q-31 31 -31 71q0 42 31 70q29 28 76 28zM272 -117h-202l27 480h148z" />
    <glyph glyph-name="cent" unicode="&#xa2;" horiz-adv-x="603" 
d="M279 -10q-115 11 -179 77q-71 71 -71 188v8q0 114 72 189q70 70 178 82v95h78v-94q93 -8 151 -59q63 -58 70 -154h-164q-8 60 -57 78v-284q61 18 67 90h157q-5 -92 -63.5 -149t-160.5 -67v-125h-78v125zM206 257q0 -113 73 -139v281q-73 -26 -73 -134v-8z" />
    <glyph glyph-name="sterling" unicode="&#xa3;" horiz-adv-x="665" 
d="M38 407h51q-12 46 -12 89q0 106 79 170q74 59 196 59q132 0 204 -66q64 -62 70 -175h-187q-6 45 -25 66t-55 21t-57.5 -23t-21.5 -63q0 -31 7 -78h177v-120h-157q4 -25 4 -56q0 -32 -10 -59q70 -22 91 -22q58 0 63 59h184q-5 -99 -56 -156q-56 -62 -151 -62
q-58 0 -124 26q-70 26 -86 26q-44 0 -49 -43h-151q4 61 30.5 108.5t75.5 67.5q8 26 8 55q0 24 -8 56h-90v120z" />
    <glyph glyph-name="yen" unicode="&#xa5;" horiz-adv-x="654" 
d="M68 365h138l-191 350h222l104 -233l103 233h195l-182 -350h140v-72h-162v-50h162v-72h-162v-171h-205v171h-162v72h162v50h-162v72z" />
    <glyph glyph-name="brokenbar" unicode="&#xa6;" horiz-adv-x="278" 
d="M75 301h125v-449h-125v449zM75 776h125v-404h-125v404z" />
    <glyph glyph-name="section" unicode="&#xa7;" horiz-adv-x="614" 
d="M296 -137q-104 0 -161 48.5t-61 134.5h163q5 -62 63 -62t58 46q0 23 -22 35t-85 27q-112 26 -163 67q-62 45 -62 129q0 97 108 137q-45 48 -45 116q0 84 65 135q61 49 164 49t159.5 -48.5t60.5 -134.5h-162q-3 31 -17 45.5t-45 14.5q-57 0 -57 -46q0 -26 21 -36
q26 -14 83 -27q115 -27 164 -63q64 -46 64 -132q0 -93 -108 -138q44 -44 44 -115q0 -82 -63 -132q-64 -50 -166 -50zM372 224q44 10 44 47q0 24 -23 37q-17 9 -76 28l-74 24q-44 -8 -44 -47q0 -22 21.5 -34t78.5 -30z" />
    <glyph glyph-name="dieresis" unicode="&#xa8;" horiz-adv-x="408" 
d="M97 580q-36 0 -60 24q-25 23 -25 59q0 35 25 60q24 24 60 24t61 -24.5t25 -59.5t-25 -59t-61 -24zM310 580q-36 0 -60.5 24t-24.5 59t24.5 59.5t60.5 24.5t61 -24.5t25 -59.5t-25 -59t-61 -24z" />
    <glyph glyph-name="copyright" unicode="&#xa9;" horiz-adv-x="851" 
d="M432 151q-105 0 -158.5 54t-53.5 149v8q0 90 60 147q57 55 148 55q83 0 132.5 -39t55.5 -118h-128q-6 59 -60 59q-76 0 -76 -104v-7q0 -105 78 -105q62 0 68 61h123q-5 -77 -56 -118.5t-133 -41.5zM424 31q137 0 228 91q95 92 95 237q0 142 -93 235q-93 90 -228 90
q-137 0 -228 -91q-94 -91 -94 -236q0 -146 95 -236q90 -90 225 -90zM424 -20q-160 0 -271 109q-112 109 -112 268q0 158 112 268t273 110q163 0 274 -109q110 -110 110 -267q0 -160 -112 -270q-111 -109 -274 -109z" />
    <glyph glyph-name="ordfeminine" unicode="&#xaa;" horiz-adv-x="491" 
d="M172 287q-62 0 -98 30q-43 32 -43 96q0 71 54.5 101.5t165.5 30.5h40v15q0 27 -10 40.5t-38 13.5q-43 0 -49 -44h-148q5 74 59 113.5t146 39.5q196 0 196 -158v-267h-153v47q-39 -58 -122 -58zM230 393q27 0 44 13.5t17 36.5v23h-36q-69 0 -69 -39q0 -34 44 -34z" />
    <glyph glyph-name="guillemotleft" unicode="&#xab;" horiz-adv-x="488" 
d="M35 261l124 191h115l-119 -191l119 -191h-115zM215 261l124 191h115l-119 -191l119 -191h-115z" />
    <glyph glyph-name="uni00AD" unicode="&#xad;" horiz-adv-x="390" 
d="M55 353h280v-135h-280v135z" />
    <glyph glyph-name="registered" unicode="&#xae;" horiz-adv-x="525" 
d="M177 615h90q91 0 91 -71v-1q0 -40 -37 -58l50 -89h-72l-40 75h-12v-75h-70v219zM262 516q28 0 28 23v1q0 22 -28 22h-15v-46h15zM262 319q80 0 132 52q54 52 54 132q0 79 -52 133q-53 51 -134 51t-133 -52t-52 -133q0 -80 54 -132q51 -51 131 -51zM262 281q-96 0 -162 64
q-67 64 -67 157t67 158q65 65 162 65t164 -65q66 -64 66 -157t-67 -158q-66 -64 -163 -64z" />
    <glyph glyph-name="macron" unicode="&#xaf;" horiz-adv-x="408" 
d="M50 712h307v-100h-307v100z" />
    <glyph glyph-name="degree" unicode="&#xb0;" horiz-adv-x="461" 
d="M231 451q39 0 65 29t26 71q0 45 -25.5 74t-65.5 29q-41 0 -67 -29t-26 -74q0 -43 26 -71.5t67 -28.5zM231 381q-74 0 -125 51q-52 50 -52 119q0 71 52 123q52 50 125 50q72 0 124 -50q52 -52 52 -123q0 -69 -52 -119q-51 -51 -124 -51z" />
    <glyph glyph-name="plusminus" unicode="&#xb1;" horiz-adv-x="578" 
d="M217 341h-176v131h176v164h144v-164h176v-131h-176v-165h-144v165zM41 118h498v-118h-498v118z" />
    <glyph glyph-name="twosuperior" unicode="&#xb2;" horiz-adv-x="361" 
d="M9 356l128 133q37 37 52.5 58.5t15.5 43.5q0 32 -31 32q-34 0 -40 -52h-120q2 73 46 111t120 38t115.5 -33t39.5 -87q0 -62 -77 -132l-35 -34h113v-95h-327v17z" />
    <glyph glyph-name="threesuperior" unicode="&#xb3;" horiz-adv-x="382" 
d="M190 332q-84 0 -127 38q-39 35 -41 96h116q5 -42 45 -42q39 0 39 34t-45 34h-30v74h30q45 0 45 34q0 29 -34 29q-36 0 -42 -38h-116q5 60 45.5 94.5t115.5 34.5t115.5 -27t40.5 -77q0 -62 -68 -81q34 -5 55 -27t21 -55q0 -56 -42 -88.5t-123 -32.5z" />
    <glyph glyph-name="acute" unicode="&#xb4;" horiz-adv-x="408" 
d="M186 749h180l-105 -166h-128z" />
    <glyph glyph-name="mu" unicode="&#xb5;" horiz-adv-x="625" 
d="M53 523h179v-317q0 -86 74 -86q89 0 89 99v304h179v-523h-176v71q-26 -71 -97 -71q-45 0 -69 37v-212h-179v698z" />
    <glyph glyph-name="paragraph" unicode="&#xb6;" horiz-adv-x="559" 
d="M260 329h-8q-103 0 -161.5 48t-58.5 141q0 98 62 149q58 48 158 48h233v-815h-76v751h-74v-751h-75v429z" />
    <glyph glyph-name="periodcentered" unicode="&#xb7;" horiz-adv-x="307" 
d="M152 225q-46 0 -73 30q-29 26 -29 71q0 43 29 72t73 29q43 0 75 -29q30 -30 30 -72q0 -44 -30 -71q-30 -30 -75 -30z" />
    <glyph glyph-name="cedilla" unicode="&#xb8;" horiz-adv-x="408" 
d="M208 -226q-54 0 -87 24t-40 69h84q7 -28 36 -28q15 0 23.5 8.5t8.5 21.5q0 31 -33 31q-17 0 -32 -11l-39 38l48 73h72l-31 -45q47 5 78 -17q33 -21 33 -69q0 -45 -33 -70t-88 -25z" />
    <glyph glyph-name="onesuperior" unicode="&#xb9;" horiz-adv-x="294" 
d="M106 587l-82 -46v107l102 67h114v-376h-134v248z" />
    <glyph glyph-name="ordmasculine" unicode="&#xba;" horiz-adv-x="530" 
d="M266 403q70 0 70 100v6q0 98 -70 98q-72 0 -72 -96v-6q0 -102 72 -102zM265 287q-101 0 -164 55q-67 59 -67 157v6q0 100 67 160q64 58 165 58q99 0 163 -56q67 -60 67 -157v-6q0 -100 -67 -160q-63 -57 -164 -57z" />
    <glyph glyph-name="guillemotright" unicode="&#xbb;" horiz-adv-x="488" 
d="M154 261l-120 191h115l125 -191l-125 -191h-115zM334 261l-120 191h115l125 -191l-125 -191h-115z" />
    <glyph glyph-name="onequarter" unicode="&#xbc;" horiz-adv-x="803" 
d="M109 587l-82 -46v107l102 67h114v-376h-134v248zM630 715h94l-560 -715h-94zM600 70h-187v49l156 257h159v-219h48v-87h-48v-70h-128v70zM604 157v132l-77 -132h77z" />
    <glyph glyph-name="onehalf" unicode="&#xbd;" horiz-adv-x="815" 
d="M109 587l-82 -46v107l102 67h114v-376h-134v248zM617 715h94l-560 -715h-94zM459 17l128 133q37 37 52.5 58.5t15.5 43.5q0 32 -31 32q-34 0 -40 -52h-120q2 73 46 111t120 38t115.5 -33t39.5 -87q0 -62 -77 -132l-35 -34h113v-95h-327v17z" />
    <glyph glyph-name="threequarters" unicode="&#xbe;" horiz-adv-x="834" 
d="M193 332q-84 0 -127 38q-39 35 -41 96h116q5 -42 45 -42q39 0 39 34t-45 34h-30v74h30q45 0 45 34q0 29 -34 29q-36 0 -42 -38h-116q5 60 45.5 94.5t115.5 34.5t115.5 -27t40.5 -77q0 -62 -68 -81q34 -5 55 -27t21 -55q0 -56 -42 -88.5t-123 -32.5zM678 715h94l-560 -715
h-94zM629 70h-187v49l156 257h159v-219h48v-87h-48v-70h-128v70zM633 157v132l-77 -132h77z" />
    <glyph glyph-name="questiondown" unicode="&#xbf;" horiz-adv-x="564" 
d="M391 345q0 -51 -32 -96q-14 -20 -66 -72q-33 -31 -49 -52.5t-16 -45.5q0 -60 61 -60q32 0 53 23t26 65h174q-4 -113 -78 -174q-71 -59 -189 -59q-116 0 -178.5 49t-62.5 139q0 79 73 150q12 12 37 35t35 33q38 38 43 69v15h169v-19zM306 609q48 0 76 -28q32 -27 32 -70
q0 -41 -32 -71q-32 -29 -76 -29q-41 0 -75 29q-31 31 -31 71q0 42 31 70q29 28 75 28z" />
    <glyph glyph-name="Agrave" unicode="&#xc0;" horiz-adv-x="755" 
d="M246 715h265l227 -715h-217l-38 133h-237l-38 -133h-191zM286 274h157l-78 275zM216 905h186l49 -146h-135z" />
    <glyph glyph-name="Aacute" unicode="&#xc1;" horiz-adv-x="755" 
d="M246 715h265l227 -715h-217l-38 133h-237l-38 -133h-191zM286 274h157l-78 275zM350 905h187l-103 -146h-135z" />
    <glyph glyph-name="Acircumflex" unicode="&#xc2;" horiz-adv-x="755" 
d="M246 715h265l227 -715h-217l-38 133h-237l-38 -133h-191zM286 274h157l-78 275zM302 905h150l110 -146h-130l-59 49l-58 -49h-127z" />
    <glyph glyph-name="Atilde" unicode="&#xc3;" horiz-adv-x="755" 
d="M246 715h265l227 -715h-217l-38 133h-237l-38 -133h-191zM286 274h157l-78 275zM440 758q-30 0 -70 17t-50 17q-12 0 -20.5 -9t-10.5 -24h-102q6 78 41 116q31 37 81 37q29 0 69 -16q36 -17 52 -17q25 0 32 32h101q-6 -74 -41 -116q-34 -37 -82 -37z" />
    <glyph glyph-name="Adieresis" unicode="&#xc4;" horiz-adv-x="755" 
d="M246 715h265l227 -715h-217l-38 133h-237l-38 -133h-191zM286 274h157l-78 275zM263 758q-36 0 -60 24q-25 23 -25 59q0 35 25 59.5t60 24.5q36 0 61 -24.5t25 -59.5t-25 -59t-61 -24zM486 758q-36 0 -60.5 24t-24.5 59t24.5 59.5t60.5 24.5t61 -24.5t25 -59.5t-25 -59
t-61 -24z" />
    <glyph glyph-name="Aring" unicode="&#xc5;" horiz-adv-x="755" 
d="M246 715h265l227 -715h-217l-38 133h-237l-38 -133h-191zM286 274h157l-78 275zM375 810q20 0 33 14t13 36q0 23 -12.5 36.5t-33.5 13.5t-33.5 -13.5t-12.5 -36.5q0 -22 12.5 -36t33.5 -14zM375 744q-49 0 -84 35q-36 31 -36 81q0 49 36 82q34 34 84 34q48 0 85 -34
q35 -35 35 -82q0 -48 -35 -81q-38 -35 -85 -35z" />
    <glyph glyph-name="AE" unicode="&#xc6;" horiz-adv-x="1010" 
d="M336 715h622v-158h-283v-123h223v-146h-223v-130h299v-158h-504v146h-197l-63 -146h-195zM332 284h138v273h-20z" />
    <glyph glyph-name="Ccedilla" unicode="&#xc7;" horiz-adv-x="767" 
d="M383 -226q-54 0 -87 24t-40 69h84q7 -28 36 -28q15 0 23.5 8.5t8.5 21.5q0 31 -33 31q-17 0 -32 -11l-39 38l42 65q-152 16 -233 114q-77 93 -77 247v8q0 163 104 265q102 100 261 100q141 0 230 -66q90 -71 102 -209h-211q-12 113 -120 113q-70 0 -110 -52.5t-40 -149.5
v-8q0 -97 39.5 -149.5t113.5 -52.5q117 0 133 117h204q-10 -133 -100 -208q-85 -71 -227 -73l-22 -33q47 5 78 -17q33 -21 33 -69q0 -45 -33 -70t-88 -25z" />
    <glyph glyph-name="Egrave" unicode="&#xc8;" horiz-adv-x="620" 
d="M73 715h494v-158h-290v-123h231v-146h-231v-130h306v-158h-510v715zM168 905h186l49 -146h-135z" />
    <glyph glyph-name="Eacute" unicode="&#xc9;" horiz-adv-x="620" 
d="M73 715h494v-158h-290v-123h231v-146h-231v-130h306v-158h-510v715zM302 905h187l-103 -146h-135z" />
    <glyph glyph-name="Ecircumflex" unicode="&#xca;" horiz-adv-x="620" 
d="M73 715h494v-158h-290v-123h231v-146h-231v-130h306v-158h-510v715zM254 905h150l110 -146h-130l-59 49l-58 -49h-127z" />
    <glyph glyph-name="Edieresis" unicode="&#xcb;" horiz-adv-x="620" 
d="M73 715h494v-158h-290v-123h231v-146h-231v-130h306v-158h-510v715zM215 758q-36 0 -60 24q-25 23 -25 59q0 35 25 59.5t60 24.5q36 0 61 -24.5t25 -59.5t-25 -59t-61 -24zM438 758q-36 0 -60.5 24t-24.5 59t24.5 59.5t60.5 24.5t61 -24.5t25 -59.5t-25 -59t-61 -24z" />
    <glyph glyph-name="Igrave" unicode="&#xcc;" horiz-adv-x="360" 
d="M77 715h207v-715h-207v715zM21 905h186l49 -146h-135z" />
    <glyph glyph-name="Iacute" unicode="&#xcd;" horiz-adv-x="360" 
d="M77 715h207v-715h-207v715zM155 905h187l-103 -146h-135z" />
    <glyph glyph-name="Icircumflex" unicode="&#xce;" horiz-adv-x="360" 
d="M77 715h207v-715h-207v715zM107 905h150l110 -146h-130l-59 49l-58 -49h-127z" />
    <glyph glyph-name="Idieresis" unicode="&#xcf;" horiz-adv-x="360" 
d="M77 715h207v-715h-207v715zM68 758q-36 0 -60 24q-25 23 -25 59q0 35 25 59.5t60 24.5q36 0 61 -24.5t25 -59.5t-25 -59t-61 -24zM291 758q-36 0 -60.5 24t-24.5 59t24.5 59.5t60.5 24.5t61 -24.5t25 -59.5t-25 -59t-61 -24z" />
    <glyph glyph-name="Eth" unicode="&#xd0;" horiz-adv-x="782" 
d="M33 428h59v287h259q189 0 286 -90.5t97 -258.5v-8q0 -170 -97 -262q-98 -96 -286 -96h-259v290h-59v138zM345 158q90 0 132.5 48.5t42.5 148.5v8q0 103 -41.5 148.5t-135.5 45.5h-50v-129h120v-138h-120v-132h52z" />
    <glyph glyph-name="Ntilde" unicode="&#xd1;" horiz-adv-x="785" 
d="M73 715h231l229 -403v403h179v-715h-198l-261 449v-449h-180v715zM475 758q-30 0 -70 17t-50 17q-12 0 -20.5 -9t-10.5 -24h-102q6 78 41 116q31 37 81 37q29 0 69 -16q36 -17 52 -17q25 0 32 32h101q-6 -74 -41 -116q-34 -37 -82 -37z" />
    <glyph glyph-name="Ograve" unicode="&#xd2;" horiz-adv-x="827" 
d="M414 149q76 0 120 55t44 151v8q0 95 -44.5 148.5t-120.5 53.5q-77 0 -120.5 -53t-43.5 -150v-8q0 -97 44.5 -151t120.5 -54zM410 -12q-170 0 -274 102q-101 99 -101 263v8q0 161 109 264q106 100 269 100q165 0 272 -96q107 -101 107 -263v-8q0 -168 -104 -267
q-106 -103 -278 -103zM253 905h186l49 -146h-135z" />
    <glyph glyph-name="Oacute" unicode="&#xd3;" horiz-adv-x="827" 
d="M414 149q76 0 120 55t44 151v8q0 95 -44.5 148.5t-120.5 53.5q-77 0 -120.5 -53t-43.5 -150v-8q0 -97 44.5 -151t120.5 -54zM410 -12q-170 0 -274 102q-101 99 -101 263v8q0 161 109 264q106 100 269 100q165 0 272 -96q107 -101 107 -263v-8q0 -168 -104 -267
q-106 -103 -278 -103zM387 905h187l-103 -146h-135z" />
    <glyph glyph-name="Ocircumflex" unicode="&#xd4;" horiz-adv-x="827" 
d="M414 149q76 0 120 55t44 151v8q0 95 -44.5 148.5t-120.5 53.5q-77 0 -120.5 -53t-43.5 -150v-8q0 -97 44.5 -151t120.5 -54zM410 -12q-170 0 -274 102q-101 99 -101 263v8q0 161 109 264q106 100 269 100q165 0 272 -96q107 -101 107 -263v-8q0 -168 -104 -267
q-106 -103 -278 -103zM339 905h150l110 -146h-130l-59 49l-58 -49h-127z" />
    <glyph glyph-name="Otilde" unicode="&#xd5;" horiz-adv-x="827" 
d="M414 149q76 0 120 55t44 151v8q0 95 -44.5 148.5t-120.5 53.5q-77 0 -120.5 -53t-43.5 -150v-8q0 -97 44.5 -151t120.5 -54zM410 -12q-170 0 -274 102q-101 99 -101 263v8q0 161 109 264q106 100 269 100q165 0 272 -96q107 -101 107 -263v-8q0 -168 -104 -267
q-106 -103 -278 -103zM477 758q-30 0 -70 17t-50 17q-12 0 -20.5 -9t-10.5 -24h-102q6 78 41 116q31 37 81 37q29 0 69 -16q36 -17 52 -17q25 0 32 32h101q-6 -74 -41 -116q-34 -37 -82 -37z" />
    <glyph glyph-name="Odieresis" unicode="&#xd6;" horiz-adv-x="827" 
d="M414 149q76 0 120 55t44 151v8q0 95 -44.5 148.5t-120.5 53.5q-77 0 -120.5 -53t-43.5 -150v-8q0 -97 44.5 -151t120.5 -54zM410 -12q-170 0 -274 102q-101 99 -101 263v8q0 161 109 264q106 100 269 100q165 0 272 -96q107 -101 107 -263v-8q0 -168 -104 -267
q-106 -103 -278 -103zM300 758q-36 0 -60 24q-25 23 -25 59q0 35 25 59.5t60 24.5q36 0 61 -24.5t25 -59.5t-25 -59t-61 -24zM523 758q-36 0 -60.5 24t-24.5 59t24.5 59.5t60.5 24.5t61 -24.5t25 -59.5t-25 -59t-61 -24z" />
    <glyph glyph-name="multiply" unicode="&#xd7;" horiz-adv-x="579" 
d="M43 184l152 152l-155 154l95 96l154 -156l153 153l94 -95l-153 -152l155 -154l-95 -95l-154 155l-152 -152z" />
    <glyph glyph-name="Oslash" unicode="&#xd8;" horiz-adv-x="827" 
d="M36 26l80 85q-81 98 -81 242v8q0 161 109 264q106 100 269 100q129 0 227 -62l73 77l59 -58l-69 -73q89 -95 89 -243v-8q0 -168 -104 -267q-106 -103 -278 -103q-138 0 -233 67l-82 -87zM414 149q77 0 121.5 54.5t44.5 151.5v8q0 58 -16 99l-260 -273q43 -40 110 -40z
M247 354q0 -51 13 -92l255 270q-39 33 -102 33q-78 0 -122 -53t-44 -150v-8z" />
    <glyph glyph-name="Ugrave" unicode="&#xd9;" horiz-adv-x="772" 
d="M385 -12q-154 0 -235.5 76.5t-81.5 225.5v425h205v-416q0 -79 24.5 -114.5t87.5 -35.5t87.5 35t24.5 118v413h207v-422q0 -154 -85 -230q-82 -75 -234 -75zM225 905h186l49 -146h-135z" />
    <glyph glyph-name="Uacute" unicode="&#xda;" horiz-adv-x="772" 
d="M385 -12q-154 0 -235.5 76.5t-81.5 225.5v425h205v-416q0 -79 24.5 -114.5t87.5 -35.5t87.5 35t24.5 118v413h207v-422q0 -154 -85 -230q-82 -75 -234 -75zM359 905h187l-103 -146h-135z" />
    <glyph glyph-name="Ucircumflex" unicode="&#xdb;" horiz-adv-x="772" 
d="M385 -12q-154 0 -235.5 76.5t-81.5 225.5v425h205v-416q0 -79 24.5 -114.5t87.5 -35.5t87.5 35t24.5 118v413h207v-422q0 -154 -85 -230q-82 -75 -234 -75zM311 905h150l110 -146h-130l-59 49l-58 -49h-127z" />
    <glyph glyph-name="Udieresis" unicode="&#xdc;" horiz-adv-x="772" 
d="M385 -12q-154 0 -235.5 76.5t-81.5 225.5v425h205v-416q0 -79 24.5 -114.5t87.5 -35.5t87.5 35t24.5 118v413h207v-422q0 -154 -85 -230q-82 -75 -234 -75zM272 758q-36 0 -60 24q-25 23 -25 59q0 35 25 59.5t60 24.5q36 0 61 -24.5t25 -59.5t-25 -59t-61 -24zM495 758
q-36 0 -60.5 24t-24.5 59t24.5 59.5t60.5 24.5t61 -24.5t25 -59.5t-25 -59t-61 -24z" />
    <glyph glyph-name="Yacute" unicode="&#xdd;" horiz-adv-x="685" 
d="M245 306l-233 409h223l121 -241l121 241h196l-222 -409v-306h-206v306zM324 905h187l-103 -146h-135z" />
    <glyph glyph-name="Thorn" unicode="&#xde;" horiz-adv-x="660" 
d="M73 715h204v-117h68q147 0 217 -56.5t70 -173.5v-4q0 -111 -71.5 -170t-206.5 -59h-77v-135h-204v715zM336 275q101 0 101 88v4q0 46 -25 65.5t-75 19.5h-60v-177h59z" />
    <glyph glyph-name="germandbls" unicode="&#xdf;" horiz-adv-x="644" 
d="M385 -10q-54 0 -96 11v135q27 -9 49 -9q40 0 67 24q29 29 29 92v6q0 62 -39 93q-37 25 -100 25v133q47 0 73 24q22 22 22 54v3q0 34 -19.5 53t-55.5 19t-57.5 -25t-21.5 -69v-559h-179v544q0 114 80 174q71 53 189 53q110 0 172 -47t62 -136v-2q0 -50 -33 -88t-86 -54
q76 -18 123 -66q52 -57 52 -141v-7q0 -116 -65 -181q-60 -59 -166 -59z" />
    <glyph glyph-name="agrave" unicode="&#xe0;" horiz-adv-x="586" 
d="M204 -12q-76 0 -123 37q-54 41 -54 120q0 171 278 171h50v12q0 42 -14.5 62.5t-54.5 20.5q-63 0 -71 -62h-168q6 92 75 142q64 46 175 46q112 0 172 -47q64 -50 64 -151v-339h-174v61q-47 -73 -155 -73zM266 109q39 0 64 20.5t25 53.5v32h-47q-55 0 -79.5 -12.5
t-24.5 -44.5q0 -49 62 -49zM131 749h180l53 -166h-128z" />
    <glyph glyph-name="aacute" unicode="&#xe1;" horiz-adv-x="586" 
d="M204 -12q-76 0 -123 37q-54 41 -54 120q0 171 278 171h50v12q0 42 -14.5 62.5t-54.5 20.5q-63 0 -71 -62h-168q6 92 75 142q64 46 175 46q112 0 172 -47q64 -50 64 -151v-339h-174v61q-47 -73 -155 -73zM266 109q39 0 64 20.5t25 53.5v32h-47q-55 0 -79.5 -12.5
t-24.5 -44.5q0 -49 62 -49zM279 749h180l-105 -166h-128z" />
    <glyph glyph-name="acircumflex" unicode="&#xe2;" horiz-adv-x="586" 
d="M204 -12q-76 0 -123 37q-54 41 -54 120q0 171 278 171h50v12q0 42 -14.5 62.5t-54.5 20.5q-63 0 -71 -62h-168q6 92 75 142q64 46 175 46q112 0 172 -47q64 -50 64 -151v-339h-174v61q-47 -73 -155 -73zM266 109q39 0 64 20.5t25 53.5v32h-47q-55 0 -79.5 -12.5
t-24.5 -44.5q0 -49 62 -49zM229 748h128l118 -163h-125l-61 56l-60 -56h-123z" />
    <glyph glyph-name="atilde" unicode="&#xe3;" horiz-adv-x="586" 
d="M204 -12q-76 0 -123 37q-54 41 -54 120q0 171 278 171h50v12q0 42 -14.5 62.5t-54.5 20.5q-63 0 -71 -62h-168q6 92 75 142q64 46 175 46q112 0 172 -47q64 -50 64 -151v-339h-174v61q-47 -73 -155 -73zM266 109q39 0 64 20.5t25 53.5v32h-47q-55 0 -79.5 -12.5
t-24.5 -44.5q0 -49 62 -49zM359 587q-32 0 -68 17q-38 16 -49 16q-26 0 -31 -32h-97q5 77 35.5 116.5t79.5 39.5q26 0 68 -17q40 -17 51 -17q25 0 32 32h97q-6 -75 -38.5 -115t-79.5 -40z" />
    <glyph glyph-name="adieresis" unicode="&#xe4;" horiz-adv-x="586" 
d="M204 -12q-76 0 -123 37q-54 41 -54 120q0 171 278 171h50v12q0 42 -14.5 62.5t-54.5 20.5q-63 0 -71 -62h-168q6 92 75 142q64 46 175 46q112 0 172 -47q64 -50 64 -151v-339h-174v61q-47 -73 -155 -73zM266 109q39 0 64 20.5t25 53.5v32h-47q-55 0 -79.5 -12.5
t-24.5 -44.5q0 -49 62 -49zM188 580q-36 0 -60 24q-25 23 -25 59q0 35 25 60q24 24 60 24t61 -24.5t25 -59.5t-25 -59t-61 -24zM401 580q-36 0 -60.5 24t-24.5 59t24.5 59.5t60.5 24.5t61 -24.5t25 -59.5t-25 -59t-61 -24z" />
    <glyph glyph-name="aring" unicode="&#xe5;" horiz-adv-x="586" 
d="M204 -12q-76 0 -123 37q-54 41 -54 120q0 171 278 171h50v12q0 42 -14.5 62.5t-54.5 20.5q-63 0 -71 -62h-168q6 92 75 142q64 46 175 46q112 0 172 -47q64 -50 64 -151v-339h-174v61q-47 -73 -155 -73zM266 109q39 0 64 20.5t25 53.5v32h-47q-55 0 -79.5 -12.5
t-24.5 -44.5q0 -49 62 -49zM295 642q20 0 33 14t13 36q0 23 -13 37t-33 14t-33 -14t-13 -37q0 -22 13 -36t33 -14zM295 578q-49 0 -83 34q-35 33 -35 80q0 46 35 81q34 34 83 34t83 -34q35 -35 35 -81q0 -47 -35 -80q-34 -34 -83 -34z" />
    <glyph glyph-name="ae" unicode="&#xe6;" horiz-adv-x="916" 
d="M631 -12q-141 0 -203 91q-69 -91 -207 -91q-84 0 -136 37q-58 40 -58 120q0 175 277 173h53v9q0 42 -15 63t-55 21q-63 0 -72 -62h-168q6 91 74 142q64 46 169 46q121 0 169 -62q67 62 167 62q114 0 184 -64q78 -71 78 -207v-46h-360q8 -109 104 -109q77 0 89 62h167
q-12 -90 -77.5 -137.5t-179.5 -47.5zM715 318q-6 101 -89 101q-40 0 -66 -26.5t-31 -74.5h186zM267 109q42 0 66 20t24 54v34h-50q-53 1 -78 -11t-25 -44q0 -53 63 -53z" />
    <glyph glyph-name="ccedilla" unicode="&#xe7;" horiz-adv-x="591" 
d="M285 -226q-54 0 -87 24t-40 69h84q7 -28 36 -28q15 0 23.5 8.5t8.5 21.5q0 31 -33 31q-17 0 -32 -11l-39 38l43 65q-99 14 -158 80q-62 70 -62 183v8q0 126 82 202q78 72 197 72q105 0 172 -47q77 -57 84 -168h-168q-12 76 -84 76q-100 0 -100 -133v-8q0 -138 103 -138
q80 0 91 87h161q-4 -99 -67.5 -156.5t-181.5 -61.5l-23 -33q47 5 78 -17q33 -21 33 -69q0 -45 -33 -70t-88 -25z" />
    <glyph glyph-name="egrave" unicode="&#xe8;" horiz-adv-x="606" 
d="M313 -12q-128 0 -203 69q-81 71 -81 198v8q0 123 82 200q79 74 201 74q115 0 187 -65q79 -72 79 -205v-47h-368q4 -52 32.5 -80.5t76.5 -28.5q79 0 91 62h168q-12 -90 -79.5 -137.5t-185.5 -47.5zM404 321q-5 98 -92 98q-86 0 -100 -98h192zM143 749h180l53 -166h-128z
" />
    <glyph glyph-name="eacute" unicode="&#xe9;" horiz-adv-x="606" 
d="M313 -12q-128 0 -203 69q-81 71 -81 198v8q0 123 82 200q79 74 201 74q115 0 187 -65q79 -72 79 -205v-47h-368q4 -52 32.5 -80.5t76.5 -28.5q79 0 91 62h168q-12 -90 -79.5 -137.5t-185.5 -47.5zM404 321q-5 98 -92 98q-86 0 -100 -98h192zM291 749h180l-105 -166h-128z
" />
    <glyph glyph-name="ecircumflex" unicode="&#xea;" horiz-adv-x="606" 
d="M313 -12q-128 0 -203 69q-81 71 -81 198v8q0 123 82 200q79 74 201 74q115 0 187 -65q79 -72 79 -205v-47h-368q4 -52 32.5 -80.5t76.5 -28.5q79 0 91 62h168q-12 -90 -79.5 -137.5t-185.5 -47.5zM404 321q-5 98 -92 98q-86 0 -100 -98h192zM245 748h128l118 -163h-125
l-61 56l-60 -56h-123z" />
    <glyph glyph-name="edieresis" unicode="&#xeb;" horiz-adv-x="606" 
d="M313 -12q-128 0 -203 69q-81 71 -81 198v8q0 123 82 200q79 74 201 74q115 0 187 -65q79 -72 79 -205v-47h-368q4 -52 32.5 -80.5t76.5 -28.5q79 0 91 62h168q-12 -90 -79.5 -137.5t-185.5 -47.5zM404 321q-5 98 -92 98q-86 0 -100 -98h192zM200 580q-36 0 -60 24
q-25 23 -25 59q0 35 25 60q24 24 60 24t61 -24.5t25 -59.5t-25 -59t-61 -24zM413 580q-36 0 -60.5 24t-24.5 59t24.5 59.5t60.5 24.5t61 -24.5t25 -59.5t-25 -59t-61 -24z" />
    <glyph glyph-name="igrave" unicode="&#xec;" horiz-adv-x="303" 
d="M62 523h179v-523h-179v523zM-12 749h180l53 -166h-128z" />
    <glyph glyph-name="iacute" unicode="&#xed;" horiz-adv-x="303" 
d="M62 523h179v-523h-179v523zM136 749h180l-105 -166h-128z" />
    <glyph glyph-name="icircumflex" unicode="&#xee;" horiz-adv-x="303" 
d="M62 523h179v-523h-179v523zM90 748h128l118 -163h-125l-61 56l-60 -56h-123z" />
    <glyph glyph-name="idieresis" unicode="&#xef;" horiz-adv-x="303" 
d="M46 580q-35 0 -61 24q-24 24 -24 59q0 34 24 60q26 24 61 24q36 0 61 -24.5t25 -59.5t-25 -59t-61 -24zM256 580q-36 0 -60 24q-25 23 -25 59q0 35 25 60q24 24 60 24t61 -24.5t25 -59.5t-25 -59t-61 -24zM62 523h179v-523h-179v523z" />
    <glyph glyph-name="eth" unicode="&#xf0;" horiz-adv-x="631" 
d="M121 618l109 40q-50 44 -120 95h198q28 -18 63 -42l106 39l24 -63l-70 -26q74 -69 118 -151q52 -98 52 -205v-22q0 -136 -80 -216q-79 -79 -209 -79q-124 0 -202 72q-81 75 -81 203v11q0 115 73 188q69 67 161 67q38 0 61 -10t47 -34q-26 56 -87 122l-139 -51zM316 121
q103 0 103 137v8q0 137 -103 137q-50 0 -77 -34.5t-27 -100.5v-8q0 -139 104 -139z" />
    <glyph glyph-name="ntilde" unicode="&#xf1;" horiz-adv-x="632" 
d="M57 523h179v-84q50 98 172 98q78 0 124.5 -50t46.5 -147v-340h-179v304q0 88 -75 88q-41 0 -65 -25t-24 -74v-293h-179v523zM381 587q-32 0 -68 17q-38 16 -49 16q-26 0 -31 -32h-97q5 77 35.5 116.5t79.5 39.5q25 0 68 -17q40 -17 51 -17q25 0 32 32h97
q-6 -75 -38.5 -115t-79.5 -40z" />
    <glyph glyph-name="ograve" unicode="&#xf2;" horiz-adv-x="630" 
d="M316 121q103 0 103 137v8q0 137 -103 137q-104 0 -104 -135v-8q0 -139 104 -139zM315 -12q-124 0 -203 70q-83 72 -83 197v8q0 123 83 200q79 74 204 74t203 -72q82 -76 82 -197v-8q0 -124 -82 -200q-80 -72 -204 -72zM151 749h180l53 -166h-128z" />
    <glyph glyph-name="oacute" unicode="&#xf3;" horiz-adv-x="630" 
d="M316 121q103 0 103 137v8q0 137 -103 137q-104 0 -104 -135v-8q0 -139 104 -139zM315 -12q-124 0 -203 70q-83 72 -83 197v8q0 123 83 200q79 74 204 74t203 -72q82 -76 82 -197v-8q0 -124 -82 -200q-80 -72 -204 -72zM299 749h180l-105 -166h-128z" />
    <glyph glyph-name="ocircumflex" unicode="&#xf4;" horiz-adv-x="630" 
d="M316 121q103 0 103 137v8q0 137 -103 137q-104 0 -104 -135v-8q0 -139 104 -139zM315 -12q-124 0 -203 70q-83 72 -83 197v8q0 123 83 200q79 74 204 74t203 -72q82 -76 82 -197v-8q0 -124 -82 -200q-80 -72 -204 -72zM253 748h128l118 -163h-125l-61 56l-60 -56h-123z
" />
    <glyph glyph-name="otilde" unicode="&#xf5;" horiz-adv-x="630" 
d="M316 121q103 0 103 137v8q0 137 -103 137q-104 0 -104 -135v-8q0 -139 104 -139zM315 -12q-124 0 -203 70q-83 72 -83 197v8q0 123 83 200q79 74 204 74t203 -72q82 -76 82 -197v-8q0 -124 -82 -200q-80 -72 -204 -72zM379 587q-32 0 -68 17q-38 16 -49 16q-26 0 -31 -32
h-97q5 77 35.5 116.5t79.5 39.5q25 0 68 -17q40 -17 51 -17q25 0 32 32h97q-6 -75 -38.5 -115t-79.5 -40z" />
    <glyph glyph-name="odieresis" unicode="&#xf6;" horiz-adv-x="630" 
d="M316 121q103 0 103 137v8q0 137 -103 137q-104 0 -104 -135v-8q0 -139 104 -139zM315 -12q-124 0 -203 70q-83 72 -83 197v8q0 123 83 200q79 74 204 74t203 -72q82 -76 82 -197v-8q0 -124 -82 -200q-80 -72 -204 -72zM208 580q-36 0 -60 24q-25 23 -25 59q0 35 25 60
q24 24 60 24t61 -24.5t25 -59.5t-25 -59t-61 -24zM421 580q-36 0 -60.5 24t-24.5 59t24.5 59.5t60.5 24.5t61 -24.5t25 -59.5t-25 -59t-61 -24z" />
    <glyph glyph-name="divide" unicode="&#xf7;" horiz-adv-x="580" 
d="M290 43q-39 0 -66.5 26.5t-27.5 65.5q0 38 28 66q27 27 66 27q38 0 67 -27q27 -29 27 -66q0 -39 -27.5 -65.5t-66.5 -26.5zM41 402h498v-124h-498v124zM290 452q-40 0 -66 28q-28 26 -28 65t27.5 65.5t66.5 26.5t66.5 -26.5t27.5 -65.5q0 -38 -27 -65q-28 -28 -67 -28z
" />
    <glyph glyph-name="oslash" unicode="&#xf8;" horiz-adv-x="630" 
d="M25 9l66 70q-62 70 -62 176v8q0 123 83 200q79 74 204 74q93 0 163 -43l65 69l52 -48l-62 -66q67 -73 67 -181v-8q0 -124 -82 -200q-80 -72 -204 -72q-97 0 -170 45l-68 -72zM316 120q51 0 78 36t27 102v8q0 31 -6 55l-167 -178q26 -23 68 -23zM210 260q0 -29 4 -49
l163 174q-22 19 -61 19q-51 0 -78.5 -35t-27.5 -101v-8z" />
    <glyph glyph-name="ugrave" unicode="&#xf9;" horiz-adv-x="631" 
d="M229 -12q-79 0 -125 47q-51 51 -51 147v341h179v-312q0 -88 74 -88q89 0 89 99v301h179v-523h-179v81q-47 -93 -166 -93zM150 749h180l53 -166h-128z" />
    <glyph glyph-name="uacute" unicode="&#xfa;" horiz-adv-x="631" 
d="M229 -12q-79 0 -125 47q-51 51 -51 147v341h179v-312q0 -88 74 -88q89 0 89 99v301h179v-523h-179v81q-47 -93 -166 -93zM298 749h180l-105 -166h-128z" />
    <glyph glyph-name="ucircumflex" unicode="&#xfb;" horiz-adv-x="631" 
d="M229 -12q-79 0 -125 47q-51 51 -51 147v341h179v-312q0 -88 74 -88q89 0 89 99v301h179v-523h-179v81q-47 -93 -166 -93zM252 748h128l118 -163h-125l-61 56l-60 -56h-123z" />
    <glyph glyph-name="udieresis" unicode="&#xfc;" horiz-adv-x="631" 
d="M229 -12q-79 0 -125 47q-51 51 -51 147v341h179v-312q0 -88 74 -88q89 0 89 99v301h179v-523h-179v81q-47 -93 -166 -93zM207 580q-36 0 -60 24q-25 23 -25 59q0 35 25 60q24 24 60 24t61 -24.5t25 -59.5t-25 -59t-61 -24zM420 580q-36 0 -60.5 24t-24.5 59t24.5 59.5
t60.5 24.5t61 -24.5t25 -59.5t-25 -59t-61 -24z" />
    <glyph glyph-name="yacute" unicode="&#xfd;" horiz-adv-x="597" 
d="M221 53l-209 470h194l108 -279l100 279h171l-280 -698h-171zM293 749h180l-105 -166h-128z" />
    <glyph glyph-name="thorn" unicode="&#xfe;" horiz-adv-x="651" 
d="M57 753h179v-308q56 92 163 92q96 0 156 -68q65 -73 65 -203v-8q0 -130 -65 -202q-60 -68 -157 -68q-116 0 -162 89v-252h-179v928zM335 125q103 0 103 133v8q0 68 -27 102t-76 34t-76.5 -35t-27.5 -100v-8q0 -66 27 -100t77 -34z" />
    <glyph glyph-name="ydieresis" unicode="&#xff;" horiz-adv-x="597" 
d="M221 53l-209 470h194l108 -279l100 279h171l-280 -698h-171zM202 580q-36 0 -60 24q-25 23 -25 59q0 35 25 60q24 24 60 24t61 -24.5t25 -59.5t-25 -59t-61 -24zM415 580q-36 0 -60.5 24t-24.5 59t24.5 59.5t60.5 24.5t61 -24.5t25 -59.5t-25 -59t-61 -24z" />
    <glyph glyph-name="Amacron" unicode="&#x100;" horiz-adv-x="755" 
d="M246 715h265l227 -715h-217l-38 133h-237l-38 -133h-191zM286 274h157l-78 275zM214 878h322v-107h-322v107z" />
    <glyph glyph-name="amacron" unicode="&#x101;" horiz-adv-x="586" 
d="M204 -12q-76 0 -123 37q-54 41 -54 120q0 171 278 171h50v12q0 42 -14.5 62.5t-54.5 20.5q-63 0 -71 -62h-168q6 92 75 142q64 46 175 46q112 0 172 -47q64 -50 64 -151v-339h-174v61q-47 -73 -155 -73zM266 109q39 0 64 20.5t25 53.5v32h-47q-55 0 -79.5 -12.5
t-24.5 -44.5q0 -49 62 -49zM141 712h307v-100h-307v100z" />
    <glyph glyph-name="Abreve" unicode="&#x102;" horiz-adv-x="755" 
d="M246 715h265l227 -715h-217l-38 133h-237l-38 -133h-191zM286 274h157l-78 275zM374 752q-74 0 -117 40.5t-48 112.5h116q5 -46 49 -46q45 0 52 46h115q-6 -72 -50.5 -112.5t-116.5 -40.5z" />
    <glyph glyph-name="abreve" unicode="&#x103;" horiz-adv-x="586" 
d="M204 -12q-76 0 -123 37q-54 41 -54 120q0 171 278 171h50v12q0 42 -14.5 62.5t-54.5 20.5q-63 0 -71 -62h-168q6 92 75 142q64 46 175 46q112 0 172 -47q64 -50 64 -151v-339h-174v61q-47 -73 -155 -73zM266 109q39 0 64 20.5t25 53.5v32h-47q-55 0 -79.5 -12.5
t-24.5 -44.5q0 -49 62 -49zM294 587q-73 0 -116 41.5t-47 116.5h111q5 -48 52 -48q49 0 54 48h111q-5 -75 -49.5 -116.5t-115.5 -41.5z" />
    <glyph glyph-name="Aogonek" unicode="&#x104;" horiz-adv-x="755" 
d="M640 -182q-57 0 -90 22t-33 59q0 34 27 61q20 20 58 40h-81l-38 133h-237l-38 -133h-191l229 715h265l222 -701q-61 -37 -61 -74q0 -26 29 -26q15 0 30 5v-85q-38 -16 -91 -16zM286 274h157l-78 275z" />
    <glyph glyph-name="aogonek" unicode="&#x105;" horiz-adv-x="586" 
d="M447 -182q-54 0 -85 21t-31 59q0 35 27 62q17 18 59 40h-58v61q-47 -73 -155 -73q-76 0 -123 37q-54 41 -54 120q0 171 278 171h50v12q0 42 -14.5 62.5t-54.5 20.5q-63 0 -71 -62h-168q6 92 75 142q64 46 175 46q112 0 172 -47q64 -50 64 -151v-328q-56 -40 -56 -74
q0 -28 30 -28q15 0 30 5v-80q-38 -16 -90 -16zM266 109q39 0 64 20.5t25 53.5v32h-47q-55 0 -79.5 -12.5t-24.5 -44.5q0 -49 62 -49z" />
    <glyph glyph-name="Cacute" unicode="&#x106;" horiz-adv-x="767" 
d="M409 -12q-185 0 -280 100q-93 94 -93 265v8q0 163 104 265q102 100 261 100q141 0 230 -66q90 -71 102 -209h-211q-12 113 -120 113q-70 0 -110 -52.5t-40 -149.5v-8q0 -97 39.5 -149.5t113.5 -52.5q117 0 133 117h204q-10 -134 -102 -210q-89 -71 -231 -71zM374 905h187
l-103 -146h-135z" />
    <glyph glyph-name="cacute" unicode="&#x107;" horiz-adv-x="591" 
d="M304 -12q-122 0 -196 68q-79 71 -79 199v8q0 126 82 202q78 72 197 72q105 0 172 -47q77 -57 84 -168h-168q-12 76 -84 76q-100 0 -100 -133v-8q0 -138 103 -138q80 0 91 87h161q-4 -101 -71.5 -159.5t-191.5 -58.5zM287 749h180l-105 -166h-128z" />
    <glyph glyph-name="Ccircumflex" unicode="&#x108;" horiz-adv-x="767" 
d="M409 -12q-185 0 -280 100q-93 94 -93 265v8q0 163 104 265q102 100 261 100q141 0 230 -66q90 -71 102 -209h-211q-12 113 -120 113q-70 0 -110 -52.5t-40 -149.5v-8q0 -97 39.5 -149.5t113.5 -52.5q117 0 133 117h204q-10 -134 -102 -210q-89 -71 -231 -71zM326 905h150
l110 -146h-130l-59 49l-58 -49h-127z" />
    <glyph glyph-name="ccircumflex" unicode="&#x109;" horiz-adv-x="591" 
d="M304 -12q-122 0 -196 68q-79 71 -79 199v8q0 126 82 202q78 72 197 72q105 0 172 -47q77 -57 84 -168h-168q-12 76 -84 76q-100 0 -100 -133v-8q0 -138 103 -138q80 0 91 87h161q-4 -101 -71.5 -159.5t-191.5 -58.5zM241 748h128l118 -163h-125l-61 56l-60 -56h-123z" />
    <glyph glyph-name="Cdotaccent" unicode="&#x10a;" horiz-adv-x="767" 
d="M409 -12q-185 0 -280 100q-93 94 -93 265v8q0 163 104 265q102 100 261 100q141 0 230 -66q90 -71 102 -209h-211q-12 113 -120 113q-70 0 -110 -52.5t-40 -149.5v-8q0 -97 39.5 -149.5t113.5 -52.5q117 0 133 117h204q-10 -134 -102 -210q-89 -71 -231 -71zM398 757
q-41 0 -68 25.5t-27 64.5q0 38 27 63.5t68 25.5t68 -25.5t27 -63.5q0 -39 -27 -64.5t-68 -25.5z" />
    <glyph glyph-name="cdotaccent" unicode="&#x10b;" horiz-adv-x="591" 
d="M304 -12q-122 0 -196 68q-79 71 -79 199v8q0 126 82 202q78 72 197 72q105 0 172 -47q77 -57 84 -168h-168q-12 76 -84 76q-100 0 -100 -133v-8q0 -138 103 -138q80 0 91 87h161q-4 -101 -71.5 -159.5t-191.5 -58.5zM306 579q-42 0 -69 25.5t-27 64.5q0 38 27.5 63.5
t68.5 25.5t68 -25.5t27 -63.5q0 -39 -27 -64.5t-68 -25.5z" />
    <glyph glyph-name="Ccaron" unicode="&#x10c;" horiz-adv-x="767" 
d="M409 -12q-185 0 -280 100q-93 94 -93 265v8q0 163 104 265q102 100 261 100q141 0 230 -66q90 -71 102 -209h-211q-12 113 -120 113q-70 0 -110 -52.5t-40 -149.5v-8q0 -97 39.5 -149.5t113.5 -52.5q117 0 133 117h204q-10 -134 -102 -210q-89 -71 -231 -71zM211 905h130
l58 -49l59 49h127l-114 -146h-150z" />
    <glyph glyph-name="ccaron" unicode="&#x10d;" horiz-adv-x="591" 
d="M304 -12q-122 0 -196 68q-79 71 -79 199v8q0 126 82 202q78 72 197 72q105 0 172 -47q77 -57 84 -168h-168q-12 76 -84 76q-100 0 -100 -133v-8q0 -138 103 -138q80 0 91 87h161q-4 -101 -71.5 -159.5t-191.5 -58.5zM118 748h125l61 -56l61 56h122l-123 -163h-127z" />
    <glyph glyph-name="Dcaron" unicode="&#x10e;" horiz-adv-x="751" 
d="M326 158q91 0 133.5 48t42.5 149v8q0 103 -42 148.5t-136 45.5h-45v-399h47zM73 715h260q188 0 285.5 -90.5t97.5 -258.5v-8q0 -170 -97 -262q-99 -96 -287 -96h-259v715zM153 905h130l58 -49l59 49h127l-114 -146h-150z" />
    <glyph glyph-name="dcaron" unicode="&#x10f;" horiz-adv-x="650" 
d="M251 -12q-95 0 -155 66q-65 72 -65 202v8q0 129 64 204q61 69 158 69q110 0 161 -88v304h179v-753h-179v85q-21 -44 -63.5 -70.5t-99.5 -26.5zM314 125q50 0 77.5 34t27.5 100v8q0 135 -103 135t-103 -136v-8q0 -65 26.5 -99t74.5 -34zM638 753h133l-49 -174h-93z" />
    <glyph glyph-name="Dcroat" unicode="&#x110;" horiz-adv-x="782" 
d="M33 428h59v287h259q189 0 286 -90.5t97 -258.5v-8q0 -170 -97 -262q-98 -96 -286 -96h-259v290h-59v138zM345 158q90 0 132.5 48.5t42.5 148.5v8q0 103 -41.5 148.5t-135.5 45.5h-50v-129h120v-138h-120v-132h52z" />
    <glyph glyph-name="dcroat" unicode="&#x111;" horiz-adv-x="650" 
d="M259 683h155v70h179v-70h57v-96h-57v-587h-179v85q-21 -44 -63.5 -70.5t-99.5 -26.5q-95 0 -155 66q-65 72 -65 202v8q0 129 64 204q61 69 158 69q110 0 161 -88v138h-155v96zM314 125q50 0 77.5 34t27.5 100v8q0 135 -103 135t-103 -136v-8q0 -65 26.5 -99t74.5 -34z
" />
    <glyph glyph-name="Emacron" unicode="&#x112;" horiz-adv-x="620" 
d="M73 715h494v-158h-290v-123h231v-146h-231v-130h306v-158h-510v715zM166 878h322v-107h-322v107z" />
    <glyph glyph-name="emacron" unicode="&#x113;" horiz-adv-x="606" 
d="M313 -12q-128 0 -203 69q-81 71 -81 198v8q0 123 82 200q79 74 201 74q115 0 187 -65q79 -72 79 -205v-47h-368q4 -52 32.5 -80.5t76.5 -28.5q79 0 91 62h168q-12 -90 -79.5 -137.5t-185.5 -47.5zM404 321q-5 98 -92 98q-86 0 -100 -98h192zM153 712h307v-100h-307v100z
" />
    <glyph glyph-name="Ebreve" unicode="&#x114;" horiz-adv-x="620" 
d="M73 715h494v-158h-290v-123h231v-146h-231v-130h306v-158h-510v715zM326 752q-74 0 -117 40.5t-48 112.5h116q5 -46 49 -46q45 0 52 46h115q-6 -72 -50.5 -112.5t-116.5 -40.5z" />
    <glyph glyph-name="ebreve" unicode="&#x115;" horiz-adv-x="606" 
d="M313 -12q-128 0 -203 69q-81 71 -81 198v8q0 123 82 200q79 74 201 74q115 0 187 -65q79 -72 79 -205v-47h-368q4 -52 32.5 -80.5t76.5 -28.5q79 0 91 62h168q-12 -90 -79.5 -137.5t-185.5 -47.5zM404 321q-5 98 -92 98q-86 0 -100 -98h192zM301 587q-73 0 -116 41.5
t-47 116.5h111q5 -48 52 -48q49 0 54 48h111q-5 -75 -49.5 -116.5t-115.5 -41.5z" />
    <glyph glyph-name="Edotaccent" unicode="&#x116;" horiz-adv-x="620" 
d="M73 715h494v-158h-290v-123h231v-146h-231v-130h306v-158h-510v715zM328 757q-41 0 -68 25.5t-27 64.5q0 38 27 63.5t68 25.5t68 -25.5t27 -63.5q0 -39 -27 -64.5t-68 -25.5z" />
    <glyph glyph-name="edotaccent" unicode="&#x117;" horiz-adv-x="606" 
d="M313 -12q-128 0 -203 69q-81 71 -81 198v8q0 123 82 200q79 74 201 74q115 0 187 -65q79 -72 79 -205v-47h-368q4 -52 32.5 -80.5t76.5 -28.5q79 0 91 62h168q-12 -90 -79.5 -137.5t-185.5 -47.5zM404 321q-5 98 -92 98q-86 0 -100 -98h192zM308 579q-42 0 -69 25.5
t-27 64.5q0 38 27.5 63.5t68.5 25.5t68 -25.5t27 -63.5q0 -39 -27 -64.5t-68 -25.5z" />
    <glyph glyph-name="Eogonek" unicode="&#x118;" horiz-adv-x="620" 
d="M471 -182q-57 0 -89.5 22t-32.5 59q0 34 27 61q19 19 59 40h-362v715h494v-158h-290v-123h231v-146h-231v-130h306v-158h-38q-23 -19 -32 -31.5t-9 -28.5q0 -26 30 -26q19 0 29 5v-85q-34 -16 -92 -16z" />
    <glyph glyph-name="eogonek" unicode="&#x119;" horiz-adv-x="606" 
d="M409 -182q-55 0 -86.5 20.5t-31.5 58.5q0 48 82 95q-23 -4 -60 -4q-128 0 -203 69q-81 71 -81 198v8q0 123 82 200q79 74 201 74q115 0 187 -65q79 -72 79 -205v-47h-368q4 -52 32.5 -80.5t76.5 -28.5q79 0 91 62h168q-10 -74 -71 -135q-28 -28 -39 -40t-21.5 -29
t-10.5 -32q0 -28 31 -28q15 0 30 5v-80q-38 -16 -88 -16zM404 321q-5 98 -92 98q-86 0 -100 -98h192z" />
    <glyph glyph-name="Ecaron" unicode="&#x11a;" horiz-adv-x="620" 
d="M73 715h494v-158h-290v-123h231v-146h-231v-130h306v-158h-510v715zM141 905h130l58 -49l59 49h127l-114 -146h-150z" />
    <glyph glyph-name="ecaron" unicode="&#x11b;" horiz-adv-x="606" 
d="M313 -12q-128 0 -203 69q-81 71 -81 198v8q0 123 82 200q79 74 201 74q115 0 187 -65q79 -72 79 -205v-47h-368q4 -52 32.5 -80.5t76.5 -28.5q79 0 91 62h168q-12 -90 -79.5 -137.5t-185.5 -47.5zM404 321q-5 98 -92 98q-86 0 -100 -98h192zM122 748h125l61 -56l61 56
h122l-123 -163h-127z" />
    <glyph glyph-name="Gcircumflex" unicode="&#x11c;" horiz-adv-x="795" 
d="M410 -12q-178 0 -278 103q-97 97 -97 262v8q0 162 107 264q106 101 268 101q137 0 225 -62q98 -70 108 -201h-203q-14 102 -129 102q-76 0 -119 -55t-43 -152v-8q0 -97 37 -146q44 -60 130 -60q69 0 107 33q30 26 35 75h-134v143h336v-88q0 -143 -88 -228
q-94 -91 -262 -91zM334 905h150l110 -146h-130l-59 49l-58 -49h-127z" />
    <glyph glyph-name="gcircumflex" unicode="&#x11d;" horiz-adv-x="649" 
d="M302 -194q-129 0 -198 52q-65 51 -76 142h178q14 -68 96 -68q111 0 111 110v80q-21 -41 -61 -66q-44 -30 -101 -30q-97 0 -157 65q-65 70 -65 186v8q0 113 65 184q62 68 157 68q111 0 162 -88v74h179v-479q0 -117 -74 -177.5t-216 -60.5zM314 158q48 0 76 32t28 88v7
q0 55 -26.5 86.5t-76.5 31.5t-76.5 -32t-26.5 -87v-8q0 -54 27 -86t75 -32zM247 748h128l118 -163h-125l-61 56l-60 -56h-123z" />
    <glyph glyph-name="Gbreve" unicode="&#x11e;" horiz-adv-x="795" 
d="M410 -12q-178 0 -278 103q-97 97 -97 262v8q0 162 107 264q106 101 268 101q137 0 225 -62q98 -70 108 -201h-203q-14 102 -129 102q-76 0 -119 -55t-43 -152v-8q0 -97 37 -146q44 -60 130 -60q69 0 107 33q30 26 35 75h-134v143h336v-88q0 -143 -88 -228
q-94 -91 -262 -91zM406 752q-74 0 -117 40.5t-48 112.5h116q5 -46 49 -46q45 0 52 46h115q-6 -72 -50.5 -112.5t-116.5 -40.5z" />
    <glyph glyph-name="gbreve" unicode="&#x11f;" horiz-adv-x="649" 
d="M302 -194q-129 0 -198 52q-65 51 -76 142h178q14 -68 96 -68q111 0 111 110v80q-21 -41 -61 -66q-44 -30 -101 -30q-97 0 -157 65q-65 70 -65 186v8q0 113 65 184q62 68 157 68q111 0 162 -88v74h179v-479q0 -117 -74 -177.5t-216 -60.5zM314 158q48 0 76 32t28 88v7
q0 55 -26.5 86.5t-76.5 31.5t-76.5 -32t-26.5 -87v-8q0 -54 27 -86t75 -32zM308 587q-73 0 -116 41.5t-47 116.5h111q5 -48 52 -48q49 0 54 48h111q-5 -75 -49.5 -116.5t-115.5 -41.5z" />
    <glyph glyph-name="Gdotaccent" unicode="&#x120;" horiz-adv-x="795" 
d="M410 -12q-178 0 -278 103q-97 97 -97 262v8q0 162 107 264q106 101 268 101q137 0 225 -62q98 -70 108 -201h-203q-14 102 -129 102q-76 0 -119 -55t-43 -152v-8q0 -97 37 -146q44 -60 130 -60q69 0 107 33q30 26 35 75h-134v143h336v-88q0 -143 -88 -228
q-94 -91 -262 -91zM408 757q-41 0 -68 25.5t-27 64.5q0 38 27 63.5t68 25.5t68 -25.5t27 -63.5q0 -39 -27 -64.5t-68 -25.5z" />
    <glyph glyph-name="gdotaccent" unicode="&#x121;" horiz-adv-x="649" 
d="M302 -194q-129 0 -198 52q-65 51 -76 142h178q14 -68 96 -68q111 0 111 110v80q-21 -41 -61 -66q-44 -30 -101 -30q-97 0 -157 65q-65 70 -65 186v8q0 113 65 184q62 68 157 68q111 0 162 -88v74h179v-479q0 -117 -74 -177.5t-216 -60.5zM314 158q48 0 76 32t28 88v7
q0 55 -26.5 86.5t-76.5 31.5t-76.5 -32t-26.5 -87v-8q0 -54 27 -86t75 -32zM309 579q-42 0 -69 25.5t-27 64.5q0 38 27.5 63.5t68.5 25.5t68 -25.5t27 -63.5q0 -39 -27 -64.5t-68 -25.5z" />
    <glyph glyph-name="uni0122" unicode="&#x122;" horiz-adv-x="787" 
d="M410 -12q-178 0 -278 103q-97 97 -97 262v8q0 162 107 264q106 101 268 101q137 0 225 -62q98 -70 108 -201h-203q-14 102 -129 102q-76 0 -119 -55t-43 -152v-8q0 -97 37 -146q44 -60 130 -60q69 0 107 33q30 26 35 75h-134v143h336v-88q0 -143 -88 -228
q-94 -91 -262 -91zM291 -205l42 177l158 -19l-99 -185z" />
    <glyph glyph-name="uni0123" unicode="&#x123;" horiz-adv-x="641" 
d="M302 -194q-129 0 -198 52q-65 51 -76 142h178q14 -68 96 -68q111 0 111 110v80q-21 -41 -61 -66q-44 -30 -101 -30q-97 0 -157 65q-65 70 -65 186v8q0 113 65 184q62 68 157 68q111 0 162 -88v74h179v-479q0 -117 -74 -177.5t-216 -60.5zM314 158q48 0 76 32t28 88v7
q0 55 -26.5 86.5t-76.5 31.5t-76.5 -32t-26.5 -87v-8q0 -54 27 -86t75 -32zM234 585l99 185l101 -27l-42 -177z" />
    <glyph glyph-name="Hcircumflex" unicode="&#x124;" horiz-adv-x="792" 
d="M73 715h206v-273h235v273h205v-715h-205v282h-235v-282h-206v715zM323 905h150l110 -146h-130l-59 49l-58 -49h-127z" />
    <glyph glyph-name="hcircumflex" unicode="&#x125;" horiz-adv-x="632" 
d="M57 753h179v-314q50 98 172 98q78 0 124.5 -50t46.5 -147v-340h-179v304q0 88 -75 88q-41 0 -65 -25t-24 -74v-293h-179v753zM221 938h150l110 -146h-130l-59 49l-58 -49h-127z" />
    <glyph glyph-name="Hbar" unicode="&#x126;" horiz-adv-x="792" 
d="M13 617h60v98h206v-98h235v98h205v-98h60v-96h-60v-521h-205v282h-235v-282h-206v521h-60v96zM514 442v79h-235v-79h235z" />
    <glyph glyph-name="hbar" unicode="&#x127;" horiz-adv-x="632" 
d="M0 683h57v70h179v-70h155v-96h-155v-148q50 98 172 98q78 0 124.5 -50t46.5 -147v-340h-179v304q0 88 -75 88q-41 0 -65 -25t-24 -74v-293h-179v587h-57v96z" />
    <glyph glyph-name="Itilde" unicode="&#x128;" horiz-adv-x="360" 
d="M77 715h207v-715h-207v715zM246 758q-30 0 -70 17t-50 17q-12 0 -20.5 -9t-10.5 -24h-102q6 78 41 116q31 37 81 37q29 0 69 -16q36 -17 52 -17q25 0 32 32h101q-6 -74 -41 -116q-34 -37 -82 -37z" />
    <glyph glyph-name="itilde" unicode="&#x129;" horiz-adv-x="303" 
d="M62 523h179v-523h-179v523zM216 587q-32 0 -68 17q-38 16 -49 16q-26 0 -31 -32h-97q5 77 35.5 116.5t79.5 39.5q26 0 68 -17q40 -17 51 -17q25 0 32 32h97q-6 -75 -38.5 -115t-79.5 -40z" />
    <glyph glyph-name="Imacron" unicode="&#x12a;" horiz-adv-x="360" 
d="M77 715h207v-715h-207v715zM19 878h322v-107h-322v107z" />
    <glyph glyph-name="imacron" unicode="&#x12b;" horiz-adv-x="303" 
d="M29 712h245v-100h-245v100zM62 523h179v-523h-179v523z" />
    <glyph glyph-name="Ibreve" unicode="&#x12c;" horiz-adv-x="360" 
d="M77 715h207v-715h-207v715zM180 752q-74 0 -117 40.5t-48 112.5h116q5 -46 49 -46q45 0 52 46h115q-6 -72 -50.5 -112.5t-116.5 -40.5z" />
    <glyph glyph-name="ibreve" unicode="&#x12d;" horiz-adv-x="303" 
d="M62 523h179v-523h-179v523zM151 587q-73 0 -116 41.5t-47 116.5h111q5 -48 52 -48q49 0 54 48h111q-5 -75 -49.5 -116.5t-115.5 -41.5z" />
    <glyph glyph-name="Iogonek" unicode="&#x12e;" horiz-adv-x="360" 
d="M197 -182q-57 0 -90 22t-33 59q0 34 27 61q18 18 58 40h-82v715h207v-703q-55 -38 -55 -72q0 -26 30 -26q19 0 29 5v-85q-38 -16 -91 -16z" />
    <glyph glyph-name="iogonek" unicode="&#x12f;" horiz-adv-x="303" 
d="M158 -182q-54 0 -85 21.5t-31 59.5q0 35 27 62q17 17 59 39h-66v523h179v-514q-54 -39 -54 -72q0 -28 31 -28q15 0 30 5v-80q-38 -16 -90 -16zM151 573q-42 0 -70 26t-28 66t28 66.5t70 26.5t70.5 -26.5t28.5 -66.5t-28.5 -66t-70.5 -26z" />
    <glyph glyph-name="Idotaccent" unicode="&#x130;" horiz-adv-x="360" 
d="M77 715h207v-715h-207v715zM181 757q-41 0 -68 25.5t-27 64.5q0 38 27 63.5t68 25.5t68 -25.5t27 -63.5q0 -39 -27 -64.5t-68 -25.5z" />
    <glyph glyph-name="dotlessi" unicode="&#x131;" horiz-adv-x="303" 
d="M62 523h179v-523h-179v523z" />
    <glyph glyph-name="IJ" unicode="&#x132;" horiz-adv-x="812" 
d="M77 715h207v-715h-207v715zM492 -9q-84 0 -130 24v153q42 -14 87 -14q93 0 93 99v462h206v-464q0 -260 -256 -260z" />
    <glyph glyph-name="ij" unicode="&#x133;" horiz-adv-x="303" 
d="M62 523h179v-523h-179v523zM151 573q-42 0 -70 26t-28 66t28 66.5t70 26.5t70.5 -26.5t28.5 -66.5t-28.5 -66t-70.5 -26zM293 -54q33 2 48.5 17t15.5 45v515h178v-519q0 -92 -50 -137q-59 -51 -192 -51v130zM446 573q-42 0 -70 26t-28 66t28 66.5t70 26.5t70.5 -26.5
t28.5 -66.5t-28.5 -66t-70.5 -26z" />
    <glyph glyph-name="Jcircumflex" unicode="&#x134;" horiz-adv-x="486" 
d="M167 -9q-84 0 -130 24v153q42 -14 87 -14q93 0 93 99v462h206v-464q0 -260 -256 -260zM246 905h150l110 -146h-130l-59 49l-58 -49h-127z" />
    <glyph glyph-name="jcircumflex" unicode="&#x135;" horiz-adv-x="303" 
d="M-2 -54q33 2 48.5 17t15.5 45v515h178v-519q0 -92 -50 -137q-59 -51 -192 -51v130zM89 748h128l118 -163h-125l-61 56l-60 -56h-123z" />
    <glyph glyph-name="uni0136" unicode="&#x136;" horiz-adv-x="726" 
d="M73 715h206v-283l215 283h214l-262 -332l276 -383h-237l-206 299v-299h-206v715zM261 -205l42 177l158 -19l-99 -185z" />
    <glyph glyph-name="uni0137" unicode="&#x137;" horiz-adv-x="577" 
d="M57 753h179v-437l141 207h186l-171 -235l185 -288h-200l-141 229v-229h-179v753zM189 -205l42 177l158 -19l-99 -185z" />
    <glyph glyph-name="Lacute" unicode="&#x139;" horiz-adv-x="583" 
d="M73 715h206v-556h270v-159h-476v715zM154 905h187l-103 -146h-135z" />
    <glyph glyph-name="lacute" unicode="&#x13a;" horiz-adv-x="302" 
d="M62 753h178v-753h-178v753zM135 938h187l-103 -146h-135z" />
    <glyph glyph-name="uni013B" unicode="&#x13b;" horiz-adv-x="575" 
d="M73 715h206v-556h270v-159h-476v715zM192 -205l42 177l158 -19l-99 -185z" />
    <glyph glyph-name="uni013C" unicode="&#x13c;" horiz-adv-x="294" 
d="M62 753h178v-753h-178v753zM36 -205l42 177l158 -19l-99 -185z" />
    <glyph glyph-name="Lcaron" unicode="&#x13d;" horiz-adv-x="583" 
d="M364 715h148l-61 -176h-103zM73 715h206v-556h270v-159h-476v715z" />
    <glyph glyph-name="lcaron" unicode="&#x13e;" horiz-adv-x="302" 
d="M62 753h178v-753h-178v753zM285 753h133l-49 -174h-93z" />
    <glyph glyph-name="Ldot" unicode="&#x13f;" horiz-adv-x="609" 
d="M73 715h206v-556h270v-159h-476v715zM478 299q-46 0 -73 30q-29 26 -29 71q0 43 29 72t73 29q43 0 75 -29q30 -30 30 -72q0 -44 -30 -71q-30 -30 -75 -30z" />
    <glyph glyph-name="ldot" unicode="&#x140;" horiz-adv-x="463" 
d="M62 753h178v-753h-178v753zM376 258q-46 0 -73 30q-29 26 -29 71q0 43 29 72t73 29q43 0 75 -29q30 -30 30 -72q0 -44 -30 -71q-30 -30 -75 -30z" />
    <glyph glyph-name="Lslash" unicode="&#x141;" horiz-adv-x="601" 
d="M29 337l63 22v356h205v-285l180 63v-109l-180 -62v-163h271v-159h-476v251l-63 -22v108z" />
    <glyph glyph-name="lslash" unicode="&#x142;" horiz-adv-x="341" 
d="M21 376l61 29v348h178v-261l64 31v-116l-64 -31v-376h-178v290l-61 -29v115z" />
    <glyph glyph-name="Nacute" unicode="&#x143;" horiz-adv-x="785" 
d="M73 715h231l229 -403v403h179v-715h-198l-261 449v-449h-180v715zM385 905h187l-103 -146h-135z" />
    <glyph glyph-name="nacute" unicode="&#x144;" horiz-adv-x="632" 
d="M57 523h179v-84q50 98 172 98q78 0 124.5 -50t46.5 -147v-340h-179v304q0 88 -75 88q-41 0 -65 -25t-24 -74v-293h-179v523zM301 749h180l-105 -166h-128z" />
    <glyph glyph-name="uni0145" unicode="&#x145;" horiz-adv-x="777" 
d="M73 715h231l229 -403v403h179v-715h-198l-261 449v-449h-180v715zM272 -205l42 177l158 -19l-99 -185z" />
    <glyph glyph-name="uni0146" unicode="&#x146;" horiz-adv-x="624" 
d="M57 523h179v-84q50 98 172 98q78 0 124.5 -50t46.5 -147v-340h-179v304q0 88 -75 88q-41 0 -65 -25t-24 -74v-293h-179v523zM201 -205l42 177l158 -19l-99 -185z" />
    <glyph glyph-name="Ncaron" unicode="&#x147;" horiz-adv-x="785" 
d="M73 715h231l229 -403v403h179v-715h-198l-261 449v-449h-180v715zM222 905h130l58 -49l59 49h127l-114 -146h-150z" />
    <glyph glyph-name="ncaron" unicode="&#x148;" horiz-adv-x="632" 
d="M57 523h179v-84q50 98 172 98q78 0 124.5 -50t46.5 -147v-340h-179v304q0 88 -75 88q-41 0 -65 -25t-24 -74v-293h-179v523zM132 748h125l61 -56l61 56h122l-123 -163h-127z" />
    <glyph glyph-name="napostrophe" unicode="&#x149;" horiz-adv-x="751" 
d="M175 523h179v-84q50 98 172 98q78 0 124.5 -50t46.5 -147v-340h-179v304q0 88 -75 88q-41 0 -65 -25t-24 -74v-293h-179v523zM-27 467l80 261l158 -53l-137 -247z" />
    <glyph glyph-name="Eng" unicode="&#x14a;" horiz-adv-x="785" 
d="M471 -192q-79 0 -123 23v145q40 -14 78 -14q71 0 81 54l-249 450v-466h-185v715h234l221 -412v412h184v-692q0 -100 -61 -156q-64 -59 -180 -59z" />
    <glyph glyph-name="eng" unicode="&#x14b;" horiz-adv-x="632" 
d="M337 -54q33 2 48 16.5t15 45.5v296q0 88 -75 88q-41 0 -65 -25t-24 -74v-293h-179v523h179v-84q50 98 172 98q78 0 124.5 -50t46.5 -147v-336q0 -92 -50 -137q-59 -51 -192 -51v130z" />
    <glyph glyph-name="Omacron" unicode="&#x14c;" horiz-adv-x="827" 
d="M414 149q76 0 120 55t44 151v8q0 95 -44.5 148.5t-120.5 53.5q-77 0 -120.5 -53t-43.5 -150v-8q0 -97 44.5 -151t120.5 -54zM410 -12q-170 0 -274 102q-101 99 -101 263v8q0 161 109 264q106 100 269 100q165 0 272 -96q107 -101 107 -263v-8q0 -168 -104 -267
q-106 -103 -278 -103zM251 878h322v-107h-322v107z" />
    <glyph glyph-name="omacron" unicode="&#x14d;" horiz-adv-x="630" 
d="M316 121q103 0 103 137v8q0 137 -103 137q-104 0 -104 -135v-8q0 -139 104 -139zM315 -12q-124 0 -203 70q-83 72 -83 197v8q0 123 83 200q79 74 204 74t203 -72q82 -76 82 -197v-8q0 -124 -82 -200q-80 -72 -204 -72zM161 712h307v-100h-307v100z" />
    <glyph glyph-name="Obreve" unicode="&#x14e;" horiz-adv-x="827" 
d="M414 149q76 0 120 55t44 151v8q0 95 -44.5 148.5t-120.5 53.5q-77 0 -120.5 -53t-43.5 -150v-8q0 -97 44.5 -151t120.5 -54zM410 -12q-170 0 -274 102q-101 99 -101 263v8q0 161 109 264q106 100 269 100q165 0 272 -96q107 -101 107 -263v-8q0 -168 -104 -267
q-106 -103 -278 -103zM411 752q-74 0 -117 40.5t-48 112.5h116q5 -46 49 -46q45 0 52 46h115q-6 -72 -50.5 -112.5t-116.5 -40.5z" />
    <glyph glyph-name="obreve" unicode="&#x14f;" horiz-adv-x="630" 
d="M316 121q103 0 103 137v8q0 137 -103 137q-104 0 -104 -135v-8q0 -139 104 -139zM315 -12q-124 0 -203 70q-83 72 -83 197v8q0 123 83 200q79 74 204 74t203 -72q82 -76 82 -197v-8q0 -124 -82 -200q-80 -72 -204 -72zM314 587q-73 0 -116 41.5t-47 116.5h111
q5 -48 52 -48q49 0 54 48h111q-5 -75 -49.5 -116.5t-115.5 -41.5z" />
    <glyph glyph-name="Ohungarumlaut" unicode="&#x150;" horiz-adv-x="827" 
d="M414 149q76 0 120 55t44 151v8q0 95 -44.5 148.5t-120.5 53.5q-77 0 -120.5 -53t-43.5 -150v-8q0 -97 44.5 -151t120.5 -54zM410 -12q-170 0 -274 102q-101 99 -101 263v8q0 161 109 264q106 100 269 100q165 0 272 -96q107 -101 107 -263v-8q0 -168 -104 -267
q-106 -103 -278 -103zM284 905h153l-74 -146h-120zM478 905h154l-75 -146h-120z" />
    <glyph glyph-name="ohungarumlaut" unicode="&#x151;" horiz-adv-x="630" 
d="M316 121q103 0 103 137v8q0 137 -103 137q-104 0 -104 -135v-8q0 -139 104 -139zM315 -12q-124 0 -203 70q-83 72 -83 197v8q0 123 83 200q79 74 204 74t203 -72q82 -76 82 -197v-8q0 -124 -82 -200q-80 -72 -204 -72zM205 749h140l-77 -166h-107zM382 749h140l-77 -166
h-106z" />
    <glyph glyph-name="OE" unicode="&#x152;" horiz-adv-x="987" 
d="M35 357q0 168 98 263q100 95 284 95h517v-158h-275v-123h216v-146h-216v-130h291v-158h-533q-188 0 -285 90t-97 259v8zM424 557q-91 0 -133 -48t-42 -149v-8q0 -102 42 -148t134 -46h31v399h-32z" />
    <glyph glyph-name="oe" unicode="&#x153;" horiz-adv-x="993" 
d="M315 -12q-124 0 -203 70q-83 72 -83 197v8q0 123 83 200q79 74 204 74q120 0 193 -79q73 79 190 79q115 0 187 -65q79 -72 79 -205v-47h-368q4 -52 32.5 -80.5t76.5 -28.5q79 0 91 62h168q-12 -90 -79.5 -137.5t-185.5 -47.5q-125 0 -195 76q-70 -76 -190 -76zM316 121
q103 0 103 137v8q0 137 -103 137q-104 0 -104 -135v-8q0 -139 104 -139zM791 321q-5 98 -92 98q-86 0 -100 -98h192z" />
    <glyph glyph-name="Racute" unicode="&#x154;" horiz-adv-x="705" 
d="M73 715h280q142 0 216.5 -57t74.5 -170v-4q0 -138 -129 -188l171 -296h-216l-145 256h-48v-256h-204v715zM343 389q103 0 103 87v4q0 43 -25 62t-77 19h-67v-172h66zM316 905h187l-103 -146h-135z" />
    <glyph glyph-name="racute" unicode="&#x155;" horiz-adv-x="436" 
d="M57 523h179v-104q47 113 169 111v-167q-169 5 -169 -115v-248h-179v523zM222 749h180l-105 -166h-128z" />
    <glyph glyph-name="uni0156" unicode="&#x156;" horiz-adv-x="697" 
d="M73 715h280q142 0 216.5 -57t74.5 -170v-4q0 -138 -129 -188l171 -296h-216l-145 256h-48v-256h-204v715zM343 389q103 0 103 87v4q0 43 -25 62t-77 19h-67v-172h66zM254 -205l42 177l158 -19l-99 -185z" />
    <glyph glyph-name="uni0157" unicode="&#x157;" horiz-adv-x="428" 
d="M57 523h179v-104q47 113 169 111v-167q-169 5 -169 -115v-248h-179v523zM34 -205l42 177l158 -19l-99 -185z" />
    <glyph glyph-name="Rcaron" unicode="&#x158;" horiz-adv-x="705" 
d="M73 715h280q142 0 216.5 -57t74.5 -170v-4q0 -138 -129 -188l171 -296h-216l-145 256h-48v-256h-204v715zM343 389q103 0 103 87v4q0 43 -25 62t-77 19h-67v-172h66zM153 905h130l58 -49l59 49h127l-114 -146h-150z" />
    <glyph glyph-name="rcaron" unicode="&#x159;" horiz-adv-x="436" 
d="M57 523h179v-104q47 113 169 111v-167q-169 5 -169 -115v-248h-179v523zM53 748h125l61 -56l61 56h122l-123 -163h-127z" />
    <glyph glyph-name="Sacute" unicode="&#x15a;" horiz-adv-x="655" 
d="M335 -12q-297 0 -308 239h195q5 -45 27 -65q26 -28 86 -28q44 0 68 19t24 52q0 31 -24 47q-20 11 -89 22q-152 18 -210 69q-60 50 -60 159q0 98 74 160q76 63 203 63q263 0 282 -223h-190q-11 77 -92 77q-41 0 -62 -16.5t-21 -44.5q0 -30 23 -45q24 -18 88 -25
q144 -17 205 -60q69 -54 69 -162q0 -102 -75 -168q-80 -70 -213 -70zM300 905h187l-103 -146h-135z" />
    <glyph glyph-name="sacute" unicode="&#x15b;" horiz-adv-x="523" 
d="M262 -12q-113 0 -175 45.5t-65 132.5h165q6 -31 21.5 -45t52.5 -14q64 0 64 43q0 19 -21 29t-76 18q-109 14 -152 50q-47 37 -47 118q0 83 67 130q60 42 157 42q103 0 159 -38q62 -42 72 -131h-162q-10 52 -67 52q-28 0 -43.5 -11t-15.5 -30q0 -18 19.5 -27.5t68.5 -15.5
q113 -14 162 -48q53 -40 53 -120q0 -91 -62.5 -135.5t-174.5 -44.5zM244 749h180l-105 -166h-128z" />
    <glyph glyph-name="Scircumflex" unicode="&#x15c;" horiz-adv-x="655" 
d="M335 -12q-297 0 -308 239h195q5 -45 27 -65q26 -28 86 -28q44 0 68 19t24 52q0 31 -24 47q-20 11 -89 22q-152 18 -210 69q-60 50 -60 159q0 98 74 160q76 63 203 63q263 0 282 -223h-190q-11 77 -92 77q-41 0 -62 -16.5t-21 -44.5q0 -30 23 -45q24 -18 88 -25
q144 -17 205 -60q69 -54 69 -162q0 -102 -75 -168q-80 -70 -213 -70zM252 905h150l110 -146h-130l-59 49l-58 -49h-127z" />
    <glyph glyph-name="scircumflex" unicode="&#x15d;" horiz-adv-x="523" 
d="M262 -12q-113 0 -175 45.5t-65 132.5h165q6 -31 21.5 -45t52.5 -14q64 0 64 43q0 19 -21 29t-76 18q-109 14 -152 50q-47 37 -47 118q0 83 67 130q60 42 157 42q103 0 159 -38q62 -42 72 -131h-162q-10 52 -67 52q-28 0 -43.5 -11t-15.5 -30q0 -18 19.5 -27.5t68.5 -15.5
q113 -14 162 -48q53 -40 53 -120q0 -91 -62.5 -135.5t-174.5 -44.5zM196 748h128l118 -163h-125l-61 56l-60 -56h-123z" />
    <glyph glyph-name="uni015E" unicode="&#x15e;" horiz-adv-x="647" 
d="M305 -226q-54 0 -87 24t-40 69h84q7 -28 36 -28q15 0 23.5 8.5t8.5 21.5q0 31 -33 31q-17 0 -32 -11l-39 38l42 64q-237 24 -245 236h195q4 -44 29 -68.5t84 -24.5q44 0 68 19t24 52t-23 46t-90 23q-151 18 -210.5 68.5t-59.5 159.5q0 98 75 160.5t202 62.5
q263 0 282 -223h-190q-11 77 -92 77q-41 0 -62 -16.5t-21 -44.5q0 -30 23.5 -46t87.5 -24q144 -17 209 -64t65 -158q0 -101 -76 -168.5t-206 -69.5l-22 -33q47 4 79 -18t32 -68q0 -45 -33 -70t-88 -25z" />
    <glyph glyph-name="uni015F" unicode="&#x15f;" horiz-adv-x="515" 
d="M240 -226q-54 0 -87 24t-40 69h84q7 -28 36 -28q15 0 23.5 8.5t8.5 21.5q0 31 -33 31q-17 0 -32 -11l-39 38l42 64q-180 23 -185 175h165q6 -31 21.5 -45t52.5 -14q64 0 64 43q0 19 -21 29t-76 18q-108 15 -153.5 51.5t-45.5 116.5q0 83 64 127.5t160 44.5
q213 0 231 -169h-162q-10 52 -67 52q-28 0 -43.5 -11t-15.5 -30q0 -18 19.5 -27.5t68.5 -15.5q115 -15 165 -51t50 -117q0 -88 -58.5 -132.5t-163.5 -47.5l-23 -33q47 4 79 -18t32 -68q0 -45 -33 -70t-88 -25z" />
    <glyph glyph-name="Scaron" unicode="&#x160;" horiz-adv-x="655" 
d="M335 -12q-297 0 -308 239h195q5 -45 27 -65q26 -28 86 -28q44 0 68 19t24 52q0 31 -24 47q-20 11 -89 22q-152 18 -210 69q-60 50 -60 159q0 98 74 160q76 63 203 63q263 0 282 -223h-190q-11 77 -92 77q-41 0 -62 -16.5t-21 -44.5q0 -30 23 -45q24 -18 88 -25
q144 -17 205 -60q69 -54 69 -162q0 -102 -75 -168q-80 -70 -213 -70zM137 905h130l58 -49l59 49h127l-114 -146h-150z" />
    <glyph glyph-name="scaron" unicode="&#x161;" horiz-adv-x="523" 
d="M262 -12q-113 0 -175 45.5t-65 132.5h165q6 -31 21.5 -45t52.5 -14q64 0 64 43q0 19 -21 29t-76 18q-109 14 -152 50q-47 37 -47 118q0 83 67 130q60 42 157 42q103 0 159 -38q62 -42 72 -131h-162q-10 52 -67 52q-28 0 -43.5 -11t-15.5 -30q0 -18 19.5 -27.5t68.5 -15.5
q113 -14 162 -48q53 -40 53 -120q0 -91 -62.5 -135.5t-174.5 -44.5zM70 748h125l61 -56l61 56h122l-123 -163h-127z" />
    <glyph glyph-name="Tcommaaccent" unicode="&#x162;" horiz-adv-x="626" 
d="M210 557h-185v158h576v-158h-185v-557h-206v557zM196 -205l42 177l158 -19l-99 -185z" />
    <glyph glyph-name="tcommaaccent" unicode="&#x163;" horiz-adv-x="397" 
d="M265 -12q-184 0 -184 180v233h-63v122h63v109h179v-109h103v-122h-103v-216q0 -55 53 -55q30 0 51 9v-136q-49 -15 -99 -15zM98 -205l42 177l158 -19l-99 -185z" />
    <glyph glyph-name="Tcaron" unicode="&#x164;" horiz-adv-x="626" 
d="M210 557h-185v158h576v-158h-185v-557h-206v557zM124 905h130l58 -49l59 49h127l-114 -146h-150z" />
    <glyph glyph-name="tcaron" unicode="&#x165;" horiz-adv-x="397" 
d="M265 -12q-184 0 -184 180v233h-63v122h63v109h179v-109h103v-122h-103v-216q0 -55 53 -55q30 0 51 9v-136q-49 -15 -99 -15zM314 753h133l-49 -174h-93z" />
    <glyph glyph-name="Tbar" unicode="&#x166;" horiz-adv-x="626" 
d="M84 407h126v150h-185v158h576v-158h-185v-150h126v-128h-126v-279h-206v279h-126v128z" />
    <glyph glyph-name="tbar" unicode="&#x167;" horiz-adv-x="397" 
d="M18 332h63v69h-63v122h63v109h179v-109h103v-122h-103v-69h103v-99h-103v-48q0 -55 53 -55q30 0 51 9v-136q-49 -15 -99 -15q-184 0 -184 180v65h-63v99z" />
    <glyph glyph-name="Utilde" unicode="&#x168;" horiz-adv-x="772" 
d="M385 -12q-154 0 -235.5 76.5t-81.5 225.5v425h205v-416q0 -79 24.5 -114.5t87.5 -35.5t87.5 35t24.5 118v413h207v-422q0 -154 -85 -230q-82 -75 -234 -75zM449 758q-30 0 -70 17t-50 17q-12 0 -20.5 -9t-10.5 -24h-102q6 78 41 116q31 37 81 37q29 0 69 -16
q36 -17 52 -17q25 0 32 32h101q-6 -74 -41 -116q-34 -37 -82 -37z" />
    <glyph glyph-name="utilde" unicode="&#x169;" horiz-adv-x="631" 
d="M229 -12q-79 0 -125 47q-51 51 -51 147v341h179v-312q0 -88 74 -88q89 0 89 99v301h179v-523h-179v81q-47 -93 -166 -93zM378 587q-32 0 -68 17q-38 16 -49 16q-26 0 -31 -32h-97q5 77 35.5 116.5t79.5 39.5q26 0 68 -17q40 -17 51 -17q25 0 32 32h97q-6 -75 -38.5 -115
t-79.5 -40z" />
    <glyph glyph-name="Umacron" unicode="&#x16a;" horiz-adv-x="772" 
d="M385 -12q-154 0 -235.5 76.5t-81.5 225.5v425h205v-416q0 -79 24.5 -114.5t87.5 -35.5t87.5 35t24.5 118v413h207v-422q0 -154 -85 -230q-82 -75 -234 -75zM223 878h322v-107h-322v107z" />
    <glyph glyph-name="umacron" unicode="&#x16b;" horiz-adv-x="631" 
d="M229 -12q-79 0 -125 47q-51 51 -51 147v341h179v-312q0 -88 74 -88q89 0 89 99v301h179v-523h-179v81q-47 -93 -166 -93zM160 712h307v-100h-307v100z" />
    <glyph glyph-name="Ubreve" unicode="&#x16c;" horiz-adv-x="772" 
d="M385 -12q-154 0 -235.5 76.5t-81.5 225.5v425h205v-416q0 -79 24.5 -114.5t87.5 -35.5t87.5 35t24.5 118v413h207v-422q0 -154 -85 -230q-82 -75 -234 -75zM383 752q-74 0 -117 40.5t-48 112.5h116q5 -46 49 -46q45 0 52 46h115q-6 -72 -50.5 -112.5t-116.5 -40.5z" />
    <glyph glyph-name="ubreve" unicode="&#x16d;" horiz-adv-x="631" 
d="M229 -12q-79 0 -125 47q-51 51 -51 147v341h179v-312q0 -88 74 -88q89 0 89 99v301h179v-523h-179v81q-47 -93 -166 -93zM313 587q-73 0 -116 41.5t-47 116.5h111q5 -48 52 -48q49 0 54 48h111q-5 -75 -49.5 -116.5t-115.5 -41.5z" />
    <glyph glyph-name="Uring" unicode="&#x16e;" horiz-adv-x="772" 
d="M385 -12q-154 0 -235.5 76.5t-81.5 225.5v425h205v-416q0 -79 24.5 -114.5t87.5 -35.5t87.5 35t24.5 118v413h207v-422q0 -154 -85 -230q-82 -75 -234 -75zM384 790q20 0 33 14t13 36q0 23 -12.5 36.5t-33.5 13.5t-33.5 -13.5t-12.5 -36.5q0 -22 12.5 -36t33.5 -14z
M384 724q-49 0 -84 35q-36 31 -36 81q0 49 36 82q34 34 84 34q48 0 85 -34q35 -35 35 -82q0 -48 -35 -81q-38 -35 -85 -35z" />
    <glyph glyph-name="uring" unicode="&#x16f;" horiz-adv-x="631" 
d="M229 -12q-79 0 -125 47q-51 51 -51 147v341h179v-312q0 -88 74 -88q89 0 89 99v301h179v-523h-179v81q-47 -93 -166 -93zM313 619q20 0 33 14t13 36q0 23 -13 37t-33 14t-33 -14t-13 -37q0 -22 13 -36t33 -14zM313 555q-49 0 -83 34q-35 33 -35 80q0 46 35 81
q34 34 83 34t83 -34q35 -35 35 -81q0 -47 -35 -80q-34 -34 -83 -34z" />
    <glyph glyph-name="Uhungarumlaut" unicode="&#x170;" horiz-adv-x="772" 
d="M385 -12q-154 0 -235.5 76.5t-81.5 225.5v425h205v-416q0 -79 24.5 -114.5t87.5 -35.5t87.5 35t24.5 118v413h207v-422q0 -154 -85 -230q-82 -75 -234 -75zM256 905h153l-74 -146h-120zM450 905h154l-75 -146h-120z" />
    <glyph glyph-name="uhungarumlaut" unicode="&#x171;" horiz-adv-x="631" 
d="M229 -12q-79 0 -125 47q-51 51 -51 147v341h179v-312q0 -88 74 -88q89 0 89 99v301h179v-523h-179v81q-47 -93 -166 -93zM204 749h140l-77 -166h-107zM381 749h140l-77 -166h-106z" />
    <glyph glyph-name="Uogonek" unicode="&#x172;" horiz-adv-x="772" 
d="M424 -182q-56 0 -88 21.5t-32 58.5q0 51 64 90q-146 5 -223 81t-77 221v425h205v-416q0 -79 24.5 -114.5t87.5 -35.5t87.5 35t24.5 118v413h207v-422q0 -205 -154 -276q-52 -24 -65 -33q-28 -18 -28 -43q0 -27 31 -27q15 0 30 5v-85q-38 -16 -94 -16z" />
    <glyph glyph-name="uogonek" unicode="&#x173;" horiz-adv-x="631" 
d="M489 -182q-54 0 -85 21.5t-31 59.5q0 35 27 62q17 17 59 39h-64v81q-47 -93 -166 -93q-79 0 -125 47q-51 51 -51 147v341h179v-312q0 -88 74 -88q89 0 89 99v301h179v-511q-55 -42 -55 -75q0 -28 30 -28q15 0 30 5v-80q-38 -16 -90 -16z" />
    <glyph glyph-name="Wcircumflex" unicode="&#x174;" horiz-adv-x="1004" 
d="M18 715h207l92 -446l96 446h182l104 -450l97 450h190l-167 -715h-214l-110 454l-111 -454h-200zM430 905h150l110 -146h-130l-59 49l-58 -49h-127z" />
    <glyph glyph-name="wcircumflex" unicode="&#x175;" horiz-adv-x="853" 
d="M13 523h187l76 -313l88 313h144l78 -313l85 313h170l-166 -523h-171l-78 292l-81 -292h-174zM364 748h128l118 -163h-125l-61 56l-60 -56h-123z" />
    <glyph glyph-name="Ycircumflex" unicode="&#x176;" horiz-adv-x="685" 
d="M245 306l-233 409h223l121 -241l121 241h196l-222 -409v-306h-206v306zM276 905h150l110 -146h-130l-59 49l-58 -49h-127z" />
    <glyph glyph-name="ycircumflex" unicode="&#x177;" horiz-adv-x="597" 
d="M221 53l-209 470h194l108 -279l100 279h171l-280 -698h-171zM244 748h128l118 -163h-125l-61 56l-60 -56h-123z" />
    <glyph glyph-name="Ydieresis" unicode="&#x178;" horiz-adv-x="685" 
d="M245 306l-233 409h223l121 -241l121 241h196l-222 -409v-306h-206v306zM237 758q-36 0 -60 24q-25 23 -25 59q0 35 25 59.5t60 24.5q36 0 61 -24.5t25 -59.5t-25 -59t-61 -24zM460 758q-36 0 -60.5 24t-24.5 59t24.5 59.5t60.5 24.5t61 -24.5t25 -59.5t-25 -59t-61 -24z
" />
    <glyph glyph-name="Zacute" unicode="&#x179;" horiz-adv-x="635" 
d="M17 23l304 535h-265v157h556v-22l-300 -535h285v-158h-580v23zM300 905h187l-103 -146h-135z" />
    <glyph glyph-name="zacute" unicode="&#x17a;" horiz-adv-x="516" 
d="M14 18l229 370h-205v135h461v-19l-235 -369h223v-135h-473v18zM248 749h180l-105 -166h-128z" />
    <glyph glyph-name="Zdotaccent" unicode="&#x17b;" horiz-adv-x="635" 
d="M17 23l304 535h-265v157h556v-22l-300 -535h285v-158h-580v23zM326 757q-41 0 -68 25.5t-27 64.5q0 38 27 63.5t68 25.5t68 -25.5t27 -63.5q0 -39 -27 -64.5t-68 -25.5z" />
    <glyph glyph-name="zdotaccent" unicode="&#x17c;" horiz-adv-x="516" 
d="M14 18l229 370h-205v135h461v-19l-235 -369h223v-135h-473v18zM265 579q-42 0 -69 25.5t-27 64.5q0 38 27.5 63.5t68.5 25.5t68 -25.5t27 -63.5q0 -39 -27 -64.5t-68 -25.5z" />
    <glyph glyph-name="Zcaron" unicode="&#x17d;" horiz-adv-x="635" 
d="M17 23l304 535h-265v157h556v-22l-300 -535h285v-158h-580v23zM137 905h130l58 -49l59 49h127l-114 -146h-150z" />
    <glyph glyph-name="zcaron" unicode="&#x17e;" horiz-adv-x="516" 
d="M14 18l229 370h-205v135h461v-19l-235 -369h223v-135h-473v18zM79 748h125l61 -56l61 56h122l-123 -163h-127z" />
    <glyph glyph-name="uni0192" unicode="&#x192;" horiz-adv-x="447" 
d="M23 414h90l18 125q27 186 221 186q39 0 78 -11v-134q-26 7 -51 7q-62 0 -71 -63l-16 -110h113v-121h-130l-68 -475h-178l67 475h-73v121z" />
    <glyph glyph-name="Aringacute" unicode="&#x1fa;" horiz-adv-x="755" 
d="M246 715h265l227 -715h-217l-38 133h-237l-38 -133h-191zM286 274h157l-78 275zM379 807q20 0 33 14t13 36q0 23 -12.5 36.5t-33.5 13.5t-33.5 -13.5t-12.5 -36.5q0 -22 12.5 -36t33.5 -14zM379 741q-49 0 -84 35q-36 31 -36 81q0 49 36 82q34 34 84 34q48 0 85 -34
q35 -35 35 -82q0 -48 -35 -81q-38 -35 -85 -35zM361 1137h187l-103 -146h-135z" />
    <glyph glyph-name="aringacute" unicode="&#x1fb;" horiz-adv-x="586" 
d="M204 -12q-76 0 -123 37q-54 41 -54 120q0 171 278 171h50v12q0 42 -14.5 62.5t-54.5 20.5q-63 0 -71 -62h-168q6 92 75 142q64 46 175 46q112 0 172 -47q64 -50 64 -151v-339h-174v61q-47 -73 -155 -73zM266 109q39 0 64 20.5t25 53.5v32h-47q-55 0 -79.5 -12.5
t-24.5 -44.5q0 -49 62 -49zM296 636q20 0 33 14t13 36q0 23 -13 37t-33 14t-33 -14t-13 -37q0 -22 13 -36t33 -14zM296 572q-49 0 -83 34q-35 33 -35 80q0 46 35 81q34 34 83 34t83 -34q35 -35 35 -81q0 -47 -35 -80q-34 -34 -83 -34zM284 975h187l-103 -146h-135z" />
    <glyph glyph-name="AEacute" unicode="&#x1fc;" horiz-adv-x="1010" 
d="M336 715h622v-158h-283v-123h223v-146h-223v-130h299v-158h-504v146h-197l-63 -146h-195zM332 284h138v273h-20zM592 905h187l-103 -146h-135z" />
    <glyph glyph-name="aeacute" unicode="&#x1fd;" horiz-adv-x="916" 
d="M631 -12q-141 0 -203 91q-69 -91 -207 -91q-84 0 -136 37q-58 40 -58 120q0 175 277 173h53v9q0 42 -15 63t-55 21q-63 0 -72 -62h-168q6 91 74 142q64 46 169 46q121 0 169 -62q67 62 167 62q114 0 184 -64q78 -71 78 -207v-46h-360q8 -109 104 -109q77 0 89 62h167
q-12 -90 -77.5 -137.5t-179.5 -47.5zM715 318q-6 101 -89 101q-40 0 -66 -26.5t-31 -74.5h186zM267 109q42 0 66 20t24 54v34h-50q-53 1 -78 -11t-25 -44q0 -53 63 -53zM458 749h180l-105 -166h-128z" />
    <glyph glyph-name="Oslashacute" unicode="&#x1fe;" horiz-adv-x="827" 
d="M36 26l80 85q-81 98 -81 242v8q0 161 109 264q106 100 269 100q129 0 227 -62l73 77l59 -58l-69 -73q89 -95 89 -243v-8q0 -168 -104 -267q-106 -103 -278 -103q-138 0 -233 67l-82 -87zM414 149q77 0 121.5 54.5t44.5 151.5v8q0 58 -16 99l-260 -273q43 -40 110 -40z
M247 354q0 -51 13 -92l255 270q-39 33 -102 33q-78 0 -122 -53t-44 -150v-8zM388 905h187l-103 -146h-135z" />
    <glyph glyph-name="oslashacute" unicode="&#x1ff;" horiz-adv-x="630" 
d="M25 9l66 70q-62 70 -62 176v8q0 123 83 200q79 74 204 74q93 0 163 -43l65 69l52 -48l-62 -66q67 -73 67 -181v-8q0 -124 -82 -200q-80 -72 -204 -72q-97 0 -170 45l-68 -72zM316 120q51 0 78 36t27 102v8q0 31 -6 55l-167 -178q26 -23 68 -23zM210 260q0 -29 4 -49
l163 174q-22 19 -61 19q-51 0 -78.5 -35t-27.5 -101v-8zM298 749h180l-105 -166h-128z" />
    <glyph glyph-name="uni0218" unicode="&#x218;" horiz-adv-x="651" 
d="M335 -12q-297 0 -308 239h195q5 -45 27 -65q26 -28 86 -28q44 0 68 19t24 52q0 31 -24 47q-20 11 -89 22q-152 18 -210 69q-60 50 -60 159q0 98 74 160q76 63 203 63q263 0 282 -223h-190q-11 77 -92 77q-41 0 -62 -16.5t-21 -44.5q0 -30 23 -45q24 -18 88 -25
q144 -17 205 -60q69 -54 69 -162q0 -102 -75 -168q-80 -70 -213 -70zM209 -205l42 177l158 -19l-99 -185z" />
    <glyph glyph-name="uni0219" unicode="&#x219;" horiz-adv-x="515" 
d="M261 -12q-113 0 -175 45.5t-65 132.5h165q6 -31 21.5 -45t52.5 -14q64 0 64 43q0 19 -21 29t-76 18q-109 14 -152 50q-47 37 -47 118q0 83 67 130q60 42 157 42q103 0 159 -38q62 -42 72 -131h-162q-10 52 -67 52q-28 0 -43.5 -11t-15.5 -30q0 -18 19.5 -27.5t68.5 -15.5
q113 -14 162 -48q53 -40 53 -120q0 -91 -62.5 -135.5t-174.5 -44.5zM142 -205l42 177l158 -19l-99 -185z" />
    <glyph glyph-name="uni021A" unicode="&#x21a;" horiz-adv-x="618" 
d="M210 557h-185v158h576v-158h-185v-557h-206v557zM196 -205l42 177l158 -19l-99 -185z" />
    <glyph glyph-name="uni021B" unicode="&#x21b;" horiz-adv-x="389" 
d="M265 -12q-184 0 -184 180v233h-63v122h63v109h179v-109h103v-122h-103v-216q0 -55 53 -55q30 0 51 9v-136q-49 -15 -99 -15zM98 -205l42 177l158 -19l-99 -185z" />
    <glyph glyph-name="uni0237" unicode="&#x237;" horiz-adv-x="303" 
d="M-2 -54q33 2 48.5 17t15.5 45v515h178v-519q0 -92 -50 -137q-59 -51 -192 -51v130z" />
    <glyph glyph-name="uni02BC" unicode="&#x2bc;" horiz-adv-x="318" 
d="M46 467l80 261l158 -53l-137 -247z" />
    <glyph glyph-name="circumflex" unicode="&#x2c6;" horiz-adv-x="408" 
d="M142 748h128l118 -163h-125l-61 56l-60 -56h-123z" />
    <glyph glyph-name="caron" unicode="&#x2c7;" horiz-adv-x="408" 
d="M19 748h125l61 -56l61 56h122l-123 -163h-127z" />
    <glyph glyph-name="breve" unicode="&#x2d8;" horiz-adv-x="408" 
d="M203 587q-73 0 -116 41.5t-47 116.5h111q5 -48 52 -48q49 0 54 48h111q-5 -75 -49.5 -116.5t-115.5 -41.5z" />
    <glyph glyph-name="dotaccent" unicode="&#x2d9;" horiz-adv-x="408" 
d="M204 579q-42 0 -69 25.5t-27 64.5q0 38 27.5 63.5t68.5 25.5t68 -25.5t27 -63.5q0 -39 -27 -64.5t-68 -25.5z" />
    <glyph glyph-name="ring" unicode="&#x2da;" horiz-adv-x="408" 
d="M204 642q20 0 33 14t13 36q0 23 -13 37t-33 14t-33 -14t-13 -37q0 -22 13 -36t33 -14zM204 578q-49 0 -83 34q-35 33 -35 80q0 46 35 81q34 34 83 34t83 -34q35 -35 35 -81q0 -47 -35 -80q-34 -34 -83 -34z" />
    <glyph glyph-name="ogonek" unicode="&#x2db;" horiz-adv-x="408" 
d="M203 -182q-51 0 -84 21t-33 58q0 35 27 62q19 20 59 41h102q-42 -34 -42 -63q0 -28 30 -28q20 0 30 5v-80q-38 -16 -89 -16z" />
    <glyph glyph-name="tilde" unicode="&#x2dc;" horiz-adv-x="408" 
d="M268 587q-32 0 -68 17q-38 16 -49 16q-26 0 -31 -32h-97q5 77 35.5 116.5t79.5 39.5q26 0 68 -17q40 -17 51 -17q25 0 32 32h97q-6 -75 -38.5 -115t-79.5 -40z" />
    <glyph glyph-name="hungarumlaut" unicode="&#x2dd;" horiz-adv-x="408" 
d="M102 749h140l-77 -166h-107zM279 749h140l-77 -166h-106z" />
    <glyph glyph-name="uni037E" unicode="&#x37e;" horiz-adv-x="321" 
d="M14 -81l83 263l166 -59l-143 -245zM178 275q-45 0 -73.5 29t-28.5 72t29 72t73 29q43 0 75 -29q30 -30 30 -72q0 -43 -30 -72t-75 -29z" />
    <glyph glyph-name="tonos" unicode="&#x384;" horiz-adv-x="400" 
d="M186 749h180l-105 -166h-128z" />
    <glyph glyph-name="dieresistonos" unicode="&#x385;" horiz-adv-x="479" 
d="M209 770h135l-83 -178h-98zM407 587q-32 0 -54 21.5t-22 52.5q0 30 22 52t54 22t54 -22t22 -52q0 -31 -22 -52.5t-54 -21.5zM72 587q-32 0 -54 21.5t-22 52.5q0 30 22 52t54 22t54 -22t22 -52q0 -31 -22 -52.5t-54 -21.5z" />
    <glyph glyph-name="Alphatonos" unicode="&#x386;" horiz-adv-x="747" 
d="M246 715h265l227 -715h-217l-38 133h-237l-38 -133h-191zM286 274h157l-78 275zM4 716h180l-105 -166h-128z" />
    <glyph glyph-name="anoteleia" unicode="&#x387;" horiz-adv-x="299" 
d="M152 225q-46 0 -73 30q-29 26 -29 71q0 43 29 72t73 29q43 0 75 -29q30 -30 30 -72q0 -44 -30 -71q-30 -30 -75 -30z" />
    <glyph glyph-name="Epsilontonos" unicode="&#x388;" horiz-adv-x="612" 
d="M-136 716h180l-105 -166h-128zM73 715h494v-158h-290v-123h231v-146h-231v-130h306v-158h-510v715z" />
    <glyph glyph-name="Etatonos" unicode="&#x389;" horiz-adv-x="784" 
d="M73 715h206v-273h235v273h205v-715h-205v282h-235v-282h-206v715zM-136 716h180l-105 -166h-128z" />
    <glyph glyph-name="Iotatonos" unicode="&#x38a;" horiz-adv-x="352" 
d="M77 715h207v-715h-207v715zM-136 716h180l-105 -166h-128z" />
    <glyph glyph-name="Omicrontonos" unicode="&#x38c;" horiz-adv-x="819" 
d="M-73 716h180l-105 -166h-128zM414 149q76 0 120 55t44 151v8q0 95 -44.5 148.5t-120.5 53.5q-77 0 -120.5 -53t-43.5 -150v-8q0 -97 44.5 -151t120.5 -54zM410 -12q-170 0 -274 102q-101 99 -101 263v8q0 161 109 264q106 100 269 100q165 0 272 -96q107 -101 107 -263
v-8q0 -168 -104 -267q-106 -103 -278 -103z" />
    <glyph glyph-name="Upsilontonos" unicode="&#x38e;" horiz-adv-x="677" 
d="M245 306l-233 409h223l121 -241l121 241h196l-222 -409v-306h-206v306zM-183 716h180l-105 -166h-128z" />
    <glyph glyph-name="Omegatonos" unicode="&#x38f;" horiz-adv-x="825" 
d="M246 353q0 -159 121 -251v-102h-330v153h105q-46 34 -76.5 93t-30.5 125v6q0 149 105.5 248.5t271.5 99.5q169 0 273.5 -95.5t104.5 -248.5v-6q0 -70 -30.5 -129.5t-76.5 -92.5h105v-153h-331v102q122 90 122 251v8q0 96 -43.5 150t-123.5 54t-123 -53.5t-43 -150.5v-8z
M-73 716h180l-105 -166h-128z" />
    <glyph glyph-name="iotadieresistonos" unicode="&#x390;" horiz-adv-x="295" 
d="M58 523h179v-523h-179v523zM140 770h135l-83 -178h-98zM338 587q-32 0 -54 21.5t-22 52.5q0 30 22 52t54 22t54 -22t22 -52q0 -31 -22 -52.5t-54 -21.5zM3 587q-32 0 -54 21.5t-22 52.5q0 30 22 52t54 22t54 -22t22 -52q0 -31 -22 -52.5t-54 -21.5z" />
    <glyph glyph-name="Alpha" unicode="&#x391;" horiz-adv-x="747" 
d="M246 715h265l227 -715h-217l-38 133h-237l-38 -133h-191zM286 274h157l-78 275z" />
    <glyph glyph-name="Beta" unicode="&#x392;" horiz-adv-x="679" 
d="M73 715h319q123 0 184 -52q57 -48 57 -135v-4q0 -123 -121 -154q143 -24 143 -167v-4q0 -199 -260 -199h-322v715zM358 137q95 0 95 83v4q0 42 -24 62t-77 20h-79v-169h85zM351 431q48 0 68 17t20 56v4q0 37 -20.5 54t-67.5 17h-78v-148h78z" />
    <glyph glyph-name="Gamma" unicode="&#x393;" horiz-adv-x="568" 
d="M69 715h478v-159h-272v-556h-206v715z" />
    <glyph glyph-name="uni0394" unicode="&#x394;" horiz-adv-x="758" 
d="M20 23l219 692h283l216 -692v-23h-718v23zM247 158h242l-120 413z" />
    <glyph glyph-name="Epsilon" unicode="&#x395;" horiz-adv-x="612" 
d="M73 715h494v-158h-290v-123h231v-146h-231v-130h306v-158h-510v715z" />
    <glyph glyph-name="Zeta" unicode="&#x396;" horiz-adv-x="627" 
d="M17 23l304 535h-265v157h556v-22l-300 -535h285v-158h-580v23z" />
    <glyph glyph-name="Eta" unicode="&#x397;" horiz-adv-x="784" 
d="M73 715h206v-273h235v273h205v-715h-205v282h-235v-282h-206v715z" />
    <glyph glyph-name="Theta" unicode="&#x398;" horiz-adv-x="834" 
d="M414 -12q-177 0 -280 99t-103 266v8q0 166 108.5 265t277.5 99q172 0 279 -95.5t107 -263.5v-8q0 -170 -105.5 -270t-283.5 -100zM418 145q81 0 127.5 56.5t46.5 153.5v8q0 96 -47 151t-128 55t-127.5 -54.5t-46.5 -152.5v-8q0 -97 47.5 -153t127.5 -56zM322 424h190
v-128h-190v128z" />
    <glyph glyph-name="Iota" unicode="&#x399;" horiz-adv-x="352" 
d="M77 715h207v-715h-207v715z" />
    <glyph glyph-name="Kappa" unicode="&#x39a;" horiz-adv-x="726" 
d="M73 715h206v-283l215 283h214l-262 -332l276 -383h-237l-206 299v-299h-206v715z" />
    <glyph glyph-name="Lambda" unicode="&#x39b;" horiz-adv-x="729" 
d="M716 0h-220l-145 496l-146 -496h-192l232 715h238z" />
    <glyph glyph-name="Mu" unicode="&#x39c;" horiz-adv-x="942" 
d="M73 715h267l137 -381l137 381h262v-715h-204v445l-175 -445h-68l-173 445v-445h-183v715z" />
    <glyph glyph-name="Nu" unicode="&#x39d;" horiz-adv-x="777" 
d="M73 715h231l229 -403v403h179v-715h-198l-261 449v-449h-180v715z" />
    <glyph glyph-name="Xi" unicode="&#x39e;" horiz-adv-x="623" 
d="M584 715v-163h-544v163h544zM536 435v-152h-449v152h449zM33 164h557v-164h-557v164z" />
    <glyph glyph-name="Omicron" unicode="&#x39f;" horiz-adv-x="819" 
d="M414 149q76 0 120 55t44 151v8q0 95 -44.5 148.5t-120.5 53.5q-77 0 -120.5 -53t-43.5 -150v-8q0 -97 44.5 -151t120.5 -54zM410 -12q-170 0 -274 102q-101 99 -101 263v8q0 161 109 264q106 100 269 100q165 0 272 -96q107 -101 107 -263v-8q0 -168 -104 -267
q-106 -103 -278 -103z" />
    <glyph glyph-name="Pi" unicode="&#x3a0;" horiz-adv-x="777" 
d="M69 715h639v-715h-205v550h-228v-550h-206v715z" />
    <glyph glyph-name="Rho" unicode="&#x3a1;" horiz-adv-x="652" 
d="M73 715h272q145 0 216 -61.5t71 -177.5v-4q0 -113 -71.5 -172t-206.5 -59h-77v-241h-204v715zM336 381q101 0 101 90v4q0 86 -100 86h-60v-180h59z" />
    <glyph glyph-name="Sigma" unicode="&#x3a3;" horiz-adv-x="609" 
d="M42 561v154h519v-154h-283l162 -190l-162 -209h298v-162h-538v131l175 228z" />
    <glyph glyph-name="Tau" unicode="&#x3a4;" horiz-adv-x="618" 
d="M210 557h-185v158h576v-158h-185v-557h-206v557z" />
    <glyph glyph-name="Upsilon" unicode="&#x3a5;" horiz-adv-x="677" 
d="M245 306l-233 409h223l121 -241l121 241h196l-222 -409v-306h-206v306z" />
    <glyph glyph-name="Phi" unicode="&#x3a6;" horiz-adv-x="955" 
d="M384 42q-167 8 -260 96.5t-93 220.5v6q0 131 97 218.5t256 97.5v61h186v-61q162 -10 258 -93.5t96 -216.5v-7q0 -136 -93 -224t-261 -98v-69h-186v69zM234 360q0 -69 38.5 -112.5t111.5 -54.5v338q-150 -22 -150 -165v-6zM721 367q0 68 -38.5 110.5t-112.5 53.5v-339
q74 11 112.5 54.5t38.5 113.5v7z" />
    <glyph glyph-name="Chi" unicode="&#x3a7;" horiz-adv-x="755" 
d="M247 368l-204 347h233l112 -213l110 213h210l-192 -340l221 -375h-234l-133 246l-133 -246h-211z" />
    <glyph glyph-name="Psi" unicode="&#x3a8;" horiz-adv-x="897" 
d="M358 164q-155 8 -233.5 88t-78.5 210v253h195v-239q0 -72 27 -109.5t90 -45.5v394h186v-392q62 12 92.5 49t30.5 112v231h185v-239q0 -134 -76.5 -215.5t-231.5 -95.5v-165h-186v164z" />
    <glyph glyph-name="uni03A9" unicode="&#x3a9;" horiz-adv-x="825" 
d="M246 353q0 -159 121 -251v-102h-330v153h105q-46 34 -76.5 93t-30.5 125v6q0 149 105.5 248.5t271.5 99.5q169 0 273.5 -95.5t104.5 -248.5v-6q0 -70 -30.5 -129.5t-76.5 -92.5h105v-153h-331v102q122 90 122 251v8q0 96 -43.5 150t-123.5 54t-123 -53.5t-43 -150.5v-8z
" />
    <glyph glyph-name="Iotadieresis" unicode="&#x3aa;" horiz-adv-x="352" 
d="M77 715h207v-715h-207v715zM68 758q-36 0 -60 24q-25 23 -25 59q0 35 25 59.5t60 24.5q36 0 61 -24.5t25 -59.5t-25 -59t-61 -24zM291 758q-36 0 -60.5 24t-24.5 59t24.5 59.5t60.5 24.5t61 -24.5t25 -59.5t-25 -59t-61 -24z" />
    <glyph glyph-name="Upsilondieresis" unicode="&#x3ab;" horiz-adv-x="677" 
d="M245 306l-233 409h223l121 -241l121 241h196l-222 -409v-306h-206v306zM240 758q-36 0 -60 24q-25 23 -25 59q0 35 25 59.5t60 24.5q36 0 61 -24.5t25 -59.5t-25 -59t-61 -24zM463 758q-36 0 -60.5 24t-24.5 59t24.5 59.5t60.5 24.5t61 -24.5t25 -59.5t-25 -59t-61 -24z
" />
    <glyph glyph-name="alphatonos" unicode="&#x3ac;" horiz-adv-x="634" 
d="M306 125q46 0 73.5 34.5t27.5 99.5v8q0 67 -26 101t-72 34q-100 0 -100 -136v-8q0 -65 25.5 -99t71.5 -34zM245 -12q-93 0 -155.5 69.5t-62.5 198.5v8q0 128 63.5 200.5t155.5 72.5q105 0 156 -87v73h179v-523h-179v84q-22 -43 -62.5 -69.5t-94.5 -26.5zM322 749h180
l-105 -166h-128z" />
    <glyph glyph-name="epsilontonos" unicode="&#x3ad;" horiz-adv-x="578" 
d="M139 273q-43 9 -72 39.5t-29 73.5q0 66 60.5 108.5t192.5 42.5q111 0 181 -42t81 -132h-168q-6 56 -84 56q-80 0 -80 -53q0 -47 55 -47h96v-101h-95q-69 0 -69 -52q0 -54 92 -54q88 0 95 62h163q-17 -186 -266 -186q-133 0 -199.5 41.5t-66.5 118.5q0 48 29.5 81t83.5 44
zM295 749h180l-105 -166h-128z" />
    <glyph glyph-name="etatonos" unicode="&#x3ae;" horiz-adv-x="624" 
d="M53 523h179v-84q50 98 172 98q78 0 124.5 -50t46.5 -147v-515h-179v479q0 88 -75 88q-41 0 -65 -25t-24 -74v-293h-179v523zM302 749h180l-105 -166h-128z" />
    <glyph glyph-name="iotatonos" unicode="&#x3af;" horiz-adv-x="295" 
d="M58 523h179v-523h-179v523zM141 749h180l-105 -166h-128z" />
    <glyph glyph-name="upsilondieresistonos" unicode="&#x3b0;" horiz-adv-x="615" 
d="M307 -12q-126 0 -193 66t-67 179v290h179v-300q0 -100 82 -100q81 0 81 98v302h179v-287q0 -117 -67 -182.5t-194 -65.5zM282 770h135l-83 -178h-98zM480 587q-32 0 -54 21.5t-22 52.5q0 30 22 52t54 22t54 -22t22 -52q0 -31 -22 -52.5t-54 -21.5zM145 587
q-32 0 -54 21.5t-22 52.5q0 30 22 52t54 22t54 -22t22 -52q0 -31 -22 -52.5t-54 -21.5z" />
    <glyph glyph-name="alpha" unicode="&#x3b1;" horiz-adv-x="634" 
d="M306 125q46 0 73.5 34.5t27.5 99.5v8q0 67 -26 101t-72 34q-100 0 -100 -136v-8q0 -65 25.5 -99t71.5 -34zM245 -12q-93 0 -155.5 69.5t-62.5 198.5v8q0 128 63.5 200.5t155.5 72.5q105 0 156 -87v73h179v-523h-179v84q-22 -43 -62.5 -69.5t-94.5 -26.5z" />
    <glyph glyph-name="beta" unicode="&#x3b2;" horiz-adv-x="635" 
d="M303 463q55 -2 82.5 22t27.5 66v5q0 36 -24 58t-66 22t-66.5 -27.5t-24.5 -77.5v-291q0 -54 29.5 -84t68.5 -30q44 0 71.5 27t27.5 80v6q0 50 -32 76.5t-94 23.5v124zM461 413q69 -17 109.5 -67.5t40.5 -122.5v-7q0 -99 -64 -161t-164 -62q-48 0 -89 22.5t-62 63.5v-254
h-179v696q0 119 73 179.5t194 60.5q115 0 185.5 -51t70.5 -140v-4q0 -53 -31.5 -95t-83.5 -58z" />
    <glyph glyph-name="gamma" unicode="&#x3b3;" horiz-adv-x="611" 
d="M432 523h172l-209 -516v-182h-178v182l-210 516h193l116 -325z" />
    <glyph glyph-name="delta" unicode="&#x3b4;" horiz-adv-x="619" 
d="M108 753h433v-136h-201l132 -133q66 -66 94 -114.5t28 -115.5v-8q0 -113 -82 -185.5t-203 -72.5q-123 0 -203.5 69.5t-80.5 186.5v7q0 95 60 162t156 67q19 0 33 -5l-166 165v113zM412 255q0 57 -27 90t-75 33q-50 0 -76 -32t-26 -89v-7q0 -60 25.5 -94.5t76.5 -34.5
q50 0 76 33.5t26 93.5v7z" />
    <glyph glyph-name="epsilon" unicode="&#x3b5;" horiz-adv-x="578" 
d="M139 273q-43 9 -72 39.5t-29 73.5q0 66 60.5 108.5t192.5 42.5q111 0 181 -42t81 -132h-168q-6 56 -84 56q-80 0 -80 -53q0 -47 55 -47h96v-101h-95q-69 0 -69 -52q0 -54 92 -54q88 0 95 62h163q-17 -186 -266 -186q-133 0 -199.5 41.5t-66.5 118.5q0 48 29.5 81t83.5 44
z" />
    <glyph glyph-name="zeta" unicode="&#x3b6;" horiz-adv-x="517" 
d="M259 0q-111 0 -172.5 56.5t-61.5 155.5q0 97 60 201t148 188h-173v152h457v-38q-132 -128 -219.5 -264t-87.5 -221q0 -46 23.5 -65.5t70.5 -19.5h45q80 0 120.5 -39t40.5 -106q0 -57 -29 -147h-139q18 54 18 91q0 56 -55 56h-46z" />
    <glyph glyph-name="eta" unicode="&#x3b7;" horiz-adv-x="624" 
d="M53 523h179v-84q50 98 172 98q78 0 124.5 -50t46.5 -147v-515h-179v479q0 88 -75 88q-41 0 -65 -25t-24 -74v-293h-179v523z" />
    <glyph glyph-name="theta" unicode="&#x3b8;" horiz-adv-x="638" 
d="M599 363q0 -177 -70.5 -276t-209.5 -99q-138 0 -209 97.5t-71 272.5v34q0 172 74.5 270.5t205.5 98.5q133 0 206.5 -94.5t73.5 -271.5v-32zM426 439q-2 95 -27 142t-80 47t-80.5 -47.5t-27.5 -141.5h215zM320 119q54 0 79.5 48.5t27.5 143.5h-216q1 -96 26.5 -144
t82.5 -48z" />
    <glyph glyph-name="iota" unicode="&#x3b9;" horiz-adv-x="295" 
d="M58 523h179v-523h-179v523z" />
    <glyph glyph-name="kappa" unicode="&#x3ba;" horiz-adv-x="581" 
d="M232 224v-224h-179v523h179v-218l153 218h187l-181 -245l187 -278h-200z" />
    <glyph glyph-name="lambda" unicode="&#x3bb;" horiz-adv-x="601" 
d="M183 573q-11 29 -27 40.5t-44 11.5q-23 0 -65 -11v130q45 17 118 17q61 0 105 -32t76 -118l163 -436q15 -40 47 -40q11 0 39 4v-135q-31 -12 -89 -12q-106 0 -148 118l-71 203l-100 -313h-186l204 515z" />
    <glyph glyph-name="uni03BC" unicode="&#x3bc;" horiz-adv-x="625" 
d="M53 523h179v-317q0 -86 74 -86q89 0 89 99v304h179v-523h-176v71q-26 -71 -97 -71q-45 0 -69 37v-212h-179v698z" />
    <glyph glyph-name="nu" unicode="&#x3bd;" horiz-adv-x="593" 
d="M12 523h191l109 -337l107 337h171l-191 -523h-195z" />
    <glyph glyph-name="xi" unicode="&#x3be;" horiz-adv-x="530" 
d="M363 144q79 0 118 -39t39 -106q0 -51 -28 -146h-139q18 54 18 91q0 56 -55 56h-36q-117 0 -186 55.5t-69 153.5q0 70 42.5 119t107.5 61q-103 34 -103 124q0 86 92 115h-125v125h464v-142h-140q-114 0 -114 -78q0 -33 25 -53t71 -20h113v-147h-136q-114 0 -114 -91
q0 -78 106 -78h49z" />
    <glyph glyph-name="omicron" unicode="&#x3bf;" horiz-adv-x="622" 
d="M316 121q103 0 103 137v8q0 137 -103 137q-104 0 -104 -135v-8q0 -139 104 -139zM315 -12q-124 0 -203 70q-83 72 -83 197v8q0 123 83 200q79 74 204 74t203 -72q82 -76 82 -197v-8q0 -124 -82 -200q-80 -72 -204 -72z" />
    <glyph glyph-name="pi" unicode="&#x3c0;" horiz-adv-x="655" 
d="M397 393h-139v-393h-178v393h-66v130h627v-130h-66v-393h-178v393z" />
    <glyph glyph-name="rho" unicode="&#x3c1;" horiz-adv-x="627" 
d="M320 121q99 0 99 137v8q0 137 -101 137q-103 0 -103 -135v-8q0 -139 105 -139zM357 -5q-41 0 -80 21.5t-59 58.5v-250h-180v439q0 124 78.5 198.5t201.5 74.5t203.5 -73.5t80.5 -195.5v-8q0 -122 -69.5 -193.5t-175.5 -71.5z" />
    <glyph glyph-name="uni03C2" unicode="&#x3c2;" horiz-adv-x="583" 
d="M208 263q0 -57 28 -90t86 -33h26q82 0 125.5 -38t43.5 -103q0 -54 -29 -146h-139q19 65 19 93q0 54 -55 54h-20q-118 0 -193 69.5t-75 185.5v8q0 126 79.5 200t199.5 74q106 0 177 -51.5t79 -163.5h-169q-12 76 -87 76q-45 0 -70.5 -33t-25.5 -93v-9z" />
    <glyph glyph-name="sigma" unicode="&#x3c3;" horiz-adv-x="649" 
d="M311 -12q-124 0 -205 72t-81 195v8q0 123 78 191.5t205 68.5h326v-130h-118q36 -18 56.5 -56t20.5 -82v-7q0 -120 -79 -190t-203 -70zM312 121q103 0 103 137v9q0 134 -103 134q-104 0 -104 -131v-10q0 -139 104 -139z" />
    <glyph glyph-name="tau" unicode="&#x3c4;" horiz-adv-x="496" 
d="M334 -8q-184 0 -184 195v206h-136v130h460v-130h-144v-190q0 -39 15.5 -56t50.5 -17q28 0 56 7v-134q-46 -11 -118 -11z" />
    <glyph glyph-name="upsilon" unicode="&#x3c5;" horiz-adv-x="615" 
d="M307 -12q-126 0 -193 66t-67 179v290h179v-300q0 -100 82 -100q81 0 81 98v302h179v-287q0 -117 -67 -182.5t-194 -65.5z" />
    <glyph glyph-name="phi" unicode="&#x3c6;" horiz-adv-x="828" 
d="M803 263q0 -129 -82.5 -198t-218.5 -71v-169h-177v169q-139 2 -219.5 69.5t-80.5 195.5v8q0 110 64 179.5t183 84.5v-132q-36 -14 -53 -46.5t-17 -89.5v-8q0 -64 28.5 -97.5t94.5 -38.5v411q47 7 129 7q162 0 255.5 -72.5t93.5 -193.5v-8zM626 269q0 136 -124 137v-287
q68 2 96 38.5t28 103.5v8z" />
    <glyph glyph-name="chi" unicode="&#x3c7;" horiz-adv-x="596" 
d="M196 194l-88 160q-20 36 -57 36q-16 0 -37 -7v130q41 20 95 20q51 0 85 -18.5t59 -66.5l64 -124l87 199h181l-180 -343l103 -182q20 -36 53 -36q17 0 32 4v-133q-39 -14 -92 -14q-95 0 -149 103l-68 130l-105 -227h-174z" />
    <glyph glyph-name="psi" unicode="&#x3c8;" horiz-adv-x="833" 
d="M221 253q0 -119 107 -128v398h177v-398q107 10 107 128v270h178v-267q0 -123 -79 -190t-206 -71v-170h-177v170q-132 4 -208.5 69t-76.5 192v267h178v-270z" />
    <glyph glyph-name="omega" unicode="&#x3c9;" horiz-adv-x="830" 
d="M503 210q0 -90 56 -90q64 0 64 124v8q0 65 -20 104t-71 50v131q133 -8 203 -84t70 -202v-8q0 -115 -59.5 -185t-163.5 -70q-119 0 -167 106q-18 -45 -60 -75.5t-106 -30.5q-107 0 -165.5 69.5t-58.5 185.5v8q0 126 70.5 202t202.5 84v-131q-90 -20 -90 -153v-8
q0 -125 64 -125q55 0 55 90v139h176v-139z" />
    <glyph glyph-name="iotadieresis" unicode="&#x3ca;" horiz-adv-x="295" 
d="M58 523h179v-523h-179v523zM45 580q-36 0 -60 24q-25 23 -25 59q0 35 25 60q24 24 60 24t61 -24.5t25 -59.5t-25 -59t-61 -24zM258 580q-36 0 -60.5 24t-24.5 59t24.5 59.5t60.5 24.5t61 -24.5t25 -59.5t-25 -59t-61 -24z" />
    <glyph glyph-name="upsilondieresis" unicode="&#x3cb;" horiz-adv-x="615" 
d="M307 -12q-126 0 -193 66t-67 179v290h179v-300q0 -100 82 -100q81 0 81 98v302h179v-287q0 -117 -67 -182.5t-194 -65.5zM204 580q-36 0 -60 24q-25 23 -25 59q0 35 25 60q24 24 60 24t61 -24.5t25 -59.5t-25 -59t-61 -24zM417 580q-36 0 -60.5 24t-24.5 59t24.5 59.5
t60.5 24.5t61 -24.5t25 -59.5t-25 -59t-61 -24z" />
    <glyph glyph-name="omicrontonos" unicode="&#x3cc;" horiz-adv-x="622" 
d="M316 121q103 0 103 137v8q0 137 -103 137q-104 0 -104 -135v-8q0 -139 104 -139zM315 -12q-124 0 -203 70q-83 72 -83 197v8q0 123 83 200q79 74 204 74t203 -72q82 -76 82 -197v-8q0 -124 -82 -200q-80 -72 -204 -72zM303 749h180l-105 -166h-128z" />
    <glyph glyph-name="upsilontonos" unicode="&#x3cd;" horiz-adv-x="615" 
d="M307 -12q-126 0 -193 66t-67 179v290h179v-300q0 -100 82 -100q81 0 81 98v302h179v-287q0 -117 -67 -182.5t-194 -65.5zM298 749h180l-105 -166h-128z" />
    <glyph glyph-name="omegatonos" unicode="&#x3ce;" horiz-adv-x="830" 
d="M503 210q0 -90 56 -90q64 0 64 124v8q0 65 -20 104t-71 50v131q133 -8 203 -84t70 -202v-8q0 -115 -59.5 -185t-163.5 -70q-119 0 -167 106q-18 -45 -60 -75.5t-106 -30.5q-107 0 -165.5 69.5t-58.5 185.5v8q0 126 70.5 202t202.5 84v-131q-90 -20 -90 -153v-8
q0 -125 64 -125q55 0 55 90v139h176v-139zM409 749h180l-105 -166h-128z" />
    <glyph glyph-name="uni0401" unicode="&#x401;" horiz-adv-x="612" 
d="M73 715h494v-158h-290v-123h231v-146h-231v-130h306v-158h-510v715zM215 758q-36 0 -60 24q-25 23 -25 59q0 35 25 59.5t60 24.5q36 0 61 -24.5t25 -59.5t-25 -59t-61 -24zM438 758q-36 0 -60.5 24t-24.5 59t24.5 59.5t60.5 24.5t61 -24.5t25 -59.5t-25 -59t-61 -24z" />
    <glyph glyph-name="uni0402" unicode="&#x402;" horiz-adv-x="831" 
d="M412 404q19 14 43 24q56 24 123 24q113 0 168 -64t55 -170q0 -240 -228 -240q-66 0 -110 23v153q37 -14 67 -14q66 0 66 77q0 74 -89 74q-38 0 -70 -16q-18 -10 -25 -15v-260h-206v557h-185v158h576v-158h-185v-153z" />
    <glyph glyph-name="uni0403" unicode="&#x403;" horiz-adv-x="569" 
d="M289 905h187l-103 -146h-135zM69 715h473v-159h-267v-556h-206v715z" />
    <glyph glyph-name="uni0404" unicode="&#x404;" horiz-adv-x="759" 
d="M738 264q-15 -135 -103 -205.5t-230 -70.5q-184 0 -278.5 97.5t-94.5 267.5v8q0 163 103 264t262 101q144 0 230.5 -66.5t101.5 -203.5h-211q-16 108 -120 108q-54 0 -91 -32.5t-51 -94.5h234v-150h-236q25 -135 147 -135q116 0 133 112h204z" />
    <glyph glyph-name="uni0405" unicode="&#x405;" horiz-adv-x="647" 
d="M335 -12q-297 0 -308 239h195q5 -45 27 -65q26 -28 86 -28q44 0 68 19t24 52q0 31 -24 47q-20 11 -89 22q-152 18 -210 69q-60 50 -60 159q0 98 74 160q76 63 203 63q263 0 282 -223h-190q-11 77 -92 77q-41 0 -62 -16.5t-21 -44.5q0 -30 23 -45q24 -18 88 -25
q144 -17 205 -60q69 -54 69 -162q0 -102 -75 -168q-80 -70 -213 -70z" />
    <glyph glyph-name="uni0406" unicode="&#x406;" horiz-adv-x="352" 
d="M77 715h207v-715h-207v715z" />
    <glyph glyph-name="uni0407" unicode="&#x407;" horiz-adv-x="352" 
d="M77 715h207v-715h-207v715zM68 758q-36 0 -60 24q-25 23 -25 59q0 35 25 59.5t60 24.5q36 0 61 -24.5t25 -59.5t-25 -59t-61 -24zM291 758q-36 0 -60.5 24t-24.5 59t24.5 59.5t60.5 24.5t61 -24.5t25 -59.5t-25 -59t-61 -24z" />
    <glyph glyph-name="uni0408" unicode="&#x408;" horiz-adv-x="478" 
d="M167 -9q-84 0 -130 24v153q42 -14 87 -14q93 0 93 99v462h206v-464q0 -260 -256 -260z" />
    <glyph glyph-name="uni0409" unicode="&#x409;" horiz-adv-x="1053" 
d="M480 555h-155q-7 -199 -10 -226q-5 -66 -14 -116t-26 -94t-42 -72t-62 -44t-85 -16q-11 0 -22 1.5t-18.5 3t-13.5 3.5l-9 3l-3 2v159q0 -1 5 -2q8 -2 17 -2q72 0 91 190q7 83 7 370h544v-251h67q136 0 207 -57t71 -169v-4q0 -234 -287 -234h-262v555zM734 154
q50 0 75 18.5t25 62.5v4q0 85 -101 85h-49v-170h50z" />
    <glyph glyph-name="uni040A" unicode="&#x40a;" horiz-adv-x="1053" 
d="M734 154q50 0 75 18.5t25 62.5v4q0 85 -101 85h-49v-170h50zM480 282h-205v-282h-206v715h206v-273h205v273h204v-251h67q136 0 207 -57t71 -169v-4q0 -234 -287 -234h-262v282z" />
    <glyph glyph-name="uni040B" unicode="&#x40b;" horiz-adv-x="841" 
d="M412 404q19 14 43 24q56 24 123 24q114 0 168.5 -65.5t54.5 -179.5v-207h-205v191q0 52 -19 76t-70 24q-38 0 -70 -16q-18 -10 -25 -15v-260h-206v557h-185v158h576v-158h-185v-153z" />
    <glyph glyph-name="uni040C" unicode="&#x40c;" horiz-adv-x="726" 
d="M73 715h206v-283l215 283h214l-262 -332l276 -383h-237l-206 299v-299h-206v715zM357 905h187l-103 -146h-135z" />
    <glyph glyph-name="uni040D" unicode="&#x40d;" horiz-adv-x="799" 
d="M69 0v715h206v-445l250 445h205v-715h-205v452l-250 -452h-206zM245 905h186l49 -146h-135z" />
    <glyph glyph-name="uni040E" unicode="&#x40e;" horiz-adv-x="662" 
d="M347 752q-77 0 -118.5 40t-46.5 113h121q5 -51 44 -51q40 0 47 51h120q-6 -73 -49.5 -113t-117.5 -40zM186 -10q-52 0 -77 14v159q33 -9 58 -9q54 0 90 60l-249 501h214l128 -280l113 280h199l-236 -533q-29 -65 -57.5 -104t-74 -63.5t-108.5 -24.5z" />
    <glyph glyph-name="uni040F" unicode="&#x40f;" horiz-adv-x="774" 
d="M69 0v715h206v-555h225v555h205v-715h-228l-2 -130h-175l-2 130h-229z" />
    <glyph glyph-name="uni0410" unicode="&#x410;" horiz-adv-x="747" 
d="M246 715h265l227 -715h-217l-38 133h-237l-38 -133h-191zM286 274h157l-78 275z" />
    <glyph glyph-name="uni0411" unicode="&#x411;" horiz-adv-x="648" 
d="M628 230q0 -110 -71.5 -170t-215.5 -60h-272v715h492v-158h-287l-1 -103h77q135 0 206.5 -56.5t71.5 -163.5v-4zM333 154q100 0 100 77v4q0 79 -101 79h-59v-160h60z" />
    <glyph glyph-name="uni0412" unicode="&#x412;" horiz-adv-x="679" 
d="M73 715h319q123 0 184 -52q57 -48 57 -135v-4q0 -123 -121 -154q143 -24 143 -167v-4q0 -199 -260 -199h-322v715zM358 137q95 0 95 83v4q0 42 -24 62t-77 20h-79v-169h85zM351 431q48 0 68 17t20 56v4q0 37 -20.5 54t-67.5 17h-78v-148h78z" />
    <glyph glyph-name="uni0413" unicode="&#x413;" horiz-adv-x="569" 
d="M69 715h473v-159h-267v-556h-206v715z" />
    <glyph glyph-name="uni0414" unicode="&#x414;" horiz-adv-x="765" 
d="M294 340q-11 -115 -40 -180h215v395h-165q-7 -187 -10 -215zM171 -130h-180v290h45q32 15 49.5 61.5t26.5 129.5q7 80 7 364h555v-555h91v-290h-180l-5 130h-404z" />
    <glyph glyph-name="uni0415" unicode="&#x415;" horiz-adv-x="612" 
d="M73 715h494v-158h-290v-123h231v-146h-231v-130h306v-158h-510v715z" />
    <glyph glyph-name="uni0416" unicode="&#x416;" horiz-adv-x="1027" 
d="M413 307l-186 -307h-219l245 379l-230 336h208l182 -291v291h201v-290l185 290h205l-233 -329l248 -386h-224l-181 307v-307h-201v307z" />
    <glyph glyph-name="uni0417" unicode="&#x417;" horiz-adv-x="673" 
d="M331 -12q-126 0 -210.5 67.5t-99.5 198.5h194q20 -102 119 -102q95 0 95 77q0 74 -84 74h-68v131h62q40 0 58 15.5t18 51.5q0 31 -22.5 47t-55.5 16q-49 0 -73 -25t-33 -73h-196q15 128 95.5 194t209.5 66q126 0 204.5 -56.5t78.5 -141.5q0 -127 -121 -158
q68 -12 105.5 -52.5t37.5 -107.5q0 -103 -86.5 -162.5t-227.5 -59.5z" />
    <glyph glyph-name="uni0418" unicode="&#x418;" horiz-adv-x="799" 
d="M69 0v715h206v-445l250 445h205v-715h-205v452l-250 -452h-206z" />
    <glyph glyph-name="uni0419" unicode="&#x419;" horiz-adv-x="799" 
d="M396 752q-77 0 -118.5 40t-46.5 113h121q5 -51 44 -51q40 0 47 51h120q-6 -73 -49.5 -113t-117.5 -40zM69 0v715h206v-445l250 445h205v-715h-205v452l-250 -452h-206z" />
    <glyph glyph-name="uni041A" unicode="&#x41a;" horiz-adv-x="726" 
d="M73 715h206v-283l215 283h214l-262 -332l276 -383h-237l-206 299v-299h-206v715z" />
    <glyph glyph-name="uni041B" unicode="&#x41b;" horiz-adv-x="754" 
d="M309 271q-17 -141 -67.5 -212.5t-155.5 -71.5q-11 0 -22 1.5t-18.5 3t-13.5 3.5l-9 3l-3 2v159q0 -1 5 -2q8 -2 17 -2q37 0 58 42t30 126q10 76 10 392h545v-715h-205v555h-155q-6 -207 -16 -284z" />
    <glyph glyph-name="uni041C" unicode="&#x41c;" horiz-adv-x="942" 
d="M73 715h267l137 -381l137 381h262v-715h-204v445l-175 -445h-68l-173 445v-445h-183v715z" />
    <glyph glyph-name="uni041D" unicode="&#x41d;" horiz-adv-x="784" 
d="M73 715h206v-273h235v273h205v-715h-205v282h-235v-282h-206v715z" />
    <glyph glyph-name="uni041E" unicode="&#x41e;" horiz-adv-x="819" 
d="M414 149q76 0 120 55t44 151v8q0 95 -44.5 148.5t-120.5 53.5q-77 0 -120.5 -53t-43.5 -150v-8q0 -97 44.5 -151t120.5 -54zM410 -12q-170 0 -274 102q-101 99 -101 263v8q0 161 109 264q106 100 269 100q165 0 272 -96q107 -101 107 -263v-8q0 -168 -104 -267
q-106 -103 -278 -103z" />
    <glyph glyph-name="uni041F" unicode="&#x41f;" horiz-adv-x="774" 
d="M500 555h-225v-555h-206v715h636v-715h-205v555z" />
    <glyph glyph-name="uni0420" unicode="&#x420;" horiz-adv-x="652" 
d="M73 715h272q145 0 216 -61.5t71 -177.5v-4q0 -113 -71.5 -172t-206.5 -59h-77v-241h-204v715zM336 381q101 0 101 90v4q0 86 -100 86h-60v-180h59z" />
    <glyph glyph-name="uni0421" unicode="&#x421;" horiz-adv-x="759" 
d="M409 -12q-185 0 -280 100q-93 94 -93 265v8q0 163 104 265q102 100 261 100q141 0 230 -66q90 -71 102 -209h-211q-12 113 -120 113q-70 0 -110 -52.5t-40 -149.5v-8q0 -97 39.5 -149.5t113.5 -52.5q117 0 133 117h204q-10 -134 -102 -210q-89 -71 -231 -71z" />
    <glyph glyph-name="uni0422" unicode="&#x422;" horiz-adv-x="618" 
d="M210 557h-185v158h576v-158h-185v-557h-206v557z" />
    <glyph glyph-name="uni0423" unicode="&#x423;" horiz-adv-x="662" 
d="M186 -10q-52 0 -77 14v159q33 -9 58 -9q54 0 90 60l-249 501h214l128 -280l113 280h199l-236 -533q-29 -65 -57.5 -104t-74 -63.5t-108.5 -24.5z" />
    <glyph glyph-name="uni0424" unicode="&#x424;" horiz-adv-x="935" 
d="M570 651q151 -4 243.5 -79.5t92.5 -204.5v-8q0 -129 -95.5 -204t-240.5 -79v-86h-205v86q-151 4 -243.5 79.5t-92.5 204.5v8q0 129 95.5 204t240.5 79v84h205v-84zM365 506q-57 -4 -95 -39t-38 -98v-8q0 -67 37 -101.5t96 -36.5v283zM570 221q58 2 95.5 37.5t37.5 99.5v8
q0 129 -133 138v-283z" />
    <glyph glyph-name="uni0425" unicode="&#x425;" horiz-adv-x="755" 
d="M247 368l-204 347h233l112 -213l110 213h210l-192 -340l221 -375h-234l-133 246l-133 -246h-211z" />
    <glyph glyph-name="uni0426" unicode="&#x426;" horiz-adv-x="795" 
d="M615 -130l-5 130h-541v715h206v-555h225v555h205v-555h90v-290h-180z" />
    <glyph glyph-name="uni0427" unicode="&#x427;" horiz-adv-x="741" 
d="M467 0v274q-17 -12 -40 -21q-49 -20 -121 -20q-133 0 -196 74t-63 222v186h205v-186q0 -73 25.5 -104t80.5 -31q44 0 80 15q19 9 29 16v290h205v-715h-205z" />
    <glyph glyph-name="uni0428" unicode="&#x428;" horiz-adv-x="1085" 
d="M69 715h206v-555h165v555h206v-555h165v555h205v-715h-947v715z" />
    <glyph glyph-name="uni0429" unicode="&#x429;" horiz-adv-x="1106" 
d="M926 -130l-5 130h-852v715h206v-555h165v555h206v-555h165v555h205v-555h90v-290h-180z" />
    <glyph glyph-name="uni042A" unicode="&#x42a;" horiz-adv-x="768" 
d="M185 557h-164v158h368v-241h77q135 0 206.5 -59t71.5 -172v-4q0 -116 -71 -177.5t-216 -61.5h-272v557zM449 154q100 0 100 86v4q0 90 -101 90h-59v-180h60z" />
    <glyph glyph-name="uni042B" unicode="&#x42b;" horiz-adv-x="942" 
d="M873 0h-204v715h204v-715zM69 715h204v-241h67q135 0 206.5 -59t71.5 -172v-4q0 -116 -71 -177.5t-216 -61.5h-262v715zM323 154q100 0 100 86v4q0 90 -101 90h-49v-180h50z" />
    <glyph glyph-name="uni042C" unicode="&#x42c;" horiz-adv-x="652" 
d="M69 715h204v-241h77q135 0 206.5 -59t71.5 -172v-4q0 -116 -71 -177.5t-216 -61.5h-272v715zM333 154q100 0 100 86v4q0 90 -101 90h-59v-180h60z" />
    <glyph glyph-name="uni042D" unicode="&#x42d;" horiz-adv-x="759" 
d="M354 -12q-142 0 -230 70.5t-103 205.5h204q17 -112 133 -112q119 0 146 133h-235v150h236q-12 64 -48 96.5t-89 32.5q-59 0 -89 -26.5t-38 -81.5h-211q15 137 103 203.5t237 66.5q152 0 254.5 -98t102.5 -251v-8q0 -180 -94.5 -280.5t-278.5 -100.5z" />
    <glyph glyph-name="uni042E" unicode="&#x42e;" horiz-adv-x="1094" 
d="M695 -12q-145 0 -240.5 80t-115.5 214h-64v-282h-206v715h206v-273h67q26 129 123.5 206t232.5 77q158 0 261.5 -98t103.5 -261v-8q0 -165 -101.5 -267.5t-266.5 -102.5zM699 149q69 0 109.5 55t40.5 151v8q0 95 -41 148.5t-110 53.5q-70 0 -110 -53t-40 -150v-8
q0 -96 41.5 -150.5t109.5 -54.5z" />
    <glyph glyph-name="uni042F" unicode="&#x42f;" horiz-adv-x="703" 
d="M363 561q-102 0 -102 -84v-4q0 -90 103 -90h66v178h-67zM235 0h-217l179 294q-62 15 -98 63.5t-36 123.5v4q0 112 77 171t214 59h280v-715h-204v250h-54z" />
    <glyph glyph-name="uni0430" unicode="&#x430;" horiz-adv-x="578" 
d="M204 -12q-76 0 -123 37q-54 41 -54 120q0 171 278 171h50v12q0 42 -14.5 62.5t-54.5 20.5q-63 0 -71 -62h-168q6 92 75 142q64 46 175 46q112 0 172 -47q64 -50 64 -151v-339h-174v61q-47 -73 -155 -73zM266 109q39 0 64 20.5t25 53.5v32h-47q-55 0 -79.5 -12.5
t-24.5 -44.5q0 -49 62 -49z" />
    <glyph glyph-name="uni0431" unicode="&#x431;" horiz-adv-x="622" 
d="M311 -12q-140 0 -213 80.5t-73 258.5v27q0 379 321 392l50 2q105 4 148 17v-132q-43 -23 -155 -29l-42 -2q-162 -7 -186 -177h6q58 92 186 92q107 0 175.5 -74t68.5 -185v-8q0 -120 -81 -191t-205 -71zM312 121q50 0 76.5 33t26.5 94v8q0 61 -26.5 94t-76.5 33
q-51 0 -77.5 -32.5t-26.5 -92.5v-8q0 -129 104 -129z" />
    <glyph glyph-name="uni0432" unicode="&#x432;" horiz-adv-x="561" 
d="M54 523h263q199 0 199 -127v-1q0 -50 -26.5 -79t-81.5 -41q128 -20 128 -119v-1q0 -74 -51 -114.5t-155 -40.5h-276v523zM273 320q64 0 64 51q0 27 -17.5 37t-55.5 10h-32v-98h41zM284 104q73 0 73 56t-63 56h-62v-112h52z" />
    <glyph glyph-name="uni0433" unicode="&#x433;" horiz-adv-x="444" 
d="M232 401v-401h-178v523h375v-122h-197z" />
    <glyph glyph-name="uni0434" unicode="&#x434;" horiz-adv-x="623" 
d="M251 253q-6 -80 -26 -131h140v279h-109q0 -76 -5 -148zM168 -127h-158v249h26q46 24 58 144q6 74 6 257h443v-401h70v-249h-158v127h-287v-127z" />
    <glyph glyph-name="uni0435" unicode="&#x435;" horiz-adv-x="598" 
d="M313 -12q-128 0 -203 69q-81 71 -81 198v8q0 123 82 200q79 74 201 74q115 0 187 -65q79 -72 79 -205v-47h-368q4 -52 32.5 -80.5t76.5 -28.5q79 0 91 62h168q-12 -90 -79.5 -137.5t-185.5 -47.5zM404 321q-5 98 -92 98q-86 0 -100 -98h192z" />
    <glyph glyph-name="uni0436" unicode="&#x436;" horiz-adv-x="805" 
d="M313 236l-119 -236h-190l158 282l-149 241h183l117 -214v214h177v-214l117 214h181l-148 -235l161 -288h-194l-117 236v-236h-177v236z" />
    <glyph glyph-name="uni0437" unicode="&#x437;" horiz-adv-x="541" 
d="M502 395q0 -50 -26.5 -79t-81.5 -41q122 -20 122 -116v-3q0 -72 -67 -120t-171 -48q-225 0 -258 200h157q25 -73 99 -73q58 0 58 53v3q0 45 -60 45h-61v104h56q51 0 51 41v2q0 39 -57 39q-61 0 -79 -60h-157q9 94 77 144.5t162 50.5q105 0 170.5 -38.5t65.5 -101.5v-2z
" />
    <glyph glyph-name="uni0438" unicode="&#x438;" horiz-adv-x="628" 
d="M54 0v523h178v-318l164 318h178v-523h-178v318l-164 -318h-178z" />
    <glyph glyph-name="uni0439" unicode="&#x439;" horiz-adv-x="628" 
d="M309 588q-77 0 -118.5 40t-46.5 113h121q5 -51 44 -51q40 0 47 51h120q-6 -73 -49.5 -113t-117.5 -40zM54 0v523h178v-318l164 318h178v-523h-178v318l-164 -318h-178z" />
    <glyph glyph-name="uni043A" unicode="&#x43a;" horiz-adv-x="577" 
d="M232 229v-229h-179v523h179v-207l141 207h186l-171 -235l185 -288h-200z" />
    <glyph glyph-name="uni043B" unicode="&#x43b;" horiz-adv-x="604" 
d="M259 223q-13 -119 -52.5 -177.5t-122.5 -58.5q-11 0 -21.5 1t-17 2.5t-11.5 3t-8 2.5l-2 1v135q1 -1 2 -1q2 -1 3 -1q2 -1 14 -1q53 0 64 136q0 4 2 55.5t2 87.5l2 115h437v-523h-178v401h-104q-2 -125 -9 -178z" />
    <glyph glyph-name="uni043C" unicode="&#x43c;" horiz-adv-x="758" 
d="M194 336v-336h-140v523h229l102 -261l104 261h215v-523h-176v336l-135 -336h-67z" />
    <glyph glyph-name="uni043D" unicode="&#x43d;" horiz-adv-x="621" 
d="M389 205h-157v-205h-178v523h178v-196h157v196h178v-523h-178v205z" />
    <glyph glyph-name="uni043E" unicode="&#x43e;" horiz-adv-x="622" 
d="M316 121q103 0 103 137v8q0 137 -103 137q-104 0 -104 -135v-8q0 -139 104 -139zM315 -12q-124 0 -203 70q-83 72 -83 197v8q0 123 83 200q79 74 204 74t203 -72q82 -76 82 -197v-8q0 -124 -82 -200q-80 -72 -204 -72z" />
    <glyph glyph-name="uni043F" unicode="&#x43f;" horiz-adv-x="611" 
d="M379 401h-147v-401h-178v523h503v-523h-178v401z" />
    <glyph glyph-name="uni0440" unicode="&#x440;" horiz-adv-x="643" 
d="M57 523h179v-78q56 92 163 92q96 0 156 -68q65 -73 65 -203v-8q0 -130 -65 -202q-60 -68 -157 -68q-116 0 -162 89v-252h-179v698zM335 125q103 0 103 133v8q0 68 -27 102t-76 34t-76.5 -35t-27.5 -100v-8q0 -66 27 -100t77 -34z" />
    <glyph glyph-name="uni0441" unicode="&#x441;" horiz-adv-x="583" 
d="M304 -12q-122 0 -196 68q-79 71 -79 199v8q0 126 82 202q78 72 197 72q105 0 172 -47q77 -57 84 -168h-168q-12 76 -84 76q-100 0 -100 -133v-8q0 -138 103 -138q80 0 91 87h161q-4 -101 -71.5 -159.5t-191.5 -58.5z" />
    <glyph glyph-name="uni0442" unicode="&#x442;" horiz-adv-x="492" 
d="M482 401h-147v-401h-178v401h-147v122h472v-122z" />
    <glyph glyph-name="uni0443" unicode="&#x443;" horiz-adv-x="589" 
d="M221 53l-209 470h194l108 -279l100 279h171l-280 -698h-171z" />
    <glyph glyph-name="uni0444" unicode="&#x444;" horiz-adv-x="820" 
d="M498 536q128 -6 207.5 -75t79.5 -191v-8q0 -122 -80.5 -195.5t-206.5 -77.5v-164h-176v164q-128 6 -207.5 75t-79.5 191v8q0 122 80.5 195.5t206.5 77.5v217h176v-217zM498 117q50 5 77.5 42t27.5 98v8q0 134 -105 144v-292zM322 408q-50 -5 -77.5 -42t-27.5 -98v-8
q0 -134 105 -144v292z" />
    <glyph glyph-name="uni0445" unicode="&#x445;" horiz-adv-x="600" 
d="M189 266l-163 257h206l81 -138l79 138h184l-165 -243l181 -280h-206l-93 156l-95 -156h-183z" />
    <glyph glyph-name="uni0446" unicode="&#x446;" horiz-adv-x="637" 
d="M475 -127l-6 127h-415v523h178v-401h147v401h178v-401h70v-249h-152z" />
    <glyph glyph-name="uni0447" unicode="&#x447;" horiz-adv-x="595" 
d="M362 0v214q-14 -18 -35 -30q-50 -30 -121 -30q-78 0 -122 48.5t-44 145.5v175h179v-146q0 -47 13.5 -67.5t50.5 -20.5q38 0 62 18q10 7 17 19v197h179v-523h-179z" />
    <glyph glyph-name="uni0448" unicode="&#x448;" horiz-adv-x="846" 
d="M54 523h178v-401h102v401h178v-401h102v401h178v-523h-738v523z" />
    <glyph glyph-name="uni0449" unicode="&#x449;" horiz-adv-x="872" 
d="M710 -127l-6 127h-650v523h178v-401h102v401h178v-401h102v401h178v-401h70v-249h-152z" />
    <glyph glyph-name="uni044A" unicode="&#x44a;" horiz-adv-x="626" 
d="M127 401h-117v122h295v-156h96q96 0 149.5 -50t53.5 -135v-3q0 -86 -52 -132.5t-158 -46.5h-267v401zM348 122q37 0 55 13t18 45v3q0 62 -73 62h-43v-123h43z" />
    <glyph glyph-name="uni044B" unicode="&#x44b;" horiz-adv-x="784" 
d="M553 523h177v-523h-177v523zM54 523h178v-156h84q96 0 149.5 -50t53.5 -135v-3q0 -86 -52 -132.5t-158 -46.5h-255v523zM265 122q37 0 55 13t18 45v3q0 62 -73 62h-33v-123h33z" />
    <glyph glyph-name="uni044C" unicode="&#x44c;" horiz-adv-x="553" 
d="M54 523h178v-156h96q96 0 149.5 -50t53.5 -135v-3q0 -86 -52 -132.5t-158 -46.5h-267v523zM275 122q37 0 55 13t18 45v3q0 62 -73 62h-43v-123h43z" />
    <glyph glyph-name="uni044D" unicode="&#x44d;" horiz-adv-x="583" 
d="M283 -12q-123 0 -185.5 52.5t-77.5 155.5h161q11 -41 33 -59t58 -18q79 0 98 88h-156v112h156q-16 79 -92 79q-67 0 -86 -66h-168q9 103 81.5 154t176.5 51q120 0 198 -72.5t78 -198.5v-8q0 -128 -77 -199t-198 -71z" />
    <glyph glyph-name="uni044E" unicode="&#x44e;" horiz-adv-x="844" 
d="M543 -11q-103 0 -173 52.5t-90 148.5l-3 15h-45v-205h-178v523h178v-196h47q18 97 90 154t175 57q120 0 197.5 -73.5t77.5 -195.5v-8q0 -125 -78 -198.5t-198 -73.5zM544 122q43 0 68 36t25 101v8q0 66 -24 101.5t-69 35.5q-43 0 -68 -35t-25 -100v-8q0 -139 93 -139z
" />
    <glyph glyph-name="uni044F" unicode="&#x44f;" horiz-adv-x="559" 
d="M292 403q-35 0 -54 -15t-19 -41v-3q0 -32 18 -45.5t55 -13.5h49v118h-49zM199 0h-191l118 209q-87 43 -87 137v3q0 79 53 126.5t157 47.5h270v-523h-178v171h-55z" />
    <glyph glyph-name="uni0451" unicode="&#x451;" horiz-adv-x="598" 
d="M313 -12q-128 0 -203 69q-81 71 -81 198v8q0 123 82 200q79 74 201 74q115 0 187 -65q79 -72 79 -205v-47h-368q4 -52 32.5 -80.5t76.5 -28.5q79 0 91 62h168q-12 -90 -79.5 -137.5t-185.5 -47.5zM404 321q-5 98 -92 98q-86 0 -100 -98h192zM200 580q-36 0 -60 24
q-25 23 -25 59q0 35 25 60q24 24 60 24t61 -24.5t25 -59.5t-25 -59t-61 -24zM413 580q-36 0 -60.5 24t-24.5 59t24.5 59.5t60.5 24.5t61 -24.5t25 -59.5t-25 -59t-61 -24z" />
    <glyph glyph-name="uni0452" unicode="&#x452;" horiz-adv-x="624" 
d="M396 304q0 88 -75 88q-41 0 -65 -25t-24 -74v-293h-179v587h-57v96h57v70h179v-70h155v-96h-155v-148q50 98 172 98q78 0 124.5 -50t46.5 -147v-287q0 -129 -52.5 -185t-189.5 -56v130q34 2 48.5 20t14.5 65v277z" />
    <glyph glyph-name="uni0453" unicode="&#x453;" horiz-adv-x="444" 
d="M237 749h180l-105 -166h-128zM232 401v-401h-178v523h375v-122h-197z" />
    <glyph glyph-name="uni0454" unicode="&#x454;" horiz-adv-x="583" 
d="M563 196q-15 -103 -77.5 -155.5t-185.5 -52.5q-122 0 -198.5 69.5t-76.5 197.5v8q0 126 79.5 200t199.5 74q104 0 175 -51t80 -154h-168q-9 32 -27.5 49t-55.5 17q-76 0 -94 -79h155v-112h-157q18 -88 99 -88q36 0 58 18t33 59h161z" />
    <glyph glyph-name="uni0455" unicode="&#x455;" horiz-adv-x="515" 
d="M262 -12q-113 0 -175 45.5t-65 132.5h165q6 -31 21.5 -45t52.5 -14q64 0 64 43q0 19 -21 29t-76 18q-109 14 -152 50q-47 37 -47 118q0 83 67 130q60 42 157 42q103 0 159 -38q62 -42 72 -131h-162q-10 52 -67 52q-28 0 -43.5 -11t-15.5 -30q0 -18 19.5 -27.5t68.5 -15.5
q113 -14 162 -48q53 -40 53 -120q0 -91 -62.5 -135.5t-174.5 -44.5z" />
    <glyph glyph-name="uni0456" unicode="&#x456;" horiz-adv-x="295" 
d="M62 523h179v-523h-179v523zM151 573q-42 0 -70 26t-28 66t28 66.5t70 26.5t70.5 -26.5t28.5 -66.5t-28.5 -66t-70.5 -26z" />
    <glyph glyph-name="uni0457" unicode="&#x457;" horiz-adv-x="295" 
d="M46 580q-35 0 -61 24q-24 24 -24 59q0 34 24 60q26 24 61 24q36 0 61 -24.5t25 -59.5t-25 -59t-61 -24zM256 580q-36 0 -60 24q-25 23 -25 59q0 35 25 60q24 24 60 24t61 -24.5t25 -59.5t-25 -59t-61 -24zM62 523h179v-523h-179v523z" />
    <glyph glyph-name="uni0458" unicode="&#x458;" horiz-adv-x="295" 
d="M-2 -54q33 2 48.5 17t15.5 45v515h178v-519q0 -92 -50 -137q-59 -51 -192 -51v130zM151 573q-42 0 -70 26t-28 66t28 66.5t70 26.5t70.5 -26.5t28.5 -66.5t-28.5 -66t-70.5 -26z" />
    <glyph glyph-name="uni0459" unicode="&#x459;" horiz-adv-x="850" 
d="M361 401h-93q-2 -96 -7 -159q-13 -129 -52 -192t-125 -63q-11 0 -21.5 1t-17 2.5t-11.5 3t-8 2.5l-2 1v135q1 -1 2 -1q2 -1 3 -1q2 -1 14 -1q29 0 44.5 36t20.5 116q4 45 4 242h427v-156h86q96 0 149.5 -50t53.5 -135v-3q0 -86 -52 -132.5t-158 -46.5h-257v401zM572 122
q37 0 55 13t18 45v3q0 62 -73 62h-33v-123h33z" />
    <glyph glyph-name="uni045A" unicode="&#x45a;" horiz-adv-x="867" 
d="M589 122q37 0 55 13t18 45v3q0 62 -73 62h-33v-123h33zM378 205h-146v-205h-178v523h178v-196h146v196h178v-156h86q96 0 149.5 -50t53.5 -135v-3q0 -86 -52 -132.5t-158 -46.5h-257v205z" />
    <glyph glyph-name="uni045B" unicode="&#x45b;" horiz-adv-x="624" 
d="M0 683h57v70h179v-70h155v-96h-155v-148q50 98 172 98q78 0 124.5 -50t46.5 -147v-340h-179v304q0 88 -75 88q-41 0 -65 -25t-24 -74v-293h-179v587h-57v96z" />
    <glyph glyph-name="uni045C" unicode="&#x45c;" horiz-adv-x="577" 
d="M288 749h180l-105 -166h-128zM232 229v-229h-179v523h179v-207l141 207h186l-171 -235l185 -288h-200z" />
    <glyph glyph-name="uni045D" unicode="&#x45d;" horiz-adv-x="628" 
d="M54 0v523h178v-318l164 318h178v-523h-178v318l-164 -318h-178zM162 749h180l53 -166h-128z" />
    <glyph glyph-name="uni045E" unicode="&#x45e;" horiz-adv-x="589" 
d="M305 588q-77 0 -118.5 40t-46.5 113h121q5 -51 44 -51q40 0 47 51h120q-6 -73 -49.5 -113t-117.5 -40zM221 53l-209 470h194l108 -279l100 279h171l-280 -698h-171z" />
    <glyph glyph-name="uni045F" unicode="&#x45f;" horiz-adv-x="611" 
d="M54 0v523h178v-401h147v401h178v-523h-174l-2 -127h-149l-3 127h-175z" />
    <glyph glyph-name="uni0490" unicode="&#x490;" horiz-adv-x="572" 
d="M275 555v-555h-206v715h291l6 134h179v-294h-270z" />
    <glyph glyph-name="uni0491" unicode="&#x491;" horiz-adv-x="443" 
d="M232 401v-401h-178v523h207l5 134h153v-256h-187z" />
    <glyph glyph-name="Wgrave" unicode="&#x1e80;" horiz-adv-x="1004" 
d="M18 715h207l92 -446l96 446h182l104 -450l97 450h190l-167 -715h-214l-110 454l-111 -454h-200zM346 905h186l49 -146h-135z" />
    <glyph glyph-name="wgrave" unicode="&#x1e81;" horiz-adv-x="853" 
d="M13 523h187l76 -313l88 313h144l78 -313l85 313h170l-166 -523h-171l-78 292l-81 -292h-174zM271 749h180l53 -166h-128z" />
    <glyph glyph-name="Wacute" unicode="&#x1e82;" horiz-adv-x="1004" 
d="M18 715h207l92 -446l96 446h182l104 -450l97 450h190l-167 -715h-214l-110 454l-111 -454h-200zM485 905h187l-103 -146h-135z" />
    <glyph glyph-name="wacute" unicode="&#x1e83;" horiz-adv-x="853" 
d="M13 523h187l76 -313l88 313h144l78 -313l85 313h170l-166 -523h-171l-78 292l-81 -292h-174zM425 749h180l-105 -166h-128z" />
    <glyph glyph-name="Wdieresis" unicode="&#x1e84;" horiz-adv-x="1004" 
d="M18 715h207l92 -446l96 446h182l104 -450l97 450h190l-167 -715h-214l-110 454l-111 -454h-200zM393 758q-36 0 -60 24q-25 23 -25 59q0 35 25 59.5t60 24.5q36 0 61 -24.5t25 -59.5t-25 -59t-61 -24zM616 758q-36 0 -60.5 24t-24.5 59t24.5 59.5t60.5 24.5t61 -24.5
t25 -59.5t-25 -59t-61 -24z" />
    <glyph glyph-name="wdieresis" unicode="&#x1e85;" horiz-adv-x="853" 
d="M13 523h187l76 -313l88 313h144l78 -313l85 313h170l-166 -523h-171l-78 292l-81 -292h-174zM328 580q-36 0 -60 24q-25 23 -25 59q0 35 25 60q24 24 60 24t61 -24.5t25 -59.5t-25 -59t-61 -24zM541 580q-36 0 -60.5 24t-24.5 59t24.5 59.5t60.5 24.5t61 -24.5t25 -59.5
t-25 -59t-61 -24z" />
    <glyph glyph-name="Ygrave" unicode="&#x1ef2;" horiz-adv-x="685" 
d="M245 306l-233 409h223l121 -241l121 241h196l-222 -409v-306h-206v306zM192 905h186l49 -146h-135z" />
    <glyph glyph-name="ygrave" unicode="&#x1ef3;" horiz-adv-x="597" 
d="M221 53l-209 470h194l108 -279l100 279h171l-280 -698h-171zM144 749h180l53 -166h-128z" />
    <glyph glyph-name="uni2009" unicode="&#x2009;" horiz-adv-x="87" 
 />
    <glyph glyph-name="endash" unicode="&#x2013;" horiz-adv-x="549" 
d="M50 345h449v-105h-449v105z" />
    <glyph glyph-name="emdash" unicode="&#x2014;" horiz-adv-x="954" 
d="M50 345h855v-105h-855v105z" />
    <glyph glyph-name="quoteleft" unicode="&#x2018;" horiz-adv-x="318" 
d="M34 481l137 247l101 -39l-80 -261z" />
    <glyph glyph-name="quoteright" unicode="&#x2019;" horiz-adv-x="318" 
d="M46 467l80 261l158 -53l-137 -247z" />
    <glyph glyph-name="quotesinglbase" unicode="&#x201a;" horiz-adv-x="317" 
d="M43 -67l80 261l157 -53l-136 -247z" />
    <glyph glyph-name="quotedblleft" unicode="&#x201c;" horiz-adv-x="544" 
d="M34 481l137 247l101 -39l-80 -261zM261 481l137 247l101 -39l-80 -261z" />
    <glyph glyph-name="quotedblright" unicode="&#x201d;" horiz-adv-x="544" 
d="M46 467l80 261l158 -53l-137 -247zM273 467l80 261l158 -53l-138 -247z" />
    <glyph glyph-name="quotedblbase" unicode="&#x201e;" horiz-adv-x="544" 
d="M43 -67l80 261l157 -53l-136 -247zM270 -67l80 261l157 -53l-136 -247z" />
    <glyph glyph-name="dagger" unicode="&#x2020;" horiz-adv-x="413" 
d="M134 472h-107v126h107v117h145v-117h107v-126h-107v-259h-145v259z" />
    <glyph glyph-name="daggerdbl" unicode="&#x2021;" horiz-adv-x="413" 
d="M134 501h-107v114h107v100h145v-100h107v-114h-107v-74h107v-114h-107v-100h-145v100h-107v114h107v74z" />
    <glyph glyph-name="bullet" unicode="&#x2022;" horiz-adv-x="380" 
d="M190 156q-64 0 -104 43q-43 43 -43 104t43 104q42 42 104 42q60 0 105 -42q41 -44 41 -104t-41 -104q-43 -43 -105 -43z" />
    <glyph glyph-name="ellipsis" unicode="&#x2026;" horiz-adv-x="901" 
d="M152 -11q-46 0 -73 30q-29 26 -29 71q0 43 29 72t73 29q43 0 75 -29q30 -30 30 -72q0 -44 -30 -71q-30 -30 -75 -30zM449 -11q-46 0 -73 30q-29 26 -29 71q0 43 29 72t73 29q43 0 75 -29q30 -30 30 -72q0 -44 -30 -71q-30 -30 -75 -30zM746 -11q-46 0 -73 30
q-29 26 -29 71q0 43 29 72t73 29q43 0 75 -29q30 -30 30 -72q0 -44 -30 -71q-30 -30 -75 -30z" />
    <glyph glyph-name="perthousand" unicode="&#x2030;" horiz-adv-x="1230" 
d="M217 472q27 0 41.5 20t14.5 55q0 74 -56 74q-27 0 -42 -19.5t-15 -53.5q0 -36 15 -56t42 -20zM216 368q-86 0 -137 51q-50 50 -50 128q0 74 54 126q53 50 134 50t133 -49q54 -51 54 -124q0 -79 -50 -129q-53 -53 -138 -53zM615 715h98l-496 -715h-98zM610 92
q27 0 41.5 20t14.5 56q0 34 -14.5 53.5t-41.5 19.5t-42 -19.5t-15 -53.5q0 -36 15 -56t42 -20zM609 -12q-86 0 -137 51q-50 50 -50 128q0 74 54 126q53 50 134 50t133 -49q54 -51 54 -124q0 -79 -50 -129q-53 -53 -138 -53zM1014 92q27 0 42 20t15 56q0 34 -15 53.5
t-42 19.5q-26 0 -41.5 -19.5t-15.5 -53.5q0 -36 15.5 -56t41.5 -20zM1014 -12q-87 0 -138 51q-50 50 -50 128q0 74 54 126q53 50 134 50q82 0 134 -49q54 -51 54 -124q0 -78 -51 -129q-53 -53 -137 -53z" />
    <glyph glyph-name="uni2032" unicode="&#x2032;" horiz-adv-x="258" 
d="M59 715h169l-63 -275h-126z" />
    <glyph glyph-name="uni2033" unicode="&#x2033;" horiz-adv-x="470" 
d="M59 715h169l-63 -275h-126zM272 715h168l-62 -275h-127z" />
    <glyph glyph-name="guilsinglleft" unicode="&#x2039;" horiz-adv-x="315" 
d="M35 261l124 191h122l-120 -191l120 -191h-122z" />
    <glyph glyph-name="guilsinglright" unicode="&#x203a;" horiz-adv-x="315" 
d="M154 261l-120 191h121l125 -191l-125 -191h-121z" />
    <glyph glyph-name="fraction" unicode="&#x2044;" horiz-adv-x="176" 
d="M321 715h94l-560 -715h-94z" />
    <glyph glyph-name="Euro" unicode="&#x20ac;" horiz-adv-x="728" 
d="M27 452h63q18 122 101 197q84 76 210 76q131 0 205 -65.5t85 -192.5h-189q-14 104 -103 104q-91 0 -111 -119h155l-12 -71h-147v-52h138l-12 -71h-122q17 -112 112 -112q50 0 75.5 28.5t32.5 87.5h188q-32 -274 -301 -274q-131 0 -212 76q-77 71 -94 194h-62v71h58v52
h-58v71z" />
    <glyph glyph-name="uni20B4" unicode="&#x20b4;" horiz-adv-x="668" 
d="M331 -12q-133 0 -205.5 56t-72.5 156q0 39 10 65h-38v71h88q34 28 96 53h-184v71h371q22 21 22 61q0 58 -73 58q-38 0 -57.5 -19t-24.5 -58h-190q19 223 272 223q123 0 195 -53.5t72 -143.5q0 -36 -9 -68h40v-71h-81q-30 -30 -78 -53h159v-71h-353q-41 -26 -41 -68
q0 -63 82 -63q53 0 76 24.5t27 68.5h195q-11 -239 -298 -239z" />
    <glyph glyph-name="uni20B8" unicode="&#x20b8;" horiz-adv-x="598" 
d="M21 644v71h556v-71h-556zM196 428h-175v158h556v-158h-175v-428h-206v428z" />
    <glyph glyph-name="uni20BD" unicode="&#x20bd;" horiz-adv-x="699" 
d="M379 381q101 0 101 90v4q0 86 -100 86h-60v-180h59zM320 118v-118h-204v118h-96v71h96v52h-96v71h96v403h272q145 0 216 -61.5t71 -177.5v-4q0 -113 -71.5 -172t-206.5 -59h-77v-52h206v-71h-206z" />
    <glyph glyph-name="uni2116" unicode="&#x2116;" horiz-adv-x="1186" 
d="M952 331q-91 0 -149.5 50.5t-58.5 139.5v6q0 90 59 143t150 53q90 0 148.5 -52t58.5 -140v-5q0 -90 -59 -142.5t-149 -52.5zM953 440q60 0 60 85v5q0 85 -60 85q-62 0 -62 -83v-5q0 -87 62 -87zM69 715h231l199 -393v393h179v-715h-198l-231 439v-439h-180v715zM759 265
h386v-96h-386v96z" />
    <glyph glyph-name="trademark" unicode="&#x2122;" horiz-adv-x="768" 
d="M345 715h128l59 -158l60 158h131v-321h-109v183l-72 -183h-33l-71 183v-183h-93v321zM116 631h-83v84h273v-84h-83v-237h-107v237z" />
    <glyph glyph-name="Omega" unicode="&#x2126;" horiz-adv-x="825" 
d="M246 353q0 -159 121 -251v-102h-330v153h105q-46 34 -76.5 93t-30.5 125v6q0 149 105.5 248.5t271.5 99.5q169 0 273.5 -95.5t104.5 -248.5v-6q0 -70 -30.5 -129.5t-76.5 -92.5h105v-153h-331v102q122 90 122 251v8q0 96 -43.5 150t-123.5 54t-123 -53.5t-43 -150.5v-8z
" />
    <glyph glyph-name="onethird" unicode="&#x2153;" horiz-adv-x="821" 
d="M109 587l-82 -46v107l102 67h114v-376h-134v248zM623 715h94l-560 -715h-94zM625 -7q-84 0 -127 38q-39 35 -41 96h116q5 -42 45 -42q39 0 39 34t-45 34h-30v74h30q45 0 45 34q0 29 -34 29q-36 0 -42 -38h-116q5 60 45.5 94.5t115.5 34.5t115.5 -27t40.5 -77
q0 -62 -68 -81q34 -5 55 -27t21 -55q0 -56 -42 -88.5t-123 -32.5z" />
    <glyph glyph-name="twothirds" unicode="&#x2154;" horiz-adv-x="868" 
d="M12 356l128 133q37 37 52.5 58.5t15.5 43.5q0 32 -31 32q-34 0 -40 -52h-120q2 73 46 111t120 38t115.5 -33t39.5 -87q0 -62 -77 -132l-35 -34h113v-95h-327v17zM686 715h94l-560 -715h-94zM673 -7q-84 0 -127 38q-39 35 -41 96h116q5 -42 45 -42q39 0 39 34t-45 34h-30
v74h30q45 0 45 34q0 29 -34 29q-36 0 -42 -38h-116q5 60 45.5 94.5t115.5 34.5t115.5 -27t40.5 -77q0 -62 -68 -81q34 -5 55 -27t21 -55q0 -56 -42 -88.5t-123 -32.5z" />
    <glyph glyph-name="oneeighth" unicode="&#x215b;" horiz-adv-x="815" 
d="M109 587l-82 -46v107l102 67h114v-376h-134v248zM613 715h94l-560 -715h-94zM617 -7q-83 0 -127 29t-44 84q0 69 69 91q-53 22 -53 76q0 50 46 81q44 27 110 27q70 0 113 -28t43 -79q0 -54 -53 -76q67 -21 67 -88q0 -55 -44.5 -86t-126.5 -31zM618 82q18 0 29.5 10.5
t11.5 27.5t-11.5 28t-29.5 11t-30 -10.5t-12 -28.5t12 -28t30 -10zM618 227q16 0 26.5 9.5t10.5 25.5q0 15 -10.5 24.5t-26.5 9.5q-15 0 -26 -9.5t-11 -24.5t11 -25t26 -10z" />
    <glyph glyph-name="threeeighths" unicode="&#x215c;" horiz-adv-x="855" 
d="M193 332q-84 0 -127 38q-39 35 -41 96h116q5 -42 45 -42q39 0 39 34t-45 34h-30v74h30q45 0 45 34q0 29 -34 29q-36 0 -42 -38h-116q5 60 45.5 94.5t115.5 34.5t115.5 -27t40.5 -77q0 -62 -68 -81q34 -5 55 -27t21 -55q0 -56 -42 -88.5t-123 -32.5zM665 715h94l-560 -715
h-94zM657 -7q-83 0 -127 29t-44 84q0 69 69 91q-53 22 -53 76q0 50 46 81q44 27 110 27q70 0 113 -28t43 -79q0 -54 -53 -76q67 -21 67 -88q0 -55 -44.5 -86t-126.5 -31zM658 82q18 0 29.5 10.5t11.5 27.5t-11.5 28t-29.5 11t-30 -10.5t-12 -28.5t12 -28t30 -10zM658 227
q16 0 26.5 9.5t10.5 25.5q0 15 -10.5 24.5t-26.5 9.5q-15 0 -26 -9.5t-11 -24.5t11 -25t26 -10z" />
    <glyph glyph-name="fiveeighths" unicode="&#x215d;" horiz-adv-x="841" 
d="M186 332q-81 0 -120 36q-38 33 -40 90h120q5 -29 38 -29q35 0 35 41q0 40 -38 40q-28 0 -41 -24h-102l11 229h281v-93h-190l-3 -80q32 48 98 48q54 0 85.5 -30.5t31.5 -87.5q0 -66 -43 -103t-123 -37zM650 715h94l-560 -715h-94zM643 -7q-83 0 -127 29t-44 84q0 69 69 91
q-53 22 -53 76q0 50 46 81q44 27 110 27q70 0 113 -28t43 -79q0 -54 -53 -76q67 -21 67 -88q0 -55 -44.5 -86t-126.5 -31zM644 82q18 0 29.5 10.5t11.5 27.5t-11.5 28t-29.5 11t-30 -10.5t-12 -28.5t12 -28t30 -10zM644 227q16 0 26.5 9.5t10.5 25.5q0 15 -10.5 24.5
t-26.5 9.5q-15 0 -26 -9.5t-11 -24.5t11 -25t26 -10z" />
    <glyph glyph-name="seveneighths" unicode="&#x215e;" horiz-adv-x="810" 
d="M174 611h-148v104h314v-13l-136 -363h-132zM600 715h94l-560 -715h-94zM612 -7q-83 0 -127 29t-44 84q0 69 69 91q-53 22 -53 76q0 50 46 81q44 27 110 27q70 0 113 -28t43 -79q0 -54 -53 -76q67 -21 67 -88q0 -55 -44.5 -86t-126.5 -31zM613 82q18 0 29.5 10.5
t11.5 27.5t-11.5 28t-29.5 11t-30 -10.5t-12 -28.5t12 -28t30 -10zM613 227q16 0 26.5 9.5t10.5 25.5q0 15 -10.5 24.5t-26.5 9.5q-15 0 -26 -9.5t-11 -24.5t11 -25t26 -10z" />
    <glyph glyph-name="Delta" unicode="&#x2206;" horiz-adv-x="758" 
d="M20 23l219 692h283l216 -692v-23h-718v23zM247 158h242l-120 413z" />
    <glyph glyph-name="minus" unicode="&#x2212;" horiz-adv-x="580" 
d="M41 409h498v-138h-498v138z" />
    <glyph glyph-name="approxequal" unicode="&#x2248;" horiz-adv-x="587" 
d="M41 121q6 89 47 137q37 41 94 41q37 0 119 -20q67 -20 96 -20q39 0 45 44h103q-4 -87 -45 -134q-38 -44 -94 -44q-53 0 -120 20q-87 20 -96 20q-39 0 -45 -44h-104zM41 342q6 88 47 136q37 41 94 41q37 0 119 -20q67 -20 96 -20q39 0 45 44h103q-4 -87 -45 -133
q-38 -44 -94 -44q-53 0 -120 20q-87 20 -96 20q-38 0 -45 -44h-104z" />
    <glyph glyph-name="notequal" unicode="&#x2260;" horiz-adv-x="565" 
d="M43 486h244l37 96h116l-38 -96h120v-123h-167l-29 -74h196v-122h-243l-37 -96h-115l37 96h-121v122h168l28 74h-196v123z" />
    <glyph glyph-name="lessequal" unicode="&#x2264;" horiz-adv-x="521" 
d="M46 368v34l421 226v-160l-166 -82l166 -82v-161zM46 118h421v-118h-421v118z" />
    <glyph glyph-name="greaterequal" unicode="&#x2265;" horiz-adv-x="521" 
d="M53 304l166 82l-166 82v160l422 -226v-34l-422 -225v161zM53 118h422v-118h-422v118z" />
    <glyph glyph-name="uni24C5" unicode="&#x24c5;" horiz-adv-x="851" 
d="M283 561h159q165 0 165 -137v-3q0 -64 -40 -97.5t-118 -33.5h-41v-132h-125v403zM435 375q54 0 54 46v3q0 43 -53 43h-28v-92h27zM424 31q137 0 228 91q95 92 95 237q0 142 -93 235q-93 90 -228 90q-137 0 -228 -91q-94 -91 -94 -236q0 -146 95 -236q90 -90 225 -90z
M424 -20q-160 0 -271 109q-112 109 -112 268q0 158 112 268t273 110q163 0 274 -109q110 -110 110 -267q0 -160 -112 -270q-111 -109 -274 -109z" />
    <glyph glyph-name="zero.tab" unicode="&#xe44f;" 
d="M307 145q43 0 59 30t16 106v154q0 73 -17.5 104.5t-59.5 31.5q-44 0 -61.5 -31.5t-17.5 -105.5v-153q0 -75 18.5 -105.5t62.5 -30.5zM301 -12q-126 0 -195.5 75t-69.5 217v153q0 140 76 218q71 74 192 74q122 0 192 -69q76 -76 76 -218v-153q0 -143 -72 -220t-199 -77z
" />
    <glyph glyph-name="one.tab" unicode="&#xe450;" 
d="M257 513l-172 -116v171l197 147h180v-715h-205v513z" />
    <glyph glyph-name="two.tab" unicode="&#xe451;" 
d="M27 30l222 263q61 75 87 119t26 88q0 73 -62 73q-36 0 -52.5 -26.5t-20.5 -91.5h-187q5 129 67 197q67 73 201 73q125 0 190.5 -57t65.5 -156q0 -66 -41 -137q-33 -54 -102 -128l-87 -90h229v-157h-536v30z" />
    <glyph glyph-name="three.tab" unicode="&#xe452;" 
d="M308 -12q-272 0 -283 248h179q3 -50 24 -74.5t69 -24.5q83 0 83 81q0 42 -20.5 62t-64.5 20h-57v129h55q86 0 86 77q0 70 -73 70q-80 0 -87 -91h-176q5 113 74 176.5t193 63.5q119 0 185 -52.5t66 -143.5q0 -117 -114 -154q59 -13 94.5 -55t35.5 -106
q0 -105 -69.5 -165.5t-199.5 -60.5z" />
    <glyph glyph-name="four.tab" unicode="&#xe453;" 
d="M325 137h-302v70l256 508h227v-443h72v-135h-72v-137h-181v137zM329 272v287l-142 -287h142z" />
    <glyph glyph-name="five.tab" unicode="&#xe454;" 
d="M297 -12q-254 0 -262 239h176q3 -43 22 -62t63 -19q78 0 78 102q0 45 -23.5 70.5t-67.5 25.5q-69 0 -107 -52h-118l14 423h453v-151h-310l-5 -161q52 77 154 77q98 0 151 -61.5t53 -170.5q0 -120 -70 -190q-73 -70 -201 -70z" />
    <glyph glyph-name="six.tab" unicode="&#xe455;" 
d="M317 -12q-143 0 -214 88q-68 81 -68 236v65q0 164 82 259q78 89 213 89q108 0 170 -50q63 -54 69 -161h-171q-6 33 -21 49.5t-47 16.5q-110 0 -111 -198q50 82 149 82q89 0 149 -55q61 -61 61 -170q0 -115 -69 -182q-71 -69 -192 -69zM313 138q39 0 64 27t25 70
q0 46 -24.5 72t-65.5 26t-66.5 -25.5t-25.5 -68.5q0 -47 25.5 -74t67.5 -27z" />
    <glyph glyph-name="seven.tab" unicode="&#xe456;" 
d="M322 553h-279v162h531v-21l-254 -694h-205z" />
    <glyph glyph-name="eight.tab" unicode="&#xe457;" 
d="M304 -12q-126 0 -198 55q-75 56 -75 159q0 128 120 175q-93 46 -93 147q0 91 74 149q69 52 174 52q107 0 176 -52q71 -56 71 -148q0 -102 -93 -147q118 -43 118 -171q0 -103 -74 -161q-75 -58 -200 -58zM305 137q40 0 65 23t25 64t-24.5 64.5t-64.5 23.5t-65.5 -23.5
t-25.5 -64.5t25 -64t65 -23zM307 430q33 0 55.5 21.5t22.5 55.5q0 35 -22.5 56t-56.5 21q-33 0 -55.5 -21t-22.5 -55q0 -35 23 -56.5t56 -21.5z" />
    <glyph glyph-name="nine.tab" unicode="&#xe458;" 
d="M287 -11q-239 0 -252 214h172q12 -69 76 -69q57 0 81.5 46.5t25.5 150.5q-50 -81 -150 -81q-93 0 -148 55q-62 57 -62 168q0 115 70 183q70 70 192 70q140 0 210.5 -82.5t70.5 -239.5v-73q0 -165 -74.5 -253.5t-211.5 -88.5zM296 383q41 0 66.5 25t25.5 68
q0 47 -25.5 74.5t-67.5 27.5q-39 0 -64 -26.5t-25 -70.5q0 -46 24.5 -72t65.5 -26z" />
    <glyph glyph-name="cent.tab" unicode="&#xe459;" 
d="M281 -10q-115 11 -179 77q-71 71 -71 188v8q0 114 72 189q70 70 178 82v95h78v-94q93 -8 151 -59q63 -58 70 -154h-164q-8 60 -57 78v-284q61 18 67 90h157q-5 -92 -63.5 -149t-160.5 -67v-125h-78v125zM208 257q0 -113 73 -139v281q-73 -26 -73 -134v-8z" />
    <glyph glyph-name="dollar.tab" unicode="&#xe45a;" 
d="M268 -10q-119 9 -182.5 71.5t-67.5 164.5h176q7 -79 74 -93v145q-125 18 -179 71q-56 52 -56 156q0 90 64 151q66 61 171 68v89h76v-90q213 -19 230 -216h-172q-6 31 -18.5 48.5t-39.5 25.5v-137q118 -18 174 -63q65 -55 65 -156q0 -97 -58 -158q-63 -70 -181 -77v-125
h-76v125zM204 520q0 -27 13.5 -41.5t50.5 -22.5v128q-64 -12 -64 -64zM406 203q0 26 -13 39.5t-49 22.5v-133q62 17 62 71z" />
    <glyph glyph-name="Euro.tab" unicode="&#xe45b;" 
d="M16 453h47q6 129 79 202q73 70 185 70q110 0 173 -57q64 -61 70 -184h-166q-5 51 -21.5 72t-54.5 21q-42 0 -63 -29.5t-23 -94.5h145l-12 -71h-133v-51h124l-13 -72h-111q2 -64 22 -92.5t65 -28.5q40 0 59 23t23 78h163q-5 -129 -68 -190t-184 -61q-117 0 -185 70
t-74 201h-47v72h47v51h-47v71z" />
    <glyph glyph-name="a.alt" unicode="&#xe4c0;" horiz-adv-x="642" 
d="M249 -12q-93 0 -153 66q-65 72 -65 202v8q0 126 66 204q61 69 153 69q105 0 156 -87v73h179v-523h-179v84q-22 -43 -62.5 -69.5t-94.5 -26.5zM310 125q46 0 73.5 34.5t27.5 99.5v8q0 67 -26 101t-72 34q-100 0 -100 -136v-8q0 -65 25.5 -99t71.5 -34z" />
    <glyph glyph-name="t.alt" unicode="&#xe4d3;" horiz-adv-x="387" 
d="M90 401h-72v122h72v109h179v-109h96v-122h-96v-401h-179v401z" />
    <glyph glyph-name="f_i" unicode="&#xfb01;" horiz-adv-x="683" 
d="M84 401h-66v122h66v46q0 95 56 145q53 47 148 47q47 0 80 -10v-131q-19 6 -47 6q-59 0 -59 -57v-46h106v-122h-106v-401h-178v401zM441 523h179v-523h-179v523zM530 573q-42 0 -70 26t-28 66t28 66.5t70 26.5t70.5 -26.5t28.5 -66.5t-28.5 -66t-70.5 -26z" />
    <glyph glyph-name="f_l" unicode="&#xfb02;" horiz-adv-x="681" 
d="M84 401h-66v122h66v46q0 95 56 145q53 47 148 47q47 0 80 -10v-131q-19 6 -47 6q-59 0 -59 -57v-46h106v-122h-106v-401h-178v401zM441 753h178v-753h-178v753z" />
    <glyph glyph-name="hyphen.uc" horiz-adv-x="413" 
d="M55 397h303v-142h-303v142z" />
    <glyph glyph-name="four.old" horiz-adv-x="677" 
d="M369 40h-351v65l302 514h239v-451h93v-128h-93v-132h-190v132zM374 168v306l-170 -306h170z" />
    <glyph glyph-name="zero.num" horiz-adv-x="430" 
d="M215 433q55 0 55 91v8q0 48 -13.5 68.5t-42.5 20.5t-41 -21t-12 -69v-7q0 -48 12.5 -69.5t41.5 -21.5zM212 332q-89 0 -137 49.5t-48 141.5v8q0 91 54 140q51 49 134 49t134 -45q54 -51 54 -141v-7q0 -92 -50.5 -143.5t-140.5 -51.5z" />
    <glyph glyph-name="nine.oldtab" horiz-adv-x="600" 
d="M289 288q42 0 68.5 27t26.5 72q0 49 -26.5 77.5t-68.5 28.5q-40 0 -66.5 -28.5t-26.5 -73.5q0 -47 25.5 -75t67.5 -28zM282 -106q-115 0 -178.5 54.5t-69.5 160.5h164q12 -73 84 -73q56 0 78.5 47.5t24.5 156.5q-47 -76 -148 -76q-92 0 -151 55t-59 162q0 113 71 181.5
t190 68.5q138 0 206.5 -83.5t68.5 -234.5v-76q0 -166 -72 -254.5t-209 -88.5z" />
    <glyph glyph-name="eight.oldtab" horiz-adv-x="600" 
d="M300 -12q-124 0 -196.5 55.5t-72.5 157.5q0 125 125 174q-98 43 -98 149q0 95 69.5 148t174.5 53q106 0 174 -53t68 -147q0 -105 -97 -149q122 -45 122 -170q0 -101 -72.5 -159.5t-196.5 -58.5zM303 429q35 0 57 22.5t22 59.5q0 36 -23 58.5t-57 22.5q-33 0 -56 -22
t-23 -59t23 -59.5t57 -22.5zM301 127q42 0 67 25t25 67t-24.5 67t-66.5 25q-41 0 -67 -24.5t-26 -67.5q0 -42 25 -67t67 -25z" />
    <glyph glyph-name="seven.oldtab" horiz-adv-x="600" 
d="M315 462h-277v157h528v-22l-258 -689h-204z" />
    <glyph glyph-name="six.oldtab" horiz-adv-x="600" 
d="M315 -12q-139 0 -208.5 84t-69.5 235v74q0 162 79 253t210 91q108 0 169.5 -51.5t67.5 -156.5h-166q-11 67 -72 67q-108 0 -109 -212q52 83 151 83q92 0 149 -55.5t57 -162.5q0 -113 -69.5 -181t-188.5 -68zM314 128q40 0 66.5 28.5t26.5 73.5q0 47 -25.5 75t-67.5 28
t-69 -27t-27 -72q0 -49 27 -77.5t69 -28.5z" />
    <glyph glyph-name="five.oldtab" horiz-adv-x="600" 
d="M294 -104q-126 0 -191.5 60.5t-67.5 168.5h170q4 -42 23.5 -64t64.5 -22q42 0 63.5 28.5t21.5 78.5q0 49 -24.5 75.5t-69.5 26.5q-71 0 -109 -53h-113l13 424h444v-146h-305l-5 -169q53 76 153 76q93 0 146 -60.5t53 -165.5q0 -120 -70 -189t-197 -69z" />
    <glyph glyph-name="four.oldtab" horiz-adv-x="600" 
d="M319 40h-302v63l255 516h227v-452h75v-127h-75v-132h-180v132zM323 167v299l-147 -299h147z" />
    <glyph glyph-name="three.oldtab" horiz-adv-x="600" 
d="M297 -105q-135 0 -204.5 65t-71.5 179h173q6 -102 99 -102q44 0 66.5 23t22.5 64q0 87 -92 87h-55v121h52q45 0 67.5 22.5t22.5 61.5q0 34 -19.5 55t-56.5 21q-83 0 -91 -96h-171q6 103 77 169t191 66q117 0 181 -52t64 -143q0 -119 -112 -155q60 -13 95 -55t35 -106
q0 -104 -72 -164.5t-201 -60.5z" />
    <glyph glyph-name="two.oldtab" horiz-adv-x="600" 
d="M25 27l227 218q57 55 82.5 94t25.5 78q0 70 -67 70q-71 0 -83 -104h-172q7 117 77 182.5t191 65.5q115 0 180.5 -54t65.5 -143q0 -59 -33 -109.5t-101 -114.5l-77 -71h215v-139h-531v27z" />
    <glyph glyph-name="one.oldtab" horiz-adv-x="600" 
d="M262 430l-175 -114v161l201 142h165v-619h-191v430z" />
    <glyph glyph-name="zero.oldtab" horiz-adv-x="600" 
d="M297 -12q-125 0 -194 74.5t-69 207.5v82q0 130 73.5 204.5t192.5 74.5t192.5 -71.5t73.5 -204.5v-81q0 -134 -72 -210t-197 -76zM302 140q44 0 62 31.5t18 99.5v80q0 68 -19 99.5t-63 31.5t-63 -31.5t-19 -98.5v-82q0 -67 20 -98.5t64 -31.5z" />
    <glyph glyph-name="yen.oldtab" horiz-adv-x="600" 
d="M63 368h134l-170 326h199l88 -204l85 204h174l-166 -326h142v-69h-150v-51h150v-69h-150v-179h-192v179h-144v69h144v51h-144v69z" />
    <glyph glyph-name="sterling.oldtab" horiz-adv-x="600" 
d="M25 396h43q-10 39 -10 84q0 106 74.5 164.5t183.5 58.5q240 0 248 -232h-177q-5 47 -18.5 64.5t-45.5 17.5q-68 0 -68 -83q0 -34 5 -74h149v-119h-133q3 -27 3 -53q0 -32 -9 -57q8 -2 20.5 -6.5t20 -7t17 -4.5t17.5 -2q54 0 58 56h174q-4 -98 -56.5 -155t-139.5 -57
q-50 0 -105 25.5t-71 25.5q-38 0 -43 -42h-151q3 49 26.5 91.5t62.5 67.5q10 24 10 65q0 20 -7 53h-78v119z" />
    <glyph glyph-name="f.short" horiz-adv-x="384" 
d="M84 401h-66v122h66v46q0 95 56 145q53 47 148 47q47 0 80 -10v-131q-19 6 -47 6q-59 0 -59 -57v-46h106v-122h-106v-401h-178v401z" />
    <glyph glyph-name="f_f.short" horiz-adv-x="714" 
d="M84 401h-66v122h66v40q0 94 54 142.5t150 48.5q47 0 80 -10v-131q-23 7 -48 7q-29 0 -43.5 -15.5t-14.5 -41.5v-40h152v46q0 94 54.5 143t150.5 49q46 0 79 -10v-131q-20 6 -47 6q-58 0 -58 -57v-46h105v-122h-105v-401h-179v401h-152v-401h-178v401z" />
    <glyph glyph-name="Euro.oldtab" horiz-adv-x="600" 
d="M24 439h46q6 125 75.5 194.5t180.5 69.5q225 0 236 -233h-161q-4 48 -21 68.5t-54 20.5q-40 0 -60 -28.5t-22 -91.5h141l-13 -68h-128v-50h119l-12 -70h-107q2 -62 21.5 -89.5t62.5 -27.5q39 0 57.5 22.5t22.5 75.5h158q-10 -244 -245 -244q-113 0 -179 68t-72 195h-46
v70h46v50h-46v68z" />
    <glyph glyph-name="dollar.oldtab" horiz-adv-x="600" 
d="M203 504q0 -26 13 -39.5t49 -21.5v123q-62 -12 -62 -62zM404 197q0 25 -13 38t-50 22v-129q63 13 63 69zM265 -10q-118 9 -180 69.5t-66 159.5h174q9 -76 72 -90v141q-123 18 -177 69t-54 151q0 88 62.5 146t168.5 66v87h76v-88q212 -19 229 -209h-171q-11 59 -58 72
v-133q117 -17 177 -65t60 -148q0 -94 -60 -157.5t-177 -71.5v-120h-76v121z" />
    <glyph glyph-name="braceright.tab" horiz-adv-x="308" 
d="M20 -31q48 3 62.5 24.5t4.5 75.5l-18 98q-11 58 13 94t87 56q-63 20 -87 56t-13 93l18 98q9 52 -5 72.5t-62 23.5v117q142 0 194.5 -55t25.5 -180l-18 -87q-9 -37 6 -58t61 -26v-112q-46 -5 -61 -26t-6 -58l18 -88q25 -121 -27.5 -178t-192.5 -57v117z" />
    <glyph glyph-name="braceleft.tab" horiz-adv-x="308" 
d="M288 -148q-140 0 -193 57t-27 178l18 88q9 37 -6 58t-61 26v112q46 5 61 26t6 58l-18 87q-27 125 25.5 180t194.5 55v-117q-48 -3 -62 -23.5t-5 -72.5l18 -98q11 -57 -13 -93t-87 -56q63 -20 87 -56t13 -94l-18 -98q-10 -54 4.5 -75.5t62.5 -24.5v-117z" />
    <glyph glyph-name="bracketright.tab" horiz-adv-x="308" 
d="M20 -31h78v690h-78v117h238v-924h-238v117z" />
    <glyph glyph-name="bracketleft.tab" horiz-adv-x="308" 
d="M50 776h238v-117h-78v-690h78v-117h-238v924z" />
    <glyph glyph-name="parenright.tab" horiz-adv-x="308" 
d="M-1 -148q49 90 77 191q36 130 36 270q0 139 -36 271q-28 102 -77 191h127q63 -93 96 -182q48 -130 48 -280q0 -149 -48 -279q-33 -89 -96 -182h-127z" />
    <glyph glyph-name="parenleft.tab" horiz-adv-x="308" 
d="M182 -148q-63 93 -96 182q-48 130 -48 279q0 150 48 280q33 89 96 182h127q-49 -89 -77 -191q-36 -132 -36 -271q0 -140 36 -270q28 -101 77 -191h-127z" />
    <glyph glyph-name="semicolon.tab" horiz-adv-x="308" 
d="M-8 -81l83 263l166 -59l-143 -245zM156 275q-45 0 -73.5 29t-28.5 72t29 72t73 29q43 0 75 -29q30 -30 30 -72q0 -43 -30 -72t-75 -29z" />
    <glyph glyph-name="colon.tab" horiz-adv-x="308" 
d="M154 -11q-45 0 -72 30q-30 27 -30 71q0 42 30 72q29 29 72 29t75 -29q30 -30 30 -72q0 -44 -30 -71q-30 -30 -75 -30zM154 275q-44 0 -73 29t-29 72q0 42 30 72q29 29 72 29t75 -29q30 -30 30 -72q0 -43 -30 -72t-75 -29z" />
    <glyph glyph-name="comma.tab" horiz-adv-x="308" 
d="M14 -81l84 263l166 -59l-144 -245z" />
    <glyph glyph-name="period.tab" horiz-adv-x="308" 
d="M153 -11q-46 0 -73 30q-29 26 -29 71q0 43 29 72t73 29q43 0 75 -29q30 -30 30 -72q0 -44 -30 -71q-30 -30 -75 -30z" />
    <glyph glyph-name="greaterequal.tab" 
d="M97 304l166 82l-166 82v160l421 -226v-34l-421 -225v161zM97 118h421v-118h-421v118z" />
    <glyph glyph-name="lessequal.tab" 
d="M90 368v34l421 226v-160l-166 -82l166 -82v-161zM90 118h421v-118h-421v118z" />
    <glyph glyph-name="greater.tab" 
d="M84 223l204 99l-204 106v158l441 -246v-34l-441 -246v163z" />
    <glyph glyph-name="less.tab" 
d="M83 305v34l442 246v-162l-204 -100l204 -106v-158z" />
    <glyph glyph-name="approxequal.tab" 
d="M55 121q6 90 46 137q37 41 94 41q37 0 117 -20q65 -20 93 -20q39 0 45 44h103q-4 -87 -45 -134q-38 -44 -93 -44q-53 0 -118 20q-82 20 -94 20q-39 0 -45 -44h-103zM55 342q6 89 46 136q37 41 94 41q37 0 117 -20q65 -20 93 -20q39 0 45 44h103q-4 -87 -45 -133
q-38 -44 -93 -44q-53 0 -118 20q-82 20 -94 20q-38 0 -45 -44h-103z" />
    <glyph glyph-name="notequal.tab" 
d="M64 486h244l38 96h115l-37 -96h120v-123h-168l-28 -74h196v-122h-243l-37 -96h-116l37 96h-121v122h168l29 74h-197v123z" />
    <glyph glyph-name="equal.tab" 
d="M71 289h466v-122h-466v122zM71 486h466v-123h-466v123z" />
    <glyph glyph-name="divide.tab" 
d="M304 43q-39 0 -66.5 26.5t-27.5 65.5q0 38 28 66q27 27 66 27q38 0 67 -27q27 -29 27 -66q0 -39 -27.5 -65.5t-66.5 -26.5zM55 402h498v-124h-498v124zM304 452q-40 0 -66 28q-28 26 -28 65t27.5 65.5t66.5 26.5t66.5 -26.5t27.5 -65.5q0 -38 -27 -65q-28 -28 -67 -28z
" />
    <glyph glyph-name="multiply.tab" 
d="M57 184l152 152l-155 154l95 96l154 -156l153 153l94 -95l-153 -152l155 -154l-95 -95l-154 155l-152 -152z" />
    <glyph glyph-name="plusminus.tab" 
d="M232 341h-175v131h175v164h144v-164h176v-131h-176v-165h-144v165zM57 118h497v-118h-497v118z" />
    <glyph glyph-name="minus.tab" 
d="M62 409h484v-138h-484v138z" />
    <glyph glyph-name="plus.tab" 
d="M232 275h-169v130h169v185h144v-185h169v-130h-169v-185h-144v185z" />
    <glyph glyph-name="perthousand.tab" horiz-adv-x="1008" 
d="M181 479q39 0 39 78q0 41 -9 59t-30 18q-40 0 -40 -77q0 -43 9.5 -60.5t30.5 -17.5zM180 387q-72 0 -113 45.5t-41 123.5q0 75 45 122q43 45 110 45t110 -43q44 -46 44 -121q0 -80 -42 -125q-42 -47 -113 -47zM534 715h95l-483 -715h-95zM494 80q39 0 39 78q0 41 -9 59
t-30 18q-40 0 -40 -77q0 -43 9.5 -60.5t30.5 -17.5zM494 -12q-72 0 -113.5 45.5t-41.5 123.5q0 75 45 122q45 45 110 45q67 0 110 -43q44 -46 44 -121q0 -78 -42 -125t-112 -47zM828 80q39 0 39 78q0 41 -9 59t-30 18q-40 0 -40 -77q0 -43 9.5 -60.5t30.5 -17.5zM827 -12
q-72 0 -113 45.5t-41 123.5q0 75 45 122q43 45 110 45t110 -43q44 -46 44 -121q0 -78 -42 -125t-113 -47z" />
    <glyph glyph-name="percent.tab" horiz-adv-x="808" 
d="M216 482q53 0 53 73q0 72 -53 72q-25 0 -39.5 -19t-14.5 -53q0 -35 14.5 -54t39.5 -19zM215 383q-81 0 -130 49q-48 48 -48 122q0 72 51 121q53 48 128 48t127 -47q51 -46 51 -119q0 -76 -48 -124q-52 -50 -131 -50zM599 715h97l-483 -715h-98zM593 87q53 0 53 73
q0 72 -53 72q-25 0 -39.5 -19t-14.5 -53q0 -35 14.5 -54t39.5 -19zM592 -12q-82 0 -131 49q-47 47 -47 122q0 72 51 121q53 48 128 48t127 -47q51 -46 51 -119q0 -76 -48 -124q-52 -50 -131 -50z" />
    <glyph glyph-name="two.num" horiz-adv-x="361" 
d="M9 356l128 133q37 37 52.5 58.5t15.5 43.5q0 32 -31 32q-34 0 -40 -52h-120q2 73 46 111t120 38t115.5 -33t39.5 -87q0 -62 -77 -132l-35 -34h113v-95h-327v17z" />
    <glyph glyph-name="uni045D.bgr" horiz-adv-x="623" 
d="M229 -12q-79 0 -125 47q-51 51 -51 147v341h179v-312q0 -88 74 -88q89 0 89 99v301h179v-523h-179v81q-47 -93 -166 -93zM150 749h180l53 -166h-128z" />
    <glyph glyph-name="three.num" horiz-adv-x="382" 
d="M190 332q-84 0 -127 38q-39 35 -41 96h116q5 -42 45 -42q39 0 39 34t-45 34h-30v74h30q45 0 45 34q0 29 -34 29q-36 0 -42 -38h-116q5 60 45.5 94.5t115.5 34.5t115.5 -27t40.5 -77q0 -62 -68 -81q34 -5 55 -27t21 -55q0 -56 -42 -88.5t-123 -32.5z" />
    <glyph glyph-name="four.num" horiz-adv-x="402" 
d="M203 409h-187v49l156 257h159v-219h48v-87h-48v-70h-128v70zM207 496v132l-77 -132h77z" />
    <glyph glyph-name="uni20B4.old" horiz-adv-x="649" 
d="M322 -12q-130 0 -200 54.5t-70 151.5q0 37 10 63h-37v69h86q37 30 93 51h-179v69h360q21 21 21 59q0 56 -71 56q-68 0 -79 -74h-184q18 216 263 216q120 0 189.5 -51.5t69.5 -139.5q0 -36 -9 -66h39v-69h-79q-27 -28 -74 -51h153v-69h-341q-41 -24 -41 -66q0 -61 80 -61
q52 0 74 23.5t26 66.5h189q-11 -232 -289 -232z" />
    <glyph glyph-name="uni20B4.oldtab" horiz-adv-x="600" 
d="M297 -12q-123 0 -189.5 54.5t-66.5 151.5q0 34 9 63h-35v69h82q33 29 88 51h-170v69h341q20 21 20 59q0 56 -67 56q-64 0 -75 -74h-174q16 216 249 216q114 0 180 -51.5t66 -139.5q0 -32 -8 -66h36v-69h-74q-26 -29 -71 -51h145v-69h-323q-39 -24 -39 -66q0 -61 76 -61
q50 0 70.5 23.5t24.5 66.5h179q-11 -232 -274 -232z" />
    <glyph glyph-name="uni20B4.tab" horiz-adv-x="600" 
d="M297 -12q-120 0 -186 56t-66 156q0 36 9 65h-33v71h79q33 30 88 53h-167v71h335q20 21 20 61q0 58 -66 58q-65 0 -74 -77h-172q19 223 246 223q112 0 177 -53.5t65 -143.5q0 -34 -8 -68h35v-71h-73q-33 -35 -71 -53h144v-71h-319q-37 -26 -37 -68q0 -63 74 -63
q48 0 68.5 24.5t24.5 68.5h176q-11 -239 -269 -239z" />
    <glyph glyph-name="five.num" horiz-adv-x="375" 
d="M183 332q-81 0 -120 36q-38 33 -40 90h120q5 -29 38 -29q35 0 35 41q0 40 -38 40q-28 0 -41 -24h-102l11 229h281v-93h-190l-3 -80q32 48 98 48q54 0 85.5 -30.5t31.5 -87.5q0 -66 -43 -103t-123 -37z" />
    <glyph glyph-name="uni20B8.old" horiz-adv-x="581" 
d="M21 625v69h539v-69h-539zM191 415h-170v153h539v-153h-169v-415h-200v415z" />
    <glyph glyph-name="uni20B8.oldtab" horiz-adv-x="600" 
d="M40 625v69h519v-69h-519zM200 415h-160v153h519v-153h-159v-415h-200v415z" />
    <glyph glyph-name="uni20B8.tab" horiz-adv-x="600" 
d="M42 644v71h516v-71h-516zM197 428h-155v158h516v-158h-155v-428h-206v428z" />
    <glyph glyph-name="six.num" horiz-adv-x="399" 
d="M209 332q-92 0 -139 53q-43 47 -43 135v11q0 86 53 139q50 50 132 50q144 0 155 -118h-121q-6 25 -32 25q-49 0 -54 -86q27 41 88 41q56 0 90 -27q37 -31 37 -88q0 -61 -44.5 -98t-121.5 -37zM207 420q19 0 30 12.5t11 32.5q0 19 -11.5 31t-29.5 12t-29 -12.5t-11 -30.5
q0 -20 10.5 -32.5t29.5 -12.5z" />
    <glyph glyph-name="uni20BD.old" horiz-adv-x="679" 
d="M368 370q98 0 98 87v4q0 83 -97 83h-58v-174h57zM311 114v-114h-198v114h-93v69h93v51h-93v69h93v391h264q278 0 278 -232v-4q0 -110 -69.5 -167t-199.5 -57h-75v-51h200v-69h-200z" />
    <glyph glyph-name="uni20BD.oldtab" horiz-adv-x="600" 
d="M328 370q89 0 89 87v4q0 83 -88 83h-53v-174h52zM276 114v-114h-181v114h-85v69h85v51h-85v69h85v391h241q128 0 191 -60t63 -172v-4q0 -110 -63.5 -167t-182.5 -57h-68v-51h182v-69h-182z" />
    <glyph glyph-name="uni20BD.tab" horiz-adv-x="600" 
d="M326 381q83 0 83 90v4q0 86 -83 86h-48v-180h48zM278 118v-118h-184v118h-84v71h84v52h-84v71h84v403h239q253 0 253 -239v-4q0 -113 -63.5 -172t-181.5 -59h-63v-52h177v-71h-177z" />
    <glyph glyph-name="seven.num" horiz-adv-x="351" 
d="M171 611h-148v104h314v-13l-136 -363h-132z" />
    <glyph glyph-name="eight.num" horiz-adv-x="388" 
d="M194 332q-83 0 -127 29t-44 84q0 69 69 91q-53 22 -53 76q0 50 46 81q44 27 110 27q70 0 113 -28t43 -79q0 -54 -53 -76q67 -21 67 -88q0 -55 -44.5 -86t-126.5 -31zM195 421q18 0 29.5 10.5t11.5 27.5t-11.5 28t-29.5 11t-30 -10.5t-12 -28.5t12 -28t30 -10zM195 566
q16 0 26.5 9.5t10.5 25.5q0 15 -10.5 24.5t-26.5 9.5q-15 0 -26 -9.5t-11 -24.5t11 -25t26 -10z" />
    <glyph glyph-name="nine.num" horiz-adv-x="399" 
d="M190 332q-72 0 -113.5 31t-46.5 88h122q5 -25 35 -25q51 0 53 84q-29 -39 -83 -39q-60 0 -94 27q-38 27 -38 89q0 61 44.5 97.5t120.5 36.5q89 0 139 -53q44 -50 44 -135v-10q0 -92 -47 -141.5t-136 -49.5zM190 545q20 0 30.5 11.5t10.5 30.5q0 21 -10.5 33.5t-30.5 12.5
q-18 0 -29 -12.5t-11 -32.5q0 -19 11 -31t29 -12z" />
    <glyph glyph-name="zero.den" horiz-adv-x="430" 
d="M215 94q55 0 55 91v8q0 48 -13.5 68.5t-42.5 20.5t-41 -21t-12 -69v-7q0 -48 12.5 -69.5t41.5 -21.5zM212 -7q-89 0 -137 49.5t-48 141.5v8q0 91 54 140q51 49 134 49t134 -45q54 -51 54 -141v-7q0 -92 -50.5 -143.5t-140.5 -51.5z" />
    <glyph glyph-name="one.den" horiz-adv-x="295" 
d="M106 248l-82 -46v107l102 67h114v-376h-134v248z" />
    <glyph glyph-name="two.den" horiz-adv-x="362" 
d="M9 17l128 133q37 37 52.5 58.5t15.5 43.5q0 32 -31 32q-34 0 -40 -52h-120q2 73 46 111t120 38t115.5 -33t39.5 -87q0 -62 -77 -132l-35 -34h113v-95h-327v17z" />
    <glyph glyph-name="uni0437.bgr" horiz-adv-x="527" 
d="M508 23q0 -96 -64 -156.5t-189 -60.5q-116 0 -180.5 56.5t-74.5 146.5h178q9 -77 73 -77q76 0 76 94v6q0 47 -18.5 69t-65.5 22h-49v122h48q73 0 73 78v10q0 78 -63 78q-32 0 -49.5 -21.5t-19.5 -73.5h-169q16 221 244 221q106 0 169.5 -54.5t63.5 -138.5v-8
q0 -50 -31 -91t-79 -53q127 -32 127 -161v-8z" />
    <glyph glyph-name="uni0449.bgr" horiz-adv-x="957" 
d="M795 -127l-6 127h-90v80q-52 -94 -164 -94q-105 0 -142 87q-64 -87 -173 -87q-77 0 -124 50t-47 145v342h179v-312q0 -39 18 -59t49 -20q37 0 58.5 23t21.5 65v303h177v-312q0 -39 18 -59t49 -20q37 0 58.5 23t21.5 65v303h179v-401h69v-249h-152z" />
    <glyph glyph-name="three.den" horiz-adv-x="382" 
d="M190 -7q-84 0 -127 38q-39 35 -41 96h116q5 -42 45 -42q39 0 39 34t-45 34h-30v74h30q45 0 45 34q0 29 -34 29q-36 0 -42 -38h-116q5 60 45.5 94.5t115.5 34.5t115.5 -27t40.5 -77q0 -62 -68 -81q34 -5 55 -27t21 -55q0 -56 -42 -88.5t-123 -32.5z" />
    <glyph glyph-name="uni044A.bgr" horiz-adv-x="620" 
d="M18 401v122h285v-158q38 3 66 2q116 -1 172.5 -47.5t56.5 -130.5v-7q0 -89 -64 -141t-179 -52q-125 2 -177.5 57t-52.5 169v186h-107zM356 106q28 0 43.5 17.5t15.5 49.5v5q0 71 -71 71q-18 1 -41 -1v-73q0 -69 53 -69z" />
    <glyph glyph-name="four.den" horiz-adv-x="403" 
d="M203 70h-187v49l156 257h159v-219h48v-87h-48v-70h-128v70zM207 157v132l-77 -132h77z" />
    <glyph glyph-name="five.den" horiz-adv-x="375" 
d="M183 -7q-81 0 -120 36q-38 33 -40 90h120q5 -29 38 -29q35 0 35 41q0 40 -38 40q-28 0 -41 -24h-102l11 229h281v-93h-190l-3 -80q32 48 98 48q54 0 85.5 -30.5t31.5 -87.5q0 -66 -43 -103t-123 -37z" />
    <glyph glyph-name="six.den" horiz-adv-x="400" 
d="M209 -7q-92 0 -139 53q-43 47 -43 135v11q0 86 53 139q50 50 132 50q144 0 155 -118h-121q-6 25 -32 25q-49 0 -54 -86q27 41 88 41q56 0 90 -27q37 -31 37 -88q0 -61 -44.5 -98t-121.5 -37zM207 81q19 0 30 12.5t11 32.5q0 19 -11.5 31t-29.5 12t-29 -12.5t-11 -30.5
q0 -20 10.5 -32.5t29.5 -12.5z" />
    <glyph glyph-name="seven.den" horiz-adv-x="352" 
d="M171 272h-148v104h314v-13l-136 -363h-132z" />
    <glyph glyph-name="florin.tab" 
d="M91 414h103l18 125q27 186 221 186q39 0 78 -11v-134q-26 7 -51 7q-60 0 -72 -63l-16 -110h124v-121h-141l-67 -475h-178l67 475h-86v121z" />
    <glyph glyph-name="uni0431.locl" horiz-adv-x="622" 
d="M311 -12q-124 0 -205 70t-81 187v8q0 72 45.5 133t130.5 80l25 4l16 2q-86 22 -131 55.5t-45 92.5q0 63 40 98t119 35h164q115 0 164 13v-127q-38 -21 -165 -21h-159q-25 0 -25 -20q0 -27 88 -53q159 -50 232 -115t73 -172v-8q0 -118 -81.5 -190t-204.5 -72zM312 121
q50 0 76.5 34t26.5 93v8q0 60 -26.5 93.5t-76.5 33.5q-51 0 -77.5 -32.5t-26.5 -92.5v-8q0 -61 26.5 -95t77.5 -34z" />
    <glyph glyph-name="yen.tab" 
d="M59 365h139l-174 350h205l88 -213l88 213h179l-170 -350h145v-71h-153v-51h153v-72h-153v-171h-199v171h-148v72h148v51h-148v71z" />
    <glyph glyph-name="eight.den" horiz-adv-x="389" 
d="M194 -7q-83 0 -127 29t-44 84q0 69 69 91q-53 22 -53 76q0 50 46 81q44 27 110 27q70 0 113 -28t43 -79q0 -54 -53 -76q67 -21 67 -88q0 -55 -44.5 -86t-126.5 -31zM195 82q18 0 29.5 10.5t11.5 27.5t-11.5 28t-29.5 11t-30 -10.5t-12 -28.5t12 -28t30 -10zM195 227
q16 0 26.5 9.5t10.5 25.5q0 15 -10.5 24.5t-26.5 9.5q-15 0 -26 -9.5t-11 -24.5t11 -25t26 -10z" />
    <glyph glyph-name="nine.den" horiz-adv-x="400" 
d="M190 -8q-72 0 -113.5 31t-46.5 88h122q5 -25 35 -25q51 0 53 84q-29 -39 -83 -39q-60 0 -94 27q-38 27 -38 89q0 61 44.5 97.5t120.5 36.5q89 0 139 -53q44 -50 44 -135v-10q0 -92 -47 -141.5t-136 -49.5zM190 205q20 0 30.5 11.5t10.5 30.5q0 21 -10.5 33.5t-30.5 12.5
q-18 0 -29 -12.5t-11 -32.5q0 -19 11 -31t29 -12z" />
    <glyph glyph-name="zero.sub" horiz-adv-x="430" 
d="M215 -26q55 0 55 91v8q0 48 -13.5 68.5t-42.5 20.5t-41 -21t-12 -69v-7q0 -48 12.5 -69.5t41.5 -21.5zM212 -127q-89 0 -137 49.5t-48 141.5v8q0 91 54 140q51 49 134 49t134 -45q54 -51 54 -141v-7q0 -92 -50.5 -143.5t-140.5 -51.5z" />
    <glyph glyph-name="one.sub" horiz-adv-x="295" 
d="M106 128l-82 -46v107l102 67h114v-376h-134v248z" />
    <glyph glyph-name="sterling.tab" 
d="M35 401h45q-11 44 -11 95q0 108 73 171q65 58 178 58q124 0 183.5 -59.5t63.5 -178.5h-165q-5 47 -22 65.5t-52 18.5q-74 0 -74 -86q0 -35 7 -84h161v-108h-144q4 -28 4 -63q0 -30 -10 -57q61 -21 84 -21q57 0 61 57h165q-3 -103 -52 -160.5t-137 -57.5q-53 0 -111 26
t-76 26q-39 0 -44 -43h-142q9 128 90 172q8 26 8 59q0 28 -8 62h-75v108z" />
    <glyph glyph-name="two.sub" horiz-adv-x="362" 
d="M9 -103l128 133q37 37 52.5 58.5t15.5 43.5q0 32 -31 32q-34 0 -40 -52h-120q2 73 46 111t120 38t115.5 -33t39.5 -87q0 -62 -77 -132l-35 -34h113v-95h-327v17z" />
    <glyph glyph-name="three.sub" horiz-adv-x="382" 
d="M190 -127q-84 0 -127 38q-39 35 -41 96h116q5 -42 45 -42q39 0 39 34t-45 34h-30v74h30q45 0 45 34q0 29 -34 29q-36 0 -42 -38h-116q5 60 45.5 94.5t115.5 34.5t115.5 -27t40.5 -77q0 -62 -68 -81q34 -5 55 -27t21 -55q0 -56 -42 -88.5t-123 -32.5z" />
    <glyph glyph-name="four.sub" horiz-adv-x="403" 
d="M203 -50h-187v49l156 257h159v-219h48v-87h-48v-70h-128v70zM207 37v132l-77 -132h77z" />
    <glyph glyph-name="space.tab" horiz-adv-x="300" 
 />
    <glyph glyph-name="uni0433.bgr" horiz-adv-x="517" 
d="M246 -12q-103 0 -164.5 43t-61.5 123q0 71 46.5 107t140.5 53q65 11 88 24t23 33q0 41 -54 41q-57 0 -67 -52h-162q28 177 243 177q95 0 153.5 -42t58.5 -117q0 -74 -44 -111.5t-138 -53.5q-67 -12 -88 -24t-21 -35q0 -39 59 -39q37 0 52.5 14t21.5 45h165
q-9 -186 -251 -186z" />
    <glyph glyph-name="uni043F.bgr" horiz-adv-x="624" 
d="M53 523h179v-84q50 98 172 98q78 0 124.5 -50t46.5 -147v-340h-179v304q0 88 -75 88q-41 0 -65 -25t-24 -74v-293h-179v523z" />
    <glyph glyph-name="uni0448.bgr" horiz-adv-x="931" 
d="M878 0h-179v80q-52 -94 -164 -94q-105 0 -142 87q-64 -87 -173 -87q-77 0 -124 50t-47 145v342h179v-312q0 -39 18 -59t49 -20q37 0 58.5 23t21.5 65v303h177v-312q0 -39 18 -59t49 -20q37 0 58.5 23t21.5 65v303h179v-523z" />
    <glyph glyph-name="uni044E.bgr" horiz-adv-x="844" 
d="M543 -11q-107 0 -178.5 57t-87.5 159h-45v-205h-178v753h178v-426h47q18 97 90 154t175 57q120 0 197.5 -73.5t77.5 -195.5v-8q0 -125 -78 -198.5t-198 -73.5zM544 122q43 0 68 36t25 101v8q0 66 -24 101.5t-69 35.5q-43 0 -68 -35t-25 -100v-8q0 -139 93 -139z" />
    <glyph glyph-name="nine.old" horiz-adv-x="659" 
d="M309 -106q-120 0 -189 56.5t-79 158.5h180q16 -70 89 -70q60 0 88 48q25 44 30 162q-56 -85 -164 -85q-101 0 -163 56q-68 59 -68 163q0 113 76 181q76 67 210 67q157 0 233 -96q69 -88 69 -250v-31q0 -168 -80 -265q-83 -95 -232 -95zM319 286q44 0 71.5 29t27.5 73
q0 46 -27 75t-72 29q-44 0 -70.5 -28.5t-26.5 -74.5t26.5 -74.5t70.5 -28.5z" />
    <glyph glyph-name="eight.old" horiz-adv-x="647" 
d="M323 -12q-132 0 -210 55q-80 56 -80 158q0 124 135 174q-106 47 -106 149q0 93 78 150q74 51 185 51q113 0 186 -51q76 -57 76 -149q0 -101 -106 -149q63 -22 98 -66t35 -104q0 -103 -79 -160q-82 -58 -212 -58zM324 127q45 0 72 25.5t27 67.5t-27 67t-72 25
q-44 0 -71.5 -24.5t-27.5 -67.5t27.5 -68t71.5 -25zM325 429q38 0 62 22t24 60q0 36 -24.5 58.5t-61.5 22.5q-36 0 -61 -22.5t-25 -58.5q0 -37 25 -59.5t61 -22.5z" />
    <glyph glyph-name="seven.old" horiz-adv-x="579" 
d="M315 462h-290v157h540v-22l-260 -689h-204z" />
    <glyph glyph-name="six.old" horiz-adv-x="659" 
d="M340 -12q-156 0 -233 96q-69 86 -69 244v34q0 169 89 269q85 94 224 94q116 0 182.5 -52.5t77.5 -155.5h-181q-12 63 -79 63q-114 0 -120 -210q53 86 163 86q98 0 164 -57q67 -60 67 -167q0 -110 -76 -177t-209 -67zM339 127q44 0 71 28.5t27 74.5t-26.5 74.5t-70.5 28.5
q-45 0 -72.5 -28.5t-27.5 -72.5q0 -47 27 -76t72 -29z" />
    <glyph glyph-name="uni0434.bgr" horiz-adv-x="641" 
d="M310 158q48 0 76 32t28 88v7q0 55 -26.5 86.5t-76.5 31.5t-76.5 -32t-26.5 -87v-8q0 -54 27 -86t75 -32zM298 -194q-253 0 -274 194h178q14 -68 96 -68q111 0 111 110v80q-21 -41 -64 -68.5t-98 -27.5q-96 0 -159 67t-63 184v8q0 114 63.5 183t158.5 69q111 0 162 -88v74
h179v-479q0 -117 -74 -177.5t-216 -60.5z" />
    <glyph glyph-name="five.old" horiz-adv-x="621" 
d="M304 -104q-132 0 -205 65q-67 59 -72 164h178q7 -42 25 -60q23 -25 72 -25q44 0 69 29.5t25 75.5q0 48 -27.5 74.5t-75.5 26.5q-77 0 -118 -52h-118l15 425h472v-148h-331l-5 -167q55 73 167 73q94 0 153 -59q59 -64 59 -172q0 -114 -74 -182q-76 -68 -209 -68z" />
    <glyph glyph-name="uni0438.bgr" horiz-adv-x="623" 
d="M225 -12q-79 0 -127.5 49t-48.5 145v341h179v-312q0 -88 74 -88q89 0 89 99v301h179v-523h-179v81q-47 -93 -166 -93z" />
    <glyph glyph-name="uni043F.locl" horiz-adv-x="611" 
d="M379 401h-147v-401h-178v523h503v-523h-178v401z" />
    <glyph glyph-name="one.num" horiz-adv-x="294" 
d="M106 587l-82 -46v107l102 67h114v-376h-134v248z" />
    <glyph glyph-name="five.sub" horiz-adv-x="375" 
d="M183 -127q-81 0 -120 36q-38 33 -40 90h120q5 -29 38 -29q35 0 35 41q0 40 -38 40q-28 0 -41 -24h-102l11 229h281v-93h-190l-3 -80q32 48 98 48q54 0 85.5 -30.5t31.5 -87.5q0 -66 -43 -103t-123 -37z" />
    <glyph glyph-name="uni044C.bgr" horiz-adv-x="544" 
d="M279 -11q-125 2 -177.5 57t-52.5 169v308h178v-158q38 3 66 2q116 -1 172.5 -47.5t56.5 -130.5v-7q0 -89 -64 -141t-179 -52zM280 106q28 0 43.5 17.5t15.5 49.5v5q0 71 -71 71q-18 1 -41 -1v-73q0 -69 53 -69z" />
    <glyph glyph-name="three.old" horiz-adv-x="628" 
d="M317 -104q-143 0 -215 66q-69 62 -75 177h174q8 -101 106 -101q97 0 97 88q0 85 -102 85h-58v121h54q98 0 98 83q0 36 -20.5 56.5t-58.5 20.5q-42 0 -68 -25.5t-31 -70.5h-173q6 105 75 168q74 67 203 67q119 0 186.5 -53t67.5 -142q0 -114 -118 -156q135 -32 135 -166
q0 -99 -70 -157q-74 -61 -207 -61z" />
    <glyph glyph-name="uni0439.bgr" horiz-adv-x="623" 
d="M303 588q-77 0 -118.5 40t-46.5 113h121q5 -51 44 -51q40 0 47 51h120q-6 -73 -49.5 -113t-117.5 -40zM225 -12q-79 0 -127.5 49t-48.5 145v341h179v-312q0 -88 74 -88q89 0 89 99v301h179v-523h-179v81q-47 -93 -166 -93z" />
    <glyph glyph-name="uni0414.bgr" horiz-adv-x="746" 
d="M257 160h203l-102 342zM185 -130h-180v290h60l189 555h233l194 -555h60v-290h-180l-5 130h-366z" />
    <glyph glyph-name="uni0416.bgr" horiz-adv-x="1027" 
d="M413 307l-186 -307h-219l245 379l-230 336h208l182 -291v291h201v-290l185 290h205l-233 -329l248 -386h-224l-181 307v-307h-201v307z" />
    <glyph glyph-name="uni041A.bgr" horiz-adv-x="726" 
d="M275 299v-299h-206v715h206v-283l215 283h214l-262 -332l276 -383h-237z" />
    <glyph glyph-name="uni0436.bgr" horiz-adv-x="805" 
d="M313 236l-119 -236h-190l158 282l-149 241h183l117 -214v444h177v-444l117 214h181l-148 -235l161 -288h-194l-117 236v-236h-177v236z" />
    <glyph glyph-name="two.old" horiz-adv-x="594" 
d="M15 27l227 218q63 61 91 98.5t28 75.5q0 31 -18.5 49.5t-53.5 18.5q-77 0 -89 -104h-172q6 117 77 182q72 66 196 66q117 0 186 -55q65 -53 65 -142q0 -59 -38 -116q-32 -46 -99 -108l-77 -71h220v-139h-543v27z" />
    <glyph glyph-name="one.old" horiz-adv-x="443" 
d="M169 430l-133 -81v161l158 109h165v-619h-190v430z" />
    <glyph glyph-name="uni0432.bgr" horiz-adv-x="546" 
d="M30 478q0 150 68 217.5t182 67.5q109 0 169 -48t60 -145v-10q0 -60 -34 -109t-90 -58q141 -24 141 -169v-7q0 -94 -68.5 -162.5t-181.5 -68.5q-246 0 -246 250v242zM215 446h33q48 0 66.5 25.5t18.5 77.5v10q0 41 -12 59.5t-41 18.5q-65 0 -65 -126v-65zM276 112
q69 0 69 110v10q0 53 -21.5 75.5t-74.5 22.5h-34v-111q0 -54 13.5 -80.5t47.5 -26.5z" />
    <glyph glyph-name="zero.old" horiz-adv-x="682" 
d="M342 134q113 0 113 166v22q0 164 -114 164t-114 -163v-23q0 -166 115 -166zM339 -12q-139 0 -220 81q-85 80 -85 228v23q0 145 88 230q86 81 219 81q135 0 219 -78q88 -83 88 -228v-23q0 -148 -86 -231q-83 -83 -223 -83z" />
    <glyph glyph-name="yen.old" horiz-adv-x="635" 
d="M66 355h133l-185 339h216l100 -227l100 227h190l-175 -339h134v-69h-156v-51h156v-69h-156v-166h-200v166h-157v69h157v51h-157v69z" />
    <glyph glyph-name="uni0424.bgr" horiz-adv-x="938" 
d="M573 676q151 -4 243.5 -86.5t92.5 -222.5v-8q0 -140 -95.5 -221.5t-240.5 -85.5v-62h-205v62q-151 4 -243.5 86t-92.5 222v8q0 140 95.5 222t240.5 86v59h205v-59zM368 531q-57 -4 -95 -45.5t-38 -116.5v-8q0 -79 37.5 -119.5t95.5 -42.5v332zM573 197q58 2 95.5 43.5
t37.5 117.5v8q0 80 -36.5 119.5t-96.5 43.5v-332z" />
    <glyph glyph-name="sterling.old" horiz-adv-x="659" 
d="M37 395h50q-12 46 -12 86q0 102 77 165q74 57 190 57q129 0 198 -64q62 -59 67 -170h-181q-6 45 -24.5 64.5t-53.5 19.5t-55.5 -22t-20.5 -61q0 -31 7 -75h171v-117h-152q4 -25 4 -54q0 -33 -10 -57q70 -22 88 -22q60 0 61 58h179q-5 -96 -54 -151q-55 -61 -147 -61
q-55 0 -121 26q-8 3 -23 9t-22.5 8.5t-18.5 5t-19 2.5q-42 0 -47 -42h-147q9 130 103 171q8 24 8 53q0 24 -8 54h-87v117z" />
    <glyph glyph-name="Euro.old" horiz-adv-x="706" 
d="M26 438h62q19 119 98 191q80 74 203 74q127 0 198.5 -63t82.5 -186h-183q-12 99 -100 99q-90 0 -108 -115h152l-13 -69h-143v-49h134l-11 -69h-119q17 -110 109 -110q48 0 73 27.5t32 85.5h182q-15 -128 -87.5 -197t-204.5 -69q-129 0 -206 74q-73 70 -90 189h-61v69h57
v49h-57v69z" />
    <glyph glyph-name="dollar.old" horiz-adv-x="648" 
d="M282 -10q-121 7 -186 71q-62 57 -68 158h180q9 -76 74 -90v141q-127 18 -182 69q-56 50 -56 151q0 88 64 146q68 60 174 67v86h78v-87q219 -19 236 -210h-176q-11 58 -60 72v-133q121 -18 178 -62q67 -51 67 -151q0 -95 -59 -154q-68 -68 -186 -75v-120h-78v121zM425 197
q0 25 -13.5 38t-51.5 22v-129q65 13 65 69zM218 504q0 -26 13.5 -39.5t50.5 -21.5v123q-64 -12 -64 -62z" />
    <glyph glyph-name="uni0442.bgr" horiz-adv-x="931" 
d="M53 523h179v-80q52 94 164 94q104 0 142 -87q64 87 173 87q77 0 124 -50t47 -145v-342h-179v312q0 39 -18 59t-49 20q-37 0 -58.5 -23t-21.5 -65v-303h-177v312q0 39 -18 59t-49 20q-37 0 -58.5 -23t-21.5 -65v-303h-179v523z" />
    <glyph glyph-name="six.sub" horiz-adv-x="400" 
d="M209 -127q-92 0 -139 53q-43 47 -43 135v11q0 86 53 139q50 50 132 50q144 0 155 -118h-121q-6 25 -32 25q-49 0 -54 -86q27 41 88 41q56 0 90 -27q37 -31 37 -88q0 -61 -44.5 -98t-121.5 -37zM207 -39q19 0 30 12.5t11 32.5q0 19 -11.5 31t-29.5 12t-29 -12.5t-11 -30.5
q0 -20 10.5 -32.5t29.5 -12.5z" />
    <glyph glyph-name="seven.sub" horiz-adv-x="352" 
d="M171 152h-148v104h314v-13l-136 -363h-132z" />
    <glyph glyph-name="eight.sub" horiz-adv-x="389" 
d="M194 -127q-83 0 -127 29t-44 84q0 69 69 91q-53 22 -53 76q0 50 46 81q44 27 110 27q70 0 113 -28t43 -79q0 -54 -53 -76q67 -21 67 -88q0 -55 -44.5 -86t-126.5 -31zM195 -38q18 0 29.5 10.5t11.5 27.5t-11.5 28t-29.5 11t-30 -10.5t-12 -28.5t12 -28t30 -10zM195 107
q16 0 26.5 9.5t10.5 25.5q0 15 -10.5 24.5t-26.5 9.5q-15 0 -26 -9.5t-11 -24.5t11 -25t26 -10z" />
    <glyph glyph-name="nine.sub" horiz-adv-x="400" 
d="M190 -127q-72 0 -113.5 31t-46.5 88h122q5 -25 35 -25q51 0 53 84q-29 -39 -83 -39q-60 0 -94 27q-38 27 -38 89q0 61 44.5 97.5t120.5 36.5q89 0 139 -53q44 -50 44 -135v-10q0 -92 -47 -141.5t-136 -49.5zM190 86q20 0 30.5 11.5t10.5 30.5q0 21 -10.5 33.5t-30.5 12.5
q-18 0 -29 -12.5t-11 -32.5q0 -19 11 -31t29 -12z" />
    <glyph glyph-name="hungarumlaut.uc" horiz-adv-x="408" 
d="M84 905h153l-74 -146h-120zM278 905h154l-75 -146h-120z" />
    <glyph glyph-name="tilde.uc" horiz-adv-x="408" 
d="M269 758q-30 0 -70 17t-50 17q-12 0 -20.5 -9t-10.5 -24h-102q6 78 41 116q31 37 81 37q29 0 69 -16q36 -17 52 -17q25 0 32 32h101q-6 -74 -41 -116q-34 -37 -82 -37z" />
    <glyph glyph-name="ring.uc" horiz-adv-x="408" 
d="M204 810q20 0 33 14t13 36q0 23 -12.5 36.5t-33.5 13.5t-33.5 -13.5t-12.5 -36.5q0 -22 12.5 -36t33.5 -14zM204 744q-49 0 -84 35q-36 31 -36 81q0 49 36 82q34 34 84 34q48 0 85 -34q35 -35 35 -82q0 -48 -35 -81q-38 -35 -85 -35z" />
    <glyph glyph-name="dotaccent.uc" horiz-adv-x="408" 
d="M204 757q-41 0 -68 25.5t-27 64.5q0 38 27 63.5t68 25.5t68 -25.5t27 -63.5q0 -39 -27 -64.5t-68 -25.5z" />
    <glyph glyph-name="breve.uc" horiz-adv-x="408" 
d="M203 752q-74 0 -117 40.5t-48 112.5h116q5 -46 49 -46q45 0 52 46h115q-6 -72 -50.5 -112.5t-116.5 -40.5z" />
    <glyph glyph-name="caron.uc" horiz-adv-x="408" 
d="M16 905h130l58 -49l59 49h127l-114 -146h-150z" />
    <glyph glyph-name="circumflex.uc" horiz-adv-x="408" 
d="M131 905h150l110 -146h-130l-59 49l-58 -49h-127z" />
    <glyph glyph-name="acute.uc" horiz-adv-x="408" 
d="M177 905h187l-103 -146h-135z" />
    <glyph glyph-name="macron.uc" horiz-adv-x="408" 
d="M43 878h322v-107h-322v107z" />
    <glyph glyph-name="uni041B.bgr" horiz-adv-x="728" 
d="M350 502l-146 -502h-192l234 715h233l237 -715h-221z" />
    <glyph glyph-name="dieresis.uc" horiz-adv-x="408" 
d="M92 758q-36 0 -60 24q-25 23 -25 59q0 35 25 59.5t60 24.5q36 0 61 -24.5t25 -59.5t-25 -59t-61 -24zM315 758q-36 0 -60.5 24t-24.5 59t24.5 59.5t60.5 24.5t61 -24.5t25 -59.5t-25 -59t-61 -24z" />
    <glyph glyph-name="grave.uc" horiz-adv-x="408" 
d="M47 905h186l49 -146h-135z" />
    <glyph glyph-name="at.uc" horiz-adv-x="929" 
d="M464 -80q-196 0 -314 118q-113 113 -113 287q0 191 136 316q127 119 309 119q178 0 293 -99q117 -101 117 -262q0 -137 -67 -209q-56 -62 -147 -62q-123 0 -146 81q-43 -84 -133 -84q-73 0 -117 49.5t-44 135.5q0 103 58 169q55 63 138 63q80 0 107 -59l7 51h147
l-33 -270q-8 -66 42 -66q45 0 74 48q33 53 33 155q0 129 -88 209q-89 80 -239 80q-156 0 -257 -99q-105 -103 -105 -268q0 -150 87 -238q91 -96 259 -96q162 0 254 87h91q-50 -71 -142 -113q-90 -43 -207 -43zM447 242q33 0 56 32.5t23 83.5q0 69 -63 69q-33 0 -54 -30.5
t-21 -80.5q0 -33 15.5 -53.5t43.5 -20.5z" />
    <glyph glyph-name="bar.uc" horiz-adv-x="276" 
d="M75 777h125v-861h-125v861z" />
    <glyph glyph-name="backslash.uc" horiz-adv-x="442" 
d="M2 777h143l296 -861h-142z" />
    <glyph glyph-name="slash.uc" horiz-adv-x="442" 
d="M297 777h143l-297 -861h-143z" />
    <glyph glyph-name="braceright.uc" horiz-adv-x="426" 
d="M42 36q54 1 76 23q18 18 12 71l-9 85q-12 106 103 132q-55 13 -82 47t-21 85l9 85q6 50 -12.5 68.5t-75.5 20.5v131q154 0 218.5 -52.5t46.5 -173.5l-11 -68q-6 -37 17 -59.5t78 -22.5v-125q-55 0 -78 -23t-17 -60l11 -69q19 -118 -46 -171.5t-219 -53.5v130z" />
    <glyph glyph-name="braceleft.uc" horiz-adv-x="426" 
d="M384 -94q-154 0 -219 53.5t-46 171.5l11 69q6 37 -17 60t-78 23v125q55 0 78 22.5t17 59.5l-11 68q-20 120 45.5 173t219.5 53v-131q-57 -2 -75.5 -20.5t-12.5 -68.5l9 -85q6 -51 -21 -85t-82 -47q115 -26 103 -132l-9 -85q-6 -54 13 -71q19 -22 75 -23v-130z" />
    <glyph glyph-name="bracketright.uc" horiz-adv-x="417" 
d="M43 37h124v616h-124v130h304v-876h-304v130z" />
    <glyph glyph-name="bracketleft.uc" horiz-adv-x="417" 
d="M70 783h305v-130h-125v-616h125v-130h-305v876z" />
    <glyph glyph-name="space_uni0326" horiz-adv-x="408" 
d="M100 -205l42 177l158 -19l-99 -185z" />
    <glyph glyph-name="parenright.uc" horiz-adv-x="364" 
d="M15 -98q59 90 91 187q43 126 43 255q0 126 -43 255q-31 90 -91 186h140q71 -87 111 -176q54 -123 54 -265t-54 -265q-39 -90 -111 -177h-140z" />
    <glyph glyph-name="parenleft.uc" horiz-adv-x="364" 
d="M209 -98q-70 80 -112 177q-54 122 -54 264t54 265q42 97 112 177h139q-61 -97 -90 -186q-43 -129 -43 -256q0 -128 43 -254q31 -96 90 -187h-139z" />
    <glyph glyph-name="guillemotright.uc" horiz-adv-x="488" 
d="M154 301l-120 195h115l125 -195l-125 -195h-115zM334 301l-120 195h115l125 -195l-125 -195h-115z" />
    <glyph glyph-name="guillemotleft.uc" horiz-adv-x="488" 
d="M35 301l124 195h115l-119 -195l119 -195h-115zM215 301l124 195h115l-119 -195l119 -195h-115z" />
    <glyph glyph-name="guilsinglright.uc" horiz-adv-x="315" 
d="M154 301l-120 195h121l125 -195l-125 -195h-121z" />
    <glyph glyph-name="guilsinglleft.uc" horiz-adv-x="315" 
d="M35 301l124 195h122l-120 -195l120 -195h-122z" />
    <glyph glyph-name="uni0442.locl" horiz-adv-x="492" 
d="M482 401h-147v-401h-178v401h-147v122h472v-122z" />
    <glyph glyph-name="emdash.uc" horiz-adv-x="954" 
d="M50 381h855v-105h-855v105z" />
    <glyph glyph-name="idotaccent" horiz-adv-x="303" 
d="M151 573q-42 0 -70 26t-28 66t28 66.5t70 26.5t70.5 -26.5t28.5 -66.5t-28.5 -66t-70.5 -26zM62 523h179v-523h-179v523z" />
    <glyph glyph-name="endash.uc" horiz-adv-x="549" 
d="M50 381h449v-105h-449v105z" />
    <glyph glyph-name="plus.sub" horiz-adv-x="365" 
d="M135 27h-96v93h96v99h95v-99h96v-93h-96v-98h-95v98z" />
    <glyph glyph-name="exclamdown.uc" horiz-adv-x="342" 
d="M171 725q45 0 75.5 -28t30.5 -70t-30.5 -71t-75.5 -29q-42 0 -76 29q-31 31 -31 71q0 42 31 70q29 28 76 28zM272 0h-202l27 480h148z" />
    <glyph glyph-name="questiondown.uc" horiz-adv-x="564" 
d="M391 461q0 -51 -32 -96q-14 -20 -66 -72q-33 -31 -49 -52.5t-16 -45.5q0 -60 61 -60q32 0 53 23t26 65h174q-4 -113 -78 -174q-71 -59 -189 -59q-116 0 -178.5 49t-62.5 139q0 79 73 150q12 12 37 35t35 33q38 38 43 69v15h169v-19zM306 725q48 0 76 -28q32 -27 32 -70
q0 -41 -32 -71q-32 -29 -76 -29q-41 0 -75 29q-31 31 -31 71q0 42 31 70q29 28 75 28z" />
    <glyph glyph-name="caron.alt" horiz-adv-x="408" 
d="M163 753h133l-49 -174h-93z" />
    <glyph glyph-name="registered.alt" horiz-adv-x="851" 
d="M265 562h163q167 0 167 -130v-2q0 -77 -68 -106l92 -165h-129l-77 139h-24v-139h-124v403zM421 379q53 0 53 45v3q0 41 -52 41h-33v-89h32zM424 31q137 0 228 91q95 92 95 237q0 142 -93 235q-93 90 -228 90q-137 0 -228 -91q-94 -91 -94 -236q0 -146 95 -236
q90 -90 225 -90zM424 -20q-160 0 -271 109q-112 109 -112 268q0 158 112 268t273 110q163 0 274 -109q110 -110 110 -267q0 -160 -112 -270q-111 -109 -274 -109z" />
    <glyph glyph-name="space_uni0326.alt" horiz-adv-x="408" 
d="M121 585l99 185l101 -27l-42 -177z" />
    <glyph glyph-name="tcommaaccent.alt" horiz-adv-x="387" 
d="M65 -205l42 177l158 -19l-99 -185zM90 401h-72v122h72v109h179v-109h96v-122h-96v-401h-179v401z" />
    <glyph glyph-name="tcaron.alt" horiz-adv-x="387" 
d="M90 401h-72v122h72v109h179v-109h96v-122h-96v-401h-179v401zM319 753h133l-49 -174h-93z" />
    <glyph glyph-name="tbar.alt" horiz-adv-x="379" 
d="M14 332h72v69h-72v122h72v109h179v-109h96v-122h-96v-69h96v-99h-96v-233h-179v233h-72v99z" />
    <glyph glyph-name="germandbls.alt" horiz-adv-x="700" 
d="M472 -9q-101 0 -154.5 44.5t-55.5 124.5h155q5 -53 45 -53q41 0 41 43q0 23 -23 40q-14 10 -63 32q-56 26 -83 52q-41 36 -41 89q0 51 56 115q4 4 13.5 15t13.5 16t10.5 14t9.5 15t5.5 14.5t2.5 15.5q0 62 -72 62q-45 0 -70.5 -24.5t-25.5 -72.5v-533h-179v530
q0 109 78 173q75 61 200 61q111 0 177 -43q68 -46 68 -127q0 -67 -59 -126q-7 -7 -20.5 -19.5t-20.5 -19t-12.5 -15.5t-5.5 -16q0 -14 22 -26q8 -5 32.5 -17.5t41.5 -21.5q56 -31 80 -62q35 -45 35 -102q0 -87 -56 -133q-52 -45 -145 -45z" />
    <glyph glyph-name="atilde.alt" horiz-adv-x="642" 
d="M249 -12q-93 0 -153 66q-65 72 -65 202v8q0 126 66 204q61 69 153 69q105 0 156 -87v73h179v-523h-179v84q-22 -43 -62.5 -69.5t-94.5 -26.5zM310 125q46 0 73.5 34.5t27.5 99.5v8q0 67 -26 101t-72 34q-100 0 -100 -136v-8q0 -65 25.5 -99t71.5 -34zM389 587
q-32 0 -68 17q-38 16 -49 16q-26 0 -31 -32h-97q5 77 35.5 116.5t79.5 39.5q25 0 68 -17q40 -17 51 -17q25 0 32 32h97q-6 -75 -38.5 -115t-79.5 -40z" />
    <glyph glyph-name="uni043A.bgr" horiz-adv-x="577" 
d="M232 229v-229h-179v753h179v-437l141 207h186l-171 -235l185 -288h-200z" />
    <glyph glyph-name="uni043D.bgr" horiz-adv-x="621" 
d="M389 205h-157v-205h-178v523h178v-196h157v196h178v-523h-178v205z" />
    <glyph glyph-name="aringacute.alt" horiz-adv-x="642" 
d="M249 -12q-93 0 -153 66q-65 72 -65 202v8q0 126 66 204q61 69 153 69q105 0 156 -87v73h179v-523h-179v84q-22 -43 -62.5 -69.5t-94.5 -26.5zM310 125q46 0 73.5 34.5t27.5 99.5v8q0 67 -26 101t-72 34q-100 0 -100 -136v-8q0 -65 25.5 -99t71.5 -34zM324 636q20 0 33 14
t13 36q0 23 -13 37t-33 14t-33 -14t-13 -37q0 -22 13 -36t33 -14zM324 572q-49 0 -83 34q-35 33 -35 80q0 46 35 81q34 34 83 34t83 -34q35 -35 35 -81q0 -47 -35 -80q-34 -34 -83 -34zM312 975h187l-103 -146h-135z" />
    <glyph glyph-name="aring.alt" horiz-adv-x="642" 
d="M249 -12q-93 0 -153 66q-65 72 -65 202v8q0 126 66 204q61 69 153 69q105 0 156 -87v73h179v-523h-179v84q-22 -43 -62.5 -69.5t-94.5 -26.5zM310 125q46 0 73.5 34.5t27.5 99.5v8q0 67 -26 101t-72 34q-100 0 -100 -136v-8q0 -65 25.5 -99t71.5 -34zM324 642q20 0 33 14
t13 36q0 23 -13 37t-33 14t-33 -14t-13 -37q0 -22 13 -36t33 -14zM324 578q-49 0 -83 34q-35 33 -35 80q0 46 35 81q34 34 83 34t83 -34q35 -35 35 -81q0 -47 -35 -80q-34 -34 -83 -34z" />
    <glyph glyph-name="aogonek.alt" horiz-adv-x="642" 
d="M500 -182q-54 0 -85.5 21.5t-31.5 59.5q0 35 27 62q17 17 59 39h-63v84q-22 -43 -62.5 -69.5t-94.5 -26.5q-93 0 -153 66q-65 72 -65 202v8q0 126 66 204q61 69 153 69q105 0 156 -87v73h179v-511q-56 -42 -56 -75q0 -28 30 -28q20 0 30 5v-80q-38 -16 -89 -16zM310 125
q46 0 73.5 34.5t27.5 99.5v8q0 67 -26 101t-72 34q-100 0 -100 -136v-8q0 -65 25.5 -99t71.5 -34z" />
    <glyph glyph-name="uni0433.locl" horiz-adv-x="439" 
d="M232 401v-401h-178v523h375v-122h-197z" />
    <glyph glyph-name="uni0446.bgr" horiz-adv-x="649" 
d="M487 -127l-6 127h-90v81q-47 -93 -166 -93q-79 0 -127.5 49t-48.5 145v341h179v-312q0 -88 74 -88q89 0 89 99v301h179v-401h69v-249h-152z" />
    <glyph glyph-name="uni0447.bgr" horiz-adv-x="595" 
d="M362 0v214q-14 -18 -35 -30q-50 -30 -121 -30q-78 0 -122 48.5t-44 145.5v175h179v-146q0 -47 13.5 -67.5t50.5 -20.5q38 0 62 18q10 7 17 19v197h179v-523h-179z" />
    <glyph glyph-name="amacron.alt" horiz-adv-x="642" 
d="M249 -12q-93 0 -153 66q-65 72 -65 202v8q0 126 66 204q61 69 153 69q105 0 156 -87v73h179v-523h-179v84q-22 -43 -62.5 -69.5t-94.5 -26.5zM310 125q46 0 73.5 34.5t27.5 99.5v8q0 67 -26 101t-72 34q-100 0 -100 -136v-8q0 -65 25.5 -99t71.5 -34zM172 712h307v-100
h-307v100z" />
    <glyph glyph-name="uni043B.bgr" horiz-adv-x="593" 
d="M586 0h-191l-109 337l-107 -337h-171l191 523h195z" />
    <glyph glyph-name="agrave.alt" horiz-adv-x="642" 
d="M249 -12q-93 0 -153 66q-65 72 -65 202v8q0 126 66 204q61 69 153 69q105 0 156 -87v73h179v-523h-179v84q-22 -43 -62.5 -69.5t-94.5 -26.5zM310 125q46 0 73.5 34.5t27.5 99.5v8q0 67 -26 101t-72 34q-100 0 -100 -136v-8q0 -65 25.5 -99t71.5 -34zM162 749h180
l53 -166h-128z" />
    <glyph glyph-name="adieresis.alt" horiz-adv-x="642" 
d="M249 -12q-93 0 -153 66q-65 72 -65 202v8q0 126 66 204q61 69 153 69q105 0 156 -87v73h179v-523h-179v84q-22 -43 -62.5 -69.5t-94.5 -26.5zM310 125q46 0 73.5 34.5t27.5 99.5v8q0 67 -26 101t-72 34q-100 0 -100 -136v-8q0 -65 25.5 -99t71.5 -34zM220 580
q-36 0 -60 24q-25 23 -25 59q0 35 25 60q24 24 60 24t61 -24.5t25 -59.5t-25 -59t-61 -24zM433 580q-36 0 -60.5 24t-24.5 59t24.5 59.5t60.5 24.5t61 -24.5t25 -59.5t-25 -59t-61 -24z" />
    <glyph glyph-name="acircumflex.alt" horiz-adv-x="642" 
d="M249 -12q-93 0 -153 66q-65 72 -65 202v8q0 126 66 204q61 69 153 69q105 0 156 -87v73h179v-523h-179v84q-22 -43 -62.5 -69.5t-94.5 -26.5zM310 125q46 0 73.5 34.5t27.5 99.5v8q0 67 -26 101t-72 34q-100 0 -100 -136v-8q0 -65 25.5 -99t71.5 -34zM264 748h128
l118 -163h-125l-61 56l-60 -56h-123z" />
    <glyph glyph-name="abreve.alt" horiz-adv-x="642" 
d="M249 -12q-93 0 -153 66q-65 72 -65 202v8q0 126 66 204q61 69 153 69q105 0 156 -87v73h179v-523h-179v84q-22 -43 -62.5 -69.5t-94.5 -26.5zM310 125q46 0 73.5 34.5t27.5 99.5v8q0 67 -26 101t-72 34q-100 0 -100 -136v-8q0 -65 25.5 -99t71.5 -34zM325 587
q-73 0 -116 41.5t-47 116.5h111q5 -48 52 -48q49 0 54 48h111q-5 -75 -49.5 -116.5t-115.5 -41.5z" />
    <glyph glyph-name="aacute.alt" horiz-adv-x="642" 
d="M249 -12q-93 0 -153 66q-65 72 -65 202v8q0 126 66 204q61 69 153 69q105 0 156 -87v73h179v-523h-179v84q-22 -43 -62.5 -69.5t-94.5 -26.5zM310 125q46 0 73.5 34.5t27.5 99.5v8q0 67 -26 101t-72 34q-100 0 -100 -136v-8q0 -65 25.5 -99t71.5 -34zM309 749h180
l-105 -166h-128z" />
    <glyph glyph-name="minus.sup" horiz-adv-x="365" 
d="M39 637h287v-93h-287v93z" />
    <glyph glyph-name="plus.sup" horiz-adv-x="365" 
d="M135 544h-96v93h96v99h95v-99h96v-93h-96v-98h-95v98z" />
    <glyph glyph-name="nine.sup" horiz-adv-x="400" 
d="M190 390q-72 0 -113.5 31t-46.5 88h122q5 -25 35 -25q51 0 53 84q-29 -39 -83 -39q-60 0 -94 27q-38 27 -38 89q0 61 44.5 97.5t120.5 36.5q89 0 139 -53q44 -50 44 -135v-10q0 -92 -47 -141.5t-136 -49.5zM190 603q20 0 30.5 11.5t10.5 30.5q0 21 -10.5 33.5t-30.5 12.5
q-18 0 -29 -12.5t-11 -32.5q0 -19 11 -31t29 -12z" />
    <glyph glyph-name="eight.sup" horiz-adv-x="389" 
d="M194 390q-83 0 -127 29t-44 84q0 69 69 91q-53 22 -53 76q0 50 46 81q44 27 110 27q70 0 113 -28t43 -79q0 -54 -53 -76q67 -21 67 -88q0 -55 -44.5 -86t-126.5 -31zM195 479q18 0 29.5 10.5t11.5 27.5t-11.5 28t-29.5 11t-30 -10.5t-12 -28.5t12 -28t30 -10zM195 624
q16 0 26.5 9.5t10.5 25.5q0 15 -10.5 24.5t-26.5 9.5q-15 0 -26 -9.5t-11 -24.5t11 -25t26 -10z" />
    <glyph glyph-name="seven.sup" horiz-adv-x="352" 
d="M171 669h-148v104h314v-13l-136 -363h-132z" />
    <glyph glyph-name="six.sup" horiz-adv-x="400" 
d="M209 390q-92 0 -139 53q-43 47 -43 135v11q0 86 53 139q50 50 132 50q144 0 155 -118h-121q-6 25 -32 25q-49 0 -54 -86q27 41 88 41q56 0 90 -27q37 -31 37 -88q0 -61 -44.5 -98t-121.5 -37zM207 478q19 0 30 12.5t11 32.5q0 19 -11.5 31t-29.5 12t-29 -12.5t-11 -30.5
q0 -20 10.5 -32.5t29.5 -12.5z" />
    <glyph glyph-name="uni0430.alt" horiz-adv-x="634" 
d="M249 -12q-93 0 -153 66q-65 72 -65 202v8q0 126 66 204q61 69 153 69q105 0 156 -87v73h179v-523h-179v84q-22 -43 -62.5 -69.5t-94.5 -26.5zM310 125q46 0 73.5 34.5t27.5 99.5v8q0 67 -26 101t-72 34q-100 0 -100 -136v-8q0 -65 25.5 -99t71.5 -34z" />
    <glyph glyph-name="five.sup" horiz-adv-x="375" 
d="M183 390q-81 0 -120 36q-38 33 -40 90h120q5 -29 38 -29q35 0 35 41q0 40 -38 40q-28 0 -41 -24h-102l11 229h281v-93h-190l-3 -80q32 48 98 48q54 0 85.5 -30.5t31.5 -87.5q0 -66 -43 -103t-123 -37z" />
    <glyph glyph-name="uni0434.locl" horiz-adv-x="613" 
d="M251 253q-6 -80 -26 -131h140v279h-109q0 -76 -5 -148zM168 -127h-158v249h26q46 24 58 144q6 74 6 257h443v-401h70v-249h-158v127h-287v-127z" />
    <glyph glyph-name="four.sup" horiz-adv-x="403" 
d="M203 467h-187v49l156 257h159v-219h48v-87h-48v-70h-128v70zM207 554v132l-77 -132h77z" />
    <glyph glyph-name="three.sup" horiz-adv-x="382" 
d="M190 390q-84 0 -127 38q-39 35 -41 96h116q5 -42 45 -42q39 0 39 34t-45 34h-30v74h30q45 0 45 34q0 29 -34 29q-36 0 -42 -38h-116q5 60 45.5 94.5t115.5 34.5t115.5 -27t40.5 -77q0 -62 -68 -81q34 -5 55 -27t21 -55q0 -56 -42 -88.5t-123 -32.5z" />
    <glyph glyph-name="two.sup" horiz-adv-x="362" 
d="M9 414l128 133q37 37 52.5 58.5t15.5 43.5q0 32 -31 32q-34 0 -40 -52h-120q2 73 46 111t120 38t115.5 -33t39.5 -87q0 -62 -77 -132l-35 -34h113v-95h-327v17z" />
    <glyph glyph-name="one.sup" horiz-adv-x="295" 
d="M106 645l-82 -46v107l102 67h114v-376h-134v248z" />
    <glyph glyph-name="zero.sup" horiz-adv-x="430" 
d="M215 491q55 0 55 91v8q0 48 -13.5 68.5t-42.5 20.5t-41 -21t-12 -69v-7q0 -48 12.5 -69.5t41.5 -21.5zM212 390q-89 0 -137 49.5t-48 141.5v8q0 91 54 140q51 49 134 49t134 -45q54 -51 54 -141v-7q0 -92 -50.5 -143.5t-140.5 -51.5z" />
    <glyph glyph-name="minus.sub" horiz-adv-x="365" 
d="M39 120h287v-93h-287v93z" />
    <glyph glyph-name="uni021B.alt" horiz-adv-x="389" 
d="M90 401h-72v122h72v109h179v-109h96v-122h-96v-401h-179v401zM98 -205l42 177l158 -19l-99 -185z" />
    </font>
</defs>
</svg>
