<?xml version="1.0" standalone="no"?>
<!DOCTYPE svg PUBLIC "-//W3C//DTD SVG 1.1//EN" "http://www.w3.org/Graphics/SVG/1.1/DTD/svg11.dtd" >
<svg xmlns="http://www.w3.org/2000/svg" xmlns:xlink="http://www.w3.org/1999/xlink" version="1.1">
<metadata>
Created by FontForge 20170731 at Mon Jul  4 11:35:07 2016
 By ,,,
Copyright (c) 2012 Christian Schwartz for Commercial Type.
</metadata>
<defs>
<font id="GraphikLCG-Black" horiz-adv-x="600" >
  <font-face 
    font-family="Graphik LCG"
    font-weight="900"
    font-stretch="normal"
    units-per-em="1000"
    panose-1="2 11 10 3 3 2 2 6 2 3"
    ascent="826"
    descent="-174"
    x-height="523"
    cap-height="715"
    bbox="-255 -233 1217 1142"
    underline-thickness="50"
    underline-position="-200"
    unicode-range="U+000D-FB02"
  />
<missing-glyph horiz-adv-x="523" 
 />
    <glyph glyph-name="f_f" unicode="ff" horiz-adv-x="731" 
d="M75 391h-64v132h64v33q0 99 57 147.5t156 48.5q47 0 83 -11v-142q-21 7 -44 7q-55 0 -55 -51v-32h141v39q0 99 57.5 147.5t157.5 48.5q46 0 85 -11v-141q-24 6 -47 6q-28 0 -42 -14t-14 -37v-38h102v-132h-102v-391h-197v391h-141v-391h-197v391z" />
    <glyph glyph-name=".notdef" horiz-adv-x="523" 
 />
    <glyph glyph-name=".null" horiz-adv-x="0" 
 />
    <glyph glyph-name="nonmarkingreturn" horiz-adv-x="333" 
 />
    <glyph glyph-name="NULL" horiz-adv-x="0" 
 />
    <glyph glyph-name="NULL" horiz-adv-x="0" 
 />
    <glyph glyph-name="CR" unicode="&#xd;" horiz-adv-x="185" 
 />
    <glyph glyph-name="space" unicode=" " horiz-adv-x="185" 
 />
    <glyph glyph-name="exclam" unicode="!" horiz-adv-x="342" 
d="M171 -12q-47 0 -80.5 30.5t-33.5 74.5t33.5 75t80.5 31t81 -31t34 -75t-33.5 -74.5t-81.5 -30.5zM61 715h221l-29 -474h-164z" />
    <glyph glyph-name="quotedbl" unicode="&#x22;" horiz-adv-x="478" 
d="M37 715h183l-22 -281h-139zM258 715h183l-22 -281h-139z" />
    <glyph glyph-name="numbersign" unicode="#" horiz-adv-x="589" 
d="M294 234h-57l-20 -135h-130l20 135h-66v154h89l9 65h-75v146h97l18 116h130l-18 -116h56l18 116h131l-18 -116h70v-146h-92l-9 -65h78v-154h-101l-20 -135h-130zM260 388h56l10 65h-57z" />
    <glyph glyph-name="dollar" unicode="$" horiz-adv-x="651" 
d="M289 -10q-128 9 -196 71t-73 166h199q7 -70 70 -85v130q-137 18 -196 71t-59 157q0 94 68.5 155t186.5 69v89h81v-90q233 -19 249 -220h-195q-6 54 -54 68v-123q128 -17 193.5 -65.5t65.5 -152.5q0 -99 -65 -165.5t-194 -74.5v-125h-81v125zM227 517q0 -24 13.5 -37
t48.5 -21v115q-62 -11 -62 -57zM430 203q0 22 -13.5 34.5t-46.5 20.5v-118q60 13 60 63z" />
    <glyph glyph-name="percent" unicode="%" horiz-adv-x="835" 
d="M218 472q52 0 52 72q0 71 -52 71q-53 0 -53 -70q0 -73 53 -73zM217 360q-91 0 -142.5 52t-51.5 132q0 77 55.5 128t139.5 51q83 0 138 -49.5t55 -126.5q0 -81 -53 -134t-141 -53zM622 715h102l-508 -715h-101zM618 99q52 0 52 72q0 71 -52 71q-53 0 -53 -70q0 -73 53 -73
zM617 -13q-90 0 -141.5 51.5t-51.5 132.5q0 77 55 128t139 51t139 -49t55 -127q0 -81 -53 -134t-142 -53z" />
    <glyph glyph-name="ampersand" unicode="&#x26;" horiz-adv-x="777" 
d="M649 146l119 -146h-255l-37 46q-80 -59 -192 -59q-118 0 -187 58t-69 162q0 133 156 206q-40 59 -40 121q0 90 68.5 140.5t172.5 50.5q95 0 160 -44.5t65 -125.5q0 -114 -142 -176l79 -97l46 91h171zM321 145q34 0 57 22l-105 127q-36 -28 -36 -66q0 -37 21.5 -60
t62.5 -23zM335 531q0 -29 39 -73q64 31 64 78q0 24 -13 38t-36 14q-24 0 -39 -15.5t-15 -41.5z" />
    <glyph glyph-name="quotesingle" unicode="'" horiz-adv-x="264" 
d="M37 715h190l-22 -281h-146z" />
    <glyph glyph-name="parenleft" unicode="(" horiz-adv-x="362" 
d="M202 -148q-167 203 -167 462q0 258 167 461h150q-130 -215 -130 -461q0 -252 130 -462h-150z" />
    <glyph glyph-name="parenright" unicode=")" horiz-adv-x="362" 
d="M10 -148q130 210 130 461q0 248 -130 462h150q167 -203 167 -462q0 -258 -167 -461h-150z" />
    <glyph glyph-name="asterisk" unicode="*" horiz-adv-x="444" 
d="M52 446l90 86l-116 10l37 134l108 -54l-26 121h154l-26 -121l108 54l36 -134l-116 -10l90 -86l-117 -83l-53 114l-52 -114z" />
    <glyph glyph-name="plus" unicode="+" horiz-adv-x="579" 
d="M211 269h-173v142h173v189h157v-189h174v-142h-174v-190h-157v190z" />
    <glyph glyph-name="comma" unicode="," horiz-adv-x="311" 
d="M13 -79l81 272l182 -63l-148 -252z" />
    <glyph glyph-name="hyphen" unicode="-" horiz-adv-x="390" 
d="M49 360h292v-146h-292v146z" />
    <glyph glyph-name="period" unicode="." horiz-adv-x="302" 
d="M150 -12q-47 0 -78.5 31.5t-31.5 76.5t31 76t79 31t80 -31t32 -76t-32 -76.5t-80 -31.5z" />
    <glyph glyph-name="slash" unicode="/" horiz-adv-x="440" 
d="M292 776h155l-322 -924h-155z" />
    <glyph glyph-name="zero" unicode="0" horiz-adv-x="741" 
d="M373 162q59 0 85 44t26 139v26q0 95 -27 139t-86 44q-60 0 -87 -43.5t-27 -138.5v-28q0 -95 27 -138.5t89 -43.5zM366 -13q-156 0 -245 93.5t-89 262.5v28q0 166 95 260.5t243 94.5q149 0 244 -90t95 -260v-27q0 -171 -92.5 -266.5t-250.5 -95.5z" />
    <glyph glyph-name="one" unicode="1" horiz-adv-x="459" 
d="M163 492l-132 -79v188l164 114h195v-715h-227v492z" />
    <glyph glyph-name="two" unicode="2" horiz-adv-x="626" 
d="M7 31l243 258q62 66 91 110t29 86q0 32 -16.5 51.5t-48.5 19.5q-36 0 -56 -25t-27 -83h-204q5 138 82.5 208t215.5 70q133 0 205 -64t72 -167q0 -70 -33.5 -128t-99.5 -120l-82 -79h221v-168h-592v31z" />
    <glyph glyph-name="three" unicode="3" horiz-adv-x="661" 
d="M333 -13q-296 0 -307 253h201q4 -45 25 -68t67 -23q81 0 81 72q0 73 -84 73h-57v137h54q87 0 87 72q0 29 -18.5 45.5t-53.5 16.5q-72 0 -84 -84h-200q9 114 81.5 179.5t208.5 65.5q131 0 204.5 -52.5t73.5 -145.5q0 -117 -123 -154q64 -11 102 -53.5t38 -105.5
q0 -105 -76.5 -166.5t-219.5 -61.5z" />
    <glyph glyph-name="four" unicode="4" horiz-adv-x="689" 
d="M360 134h-346v86l294 495h270v-426h90v-155h-90v-134h-218v134zM366 289v255l-144 -255h144z" />
    <glyph glyph-name="five" unicode="5" horiz-adv-x="639" 
d="M311 -13q-141 0 -213.5 67t-74.5 176h205q4 -36 22 -54.5t60 -18.5q37 0 54.5 24.5t17.5 63.5q0 43 -22 66.5t-64 23.5q-73 0 -109 -48h-139l18 428h497v-164h-335l-5 -146q54 80 171 80q100 0 157.5 -64t57.5 -180t-79 -185t-219 -69z" />
    <glyph glyph-name="six" unicode="6" horiz-adv-x="685" 
d="M358 -13q-169 0 -247.5 94.5t-78.5 260.5v19q0 167 93 266t235 99q260 0 283 -219h-208q-4 26 -18 39t-47 13q-108 0 -114 -171q27 40 64 60.5t100 20.5q102 0 170 -59t68 -170q0 -114 -80.5 -183.5t-219.5 -69.5zM354 146q38 0 61 26t23 67q0 40 -22.5 65.5t-60.5 25.5
t-61.5 -26t-23.5 -65q0 -41 23 -67t61 -26z" />
    <glyph glyph-name="seven" unicode="7" horiz-adv-x="586" 
d="M297 531h-274v184h557v-23l-244 -692h-231z" />
    <glyph glyph-name="eight" unicode="8" horiz-adv-x="666" 
d="M333 -13q-145 0 -226.5 55.5t-81.5 158.5q0 129 130 175q-100 43 -100 146q0 95 79.5 149.5t200.5 54.5q124 0 201.5 -53.5t77.5 -148.5q0 -103 -100 -147q127 -45 127 -170q0 -103 -82 -161.5t-226 -58.5zM334 145q39 0 62.5 21.5t23.5 59.5q0 37 -23.5 59.5t-62.5 22.5
t-63 -22t-24 -60t24 -59.5t63 -21.5zM335 431q33 0 55 20t22 52t-22 52t-55 20q-32 0 -54 -20t-22 -52t22 -52t54 -20z" />
    <glyph glyph-name="nine" unicode="9" horiz-adv-x="685" 
d="M327 -12q-131 0 -205.5 56.5t-84.5 162.5h207q8 -52 71 -52q58 0 84.5 41.5t28.5 127.5q-27 -41 -61.5 -61.5t-96.5 -20.5q-108 0 -175.5 59t-67.5 171q0 114 81.5 184.5t220.5 70.5q160 0 242 -97.5t82 -258.5v-20q0 -175 -84 -269t-242 -94zM326 385q38 0 62 25.5
t24 64.5q0 41 -23.5 67t-62.5 26q-38 0 -61 -26.5t-23 -66.5q0 -39 23 -64.5t61 -25.5z" />
    <glyph glyph-name="colon" unicode=":" horiz-adv-x="308" 
d="M152 -12q-48 0 -78.5 31t-30.5 77t30.5 76.5t78.5 30.5t80.5 -31t32.5 -76q0 -46 -32 -77t-81 -31zM152 272q-48 0 -78.5 31t-30.5 76q0 46 31 77t78 31q48 0 80.5 -31.5t32.5 -76.5t-32.5 -76t-80.5 -31z" />
    <glyph glyph-name="semicolon" unicode=";" horiz-adv-x="326" 
d="M8 -79l81 272l182 -63l-148 -252zM178 272q-47 0 -78.5 31t-31.5 76t31.5 76.5t78.5 31.5q48 0 80 -31.5t32 -76.5t-32 -76t-80 -31z" />
    <glyph glyph-name="less" unicode="&#x3c;" horiz-adv-x="514" 
d="M40 304v37l428 251v-178l-177 -90l177 -99v-172z" />
    <glyph glyph-name="equal" unicode="=" horiz-adv-x="570" 
d="M38 293h493v-131h-493v131zM38 492h493v-131h-493v131z" />
    <glyph glyph-name="greater" unicode="&#x3e;" horiz-adv-x="514" 
d="M46 231l177 91l-177 99v172l428 -252v-36l-428 -251v177z" />
    <glyph glyph-name="question" unicode="?" horiz-adv-x="569" 
d="M167 254q0 35 17.5 69t32.5 50t47 47q22 20 33 31.5t21 29t10 33.5q0 52 -53 52q-58 0 -69 -80h-192q4 115 79 177.5t198 62.5q120 0 185.5 -50t65.5 -143q0 -79 -68 -147q-14 -14 -38 -35.5t-38 -34.5t-27 -31.5t-17 -34.5v-9h-187v13zM261 -12q-49 0 -82.5 30.5
t-33.5 74.5t33.5 75t82.5 31q47 0 80.5 -31t33.5 -75t-33.5 -74.5t-80.5 -30.5z" />
    <glyph glyph-name="at" unicode="@" horiz-adv-x="922" 
d="M461 -160q-199 0 -317 116.5t-118 293.5q0 129 64.5 231.5t167.5 156t222 53.5q181 0 298.5 -100t117.5 -264q0 -140 -64 -208.5t-157 -68.5q-129 0 -153 80q-39 -82 -131 -82q-75 0 -119.5 50.5t-44.5 137.5q0 105 57 170t141 65q80 0 107 -57l7 49h159l-34 -276
q-11 -64 42 -64q46 0 77 51.5t31 155.5q0 130 -91 210.5t-241 80.5q-158 0 -264 -102.5t-106 -270.5q0 -150 91.5 -244t260.5 -94q83 0 152.5 25.5t108.5 64.5h94q-53 -73 -148 -116.5t-210 -43.5zM444 175q31 0 51.5 30.5t20.5 78.5q0 63 -58 63q-31 0 -49.5 -29t-18.5 -74
q0 -31 13.5 -50t40.5 -19z" />
    <glyph glyph-name="A" unicode="A" horiz-adv-x="760" 
d="M234 715h293l224 -715h-240l-33 119h-226l-32 -119h-211zM295 273h141l-70 259z" />
    <glyph glyph-name="B" unicode="B" horiz-adv-x="690" 
d="M65 715h338q125 0 184.5 -51t59.5 -136v-4q0 -125 -124 -154q66 -12 104.5 -53.5t38.5 -113.5v-4q0 -199 -265 -199h-336v715zM358 149q85 0 85 75v4q0 73 -90 73h-67v-152h72zM355 436q42 0 60 15t18 48v4q0 64 -79 64h-68v-131h69z" />
    <glyph glyph-name="C" unicode="C" horiz-adv-x="764" 
d="M408 -13q-189 0 -284.5 98t-95.5 268v8q0 164 104.5 264.5t265.5 100.5q149 0 238.5 -70.5t101.5 -211.5h-234q-11 103 -105 103q-63 0 -97.5 -47.5t-34.5 -137.5v-8q0 -90 35 -137.5t101 -47.5q106 0 118 105h226q-10 -138 -101.5 -212.5t-237.5 -74.5z" />
    <glyph glyph-name="D" unicode="D" horiz-adv-x="751" 
d="M330 174q84 0 121 43t37 137v8q0 97 -38 138t-121 41h-37v-367h38zM65 715h273q192 0 289 -88.5t97 -260.5v-7q0 -173 -98.5 -266t-287.5 -93h-273v715z" />
    <glyph glyph-name="E" unicode="E" horiz-adv-x="620" 
d="M65 715h508v-174h-282v-101h224v-159h-224v-107h298v-174h-524v715z" />
    <glyph glyph-name="F" unicode="F" horiz-adv-x="585" 
d="M65 715h495v-175h-268v-133h216v-167h-216v-240h-227v715z" />
    <glyph glyph-name="G" unicode="G" horiz-adv-x="791" 
d="M407 -13q-182 0 -281 100t-99 266v8q0 163 108 264t272 101q91 0 163 -27t121.5 -89t55.5 -154h-224q-12 92 -115 92q-68 0 -106.5 -50t-38.5 -141v-8q0 -190 151 -190q63 0 94 25.5t35 65.5h-122v149h343v-92q0 -140 -92 -230t-265 -90z" />
    <glyph glyph-name="H" unicode="H" horiz-adv-x="794" 
d="M65 715h227v-264h210v264h227v-715h-227v275h-210v-275h-227v715z" />
    <glyph glyph-name="I" unicode="I" horiz-adv-x="366" 
d="M68 715h229v-715h-229v715z" />
    <glyph glyph-name="J" unicode="J" horiz-adv-x="489" 
d="M168 -9q-84 0 -136 25v167q43 -13 85 -13q90 0 90 93v452h227v-453q0 -271 -266 -271z" />
    <glyph glyph-name="K" unicode="K" horiz-adv-x="745" 
d="M65 715h227v-271l198 271h235l-251 -330l265 -385h-261l-186 286v-286h-227v715z" />
    <glyph glyph-name="L" unicode="L" horiz-adv-x="582" 
d="M65 715h227v-540h260v-175h-487v715z" />
    <glyph glyph-name="M" unicode="M" horiz-adv-x="958" 
d="M65 715h294l121 -347l123 347h288v-715h-225v422l-163 -422h-76l-160 422v-422h-202v715z" />
    <glyph glyph-name="N" unicode="N" horiz-adv-x="787" 
d="M65 715h254l203 -378v378h199v-715h-217l-239 428v-428h-200v715z" />
    <glyph glyph-name="O" unicode="O" horiz-adv-x="820" 
d="M411 165q67 0 106.5 50t39.5 139v8q0 90 -39.5 138.5t-108.5 48.5q-67 0 -106 -48t-39 -139v-8q0 -91 39 -140t108 -49zM405 -13q-174 0 -276 100.5t-102 265.5v8q0 163 109 264t273 101q169 0 276.5 -96.5t107.5 -262.5v-8q0 -168 -106 -270t-282 -102z" />
    <glyph glyph-name="P" unicode="P" horiz-adv-x="664" 
d="M65 715h285q294 0 294 -245v-4q0 -113 -72.5 -173t-211.5 -60h-69v-233h-226v715zM338 385q91 0 91 80v4q0 41 -22 59t-68 18h-48v-161h47z" />
    <glyph glyph-name="Q" unicode="Q" horiz-adv-x="820" 
d="M487 -6q-47 -7 -82 -7q-174 0 -276 100.5t-102 265.5v8q0 162 109 263t273 101q169 0 277 -96t108 -262v-8q0 -190 -132 -292l67 -67l-124 -126zM263 354q0 -146 90 -183l110 98l55 -57q39 51 39 143v8q0 90 -39.5 138t-108.5 48q-68 0 -107 -48t-39 -139v-8z" />
    <glyph glyph-name="R" unicode="R" horiz-adv-x="710" 
d="M65 715h292q299 0 299 -232v-4q0 -132 -121 -187l163 -292h-238l-133 245h-36v-245h-226v715zM344 391q93 0 93 78v4q0 38 -22.5 55t-69.5 17h-54v-154h53z" />
    <glyph glyph-name="S" unicode="S" horiz-adv-x="653" 
d="M334 -13q-307 0 -315 242h215q5 -82 100 -82q39 0 59 16t20 43t-21.5 40t-80.5 21q-155 18 -215.5 68.5t-60.5 161.5q0 101 77 164.5t209 63.5q271 0 288 -228h-210q-8 69 -78 69q-34 0 -52.5 -14t-18.5 -38q0 -27 20.5 -39.5t79.5 -20.5q145 -15 212.5 -63t67.5 -161
q0 -104 -79 -173.5t-217 -69.5z" />
    <glyph glyph-name="T" unicode="T" horiz-adv-x="629" 
d="M200 541h-180v174h589v-174h-181v-541h-228v541z" />
    <glyph glyph-name="U" unicode="U" horiz-adv-x="776" 
d="M388 -13q-159 0 -243 77.5t-84 230.5v420h226v-411q0 -74 21.5 -106.5t79.5 -32.5t79 32.5t21 107.5v410h228v-418q0 -157 -86.5 -233.5t-241.5 -76.5z" />
    <glyph glyph-name="V" unicode="V" horiz-adv-x="741" 
d="M9 715h245l133 -479l133 479h212l-231 -715h-256z" />
    <glyph glyph-name="W" unicode="W" horiz-adv-x="1009" 
d="M10 715h229l82 -427l86 427h197l97 -432l87 432h210l-166 -715h-229l-100 427l-101 -427h-226z" />
    <glyph glyph-name="X" unicode="X" horiz-adv-x="772" 
d="M236 368l-202 347h259l100 -201l98 201h232l-187 -339l219 -376h-258l-123 235l-123 -235h-233z" />
    <glyph glyph-name="Y" unicode="Y" horiz-adv-x="692" 
d="M237 305l-232 410h246l109 -224l110 224h217l-222 -409v-306h-228v305z" />
    <glyph glyph-name="Z" unicode="Z" horiz-adv-x="627" 
d="M10 24l286 521h-246v170h563v-24l-283 -520h266v-171h-586v24z" />
    <glyph glyph-name="bracketleft" unicode="[" horiz-adv-x="419" 
d="M61 776h321v-142h-122v-640h122v-142h-321v924z" />
    <glyph glyph-name="backslash" unicode="\" horiz-adv-x="440" 
d="M-7 776h154l323 -924h-155z" />
    <glyph glyph-name="bracketright" unicode="]" horiz-adv-x="419" 
d="M38 -6h120v640h-120v142h319v-924h-319v142z" />
    <glyph glyph-name="asciicircum" unicode="^" horiz-adv-x="535" 
d="M183 715h169l164 -324h-166l-84 165l-85 -165h-162z" />
    <glyph glyph-name="underscore" unicode="_" horiz-adv-x="441" 
d="M-1 -72h443v-89h-443v89z" />
    <glyph glyph-name="grave" unicode="`" horiz-adv-x="400" 
d="M32 747h193l52 -169h-141z" />
    <glyph glyph-name="a" unicode="a" horiz-adv-x="585" 
d="M198 -13q-77 0 -127.5 39.5t-50.5 118.5q0 90 70.5 130.5t210.5 40.5h45v9q0 38 -12 57t-49 19q-56 0 -62 -56h-184q6 94 74.5 143.5t183.5 49.5q117 0 180.5 -50t63.5 -150v-338h-190v60q-41 -73 -153 -73zM269 119q34 0 55.5 17.5t21.5 46.5v27h-42q-50 0 -70 -11
t-20 -39q0 -41 55 -41z" />
    <glyph glyph-name="b" unicode="b" horiz-adv-x="646" 
d="M403 -13q-114 0 -159 93v-80h-197v750h197v-303q53 90 160 90q95 0 157 -70.5t62 -201.5v-8q0 -131 -62 -200.5t-158 -69.5zM331 137q92 0 92 122v8q0 124 -93 124q-44 0 -67.5 -32t-23.5 -92v-8q0 -122 92 -122z" />
    <glyph glyph-name="c" unicode="c" horiz-adv-x="586" 
d="M300 -13q-123 0 -200.5 69t-77.5 198v8q0 129 80 202t203 73q109 0 181.5 -52.5t80.5 -167.5h-185q-6 35 -22 52t-50 17q-88 0 -88 -120v-8q0 -128 91 -128q34 0 55 20.5t25 58.5h177q-4 -104 -72.5 -163t-197.5 -59z" />
    <glyph glyph-name="d" unicode="d" horiz-adv-x="645" 
d="M241 -13q-94 0 -156 69t-62 200v8q0 131 62 202t156 71q113 0 160 -86v299h197v-750h-197v84q-48 -97 -160 -97zM314 137q92 0 92 123v8q0 123 -91 123q-92 0 -92 -124v-8q0 -122 91 -122z" />
    <glyph glyph-name="e" unicode="e" horiz-adv-x="604" 
d="M311 -13q-129 0 -209.5 71t-80.5 197v8q0 125 83 200t207 75q118 0 195 -69t77 -203v-48h-363q4 -47 29.5 -72t68.5 -25q69 0 82 56h184q-12 -92 -80.5 -141t-192.5 -49zM393 321q-5 90 -82 90q-37 0 -60.5 -23t-29.5 -67h172z" />
    <glyph glyph-name="f" unicode="f" horiz-adv-x="393" 
d="M75 391h-64v132h64v39q0 99 57.5 147.5t157.5 48.5q46 0 85 -11v-141q-24 6 -47 6q-28 0 -42 -14t-14 -37v-38h102v-132h-102v-391h-197v391z" />
    <glyph glyph-name="g" unicode="g" horiz-adv-x="644" 
d="M299 -194q-259 0 -280 198h195q7 -29 25.5 -45.5t60.5 -16.5q100 0 100 100v81q-49 -92 -159 -92q-94 0 -156.5 65.5t-62.5 182.5v8q0 114 63 182.5t155 68.5q112 0 160 -87v72h197v-478q0 -118 -75.5 -178.5t-222.5 -60.5zM314 171q44 0 68 28.5t24 79.5v7
q0 49 -24 77.5t-68 28.5q-45 0 -68.5 -28t-23.5 -79v-8q0 -49 24 -77.5t68 -28.5z" />
    <glyph glyph-name="h" unicode="h" horiz-adv-x="629" 
d="M47 750h197v-311q51 98 173 98q77 0 122.5 -49t45.5 -144v-344h-197v300q0 80 -66 80q-78 0 -78 -91v-289h-197v750z" />
    <glyph glyph-name="i" unicode="i" horiz-adv-x="303" 
d="M53 523h196v-523h-196v523zM151 562q-46 0 -76.5 28t-30.5 71q0 44 30.5 72t76.5 28q45 0 75.5 -28t30.5 -72q0 -43 -30.5 -71t-75.5 -28z" />
    <glyph glyph-name="j" unicode="j" horiz-adv-x="303" 
d="M-9 -42q33 2 47 15t14 43v507h197v-512q0 -95 -57 -144.5t-201 -49.5v141zM151 562q-46 0 -76.5 28t-30.5 71q0 44 30.5 72t76.5 28q45 0 75.5 -28t30.5 -72q0 -43 -30.5 -71t-75.5 -28z" />
    <glyph glyph-name="k" unicode="k" horiz-adv-x="589" 
d="M47 750h197v-425l127 198h202l-161 -234l174 -289h-218l-124 218v-218h-197v750z" />
    <glyph glyph-name="l" unicode="l" horiz-adv-x="300" 
d="M52 750h196v-750h-196v750z" />
    <glyph glyph-name="m" unicode="m" horiz-adv-x="935" 
d="M47 523h197v-80q24 42 66 68t99 26q103 0 140 -84q66 84 172 84q77 0 123.5 -49.5t46.5 -142.5v-345h-196v309q0 70 -59 70q-33 0 -51 -20.5t-18 -58.5v-300h-195v309q0 34 -15.5 52t-42.5 18q-70 0 -70 -79v-300h-197v523z" />
    <glyph glyph-name="n" unicode="n" horiz-adv-x="629" 
d="M47 523h197v-84q51 98 173 98q77 0 122.5 -49t45.5 -144v-344h-197v300q0 80 -66 80q-78 0 -78 -91v-289h-197v523z" />
    <glyph glyph-name="o" unicode="o" horiz-adv-x="626" 
d="M314 132q90 0 90 127v7q0 126 -90 126q-93 0 -93 -123v-8q0 -129 93 -129zM313 -13q-127 0 -209 71.5t-82 196.5v8q0 125 82.5 199.5t209.5 74.5q126 0 208 -73t82 -196v-8q0 -126 -82.5 -199.5t-208.5 -73.5z" />
    <glyph glyph-name="p" unicode="p" horiz-adv-x="646" 
d="M47 523h197v-76q53 90 160 90q95 0 157 -70.5t62 -201.5v-8q0 -131 -62 -200.5t-158 -69.5q-112 0 -159 88v-249h-197v697zM331 137q92 0 92 122v8q0 124 -93 124q-44 0 -67.5 -32t-23.5 -92v-8q0 -122 92 -122z" />
    <glyph glyph-name="q" unicode="q" horiz-adv-x="645" 
d="M401 79q-51 -92 -160 -92q-94 0 -156 69t-62 200v8q0 131 62 202t156 71q113 0 160 -86v72h197v-697h-197v253zM314 137q92 0 92 123v8q0 123 -91 123q-92 0 -92 -124v-8q0 -122 91 -122z" />
    <glyph glyph-name="r" unicode="r" horiz-adv-x="438" 
d="M47 523h197v-106q47 115 168 113v-184q-82 5 -125 -21.5t-43 -83.5v-241h-197v523z" />
    <glyph glyph-name="s" unicode="s" horiz-adv-x="523" 
d="M261 -13q-116 0 -180 46.5t-66 134.5h180q6 -28 19.5 -41t45.5 -13q55 0 55 37q0 18 -20 27.5t-72 16.5q-109 12 -156 48t-47 118q0 86 65.5 131.5t167.5 45.5q108 0 169 -40.5t70 -132.5h-177q-11 49 -59 49q-52 0 -52 -36q0 -18 18.5 -26.5t63.5 -13.5
q119 -15 170 -50.5t51 -116.5q0 -93 -65 -138.5t-181 -45.5z" />
    <glyph glyph-name="t" unicode="t" horiz-adv-x="396" 
d="M265 -12q-193 0 -193 187v216h-61v132h61v107h197v-107h100v-132h-100v-197q0 -51 51 -51q25 0 49 8v-148q-51 -15 -104 -15z" />
    <glyph glyph-name="u" unicode="u" horiz-adv-x="628" 
d="M218 -13q-78 0 -126.5 49.5t-48.5 143.5v343h197v-309q0 -80 66 -80q78 0 78 91v298h197v-523h-197v81q-49 -94 -166 -94z" />
    <glyph glyph-name="v" unicode="v" horiz-adv-x="604" 
d="M5 523h210l99 -318l100 318h185l-191 -523h-211z" />
    <glyph glyph-name="w" unicode="w" horiz-adv-x="854" 
d="M5 523h205l68 -293l80 293h158l70 -293l79 293h184l-166 -523h-185l-73 273l-72 -273h-191z" />
    <glyph glyph-name="x" unicode="x" horiz-adv-x="613" 
d="M180 265l-161 258h226l71 -128l71 128h201l-163 -243l180 -280h-226l-84 146l-88 -146h-199z" />
    <glyph glyph-name="y" unicode="y" 
d="M214 52l-209 471h213l99 -261l92 261h186l-279 -697h-187z" />
    <glyph glyph-name="z" unicode="z" horiz-adv-x="513" 
d="M8 19l214 357h-191v147h471v-20l-224 -357h210v-146h-480v19z" />
    <glyph glyph-name="braceleft" unicode="{" horiz-adv-x="425" 
d="M388 -148q-161 0 -230 57t-49 179l13 81q6 35 -17 56.5t-76 21.5v137q53 0 76 21t17 56l-13 80q-21 124 48 180t231 56v-143q-55 -3 -73 -21t-12 -65l12 -99q6 -50 -21 -84.5t-83 -47.5q56 -12 83 -47t21 -86l-12 -98q-6 -48 12.5 -68t72.5 -23v-143z" />
    <glyph glyph-name="bar" unicode="|" horiz-adv-x="270" 
d="M67 776h136v-924h-136v924z" />
    <glyph glyph-name="braceright" unicode="}" horiz-adv-x="425" 
d="M37 -5q54 3 72.5 23t12.5 68l-12 98q-6 51 21 86t83 47q-56 13 -83 47.5t-21 84.5l12 99q6 47 -12 65t-73 21v143q162 0 231 -56t48 -180l-13 -80q-6 -36 16.5 -56.5t76.5 -20.5v-137q-54 0 -76.5 -21t-16.5 -57l13 -81q20 -122 -49 -179t-230 -57v143z" />
    <glyph glyph-name="asciitilde" unicode="~" horiz-adv-x="532" 
d="M25 213q6 107 49.5 159t105.5 52q41 0 92 -22t64 -22q37 0 45 45h125q-4 -101 -48 -156t-106 -55q-42 0 -92.5 21.5t-63.5 21.5q-38 0 -45 -44h-126z" />
    <glyph glyph-name="uni00A0" unicode="&#xa0;" horiz-adv-x="253" 
 />
    <glyph glyph-name="exclamdown" unicode="&#xa1;" horiz-adv-x="343" 
d="M171 609q48 0 81 -30t33 -74t-33.5 -75t-80.5 -31t-81 31t-34 75t33.5 74t81.5 30zM281 -117h-221l29 474h164z" />
    <glyph glyph-name="cent" unicode="&#xa2;" 
d="M279 -11q-116 9 -187 77.5t-71 188.5v8q0 116 72 188.5t186 84.5v93h75v-93q97 -9 159.5 -64t68.5 -155h-177q-7 58 -51 73v-266q55 17 61 85h170q-3 -95 -63 -153t-168 -67v-124h-75v124zM215 257q0 -109 64 -131v264q-64 -24 -64 -125v-8z" />
    <glyph glyph-name="sterling" unicode="&#xa3;" horiz-adv-x="668" 
d="M32 409h48q-11 41 -11 83q0 110 80 171.5t205 61.5q272 0 285 -250h-206q-5 43 -22 62t-49 19t-50.5 -20.5t-18.5 -56.5q0 -30 5 -70h170v-124h-153q2 -30 2 -46q0 -28 -8 -55q62 -18 79 -18q54 0 58 54h204q-4 -102 -60 -165.5t-157 -63.5q-59 0 -125 25t-83 25
q-40 0 -45 -41h-166q9 136 103 184q7 26 7 55q0 21 -5 46h-87v124z" />
    <glyph glyph-name="yen" unicode="&#xa5;" horiz-adv-x="659" 
d="M61 370h134l-187 345h245l91 -216l91 216h216l-178 -345h136v-73h-160v-47h160v-74h-160v-176h-228v176h-160v74h160v47h-160v73z" />
    <glyph glyph-name="brokenbar" unicode="&#xa6;" horiz-adv-x="272" 
d="M67 302h136v-450h-136v450zM67 776h136v-403h-136v403z" />
    <glyph glyph-name="section" unicode="&#xa7;" horiz-adv-x="618" 
d="M297 -137q-107 0 -165.5 49.5t-62.5 137.5h177q5 -57 56 -57q50 0 50 38q0 20 -21 31t-80 24q-119 30 -176 72t-57 128q0 96 107 138q-41 45 -41 113q0 87 66 137.5t172 50.5t164 -49.5t62 -138.5h-176q-6 55 -56 55q-49 0 -49 -37q0 -22 18.5 -32t80.5 -25
q58 -13 96 -27t72 -36.5t50.5 -55.5t16.5 -79q0 -94 -107 -139q41 -44 41 -112q0 -84 -65.5 -135t-172.5 -51zM376 231q36 7 36 39q0 23 -33 38q-14 6 -62 21l-73 24q-36 -6 -36 -39q0 -19 19.5 -29.5t75.5 -28.5z" />
    <glyph glyph-name="dieresis" unicode="&#xa8;" horiz-adv-x="400" 
d="M91 570q-38 0 -64.5 26t-26.5 63t26.5 63t64.5 26q39 0 65.5 -26t26.5 -63t-26.5 -63t-65.5 -26zM308 570q-38 0 -64 26t-26 63t26 63t64 26q39 0 65.5 -26t26.5 -63t-26.5 -63t-65.5 -26z" />
    <glyph glyph-name="copyright" unicode="&#xa9;" horiz-adv-x="842" 
d="M429 150q-107 0 -161 54.5t-54 149.5v8q0 92 59.5 147.5t150.5 55.5q179 0 192 -160h-137q-6 54 -55 54q-33 0 -51.5 -24.5t-18.5 -72.5v-7q0 -99 72 -99q57 0 63 57h132q-4 -78 -56.5 -120.5t-135.5 -42.5zM420 31q136 0 229.5 92t93.5 236q0 143 -92 234t-229 91
q-138 0 -230.5 -91.5t-92.5 -235.5t93.5 -235t227.5 -91zM420 -21q-161 0 -273.5 109t-112.5 269q0 159 112.5 269t275.5 110q165 0 276 -109t111 -268q0 -161 -113 -270.5t-276 -109.5z" />
    <glyph glyph-name="ordfeminine" unicode="&#xaa;" horiz-adv-x="495" 
d="M168 287q-61 0 -101 31t-40 94q0 73 52.5 103t167.5 30h37v13q0 48 -40 48q-37 0 -43 -40h-160q5 76 60.5 116.5t151.5 40.5q201 0 201 -160v-265h-166v47q-32 -58 -120 -58zM233 401q23 0 37 11.5t14 30.5v18h-31q-32 0 -44.5 -7.5t-12.5 -24.5q0 -28 37 -28z" />
    <glyph glyph-name="guillemotleft" unicode="&#xab;" horiz-adv-x="477" 
d="M25 261l124 194h121l-119 -194l119 -194h-121zM206 261l124 194h121l-119 -194l119 -194h-121z" />
    <glyph glyph-name="uni00AD" unicode="&#xad;" horiz-adv-x="390" 
d="M49 360h292v-146h-292v146z" />
    <glyph glyph-name="registered" unicode="&#xae;" horiz-adv-x="517" 
d="M172 615h91q93 0 93 -72v-1q0 -40 -35 -58l48 -88h-76l-38 73h-10v-73h-73v219zM259 516q26 0 26 22v1q0 20 -26 20h-14v-43h14zM259 320q79 0 132 51.5t53 131.5q0 81 -52 132t-133 51q-82 0 -134 -51.5t-52 -132.5q0 -80 53.5 -131t132.5 -51zM259 280
q-96 0 -163.5 64.5t-67.5 157.5t67 158.5t164 65.5q98 0 164 -64.5t66 -158.5t-67 -158.5t-163 -64.5z" />
    <glyph glyph-name="macron" unicode="&#xaf;" horiz-adv-x="400" 
d="M42 712h316v-107h-316v107z" />
    <glyph glyph-name="degree" unicode="&#xb0;" horiz-adv-x="457" 
d="M230 448q39 0 64.5 29t25.5 72q0 45 -25 74t-65 29q-42 0 -67.5 -29t-25.5 -74q0 -43 26 -72t67 -29zM230 376q-74 0 -127 51.5t-53 121.5q0 72 52.5 123.5t127.5 51.5q73 0 125 -51.5t52 -123.5q0 -70 -52.5 -121.5t-124.5 -51.5z" />
    <glyph glyph-name="plusminus" unicode="&#xb1;" horiz-adv-x="579" 
d="M211 343h-173v142h173v162h157v-162h174v-142h-174v-161h-157v161zM38 126h507v-126h-507v126z" />
    <glyph glyph-name="twosuperior" unicode="&#xb2;" horiz-adv-x="366" 
d="M4 351l129 132q37 38 53.5 60.5t16.5 42.5q0 30 -28 30q-30 0 -36 -51h-131q2 77 48.5 116.5t126.5 39.5t120.5 -34.5t40.5 -89.5q0 -37 -19.5 -67.5t-58.5 -67.5l-28 -26h108v-103h-342v18z" />
    <glyph glyph-name="threesuperior" unicode="&#xb3;" horiz-adv-x="385" 
d="M193 326q-171 0 -176 137h127q5 -38 40 -38q34 0 34 31q0 29 -41 29h-31v79h31q43 0 43 31q0 27 -31 27q-32 0 -38 -35h-126q6 61 48 97.5t120 36.5q77 0 119.5 -28t42.5 -79q0 -65 -69 -82q34 -5 55.5 -27.5t21.5 -54.5q0 -57 -43 -90.5t-127 -33.5z" />
    <glyph glyph-name="acute" unicode="&#xb4;" horiz-adv-x="400" 
d="M175 747h193l-104 -169h-141z" />
    <glyph glyph-name="mu" unicode="&#xb5;" horiz-adv-x="630" 
d="M47 523h197v-314q0 -78 66 -78q78 0 78 90v302h197v-523h-193v69q-24 -68 -86 -68q-40 0 -62 34v-209h-197v697z" />
    <glyph glyph-name="paragraph" unicode="&#xb6;" horiz-adv-x="544" 
d="M253 326h-7q-104 0 -162.5 48.5t-58.5 142.5q0 98 59.5 148t161.5 50h232v-815h-76v750h-74v-750h-75v426z" />
    <glyph glyph-name="periodcentered" unicode="&#xb7;" horiz-adv-x="302" 
d="M150 219q-47 0 -78.5 31t-31.5 76t31.5 76.5t78.5 31.5q48 0 80 -31.5t32 -76.5t-32 -76t-80 -31z" />
    <glyph glyph-name="cedilla" unicode="&#xb8;" horiz-adv-x="400" 
d="M203 -228q-115 0 -132 94h90q6 -26 35 -26q30 0 30 29q0 30 -33 30q-21 0 -32 -12l-40 41l48 72h76l-31 -44q49 4 81.5 -18t32.5 -69q0 -45 -34 -71t-91 -26z" />
    <glyph glyph-name="onesuperior" unicode="&#xb9;" horiz-adv-x="297" 
d="M102 576l-83 -45v116l104 68h124v-382h-145v243z" />
    <glyph glyph-name="ordmasculine" unicode="&#xba;" horiz-adv-x="527" 
d="M264 413q60 0 60 90v6q0 89 -60 89q-61 0 -61 -87v-6q0 -92 61 -92zM263 287q-103 0 -169 55t-66 156v6q0 101 67 160t169 59t168.5 -57t66.5 -156v-6q0 -101 -67 -159t-169 -58z" />
    <glyph glyph-name="guillemotright" unicode="&#xbb;" horiz-adv-x="477" 
d="M145 261l-119 194h121l124 -194l-124 -194h-121zM325 261l-119 194h121l124 -194l-124 -194h-121z" />
    <glyph glyph-name="onequarter" unicode="&#xbc;" horiz-adv-x="817" 
d="M104 576l-83 -45v116l104 68h124v-382h-145v243zM638 715h99l-569 -715h-100zM606 70h-190v54l157 258h172v-218h48v-94h-48v-70h-139v70zM610 164v124l-72 -124h72z" />
    <glyph glyph-name="onehalf" unicode="&#xbd;" horiz-adv-x="831" 
d="M105 576l-83 -45v116l104 68h124v-382h-145v243zM624 715h99l-569 -715h-100zM464 18l129 132q37 38 53.5 60.5t16.5 42.5q0 30 -28 30q-30 0 -36 -51h-131q2 77 48.5 116.5t126.5 39.5t120.5 -34.5t40.5 -89.5q0 -37 -19.5 -67.5t-58.5 -67.5l-28 -26h108v-103h-342v18z
" />
    <glyph glyph-name="threequarters" unicode="&#xbe;" horiz-adv-x="852" 
d="M196 326q-171 0 -176 137h127q5 -38 40 -38q34 0 34 31q0 29 -41 29h-31v79h31q43 0 43 31q0 27 -31 27q-32 0 -38 -35h-126q6 61 48 97.5t120 36.5q77 0 119.5 -28t42.5 -79q0 -65 -69 -82q34 -5 55.5 -27.5t21.5 -54.5q0 -57 -43 -90.5t-127 -33.5zM688 715h99
l-569 -715h-100zM640 70h-190v54l157 258h172v-218h48v-94h-48v-70h-139v70zM644 164v124l-72 -124h72z" />
    <glyph glyph-name="questiondown" unicode="&#xbf;" horiz-adv-x="569" 
d="M402 345q0 -35 -17.5 -69t-32.5 -50t-47 -47q-22 -20 -33 -31.5t-21 -29t-10 -33.5q0 -52 53 -52q58 0 69 80h192q-4 -115 -79 -177.5t-198 -62.5q-120 0 -185.5 50t-65.5 143q0 79 68 147q14 14 38 35.5t38 34.5t27 31.5t17 34.5v9h187v-13zM308 610q49 0 82.5 -30
t33.5 -74t-33.5 -75t-82.5 -31q-47 0 -80.5 31t-33.5 75t33 74t81 30z" />
    <glyph glyph-name="Agrave" unicode="&#xc0;" horiz-adv-x="760" 
d="M234 715h293l224 -715h-240l-33 119h-226l-32 -119h-211zM295 273h141l-70 259zM212 906h202l47 -149h-149z" />
    <glyph glyph-name="Aacute" unicode="&#xc1;" horiz-adv-x="760" 
d="M234 715h293l224 -715h-240l-33 119h-226l-32 -119h-211zM295 273h141l-70 259zM346 906h201l-103 -149h-149z" />
    <glyph glyph-name="Acircumflex" unicode="&#xc2;" horiz-adv-x="760" 
d="M234 715h293l224 -715h-240l-33 119h-226l-32 -119h-211zM295 273h141l-70 259zM298 906h164l110 -149h-142l-54 47l-54 -47h-139z" />
    <glyph glyph-name="Atilde" unicode="&#xc3;" horiz-adv-x="760" 
d="M234 715h293l224 -715h-240l-33 119h-226l-32 -119h-211zM295 273h141l-70 259zM444 755q-32 0 -70.5 16t-50.5 16q-25 0 -30 -30h-109q6 80 40.5 120t85.5 40q31 0 70.5 -16t53.5 -16q24 0 29 30h110q-6 -79 -42.5 -119.5t-86.5 -40.5z" />
    <glyph glyph-name="Adieresis" unicode="&#xc4;" horiz-adv-x="760" 
d="M234 715h293l224 -715h-240l-33 119h-226l-32 -119h-211zM295 273h141l-70 259zM264 752q-38 0 -64.5 26t-26.5 63t26.5 63t64.5 26q39 0 65.5 -25.5t26.5 -63.5q0 -37 -26.5 -63t-65.5 -26zM491 752q-38 0 -64.5 26t-26.5 63t26.5 63t64.5 26q39 0 65.5 -25.5
t26.5 -63.5q0 -37 -26.5 -63t-65.5 -26z" />
    <glyph glyph-name="Aring" unicode="&#xc5;" horiz-adv-x="760" 
d="M234 715h293l224 -715h-240l-33 119h-226l-32 -119h-211zM295 273h141l-70 259zM378 810q20 0 32.5 14t12.5 36q0 23 -12.5 36.5t-32.5 13.5t-32.5 -13.5t-12.5 -36.5q0 -22 12.5 -36t32.5 -14zM378 742q-51 0 -86.5 35t-35.5 83t35.5 83t86.5 35t86.5 -35t35.5 -83
t-35.5 -83t-86.5 -35z" />
    <glyph glyph-name="AE" unicode="&#xc6;" horiz-adv-x="1012" 
d="M320 715h645v-174h-275v-101h217v-159h-217v-107h291v-174h-516v135h-187l-56 -135h-215zM340 285h125v256h-18z" />
    <glyph glyph-name="Ccedilla" unicode="&#xc7;" horiz-adv-x="764" 
d="M379 -228q-115 0 -132 94h90q6 -26 35 -26q30 0 30 29q0 30 -33 30q-21 0 -32 -12l-40 41l42 63q-155 18 -233 113t-78 249v8q0 164 104.5 264.5t265.5 100.5q149 0 238.5 -70.5t101.5 -211.5h-234q-11 103 -105 103q-63 0 -97.5 -47.5t-34.5 -137.5v-8q0 -90 35 -137.5
t101 -47.5q106 0 118 105h226q-10 -137 -100 -211t-235 -76l-22 -31q49 4 81.5 -18t32.5 -69q0 -45 -34 -71t-91 -26z" />
    <glyph glyph-name="Egrave" unicode="&#xc8;" horiz-adv-x="620" 
d="M65 715h508v-174h-282v-101h224v-159h-224v-107h298v-174h-524v715zM161 906h202l47 -149h-149z" />
    <glyph glyph-name="Eacute" unicode="&#xc9;" horiz-adv-x="620" 
d="M65 715h508v-174h-282v-101h224v-159h-224v-107h298v-174h-524v715zM295 906h201l-103 -149h-149z" />
    <glyph glyph-name="Ecircumflex" unicode="&#xca;" horiz-adv-x="620" 
d="M65 715h508v-174h-282v-101h224v-159h-224v-107h298v-174h-524v715zM247 906h164l110 -149h-142l-54 47l-54 -47h-139z" />
    <glyph glyph-name="Edieresis" unicode="&#xcb;" horiz-adv-x="620" 
d="M65 715h508v-174h-282v-101h224v-159h-224v-107h298v-174h-524v715zM213 752q-38 0 -64.5 26t-26.5 63t26.5 63t64.5 26q39 0 65.5 -25.5t26.5 -63.5q0 -37 -26.5 -63t-65.5 -26zM440 752q-38 0 -64.5 26t-26.5 63t26.5 63t64.5 26q39 0 65.5 -25.5t26.5 -63.5
q0 -37 -26.5 -63t-65.5 -26z" />
    <glyph glyph-name="Igrave" unicode="&#xcc;" horiz-adv-x="366" 
d="M68 715h229v-715h-229v715zM17 906h202l47 -149h-149z" />
    <glyph glyph-name="Iacute" unicode="&#xcd;" horiz-adv-x="366" 
d="M68 715h229v-715h-229v715zM151 906h201l-103 -149h-149z" />
    <glyph glyph-name="Icircumflex" unicode="&#xce;" horiz-adv-x="366" 
d="M68 715h229v-715h-229v715zM103 906h164l110 -149h-142l-54 47l-54 -47h-139z" />
    <glyph glyph-name="Idieresis" unicode="&#xcf;" horiz-adv-x="366" 
d="M68 715h229v-715h-229v715zM69 752q-38 0 -64.5 26t-26.5 63t26.5 63t64.5 26q39 0 65.5 -25.5t26.5 -63.5q0 -37 -26.5 -63t-65.5 -26zM296 752q-38 0 -64.5 26t-26.5 63t26.5 63t64.5 26q39 0 65.5 -25.5t26.5 -63.5q0 -37 -26.5 -63t-65.5 -26z" />
    <glyph glyph-name="Eth" unicode="&#xd0;" horiz-adv-x="785" 
d="M29 435h54v280h273q192 0 289.5 -88.5t97.5 -260.5v-7q0 -173 -98.5 -266t-288.5 -93h-273v284h-54v151zM349 174q83 0 120 43t37 137v8q0 97 -38 138t-121 41h-41v-106h104v-151h-104v-110h43z" />
    <glyph glyph-name="Ntilde" unicode="&#xd1;" horiz-adv-x="787" 
d="M65 715h254l203 -378v378h199v-715h-217l-239 428v-428h-200v715zM479 755q-32 0 -70.5 16t-50.5 16q-25 0 -30 -30h-109q6 80 40.5 120t85.5 40q31 0 70.5 -16t53.5 -16q24 0 29 30h110q-6 -79 -42.5 -119.5t-86.5 -40.5z" />
    <glyph glyph-name="Ograve" unicode="&#xd2;" horiz-adv-x="820" 
d="M411 165q67 0 106.5 50t39.5 139v8q0 90 -39.5 138.5t-108.5 48.5q-67 0 -106 -48t-39 -139v-8q0 -91 39 -140t108 -49zM405 -13q-174 0 -276 100.5t-102 265.5v8q0 163 109 264t273 101q169 0 276.5 -96.5t107.5 -262.5v-8q0 -168 -106 -270t-282 -102zM243 906h202
l47 -149h-149z" />
    <glyph glyph-name="Oacute" unicode="&#xd3;" horiz-adv-x="820" 
d="M411 165q67 0 106.5 50t39.5 139v8q0 90 -39.5 138.5t-108.5 48.5q-67 0 -106 -48t-39 -139v-8q0 -91 39 -140t108 -49zM405 -13q-174 0 -276 100.5t-102 265.5v8q0 163 109 264t273 101q169 0 276.5 -96.5t107.5 -262.5v-8q0 -168 -106 -270t-282 -102zM377 906h201
l-103 -149h-149z" />
    <glyph glyph-name="Ocircumflex" unicode="&#xd4;" horiz-adv-x="820" 
d="M411 165q67 0 106.5 50t39.5 139v8q0 90 -39.5 138.5t-108.5 48.5q-67 0 -106 -48t-39 -139v-8q0 -91 39 -140t108 -49zM405 -13q-174 0 -276 100.5t-102 265.5v8q0 163 109 264t273 101q169 0 276.5 -96.5t107.5 -262.5v-8q0 -168 -106 -270t-282 -102zM329 906h164
l110 -149h-142l-54 47l-54 -47h-139z" />
    <glyph glyph-name="Otilde" unicode="&#xd5;" horiz-adv-x="820" 
d="M411 165q67 0 106.5 50t39.5 139v8q0 90 -39.5 138.5t-108.5 48.5q-67 0 -106 -48t-39 -139v-8q0 -91 39 -140t108 -49zM405 -13q-174 0 -276 100.5t-102 265.5v8q0 163 109 264t273 101q169 0 276.5 -96.5t107.5 -262.5v-8q0 -168 -106 -270t-282 -102zM475 755
q-32 0 -70.5 16t-50.5 16q-25 0 -30 -30h-109q6 80 40.5 120t85.5 40q31 0 70.5 -16t53.5 -16q24 0 29 30h110q-6 -79 -42.5 -119.5t-86.5 -40.5z" />
    <glyph glyph-name="Odieresis" unicode="&#xd6;" horiz-adv-x="820" 
d="M411 165q67 0 106.5 50t39.5 139v8q0 90 -39.5 138.5t-108.5 48.5q-67 0 -106 -48t-39 -139v-8q0 -91 39 -140t108 -49zM405 -13q-174 0 -276 100.5t-102 265.5v8q0 163 109 264t273 101q169 0 276.5 -96.5t107.5 -262.5v-8q0 -168 -106 -270t-282 -102zM295 752
q-38 0 -64.5 26t-26.5 63t26.5 63t64.5 26q39 0 65.5 -25.5t26.5 -63.5q0 -37 -26.5 -63t-65.5 -26zM522 752q-38 0 -64.5 26t-26.5 63t26.5 63t64.5 26q39 0 65.5 -25.5t26.5 -63.5q0 -37 -26.5 -63t-65.5 -26z" />
    <glyph glyph-name="multiply" unicode="&#xd7;" horiz-adv-x="589" 
d="M40 185l152 152l-155 154l103 104l154 -156l153 152l102 -102l-152 -152l155 -154l-104 -104l-154 156l-152 -152z" />
    <glyph glyph-name="Oslash" unicode="&#xd8;" horiz-adv-x="820" 
d="M34 23l78 82q-85 97 -85 248v8q0 162 109 263t273 101q132 0 231 -62l73 78l57 -56l-68 -72q92 -94 92 -246v-8q0 -168 -106.5 -270t-282.5 -102q-141 0 -233 65l-81 -85zM410 165q70 0 109.5 50t39.5 140v8q0 49 -12 86l-235 -248q38 -36 98 -36zM261 354q0 -50 10 -81
l231 245q-38 31 -93 31q-70 0 -109 -48t-39 -139v-8z" />
    <glyph glyph-name="Ugrave" unicode="&#xd9;" horiz-adv-x="776" 
d="M388 -13q-159 0 -243 77.5t-84 230.5v420h226v-411q0 -74 21.5 -106.5t79.5 -32.5t79 32.5t21 107.5v410h228v-418q0 -157 -86.5 -233.5t-241.5 -76.5zM220 906h202l47 -149h-149z" />
    <glyph glyph-name="Uacute" unicode="&#xda;" horiz-adv-x="776" 
d="M388 -13q-159 0 -243 77.5t-84 230.5v420h226v-411q0 -74 21.5 -106.5t79.5 -32.5t79 32.5t21 107.5v410h228v-418q0 -157 -86.5 -233.5t-241.5 -76.5zM354 906h201l-103 -149h-149z" />
    <glyph glyph-name="Ucircumflex" unicode="&#xdb;" horiz-adv-x="776" 
d="M388 -13q-159 0 -243 77.5t-84 230.5v420h226v-411q0 -74 21.5 -106.5t79.5 -32.5t79 32.5t21 107.5v410h228v-418q0 -157 -86.5 -233.5t-241.5 -76.5zM306 906h164l110 -149h-142l-54 47l-54 -47h-139z" />
    <glyph glyph-name="Udieresis" unicode="&#xdc;" horiz-adv-x="776" 
d="M388 -13q-159 0 -243 77.5t-84 230.5v420h226v-411q0 -74 21.5 -106.5t79.5 -32.5t79 32.5t21 107.5v410h228v-418q0 -157 -86.5 -233.5t-241.5 -76.5zM272 752q-38 0 -64.5 26t-26.5 63t26.5 63t64.5 26q39 0 65.5 -25.5t26.5 -63.5q0 -37 -26.5 -63t-65.5 -26zM499 752
q-38 0 -64.5 26t-26.5 63t26.5 63t64.5 26q39 0 65.5 -25.5t26.5 -63.5q0 -37 -26.5 -63t-65.5 -26z" />
    <glyph glyph-name="Yacute" unicode="&#xdd;" horiz-adv-x="692" 
d="M237 305l-232 410h246l109 -224l110 224h217l-222 -409v-306h-228v305zM321 906h201l-103 -149h-149z" />
    <glyph glyph-name="Thorn" unicode="&#xde;" horiz-adv-x="664" 
d="M65 715h226v-114h59q153 0 223.5 -57.5t70.5 -176.5v-4q0 -113 -72.5 -173t-211.5 -60h-69v-130h-226v715zM338 282q91 0 91 80v4q0 40 -22 58t-68 18h-48v-160h47z" />
    <glyph glyph-name="germandbls" unicode="&#xdf;" horiz-adv-x="644" 
d="M389 -10q-57 0 -97 10v147q22 -8 43 -8q89 0 89 110v6q0 65 -32.5 89t-95.5 24v137q42 1 63.5 21.5t21.5 49.5v2q0 30 -17 47.5t-49 17.5q-33 0 -52 -22t-19 -64v-557h-197v540q0 118 78 174t202 56q114 0 177 -46.5t63 -136.5v-2q0 -51 -32.5 -87t-85.5 -52
q77 -18 126 -69t49 -136v-7q0 -118 -64 -181t-171 -63z" />
    <glyph glyph-name="agrave" unicode="&#xe0;" horiz-adv-x="585" 
d="M198 -13q-77 0 -127.5 39.5t-50.5 118.5q0 90 70.5 130.5t210.5 40.5h45v9q0 38 -12 57t-49 19q-56 0 -62 -56h-184q6 94 74.5 143.5t183.5 49.5q117 0 180.5 -50t63.5 -150v-338h-190v60q-41 -73 -153 -73zM269 119q34 0 55.5 17.5t21.5 46.5v27h-42q-50 0 -70 -11
t-20 -39q0 -41 55 -41zM125 747h193l52 -169h-141z" />
    <glyph glyph-name="aacute" unicode="&#xe1;" horiz-adv-x="585" 
d="M198 -13q-77 0 -127.5 39.5t-50.5 118.5q0 90 70.5 130.5t210.5 40.5h45v9q0 38 -12 57t-49 19q-56 0 -62 -56h-184q6 94 74.5 143.5t183.5 49.5q117 0 180.5 -50t63.5 -150v-338h-190v60q-41 -73 -153 -73zM269 119q34 0 55.5 17.5t21.5 46.5v27h-42q-50 0 -70 -11
t-20 -39q0 -41 55 -41zM272 747h193l-104 -169h-141z" />
    <glyph glyph-name="acircumflex" unicode="&#xe2;" horiz-adv-x="585" 
d="M198 -13q-77 0 -127.5 39.5t-50.5 118.5q0 90 70.5 130.5t210.5 40.5h45v9q0 38 -12 57t-49 19q-56 0 -62 -56h-184q6 94 74.5 143.5t183.5 49.5q117 0 180.5 -50t63.5 -150v-338h-190v60q-41 -73 -153 -73zM269 119q34 0 55.5 17.5t21.5 46.5v27h-42q-50 0 -70 -11
t-20 -39q0 -41 55 -41zM225 746h138l120 -166h-137l-56 53l-56 -53h-134z" />
    <glyph glyph-name="atilde" unicode="&#xe3;" horiz-adv-x="585" 
d="M198 -13q-77 0 -127.5 39.5t-50.5 118.5q0 90 70.5 130.5t210.5 40.5h45v9q0 38 -12 57t-49 19q-56 0 -62 -56h-184q6 94 74.5 143.5t183.5 49.5q117 0 180.5 -50t63.5 -150v-338h-190v60q-41 -73 -153 -73zM269 119q34 0 55.5 17.5t21.5 46.5v27h-42q-50 0 -70 -11
t-20 -39q0 -41 55 -41zM361 581q-33 0 -70 16t-48 16q-25 0 -30 -30h-104q5 81 36.5 121.5t81.5 40.5q30 0 68.5 -16t52.5 -16q26 0 30 31h104q-6 -80 -39 -121.5t-82 -41.5z" />
    <glyph glyph-name="adieresis" unicode="&#xe4;" horiz-adv-x="585" 
d="M198 -13q-77 0 -127.5 39.5t-50.5 118.5q0 90 70.5 130.5t210.5 40.5h45v9q0 38 -12 57t-49 19q-56 0 -62 -56h-184q6 94 74.5 143.5t183.5 49.5q117 0 180.5 -50t63.5 -150v-338h-190v60q-41 -73 -153 -73zM269 119q34 0 55.5 17.5t21.5 46.5v27h-42q-50 0 -70 -11
t-20 -39q0 -41 55 -41zM186 570q-38 0 -64.5 26t-26.5 63t26.5 63t64.5 26q39 0 65.5 -26t26.5 -63t-26.5 -63t-65.5 -26zM403 570q-38 0 -64 26t-26 63t26 63t64 26q39 0 65.5 -26t26.5 -63t-26.5 -63t-65.5 -26z" />
    <glyph glyph-name="aring" unicode="&#xe5;" horiz-adv-x="585" 
d="M198 -13q-77 0 -127.5 39.5t-50.5 118.5q0 90 70.5 130.5t210.5 40.5h45v9q0 38 -12 57t-49 19q-56 0 -62 -56h-184q6 94 74.5 143.5t183.5 49.5q117 0 180.5 -50t63.5 -150v-338h-190v60q-41 -73 -153 -73zM269 119q34 0 55.5 17.5t21.5 46.5v27h-42q-50 0 -70 -11
t-20 -39q0 -41 55 -41zM295 642q20 0 32 13.5t12 34.5q0 22 -12 35.5t-32 13.5t-32 -13.5t-12 -35.5q0 -21 12 -34.5t32 -13.5zM295 574q-50 0 -85 34t-35 82t35.5 82.5t84.5 34.5t84.5 -34.5t35.5 -82.5t-35 -82t-85 -34z" />
    <glyph glyph-name="ae" unicode="&#xe6;" horiz-adv-x="913" 
d="M626 -13q-142 0 -206 88q-66 -88 -203 -88q-88 0 -143 39t-55 119q0 90 70.5 132t209.5 42h49v6q0 38 -13.5 57t-49.5 19q-56 0 -63 -56h-184q6 94 74 143.5t180 49.5q118 0 166 -57q64 57 165 57q118 0 193.5 -68.5t75.5 -203.5v-47h-357q8 -98 94 -98q68 0 81 56h182
q-11 -92 -78.5 -141t-187.5 -49zM703 319q-5 92 -80 92q-36 0 -59 -23.5t-28 -68.5h167zM269 119q37 0 58 17.5t21 46.5v33h-46q-47 0 -68 -11.5t-21 -39.5q0 -46 56 -46z" />
    <glyph glyph-name="ccedilla" unicode="&#xe7;" horiz-adv-x="586" 
d="M280 -228q-115 0 -132 94h90q6 -26 35 -26q30 0 30 29q0 30 -33 30q-22 0 -32 -12l-40 41l42 64q-100 15 -159 82t-59 180v8q0 129 80 202t203 73q109 0 181.5 -52.5t80.5 -167.5h-185q-6 35 -22 52t-50 17q-88 0 -88 -120v-8q0 -128 91 -128q34 0 55 20.5t25 58.5h177
q-4 -101 -69 -160t-188 -62l-22 -31q49 4 81.5 -18t32.5 -69q0 -45 -34 -71t-91 -26z" />
    <glyph glyph-name="egrave" unicode="&#xe8;" horiz-adv-x="604" 
d="M311 -13q-129 0 -209.5 71t-80.5 197v8q0 125 83 200t207 75q118 0 195 -69t77 -203v-48h-363q4 -47 29.5 -72t68.5 -25q69 0 82 56h184q-12 -92 -80.5 -141t-192.5 -49zM393 321q-5 90 -82 90q-37 0 -60.5 -23t-29.5 -67h172zM136 747h193l52 -169h-141z" />
    <glyph glyph-name="eacute" unicode="&#xe9;" horiz-adv-x="604" 
d="M311 -13q-129 0 -209.5 71t-80.5 197v8q0 125 83 200t207 75q118 0 195 -69t77 -203v-48h-363q4 -47 29.5 -72t68.5 -25q69 0 82 56h184q-12 -92 -80.5 -141t-192.5 -49zM393 321q-5 90 -82 90q-37 0 -60.5 -23t-29.5 -67h172zM283 747h193l-104 -169h-141z" />
    <glyph glyph-name="ecircumflex" unicode="&#xea;" horiz-adv-x="604" 
d="M311 -13q-129 0 -209.5 71t-80.5 197v8q0 125 83 200t207 75q118 0 195 -69t77 -203v-48h-363q4 -47 29.5 -72t68.5 -25q69 0 82 56h184q-12 -92 -80.5 -141t-192.5 -49zM393 321q-5 90 -82 90q-37 0 -60.5 -23t-29.5 -67h172zM239 746h138l120 -166h-137l-56 53l-56 -53
h-134z" />
    <glyph glyph-name="edieresis" unicode="&#xeb;" horiz-adv-x="604" 
d="M311 -13q-129 0 -209.5 71t-80.5 197v8q0 125 83 200t207 75q118 0 195 -69t77 -203v-48h-363q4 -47 29.5 -72t68.5 -25q69 0 82 56h184q-12 -92 -80.5 -141t-192.5 -49zM393 321q-5 90 -82 90q-37 0 -60.5 -23t-29.5 -67h172zM197 570q-38 0 -64.5 26t-26.5 63t26.5 63
t64.5 26q39 0 65.5 -26t26.5 -63t-26.5 -63t-65.5 -26zM414 570q-38 0 -64 26t-26 63t26 63t64 26q39 0 65.5 -26t26.5 -63t-26.5 -63t-65.5 -26z" />
    <glyph glyph-name="igrave" unicode="&#xec;" horiz-adv-x="303" 
d="M53 523h196v-523h-196v523zM-18 747h193l52 -169h-141z" />
    <glyph glyph-name="iacute" unicode="&#xed;" horiz-adv-x="303" 
d="M53 523h196v-523h-196v523zM129 747h193l-104 -169h-141z" />
    <glyph glyph-name="icircumflex" unicode="&#xee;" horiz-adv-x="303" 
d="M53 523h196v-523h-196v523zM85 746h138l120 -166h-137l-56 53l-56 -53h-134z" />
    <glyph glyph-name="idieresis" unicode="&#xef;" horiz-adv-x="303" 
d="M43 570q-38 0 -64.5 26t-26.5 63t26.5 63t64.5 26q39 0 65.5 -26t26.5 -63t-26.5 -63t-65.5 -26zM258 570q-38 0 -64 26t-26 63t26 63t64 26q39 0 65.5 -26t26.5 -63t-26.5 -63t-65.5 -26zM53 523h196v-523h-196v523z" />
    <glyph glyph-name="eth" unicode="&#xf0;" horiz-adv-x="627" 
d="M101 618l111 37q-46 39 -122 94h222q21 -12 60 -40l111 38l23 -62l-73 -25q171 -156 171 -355v-22q0 -137 -80 -216.5t-215 -79.5q-127 0 -207.5 73.5t-80.5 203.5v12q0 116 70.5 184.5t160.5 68.5q37 0 59.5 -10t45.5 -33q-29 57 -90 118l-143 -48zM314 132q90 0 90 126
v8q0 126 -90 126q-92 0 -92 -123v-8q0 -129 92 -129z" />
    <glyph glyph-name="ntilde" unicode="&#xf1;" horiz-adv-x="629" 
d="M47 523h197v-84q51 98 173 98q77 0 122.5 -49t45.5 -144v-344h-197v300q0 80 -66 80q-78 0 -78 -91v-289h-197v523zM381 581q-33 0 -70 16t-48 16q-25 0 -30 -30h-104q5 81 36.5 121.5t81.5 40.5q30 0 68.5 -16t52.5 -16q26 0 30 31h104q-6 -80 -39 -121.5t-82 -41.5z
" />
    <glyph glyph-name="ograve" unicode="&#xf2;" horiz-adv-x="626" 
d="M314 132q90 0 90 127v7q0 126 -90 126q-93 0 -93 -123v-8q0 -129 93 -129zM313 -13q-127 0 -209 71.5t-82 196.5v8q0 125 82.5 199.5t209.5 74.5q126 0 208 -73t82 -196v-8q0 -126 -82.5 -199.5t-208.5 -73.5zM142 747h193l52 -169h-141z" />
    <glyph glyph-name="oacute" unicode="&#xf3;" horiz-adv-x="626" 
d="M314 132q90 0 90 127v7q0 126 -90 126q-93 0 -93 -123v-8q0 -129 93 -129zM313 -13q-127 0 -209 71.5t-82 196.5v8q0 125 82.5 199.5t209.5 74.5q126 0 208 -73t82 -196v-8q0 -126 -82.5 -199.5t-208.5 -73.5zM289 747h193l-104 -169h-141z" />
    <glyph glyph-name="ocircumflex" unicode="&#xf4;" horiz-adv-x="626" 
d="M314 132q90 0 90 127v7q0 126 -90 126q-93 0 -93 -123v-8q0 -129 93 -129zM313 -13q-127 0 -209 71.5t-82 196.5v8q0 125 82.5 199.5t209.5 74.5q126 0 208 -73t82 -196v-8q0 -126 -82.5 -199.5t-208.5 -73.5zM245 746h138l120 -166h-137l-56 53l-56 -53h-134z" />
    <glyph glyph-name="otilde" unicode="&#xf5;" horiz-adv-x="626" 
d="M314 132q90 0 90 127v7q0 126 -90 126q-93 0 -93 -123v-8q0 -129 93 -129zM313 -13q-127 0 -209 71.5t-82 196.5v8q0 125 82.5 199.5t209.5 74.5q126 0 208 -73t82 -196v-8q0 -126 -82.5 -199.5t-208.5 -73.5zM378 581q-33 0 -70 16t-48 16q-25 0 -30 -30h-104
q5 81 36.5 121.5t81.5 40.5q30 0 68.5 -16t52.5 -16q26 0 30 31h104q-6 -80 -39 -121.5t-82 -41.5z" />
    <glyph glyph-name="odieresis" unicode="&#xf6;" horiz-adv-x="626" 
d="M314 132q90 0 90 127v7q0 126 -90 126q-93 0 -93 -123v-8q0 -129 93 -129zM313 -13q-127 0 -209 71.5t-82 196.5v8q0 125 82.5 199.5t209.5 74.5q126 0 208 -73t82 -196v-8q0 -126 -82.5 -199.5t-208.5 -73.5zM203 570q-38 0 -64.5 26t-26.5 63t26.5 63t64.5 26
q39 0 65.5 -26t26.5 -63t-26.5 -63t-65.5 -26zM420 570q-38 0 -64 26t-26 63t26 63t64 26q39 0 65.5 -26t26.5 -63t-26.5 -63t-65.5 -26z" />
    <glyph glyph-name="divide" unicode="&#xf7;" horiz-adv-x="582" 
d="M291 34q-42 0 -71 28t-29 70q0 40 29.5 68.5t70.5 28.5t70.5 -28.5t29.5 -68.5q0 -42 -29 -70t-71 -28zM38 407h507v-134h-507v134zM291 450q-41 0 -70.5 28.5t-29.5 68.5q0 42 29 70t71 28t71 -28t29 -70q0 -40 -29.5 -68.5t-70.5 -28.5z" />
    <glyph glyph-name="oslash" unicode="&#xf8;" horiz-adv-x="626" 
d="M22 7l64 68q-65 71 -65 180v8q0 125 83 200t210 75q96 0 167 -43l65 69l50 -46l-62 -66q70 -72 70 -184v-8q0 -126 -82.5 -199.5t-208.5 -73.5q-103 0 -173 45l-67 -71zM314 131q93 0 93 127v8q0 26 -4 46l-150 -160q23 -21 61 -21zM219 261q0 -23 3 -42l147 157
q-23 17 -55 17q-95 0 -95 -124v-8z" />
    <glyph glyph-name="ugrave" unicode="&#xf9;" horiz-adv-x="628" 
d="M218 -13q-78 0 -126.5 49.5t-48.5 143.5v343h197v-309q0 -80 66 -80q78 0 78 91v298h197v-523h-197v81q-49 -94 -166 -94zM142 747h193l52 -169h-141z" />
    <glyph glyph-name="uacute" unicode="&#xfa;" horiz-adv-x="628" 
d="M218 -13q-78 0 -126.5 49.5t-48.5 143.5v343h197v-309q0 -80 66 -80q78 0 78 91v298h197v-523h-197v81q-49 -94 -166 -94zM289 747h193l-104 -169h-141z" />
    <glyph glyph-name="ucircumflex" unicode="&#xfb;" horiz-adv-x="628" 
d="M218 -13q-78 0 -126.5 49.5t-48.5 143.5v343h197v-309q0 -80 66 -80q78 0 78 91v298h197v-523h-197v81q-49 -94 -166 -94zM245 746h138l120 -166h-137l-56 53l-56 -53h-134z" />
    <glyph glyph-name="udieresis" unicode="&#xfc;" horiz-adv-x="628" 
d="M218 -13q-78 0 -126.5 49.5t-48.5 143.5v343h197v-309q0 -80 66 -80q78 0 78 91v298h197v-523h-197v81q-49 -94 -166 -94zM203 570q-38 0 -64.5 26t-26.5 63t26.5 63t64.5 26q39 0 65.5 -26t26.5 -63t-26.5 -63t-65.5 -26zM420 570q-38 0 -64 26t-26 63t26 63t64 26
q39 0 65.5 -26t26.5 -63t-26.5 -63t-65.5 -26z" />
    <glyph glyph-name="yacute" unicode="&#xfd;" 
d="M214 52l-209 471h213l99 -261l92 261h186l-279 -697h-187zM288 747h193l-104 -169h-141z" />
    <glyph glyph-name="thorn" unicode="&#xfe;" horiz-adv-x="646" 
d="M47 750h197v-303q53 90 160 90q95 0 157 -70.5t62 -201.5v-8q0 -131 -62 -200.5t-158 -69.5q-112 0 -159 88v-249h-197v924zM331 137q92 0 92 122v8q0 124 -93 124q-44 0 -67.5 -32t-23.5 -92v-8q0 -122 92 -122z" />
    <glyph glyph-name="ydieresis" unicode="&#xff;" 
d="M214 52l-209 471h213l99 -261l92 261h186l-279 -697h-187zM202 570q-38 0 -64.5 26t-26.5 63t26.5 63t64.5 26q39 0 65.5 -26t26.5 -63t-26.5 -63t-65.5 -26zM419 570q-38 0 -64 26t-26 63t26 63t64 26q39 0 65.5 -26t26.5 -63t-26.5 -63t-65.5 -26z" />
    <glyph glyph-name="Amacron" unicode="&#x100;" horiz-adv-x="760" 
d="M234 715h293l224 -715h-240l-33 119h-226l-32 -119h-211zM295 273h141l-70 259zM211 884h333v-115h-333v115z" />
    <glyph glyph-name="amacron" unicode="&#x101;" horiz-adv-x="585" 
d="M198 -13q-77 0 -127.5 39.5t-50.5 118.5q0 90 70.5 130.5t210.5 40.5h45v9q0 38 -12 57t-49 19q-56 0 -62 -56h-184q6 94 74.5 143.5t183.5 49.5q117 0 180.5 -50t63.5 -150v-338h-190v60q-41 -73 -153 -73zM269 119q34 0 55.5 17.5t21.5 46.5v27h-42q-50 0 -70 -11
t-20 -39q0 -41 55 -41zM137 712h316v-107h-316v107z" />
    <glyph glyph-name="Abreve" unicode="&#x102;" horiz-adv-x="760" 
d="M234 715h293l224 -715h-240l-33 119h-226l-32 -119h-211zM295 273h141l-70 259zM378 749q-78 0 -122 41t-49 116h124q5 -42 47 -42t47 42h124q-5 -75 -50.5 -116t-120.5 -41z" />
    <glyph glyph-name="abreve" unicode="&#x103;" horiz-adv-x="585" 
d="M198 -13q-77 0 -127.5 39.5t-50.5 118.5q0 90 70.5 130.5t210.5 40.5h45v9q0 38 -12 57t-49 19q-56 0 -62 -56h-184q6 94 74.5 143.5t183.5 49.5q117 0 180.5 -50t63.5 -150v-338h-190v60q-41 -73 -153 -73zM269 119q34 0 55.5 17.5t21.5 46.5v27h-42q-50 0 -70 -11
t-20 -39q0 -41 55 -41zM295 581q-77 0 -121 42t-48 121h119q5 -45 50 -45q46 0 51 45h118q-5 -79 -50.5 -121t-118.5 -42z" />
    <glyph glyph-name="Aogonek" unicode="&#x104;" horiz-adv-x="760" 
d="M646 -182q-60 0 -94 22t-34 60q0 54 87 100h-94l-33 119h-226l-32 -119h-211l225 715h293l219 -700q-28 -15 -43.5 -35t-15.5 -35q0 -24 28 -24q17 0 25 4v-90q-32 -17 -94 -17zM295 273h141l-70 259z" />
    <glyph glyph-name="aogonek" unicode="&#x105;" horiz-adv-x="585" 
d="M450 -182q-55 0 -87 21.5t-32 59.5q0 36 23 58t65 43h-68v60q-41 -73 -153 -73q-77 0 -127.5 39.5t-50.5 118.5q0 90 70.5 130.5t210.5 40.5h45v9q0 38 -12 57t-49 19q-56 0 -62 -56h-184q6 94 74.5 143.5t183.5 49.5q117 0 180.5 -50t63.5 -150v-326q-52 -39 -52 -71
q0 -26 29 -26q17 0 26 4v-84q-36 -17 -94 -17zM269 119q34 0 55.5 17.5t21.5 46.5v27h-42q-50 0 -70 -11t-20 -39q0 -41 55 -41z" />
    <glyph glyph-name="Cacute" unicode="&#x106;" horiz-adv-x="764" 
d="M408 -13q-189 0 -284.5 98t-95.5 268v8q0 164 104.5 264.5t265.5 100.5q149 0 238.5 -70.5t101.5 -211.5h-234q-11 103 -105 103q-63 0 -97.5 -47.5t-34.5 -137.5v-8q0 -90 35 -137.5t101 -47.5q106 0 118 105h226q-10 -138 -101.5 -212.5t-237.5 -74.5zM364 906h201
l-103 -149h-149z" />
    <glyph glyph-name="cacute" unicode="&#x107;" horiz-adv-x="586" 
d="M300 -13q-123 0 -200.5 69t-77.5 198v8q0 129 80 202t203 73q109 0 181.5 -52.5t80.5 -167.5h-185q-6 35 -22 52t-50 17q-88 0 -88 -120v-8q0 -128 91 -128q34 0 55 20.5t25 58.5h177q-4 -104 -72.5 -163t-197.5 -59zM276 747h193l-104 -169h-141z" />
    <glyph glyph-name="Ccircumflex" unicode="&#x108;" horiz-adv-x="764" 
d="M408 -13q-189 0 -284.5 98t-95.5 268v8q0 164 104.5 264.5t265.5 100.5q149 0 238.5 -70.5t101.5 -211.5h-234q-11 103 -105 103q-63 0 -97.5 -47.5t-34.5 -137.5v-8q0 -90 35 -137.5t101 -47.5q106 0 118 105h226q-10 -138 -101.5 -212.5t-237.5 -74.5zM316 906h164
l110 -149h-142l-54 47l-54 -47h-139z" />
    <glyph glyph-name="ccircumflex" unicode="&#x109;" horiz-adv-x="586" 
d="M300 -13q-123 0 -200.5 69t-77.5 198v8q0 129 80 202t203 73q109 0 181.5 -52.5t80.5 -167.5h-185q-6 35 -22 52t-50 17q-88 0 -88 -120v-8q0 -128 91 -128q34 0 55 20.5t25 58.5h177q-4 -104 -72.5 -163t-197.5 -59zM233 746h138l120 -166h-137l-56 53l-56 -53h-134z
" />
    <glyph glyph-name="Cdotaccent" unicode="&#x10a;" horiz-adv-x="764" 
d="M408 -13q-189 0 -284.5 98t-95.5 268v8q0 164 104.5 264.5t265.5 100.5q149 0 238.5 -70.5t101.5 -211.5h-234q-11 103 -105 103q-63 0 -97.5 -47.5t-34.5 -137.5v-8q0 -90 35 -137.5t101 -47.5q106 0 118 105h226q-10 -138 -101.5 -212.5t-237.5 -74.5zM396 752
q-45 0 -74 27t-29 68q0 42 29 69t74 27q44 0 73 -27t29 -69q0 -41 -29 -68t-73 -27z" />
    <glyph glyph-name="cdotaccent" unicode="&#x10b;" horiz-adv-x="586" 
d="M300 -13q-123 0 -200.5 69t-77.5 198v8q0 129 80 202t203 73q109 0 181.5 -52.5t80.5 -167.5h-185q-6 35 -22 52t-50 17q-88 0 -88 -120v-8q0 -128 91 -128q34 0 55 20.5t25 58.5h177q-4 -104 -72.5 -163t-197.5 -59zM303 570q-45 0 -74 26.5t-29 68.5t29 69t74 27
q44 0 73.5 -27t29.5 -69t-29 -68.5t-74 -26.5z" />
    <glyph glyph-name="Ccaron" unicode="&#x10c;" horiz-adv-x="764" 
d="M408 -13q-189 0 -284.5 98t-95.5 268v8q0 164 104.5 264.5t265.5 100.5q149 0 238.5 -70.5t101.5 -211.5h-234q-11 103 -105 103q-63 0 -97.5 -47.5t-34.5 -137.5v-8q0 -90 35 -137.5t101 -47.5q106 0 118 105h226q-10 -138 -101.5 -212.5t-237.5 -74.5zM200 906h142
l54 -47l54 47h139l-115 -149h-164z" />
    <glyph glyph-name="ccaron" unicode="&#x10d;" horiz-adv-x="586" 
d="M300 -13q-123 0 -200.5 69t-77.5 198v8q0 129 80 202t203 73q109 0 181.5 -52.5t80.5 -167.5h-185q-6 35 -22 52t-50 17q-88 0 -88 -120v-8q0 -128 91 -128q34 0 55 20.5t25 58.5h177q-4 -104 -72.5 -163t-197.5 -59zM108 746h137l56 -52l56 52h134l-125 -166h-138z" />
    <glyph glyph-name="Dcaron" unicode="&#x10e;" horiz-adv-x="751" 
d="M330 174q84 0 121 43t37 137v8q0 97 -38 138t-121 41h-37v-367h38zM65 715h273q192 0 289 -88.5t97 -260.5v-7q0 -173 -98.5 -266t-287.5 -93h-273v715zM144 906h142l54 -47l54 47h139l-115 -149h-164z" />
    <glyph glyph-name="dcaron" unicode="&#x10f;" horiz-adv-x="645" 
d="M241 -13q-94 0 -156 69t-62 200v8q0 131 62 202t156 71q113 0 160 -86v299h197v-750h-197v84q-48 -97 -160 -97zM314 137q92 0 92 123v8q0 123 -91 123q-92 0 -92 -124v-8q0 -122 91 -122zM640 750h140l-50 -175h-98z" />
    <glyph glyph-name="Dcroat" unicode="&#x110;" horiz-adv-x="785" 
d="M29 435h54v280h273q192 0 289.5 -88.5t97.5 -260.5v-7q0 -173 -98.5 -266t-288.5 -93h-273v284h-54v151zM349 174q83 0 120 43t37 137v8q0 97 -38 138t-121 41h-41v-106h104v-151h-104v-110h43z" />
    <glyph glyph-name="dcroat" unicode="&#x111;" horiz-adv-x="645" 
d="M250 684h151v66h197v-66h53v-103h-53v-581h-197v84q-48 -97 -160 -97q-94 0 -156 69t-62 200v8q0 131 62 202t156 71q113 0 160 -86v130h-151v103zM314 137q92 0 92 123v8q0 123 -91 123q-92 0 -92 -124v-8q0 -122 91 -122z" />
    <glyph glyph-name="Emacron" unicode="&#x112;" horiz-adv-x="620" 
d="M65 715h508v-174h-282v-101h224v-159h-224v-107h298v-174h-524v715zM160 884h333v-115h-333v115z" />
    <glyph glyph-name="emacron" unicode="&#x113;" horiz-adv-x="604" 
d="M311 -13q-129 0 -209.5 71t-80.5 197v8q0 125 83 200t207 75q118 0 195 -69t77 -203v-48h-363q4 -47 29.5 -72t68.5 -25q69 0 82 56h184q-12 -92 -80.5 -141t-192.5 -49zM393 321q-5 90 -82 90q-37 0 -60.5 -23t-29.5 -67h172zM148 712h316v-107h-316v107z" />
    <glyph glyph-name="Ebreve" unicode="&#x114;" horiz-adv-x="620" 
d="M65 715h508v-174h-282v-101h224v-159h-224v-107h298v-174h-524v715zM325 749q-78 0 -122 41t-49 116h124q5 -42 47 -42t47 42h124q-5 -75 -50.5 -116t-120.5 -41z" />
    <glyph glyph-name="ebreve" unicode="&#x115;" horiz-adv-x="604" 
d="M311 -13q-129 0 -209.5 71t-80.5 197v8q0 125 83 200t207 75q118 0 195 -69t77 -203v-48h-363q4 -47 29.5 -72t68.5 -25q69 0 82 56h184q-12 -92 -80.5 -141t-192.5 -49zM393 321q-5 90 -82 90q-37 0 -60.5 -23t-29.5 -67h172zM301 581q-77 0 -121 42t-48 121h119
q5 -45 50 -45q46 0 51 45h118q-5 -79 -50.5 -121t-118.5 -42z" />
    <glyph glyph-name="Edotaccent" unicode="&#x116;" horiz-adv-x="620" 
d="M65 715h508v-174h-282v-101h224v-159h-224v-107h298v-174h-524v715zM327 752q-45 0 -74 27t-29 68q0 42 29 69t74 27q44 0 73 -27t29 -69q0 -41 -29 -68t-73 -27z" />
    <glyph glyph-name="edotaccent" unicode="&#x117;" horiz-adv-x="604" 
d="M311 -13q-129 0 -209.5 71t-80.5 197v8q0 125 83 200t207 75q118 0 195 -69t77 -203v-48h-363q4 -47 29.5 -72t68.5 -25q69 0 82 56h184q-12 -92 -80.5 -141t-192.5 -49zM393 321q-5 90 -82 90q-37 0 -60.5 -23t-29.5 -67h172zM307 570q-45 0 -74 26.5t-29 68.5t29 69
t74 27q44 0 73.5 -27t29.5 -69t-29 -68.5t-74 -26.5z" />
    <glyph glyph-name="Eogonek" unicode="&#x118;" horiz-adv-x="620" 
d="M470 -182q-59 0 -92 22t-33 60q0 54 86 100h-366v715h508v-174h-282v-101h224v-159h-224v-107h298v-174h-40q-36 -32 -36 -55q0 -24 28 -24q17 0 26 4v-90q-36 -17 -97 -17z" />
    <glyph glyph-name="eogonek" unicode="&#x119;" horiz-adv-x="604" 
d="M408 -182q-56 0 -88.5 20.5t-32.5 58.5q0 20 14.5 39t28.5 29t42 27q-28 -5 -61 -5q-129 0 -209.5 71t-80.5 197v8q0 125 83 200t207 75q118 0 195 -69t77 -203v-48h-363q4 -47 29.5 -72t68.5 -25q69 0 82 56h184q-9 -73 -68 -134q-29 -30 -39.5 -41t-21 -28.5
t-10.5 -32.5q0 -26 29 -26q17 0 26 4v-84q-36 -17 -92 -17zM393 321q-5 90 -82 90q-37 0 -60.5 -23t-29.5 -67h172z" />
    <glyph glyph-name="Ecaron" unicode="&#x11a;" horiz-adv-x="620" 
d="M65 715h508v-174h-282v-101h224v-159h-224v-107h298v-174h-524v715zM131 906h142l54 -47l54 47h139l-115 -149h-164z" />
    <glyph glyph-name="ecaron" unicode="&#x11b;" horiz-adv-x="604" 
d="M311 -13q-129 0 -209.5 71t-80.5 197v8q0 125 83 200t207 75q118 0 195 -69t77 -203v-48h-363q4 -47 29.5 -72t68.5 -25q69 0 82 56h184q-12 -92 -80.5 -141t-192.5 -49zM393 321q-5 90 -82 90q-37 0 -60.5 -23t-29.5 -67h172zM114 746h137l56 -52l56 52h134l-125 -166
h-138z" />
    <glyph glyph-name="Gcircumflex" unicode="&#x11c;" horiz-adv-x="791" 
d="M407 -13q-182 0 -281 100t-99 266v8q0 163 108 264t272 101q91 0 163 -27t121.5 -89t55.5 -154h-224q-12 92 -115 92q-68 0 -106.5 -50t-38.5 -141v-8q0 -190 151 -190q63 0 94 25.5t35 65.5h-122v149h343v-92q0 -140 -92 -230t-265 -90zM325 906h164l110 -149h-142
l-54 47l-54 -47h-139z" />
    <glyph glyph-name="gcircumflex" unicode="&#x11d;" horiz-adv-x="644" 
d="M299 -194q-259 0 -280 198h195q7 -29 25.5 -45.5t60.5 -16.5q100 0 100 100v81q-49 -92 -159 -92q-94 0 -156.5 65.5t-62.5 182.5v8q0 114 63 182.5t155 68.5q112 0 160 -87v72h197v-478q0 -118 -75.5 -178.5t-222.5 -60.5zM314 171q44 0 68 28.5t24 79.5v7
q0 49 -24 77.5t-68 28.5q-45 0 -68.5 -28t-23.5 -79v-8q0 -49 24 -77.5t68 -28.5zM240 746h138l120 -166h-137l-56 53l-56 -53h-134z" />
    <glyph glyph-name="Gbreve" unicode="&#x11e;" horiz-adv-x="791" 
d="M407 -13q-182 0 -281 100t-99 266v8q0 163 108 264t272 101q91 0 163 -27t121.5 -89t55.5 -154h-224q-12 92 -115 92q-68 0 -106.5 -50t-38.5 -141v-8q0 -190 151 -190q63 0 94 25.5t35 65.5h-122v149h343v-92q0 -140 -92 -230t-265 -90zM405 749q-78 0 -122 41t-49 116
h124q5 -42 47 -42t47 42h124q-5 -75 -50.5 -116t-120.5 -41z" />
    <glyph glyph-name="gbreve" unicode="&#x11f;" horiz-adv-x="644" 
d="M299 -194q-259 0 -280 198h195q7 -29 25.5 -45.5t60.5 -16.5q100 0 100 100v81q-49 -92 -159 -92q-94 0 -156.5 65.5t-62.5 182.5v8q0 114 63 182.5t155 68.5q112 0 160 -87v72h197v-478q0 -118 -75.5 -178.5t-222.5 -60.5zM314 171q44 0 68 28.5t24 79.5v7
q0 49 -24 77.5t-68 28.5q-45 0 -68.5 -28t-23.5 -79v-8q0 -49 24 -77.5t68 -28.5zM307 581q-77 0 -121 42t-48 121h119q5 -45 50 -45q46 0 51 45h118q-5 -79 -50.5 -121t-118.5 -42z" />
    <glyph glyph-name="Gdotaccent" unicode="&#x120;" horiz-adv-x="791" 
d="M407 -13q-182 0 -281 100t-99 266v8q0 163 108 264t272 101q91 0 163 -27t121.5 -89t55.5 -154h-224q-12 92 -115 92q-68 0 -106.5 -50t-38.5 -141v-8q0 -190 151 -190q63 0 94 25.5t35 65.5h-122v149h343v-92q0 -140 -92 -230t-265 -90zM405 752q-45 0 -74 27t-29 68
q0 42 29 69t74 27q44 0 73 -27t29 -69q0 -41 -29 -68t-73 -27z" />
    <glyph glyph-name="gdotaccent" unicode="&#x121;" horiz-adv-x="644" 
d="M299 -194q-259 0 -280 198h195q7 -29 25.5 -45.5t60.5 -16.5q100 0 100 100v81q-49 -92 -159 -92q-94 0 -156.5 65.5t-62.5 182.5v8q0 114 63 182.5t155 68.5q112 0 160 -87v72h197v-478q0 -118 -75.5 -178.5t-222.5 -60.5zM314 171q44 0 68 28.5t24 79.5v7
q0 49 -24 77.5t-68 28.5q-45 0 -68.5 -28t-23.5 -79v-8q0 -49 24 -77.5t68 -28.5zM308 570q-45 0 -74 26.5t-29 68.5t29 69t74 27q44 0 73.5 -27t29.5 -69t-29 -68.5t-74 -26.5z" />
    <glyph glyph-name="uni0122" unicode="&#x122;" horiz-adv-x="790" 
d="M407 -13q-182 0 -281 100t-99 266v8q0 163 108 264t272 101q91 0 163 -27t121.5 -89t55.5 -154h-224q-12 92 -115 92q-68 0 -106.5 -50t-38.5 -141v-8q0 -190 151 -190q63 0 94 25.5t35 65.5h-122v149h343v-92q0 -140 -92 -230t-265 -90zM283 -206l39 175l172 -12
l-101 -190z" />
    <glyph glyph-name="uni0123" unicode="&#x123;" horiz-adv-x="644" 
d="M299 -194q-259 0 -280 198h195q7 -29 25.5 -45.5t60.5 -16.5q100 0 100 100v81q-49 -92 -159 -92q-94 0 -156.5 65.5t-62.5 182.5v8q0 114 63 182.5t155 68.5q112 0 160 -87v72h197v-478q0 -118 -75.5 -178.5t-222.5 -60.5zM314 171q44 0 68 28.5t24 79.5v7
q0 49 -24 77.5t-68 28.5q-45 0 -68.5 -28t-23.5 -79v-8q0 -49 24 -77.5t68 -28.5zM227 577l101 190l110 -27l-39 -175z" />
    <glyph glyph-name="Hcircumflex" unicode="&#x124;" horiz-adv-x="794" 
d="M65 715h227v-264h210v264h227v-715h-227v275h-210v-275h-227v715zM316 906h164l110 -149h-142l-54 47l-54 -47h-139z" />
    <glyph glyph-name="hcircumflex" unicode="&#x125;" horiz-adv-x="629" 
d="M47 750h197v-311q51 98 173 98q77 0 122.5 -49t45.5 -144v-344h-197v300q0 80 -66 80q-78 0 -78 -91v-289h-197v750zM238 928h164l110 -149h-142l-54 47l-54 -47h-139z" />
    <glyph glyph-name="Hbar" unicode="&#x126;" horiz-adv-x="794" 
d="M7 627h58v88h227v-88h210v88h227v-88h58v-101h-58v-526h-227v275h-210v-275h-227v526h-58v101zM502 451v75h-210v-75h210z" />
    <glyph glyph-name="hbar" unicode="&#x127;" horiz-adv-x="629" 
d="M-6 684h53v66h197v-66h151v-103h-151v-142q51 98 173 98q77 0 122.5 -49t45.5 -144v-344h-197v300q0 80 -66 80q-78 0 -78 -91v-289h-197v581h-53v103z" />
    <glyph glyph-name="Itilde" unicode="&#x128;" horiz-adv-x="366" 
d="M68 715h229v-715h-229v715zM249 755q-32 0 -70.5 16t-50.5 16q-25 0 -30 -30h-109q6 80 40.5 120t85.5 40q31 0 70.5 -16t53.5 -16q24 0 29 30h110q-6 -79 -42.5 -119.5t-86.5 -40.5z" />
    <glyph glyph-name="itilde" unicode="&#x129;" horiz-adv-x="303" 
d="M53 523h196v-523h-196v523zM218 581q-33 0 -70 16t-48 16q-25 0 -30 -30h-104q5 81 36.5 121.5t81.5 40.5q30 0 68.5 -16t52.5 -16q26 0 30 31h104q-6 -80 -39 -121.5t-82 -41.5z" />
    <glyph glyph-name="Imacron" unicode="&#x12a;" horiz-adv-x="366" 
d="M68 715h229v-715h-229v715zM16 884h333v-115h-333v115z" />
    <glyph glyph-name="imacron" unicode="&#x12b;" horiz-adv-x="303" 
d="M24 712h255v-107h-255v107zM53 523h196v-523h-196v523z" />
    <glyph glyph-name="Ibreve" unicode="&#x12c;" horiz-adv-x="366" 
d="M68 715h229v-715h-229v715zM183 749q-78 0 -122 41t-49 116h124q5 -42 47 -42t47 42h124q-5 -75 -50.5 -116t-120.5 -41z" />
    <glyph glyph-name="ibreve" unicode="&#x12d;" horiz-adv-x="303" 
d="M53 523h196v-523h-196v523zM152 581q-77 0 -121 42t-48 121h119q5 -45 50 -45q46 0 51 45h118q-5 -79 -50.5 -121t-118.5 -42z" />
    <glyph glyph-name="Iogonek" unicode="&#x12e;" horiz-adv-x="366" 
d="M205 -182q-60 0 -93.5 22t-33.5 60q0 56 87 100h-97v715h229v-702q-50 -37 -50 -68q0 -24 28 -24q17 0 25 4v-90q-32 -17 -95 -17z" />
    <glyph glyph-name="iogonek" unicode="&#x12f;" horiz-adv-x="303" 
d="M161 -182q-55 0 -87 22t-32 60q0 36 23 58t64 42h-76v523h196v-513q-49 -38 -49 -69q0 -26 29 -26q17 0 25 4v-84q-32 -17 -93 -17zM151 562q-46 0 -76.5 28t-30.5 71q0 44 30.5 72t76.5 28q45 0 75.5 -28t30.5 -72q0 -43 -30.5 -71t-75.5 -28z" />
    <glyph glyph-name="Idotaccent" unicode="&#x130;" horiz-adv-x="366" 
d="M68 715h229v-715h-229v715zM184 752q-45 0 -74 27t-29 68q0 42 29 69t74 27q44 0 73 -27t29 -69q0 -41 -29 -68t-73 -27z" />
    <glyph glyph-name="dotlessi" unicode="&#x131;" horiz-adv-x="303" 
d="M53 523h196v-523h-196v523z" />
    <glyph glyph-name="IJ" unicode="&#x132;" horiz-adv-x="830" 
d="M68 715h229v-715h-229v715zM509 -9q-84 0 -136 25v167q43 -13 85 -13q90 0 90 93v452h227v-453q0 -271 -266 -271z" />
    <glyph glyph-name="ij" unicode="&#x133;" horiz-adv-x="303" 
d="M53 523h196v-523h-196v523zM151 562q-46 0 -76.5 28t-30.5 71q0 44 30.5 72t76.5 28q45 0 75.5 -28t30.5 -72q0 -43 -30.5 -71t-75.5 -28zM293 -42q33 2 47 15t14 43v507h197v-512q0 -95 -57 -144.5t-201 -49.5v141zM453 562q-46 0 -76.5 28t-30.5 71q0 44 30.5 72
t76.5 28q45 0 75.5 -28t30.5 -72q0 -43 -30.5 -71t-75.5 -28z" />
    <glyph glyph-name="Jcircumflex" unicode="&#x134;" horiz-adv-x="489" 
d="M168 -9q-84 0 -136 25v167q43 -13 85 -13q90 0 90 93v452h227v-453q0 -271 -266 -271zM239 906h164l110 -149h-142l-54 47l-54 -47h-139z" />
    <glyph glyph-name="jcircumflex" unicode="&#x135;" horiz-adv-x="303" 
d="M-9 -42q33 2 47 15t14 43v507h197v-512q0 -95 -57 -144.5t-201 -49.5v141zM84 746h138l120 -166h-137l-56 53l-56 -53h-134z" />
    <glyph glyph-name="uni0136" unicode="&#x136;" horiz-adv-x="745" 
d="M65 715h227v-271l198 271h235l-251 -330l265 -385h-261l-186 286v-286h-227v715zM260 -206l39 175l172 -12l-101 -190z" />
    <glyph glyph-name="uni0137" unicode="&#x137;" horiz-adv-x="589" 
d="M47 750h197v-425l127 198h202l-161 -234l174 -289h-218l-124 218v-218h-197v750zM185 -206l39 175l172 -12l-101 -190z" />
    <glyph glyph-name="Lacute" unicode="&#x139;" horiz-adv-x="582" 
d="M65 715h227v-540h260v-175h-487v715zM150 906h201l-103 -149h-149z" />
    <glyph glyph-name="lacute" unicode="&#x13a;" horiz-adv-x="300" 
d="M52 750h196v-750h-196v750zM122 928h201l-103 -149h-149z" />
    <glyph glyph-name="uni013B" unicode="&#x13b;" horiz-adv-x="582" 
d="M65 715h227v-540h260v-175h-487v715zM183 -206l39 175l172 -12l-101 -190z" />
    <glyph glyph-name="uni013C" unicode="&#x13c;" horiz-adv-x="300" 
d="M52 750h196v-750h-196v750zM29 -206l39 175l172 -12l-101 -190z" />
    <glyph glyph-name="Lcaron" unicode="&#x13d;" horiz-adv-x="582" 
d="M368 715h158l-61 -180h-112zM65 715h227v-540h260v-175h-487v715z" />
    <glyph glyph-name="lcaron" unicode="&#x13e;" horiz-adv-x="300" 
d="M52 750h196v-750h-196v750zM291 750h140l-50 -175h-98z" />
    <glyph glyph-name="Ldot" unicode="&#x13f;" horiz-adv-x="613" 
d="M65 715h227v-540h260v-175h-487v715zM488 297q-47 0 -78.5 31t-31.5 76t31.5 76.5t78.5 31.5q48 0 80 -31.5t32 -76.5t-32 -76t-80 -31z" />
    <glyph glyph-name="ldot" unicode="&#x140;" horiz-adv-x="479" 
d="M52 750h196v-750h-196v750zM387 251q-47 0 -78.5 31t-31.5 76t31.5 76.5t78.5 31.5q48 0 80 -31.5t32 -76.5t-32 -76t-80 -31z" />
    <glyph glyph-name="Lslash" unicode="&#x141;" 
d="M22 340l61 21v354h228v-276l176 61v-116l-176 -61v-148h260v-175h-488v245l-61 -21v116z" />
    <glyph glyph-name="lslash" unicode="&#x142;" horiz-adv-x="344" 
d="M16 376l58 27v347h196v-256l61 29v-123l-61 -29v-371h-196v279l-58 -27v124z" />
    <glyph glyph-name="Nacute" unicode="&#x143;" horiz-adv-x="787" 
d="M65 715h254l203 -378v378h199v-715h-217l-239 428v-428h-200v715zM381 906h201l-103 -149h-149z" />
    <glyph glyph-name="nacute" unicode="&#x144;" horiz-adv-x="629" 
d="M47 523h197v-84q51 98 173 98q77 0 122.5 -49t45.5 -144v-344h-197v300q0 80 -66 80q-78 0 -78 -91v-289h-197v523zM292 747h193l-104 -169h-141z" />
    <glyph glyph-name="uni0145" unicode="&#x145;" horiz-adv-x="787" 
d="M65 715h254l203 -378v378h199v-715h-217l-239 428v-428h-200v715zM269 -206l39 175l172 -12l-101 -190z" />
    <glyph glyph-name="uni0146" unicode="&#x146;" horiz-adv-x="629" 
d="M47 523h197v-84q51 98 173 98q77 0 122.5 -49t45.5 -144v-344h-197v300q0 80 -66 80q-78 0 -78 -91v-289h-197v523zM193 -206l39 175l172 -12l-101 -190z" />
    <glyph glyph-name="Ncaron" unicode="&#x147;" horiz-adv-x="787" 
d="M65 715h254l203 -378v378h199v-715h-217l-239 428v-428h-200v715zM217 906h142l54 -47l54 47h139l-115 -149h-164z" />
    <glyph glyph-name="ncaron" unicode="&#x148;" horiz-adv-x="629" 
d="M47 523h197v-84q51 98 173 98q77 0 122.5 -49t45.5 -144v-344h-197v300q0 80 -66 80q-78 0 -78 -91v-289h-197v523zM123 746h137l56 -52l56 52h134l-125 -166h-138z" />
    <glyph glyph-name="napostrophe" unicode="&#x149;" horiz-adv-x="769" 
d="M186 523h197v-84q51 98 173 98q77 0 122.5 -49t45.5 -144v-344h-197v300q0 80 -66 80q-78 0 -78 -91v-289h-197v523zM-28 459l78 269l171 -55l-140 -256z" />
    <glyph glyph-name="Eng" unicode="&#x14a;" horiz-adv-x="787" 
d="M473 -192q-73 0 -128 23v159q43 -13 75 -13q62 0 75 42l-227 420v-439h-203v715h257l197 -384v384h202v-689q0 -100 -63 -159t-185 -59z" />
    <glyph glyph-name="eng" unicode="&#x14b;" horiz-adv-x="629" 
d="M328 -42q33 2 46.5 15t13.5 43v284q0 80 -66 80q-78 0 -78 -91v-289h-197v523h197v-84q51 98 173 98q77 0 122.5 -49t45.5 -144v-333q0 -95 -57 -144.5t-200 -49.5v141z" />
    <glyph glyph-name="Omacron" unicode="&#x14c;" horiz-adv-x="820" 
d="M411 165q67 0 106.5 50t39.5 139v8q0 90 -39.5 138.5t-108.5 48.5q-67 0 -106 -48t-39 -139v-8q0 -91 39 -140t108 -49zM405 -13q-174 0 -276 100.5t-102 265.5v8q0 163 109 264t273 101q169 0 276.5 -96.5t107.5 -262.5v-8q0 -168 -106 -270t-282 -102zM242 884h333
v-115h-333v115z" />
    <glyph glyph-name="omacron" unicode="&#x14d;" horiz-adv-x="626" 
d="M314 132q90 0 90 127v7q0 126 -90 126q-93 0 -93 -123v-8q0 -129 93 -129zM313 -13q-127 0 -209 71.5t-82 196.5v8q0 125 82.5 199.5t209.5 74.5q126 0 208 -73t82 -196v-8q0 -126 -82.5 -199.5t-208.5 -73.5zM154 712h316v-107h-316v107z" />
    <glyph glyph-name="Obreve" unicode="&#x14e;" horiz-adv-x="820" 
d="M411 165q67 0 106.5 50t39.5 139v8q0 90 -39.5 138.5t-108.5 48.5q-67 0 -106 -48t-39 -139v-8q0 -91 39 -140t108 -49zM405 -13q-174 0 -276 100.5t-102 265.5v8q0 163 109 264t273 101q169 0 276.5 -96.5t107.5 -262.5v-8q0 -168 -106 -270t-282 -102zM409 749
q-78 0 -122 41t-49 116h124q5 -42 47 -42t47 42h124q-5 -75 -50.5 -116t-120.5 -41z" />
    <glyph glyph-name="obreve" unicode="&#x14f;" horiz-adv-x="626" 
d="M314 132q90 0 90 127v7q0 126 -90 126q-93 0 -93 -123v-8q0 -129 93 -129zM313 -13q-127 0 -209 71.5t-82 196.5v8q0 125 82.5 199.5t209.5 74.5q126 0 208 -73t82 -196v-8q0 -126 -82.5 -199.5t-208.5 -73.5zM312 581q-77 0 -121 42t-48 121h119q5 -45 50 -45
q46 0 51 45h118q-5 -79 -50.5 -121t-118.5 -42z" />
    <glyph glyph-name="Ohungarumlaut" unicode="&#x150;" horiz-adv-x="820" 
d="M411 165q67 0 106.5 50t39.5 139v8q0 90 -39.5 138.5t-108.5 48.5q-67 0 -106 -48t-39 -139v-8q0 -91 39 -140t108 -49zM405 -13q-174 0 -276 100.5t-102 265.5v8q0 163 109 264t273 101q169 0 276.5 -96.5t107.5 -262.5v-8q0 -168 -106 -270t-282 -102zM272 906h163
l-75 -149h-130zM473 906h164l-75 -149h-130z" />
    <glyph glyph-name="ohungarumlaut" unicode="&#x151;" horiz-adv-x="626" 
d="M314 132q90 0 90 127v7q0 126 -90 126q-93 0 -93 -123v-8q0 -129 93 -129zM313 -13q-127 0 -209 71.5t-82 196.5v8q0 125 82.5 199.5t209.5 74.5q126 0 208 -73t82 -196v-8q0 -126 -82.5 -199.5t-208.5 -73.5zM195 747h148l-78 -169h-114zM376 747h148l-77 -169h-115z
" />
    <glyph glyph-name="OE" unicode="&#x152;" horiz-adv-x="983" 
d="M27 356q0 173 99 266t286 93h525v-174h-268v-101h209v-159h-209v-107h283v-174h-540q-191 0 -288 88.5t-97 260.5v7zM419 541q-83 0 -119 -42.5t-36 -137.5v-8q0 -97 37 -138t120 -41h23v367h-25z" />
    <glyph glyph-name="oe" unicode="&#x153;" horiz-adv-x="984" 
d="M313 -13q-127 0 -209.5 71.5t-82.5 196.5v8q0 125 83 200t210 75q116 0 189 -73q73 73 188 73q118 0 195 -69t77 -202v-48h-363q4 -48 29.5 -73t68.5 -25q69 0 82 56h183q-11 -92 -79.5 -141t-192.5 -49q-121 0 -192 69q-71 -69 -186 -69zM314 132q90 0 90 126v8
q0 126 -90 126q-92 0 -92 -123v-8q0 -129 92 -129zM773 322q-5 89 -82 89q-37 0 -60.5 -23t-29.5 -66h172z" />
    <glyph glyph-name="Racute" unicode="&#x154;" horiz-adv-x="710" 
d="M65 715h292q299 0 299 -232v-4q0 -132 -121 -187l163 -292h-238l-133 245h-36v-245h-226v715zM344 391q93 0 93 78v4q0 38 -22.5 55t-69.5 17h-54v-154h53zM310 906h201l-103 -149h-149z" />
    <glyph glyph-name="racute" unicode="&#x155;" horiz-adv-x="438" 
d="M47 523h197v-106q47 115 168 113v-184q-82 5 -125 -21.5t-43 -83.5v-241h-197v523zM217 747h193l-104 -169h-141z" />
    <glyph glyph-name="uni0156" unicode="&#x156;" horiz-adv-x="710" 
d="M65 715h292q299 0 299 -232v-4q0 -132 -121 -187l163 -292h-238l-133 245h-36v-245h-226v715zM344 391q93 0 93 78v4q0 38 -22.5 55t-69.5 17h-54v-154h53zM255 -206l39 175l172 -12l-101 -190z" />
    <glyph glyph-name="uni0157" unicode="&#x157;" horiz-adv-x="438" 
d="M47 523h197v-106q47 115 168 113v-184q-82 5 -125 -21.5t-43 -83.5v-241h-197v523zM28 -206l39 175l172 -12l-101 -190z" />
    <glyph glyph-name="Rcaron" unicode="&#x158;" horiz-adv-x="710" 
d="M65 715h292q299 0 299 -232v-4q0 -132 -121 -187l163 -292h-238l-133 245h-36v-245h-226v715zM344 391q93 0 93 78v4q0 38 -22.5 55t-69.5 17h-54v-154h53zM146 906h142l54 -47l54 47h139l-115 -149h-164z" />
    <glyph glyph-name="rcaron" unicode="&#x159;" horiz-adv-x="438" 
d="M47 523h197v-106q47 115 168 113v-184q-82 5 -125 -21.5t-43 -83.5v-241h-197v523zM48 746h137l56 -52l56 52h134l-125 -166h-138z" />
    <glyph glyph-name="Sacute" unicode="&#x15a;" horiz-adv-x="653" 
d="M334 -13q-307 0 -315 242h215q5 -82 100 -82q39 0 59 16t20 43t-21.5 40t-80.5 21q-155 18 -215.5 68.5t-60.5 161.5q0 101 77 164.5t209 63.5q271 0 288 -228h-210q-8 69 -78 69q-34 0 -52.5 -14t-18.5 -38q0 -27 20.5 -39.5t79.5 -20.5q145 -15 212.5 -63t67.5 -161
q0 -104 -79 -173.5t-217 -69.5zM292 906h201l-103 -149h-149z" />
    <glyph glyph-name="sacute" unicode="&#x15b;" horiz-adv-x="523" 
d="M261 -13q-116 0 -180 46.5t-66 134.5h180q6 -28 19.5 -41t45.5 -13q55 0 55 37q0 18 -20 27.5t-72 16.5q-109 12 -156 48t-47 118q0 86 65.5 131.5t167.5 45.5q108 0 169 -40.5t70 -132.5h-177q-11 49 -59 49q-52 0 -52 -36q0 -18 18.5 -26.5t63.5 -13.5
q119 -15 170 -50.5t51 -116.5q0 -93 -65 -138.5t-181 -45.5zM236 747h193l-104 -169h-141z" />
    <glyph glyph-name="Scircumflex" unicode="&#x15c;" horiz-adv-x="653" 
d="M334 -13q-307 0 -315 242h215q5 -82 100 -82q39 0 59 16t20 43t-21.5 40t-80.5 21q-155 18 -215.5 68.5t-60.5 161.5q0 101 77 164.5t209 63.5q271 0 288 -228h-210q-8 69 -78 69q-34 0 -52.5 -14t-18.5 -38q0 -27 20.5 -39.5t79.5 -20.5q145 -15 212.5 -63t67.5 -161
q0 -104 -79 -173.5t-217 -69.5zM244 906h164l110 -149h-142l-54 47l-54 -47h-139z" />
    <glyph glyph-name="scircumflex" unicode="&#x15d;" horiz-adv-x="523" 
d="M261 -13q-116 0 -180 46.5t-66 134.5h180q6 -28 19.5 -41t45.5 -13q55 0 55 37q0 18 -20 27.5t-72 16.5q-109 12 -156 48t-47 118q0 86 65.5 131.5t167.5 45.5q108 0 169 -40.5t70 -132.5h-177q-11 49 -59 49q-52 0 -52 -36q0 -18 18.5 -26.5t63.5 -13.5
q119 -15 170 -50.5t51 -116.5q0 -93 -65 -138.5t-181 -45.5zM190 746h138l120 -166h-137l-56 53l-56 -53h-134z" />
    <glyph glyph-name="uni015E" unicode="&#x15e;" horiz-adv-x="653" 
d="M307 -228q-115 0 -132 94h90q6 -26 35 -26q30 0 30 29q0 30 -33 30q-21 0 -32 -12l-40 41l41 63q-241 24 -247 238h215q5 -82 100 -82q39 0 59 16t20 43t-21.5 40t-80.5 21q-155 18 -215.5 68.5t-60.5 161.5q0 101 77 164.5t209 63.5q271 0 288 -228h-210q-8 69 -78 69
q-34 0 -52.5 -14t-18.5 -38q0 -27 20.5 -39.5t79.5 -20.5q145 -15 212.5 -63t67.5 -161q0 -103 -77 -172t-213 -71l-22 -31q49 4 81.5 -18t32.5 -69q0 -45 -34 -71t-91 -26z" />
    <glyph glyph-name="uni015F" unicode="&#x15f;" horiz-adv-x="523" 
d="M243 -228q-115 0 -132 94h90q6 -26 35 -26q30 0 30 29q0 30 -33 30q-21 0 -32 -12l-40 41l41 63q-89 11 -137 56t-50 121h180q6 -28 19.5 -41t45.5 -13q55 0 55 37q0 18 -20 27.5t-72 16.5q-109 12 -156 48t-47 118q0 86 65.5 131.5t167.5 45.5q108 0 169 -40.5
t70 -132.5h-177q-11 49 -59 49q-52 0 -52 -36q0 -18 18.5 -26.5t63.5 -13.5q119 -15 170 -50.5t51 -116.5q0 -90 -61.5 -136t-169.5 -48l-22 -31q49 4 81.5 -18t32.5 -69q0 -45 -34 -71t-91 -26z" />
    <glyph glyph-name="Scaron" unicode="&#x160;" horiz-adv-x="653" 
d="M334 -13q-307 0 -315 242h215q5 -82 100 -82q39 0 59 16t20 43t-21.5 40t-80.5 21q-155 18 -215.5 68.5t-60.5 161.5q0 101 77 164.5t209 63.5q271 0 288 -228h-210q-8 69 -78 69q-34 0 -52.5 -14t-18.5 -38q0 -27 20.5 -39.5t79.5 -20.5q145 -15 212.5 -63t67.5 -161
q0 -104 -79 -173.5t-217 -69.5zM128 906h142l54 -47l54 47h139l-115 -149h-164z" />
    <glyph glyph-name="scaron" unicode="&#x161;" horiz-adv-x="523" 
d="M261 -13q-116 0 -180 46.5t-66 134.5h180q6 -28 19.5 -41t45.5 -13q55 0 55 37q0 18 -20 27.5t-72 16.5q-109 12 -156 48t-47 118q0 86 65.5 131.5t167.5 45.5q108 0 169 -40.5t70 -132.5h-177q-11 49 -59 49q-52 0 -52 -36q0 -18 18.5 -26.5t63.5 -13.5
q119 -15 170 -50.5t51 -116.5q0 -93 -65 -138.5t-181 -45.5zM62 746h137l56 -52l56 52h134l-125 -166h-138z" />
    <glyph glyph-name="Tcommaaccent" unicode="&#x162;" horiz-adv-x="629" 
d="M200 541h-180v174h589v-174h-181v-541h-228v541zM191 -206l39 175l172 -12l-101 -190z" />
    <glyph glyph-name="tcommaaccent" unicode="&#x163;" horiz-adv-x="396" 
d="M265 -12q-193 0 -193 187v216h-61v132h61v107h197v-107h100v-132h-100v-197q0 -51 51 -51q25 0 49 8v-148q-51 -15 -104 -15zM90 -206l39 175l172 -12l-101 -190z" />
    <glyph glyph-name="Tcaron" unicode="&#x164;" horiz-adv-x="629" 
d="M200 541h-180v174h589v-174h-181v-541h-228v541zM117 906h142l54 -47l54 47h139l-115 -149h-164z" />
    <glyph glyph-name="tcaron" unicode="&#x165;" horiz-adv-x="396" 
d="M265 -12q-193 0 -193 187v216h-61v132h61v107h197v-107h100v-132h-100v-197q0 -51 51 -51q25 0 49 8v-148q-51 -15 -104 -15zM318 750h140l-50 -175h-98z" />
    <glyph glyph-name="Tbar" unicode="&#x166;" horiz-adv-x="629" 
d="M78 408h122v133h-180v174h589v-174h-181v-133h123v-140h-123v-268h-228v268h-122v140z" />
    <glyph glyph-name="tbar" unicode="&#x167;" horiz-adv-x="396" 
d="M12 331h60v60h-60v132h60v107h197v-107h100v-132h-100v-60h100v-96h-100v-42q0 -51 51 -51q27 0 48 9v-148q-55 -16 -103 -16q-193 0 -193 188v60h-60v96z" />
    <glyph glyph-name="Utilde" unicode="&#x168;" horiz-adv-x="776" 
d="M388 -13q-159 0 -243 77.5t-84 230.5v420h226v-411q0 -74 21.5 -106.5t79.5 -32.5t79 32.5t21 107.5v410h228v-418q0 -157 -86.5 -233.5t-241.5 -76.5zM452 755q-32 0 -70.5 16t-50.5 16q-25 0 -30 -30h-109q6 80 40.5 120t85.5 40q31 0 70.5 -16t53.5 -16q24 0 29 30
h110q-6 -79 -42.5 -119.5t-86.5 -40.5z" />
    <glyph glyph-name="utilde" unicode="&#x169;" horiz-adv-x="628" 
d="M218 -13q-78 0 -126.5 49.5t-48.5 143.5v343h197v-309q0 -80 66 -80q78 0 78 91v298h197v-523h-197v81q-49 -94 -166 -94zM378 581q-33 0 -70 16t-48 16q-25 0 -30 -30h-104q5 81 36.5 121.5t81.5 40.5q30 0 68.5 -16t52.5 -16q26 0 30 31h104q-6 -80 -39 -121.5
t-82 -41.5z" />
    <glyph glyph-name="Umacron" unicode="&#x16a;" horiz-adv-x="776" 
d="M388 -13q-159 0 -243 77.5t-84 230.5v420h226v-411q0 -74 21.5 -106.5t79.5 -32.5t79 32.5t21 107.5v410h228v-418q0 -157 -86.5 -233.5t-241.5 -76.5zM219 884h333v-115h-333v115z" />
    <glyph glyph-name="umacron" unicode="&#x16b;" horiz-adv-x="628" 
d="M218 -13q-78 0 -126.5 49.5t-48.5 143.5v343h197v-309q0 -80 66 -80q78 0 78 91v298h197v-523h-197v81q-49 -94 -166 -94zM154 712h316v-107h-316v107z" />
    <glyph glyph-name="Ubreve" unicode="&#x16c;" horiz-adv-x="776" 
d="M388 -13q-159 0 -243 77.5t-84 230.5v420h226v-411q0 -74 21.5 -106.5t79.5 -32.5t79 32.5t21 107.5v410h228v-418q0 -157 -86.5 -233.5t-241.5 -76.5zM386 749q-78 0 -122 41t-49 116h124q5 -42 47 -42t47 42h124q-5 -75 -50.5 -116t-120.5 -41z" />
    <glyph glyph-name="ubreve" unicode="&#x16d;" horiz-adv-x="628" 
d="M218 -13q-78 0 -126.5 49.5t-48.5 143.5v343h197v-309q0 -80 66 -80q78 0 78 91v298h197v-523h-197v81q-49 -94 -166 -94zM312 581q-77 0 -121 42t-48 121h119q5 -45 50 -45q46 0 51 45h118q-5 -79 -50.5 -121t-118.5 -42z" />
    <glyph glyph-name="Uring" unicode="&#x16e;" horiz-adv-x="776" 
d="M388 -13q-159 0 -243 77.5t-84 230.5v420h226v-411q0 -74 21.5 -106.5t79.5 -32.5t79 32.5t21 107.5v410h228v-418q0 -157 -86.5 -233.5t-241.5 -76.5zM386 790q20 0 32.5 14t12.5 36q0 23 -12.5 36.5t-32.5 13.5t-32.5 -13.5t-12.5 -36.5q0 -22 12.5 -36t32.5 -14z
M386 722q-51 0 -86.5 35t-35.5 83t35.5 83t86.5 35t86.5 -35t35.5 -83t-35.5 -83t-86.5 -35z" />
    <glyph glyph-name="uring" unicode="&#x16f;" horiz-adv-x="628" 
d="M218 -13q-78 0 -126.5 49.5t-48.5 143.5v343h197v-309q0 -80 66 -80q78 0 78 91v298h197v-523h-197v81q-49 -94 -166 -94zM311 620q20 0 32 13.5t12 34.5q0 22 -12 35.5t-32 13.5t-32 -13.5t-12 -35.5q0 -21 12 -34.5t32 -13.5zM311 552q-50 0 -85 34t-35 82t35.5 82.5
t84.5 34.5t84.5 -34.5t35.5 -82.5t-35 -82t-85 -34z" />
    <glyph glyph-name="Uhungarumlaut" unicode="&#x170;" horiz-adv-x="776" 
d="M388 -13q-159 0 -243 77.5t-84 230.5v420h226v-411q0 -74 21.5 -106.5t79.5 -32.5t79 32.5t21 107.5v410h228v-418q0 -157 -86.5 -233.5t-241.5 -76.5zM249 906h163l-75 -149h-130zM450 906h164l-75 -149h-130z" />
    <glyph glyph-name="uhungarumlaut" unicode="&#x171;" horiz-adv-x="628" 
d="M218 -13q-78 0 -126.5 49.5t-48.5 143.5v343h197v-309q0 -80 66 -80q78 0 78 91v298h197v-523h-197v81q-49 -94 -166 -94zM195 747h148l-78 -169h-114zM376 747h148l-77 -169h-115z" />
    <glyph glyph-name="Uogonek" unicode="&#x172;" horiz-adv-x="776" 
d="M426 -182q-57 0 -90 21.5t-33 58.5q0 49 64 90q-149 5 -227.5 82t-78.5 225v420h226v-411q0 -74 21.5 -106.5t79.5 -32.5t79 32.5t21 107.5v410h228v-418q0 -208 -158 -280q-62 -27 -75 -42q-12 -13 -12 -29q0 -25 29 -25q17 0 25 4v-90q-32 -17 -99 -17z" />
    <glyph glyph-name="uogonek" unicode="&#x173;" horiz-adv-x="628" 
d="M490 -182q-55 0 -87 22t-32 60q0 25 14.5 45t30 30.5t43.5 24.5h-75v81q-49 -94 -166 -94q-78 0 -126.5 49.5t-48.5 143.5v343h197v-309q0 -80 66 -80q78 0 78 91v298h197v-510q-52 -41 -52 -72q0 -26 30 -26q17 0 25 4v-84q-36 -17 -94 -17z" />
    <glyph glyph-name="Wcircumflex" unicode="&#x174;" horiz-adv-x="1009" 
d="M10 715h229l82 -427l86 427h197l97 -432l87 432h210l-166 -715h-229l-100 427l-101 -427h-226zM425 906h164l110 -149h-142l-54 47l-54 -47h-139z" />
    <glyph glyph-name="wcircumflex" unicode="&#x175;" horiz-adv-x="854" 
d="M5 523h205l68 -293l80 293h158l70 -293l79 293h184l-166 -523h-185l-73 273l-72 -273h-191zM359 746h138l120 -166h-137l-56 53l-56 -53h-134z" />
    <glyph glyph-name="Ycircumflex" unicode="&#x176;" horiz-adv-x="692" 
d="M237 305l-232 410h246l109 -224l110 224h217l-222 -409v-306h-228v305zM273 906h164l110 -149h-142l-54 47l-54 -47h-139z" />
    <glyph glyph-name="ycircumflex" unicode="&#x177;" 
d="M214 52l-209 471h213l99 -261l92 261h186l-279 -697h-187zM242 746h138l120 -166h-137l-56 53l-56 -53h-134z" />
    <glyph glyph-name="Ydieresis" unicode="&#x178;" horiz-adv-x="692" 
d="M237 305l-232 410h246l109 -224l110 224h217l-222 -409v-306h-228v305zM239 752q-38 0 -64.5 26t-26.5 63t26.5 63t64.5 26q39 0 65.5 -25.5t26.5 -63.5q0 -37 -26.5 -63t-65.5 -26zM466 752q-38 0 -64.5 26t-26.5 63t26.5 63t64.5 26q39 0 65.5 -25.5t26.5 -63.5
q0 -37 -26.5 -63t-65.5 -26z" />
    <glyph glyph-name="Zacute" unicode="&#x179;" horiz-adv-x="627" 
d="M10 24l286 521h-246v170h563v-24l-283 -520h266v-171h-586v24zM288 906h201l-103 -149h-149z" />
    <glyph glyph-name="zacute" unicode="&#x17a;" horiz-adv-x="513" 
d="M8 19l214 357h-191v147h471v-20l-224 -357h210v-146h-480v19zM239 747h193l-104 -169h-141z" />
    <glyph glyph-name="Zdotaccent" unicode="&#x17b;" horiz-adv-x="627" 
d="M10 24l286 521h-246v170h563v-24l-283 -520h266v-171h-586v24zM321 752q-45 0 -74 27t-29 68q0 42 29 69t74 27q44 0 73 -27t29 -69q0 -41 -29 -68t-73 -27z" />
    <glyph glyph-name="zdotaccent" unicode="&#x17c;" horiz-adv-x="513" 
d="M8 19l214 357h-191v147h471v-20l-224 -357h210v-146h-480v19zM263 570q-45 0 -74 26.5t-29 68.5t29 69t74 27q44 0 73.5 -27t29.5 -69t-29 -68.5t-74 -26.5z" />
    <glyph glyph-name="Zcaron" unicode="&#x17d;" horiz-adv-x="627" 
d="M10 24l286 521h-246v170h563v-24l-283 -520h266v-171h-586v24zM124 906h142l54 -47l54 47h139l-115 -149h-164z" />
    <glyph glyph-name="zcaron" unicode="&#x17e;" horiz-adv-x="513" 
d="M8 19l214 357h-191v147h471v-20l-224 -357h210v-146h-480v19zM70 746h137l56 -52l56 52h134l-125 -166h-138z" />
    <glyph glyph-name="uni0192" unicode="&#x192;" horiz-adv-x="456" 
d="M22 415h89l17 119q26 191 230 191q43 0 80 -11v-146q-21 7 -49 7q-59 0 -68 -58l-15 -102h111v-132h-129l-65 -465h-195l65 465h-71v132z" />
    <glyph glyph-name="Aringacute" unicode="&#x1fa;" horiz-adv-x="760" 
d="M234 715h293l224 -715h-240l-33 119h-226l-32 -119h-211zM295 273h141l-70 259zM381 808q20 0 32.5 14t12.5 36q0 23 -12.5 36.5t-32.5 13.5t-32.5 -13.5t-12.5 -36.5q0 -22 12.5 -36t32.5 -14zM381 740q-51 0 -86.5 35t-35.5 83t35.5 83t86.5 35t86.5 -35t35.5 -83
t-35.5 -83t-86.5 -35zM357 1142h201l-103 -149h-149z" />
    <glyph glyph-name="aringacute" unicode="&#x1fb;" horiz-adv-x="585" 
d="M198 -13q-77 0 -127.5 39.5t-50.5 118.5q0 90 70.5 130.5t210.5 40.5h45v9q0 38 -12 57t-49 19q-56 0 -62 -56h-184q6 94 74.5 143.5t183.5 49.5q117 0 180.5 -50t63.5 -150v-338h-190v60q-41 -73 -153 -73zM269 119q34 0 55.5 17.5t21.5 46.5v27h-42q-50 0 -70 -11
t-20 -39q0 -41 55 -41zM295 638q20 0 32 13.5t12 34.5q0 22 -12 35.5t-32 13.5t-32 -13.5t-12 -35.5q0 -21 12 -34.5t32 -13.5zM295 570q-50 0 -85 34t-35 82t35.5 82.5t84.5 34.5t84.5 -34.5t35.5 -82.5t-35 -82t-85 -34zM276 978h201l-103 -149h-149z" />
    <glyph glyph-name="AEacute" unicode="&#x1fc;" horiz-adv-x="1012" 
d="M320 715h645v-174h-275v-101h217v-159h-217v-107h291v-174h-516v135h-187l-56 -135h-215zM340 285h125v256h-18zM582 906h201l-103 -149h-149z" />
    <glyph glyph-name="aeacute" unicode="&#x1fd;" horiz-adv-x="913" 
d="M626 -13q-142 0 -206 88q-66 -88 -203 -88q-88 0 -143 39t-55 119q0 90 70.5 132t209.5 42h49v6q0 38 -13.5 57t-49.5 19q-56 0 -63 -56h-184q6 94 74 143.5t180 49.5q118 0 166 -57q64 57 165 57q118 0 193.5 -68.5t75.5 -203.5v-47h-357q8 -98 94 -98q68 0 81 56h182
q-11 -92 -78.5 -141t-187.5 -49zM703 319q-5 92 -80 92q-36 0 -59 -23.5t-28 -68.5h167zM269 119q37 0 58 17.5t21 46.5v33h-46q-47 0 -68 -11.5t-21 -39.5q0 -46 56 -46zM451 747h193l-104 -169h-141z" />
    <glyph glyph-name="Oslashacute" unicode="&#x1fe;" horiz-adv-x="820" 
d="M34 23l78 82q-85 97 -85 248v8q0 162 109 263t273 101q132 0 231 -62l73 78l57 -56l-68 -72q92 -94 92 -246v-8q0 -168 -106.5 -270t-282.5 -102q-141 0 -233 65l-81 -85zM410 165q70 0 109.5 50t39.5 140v8q0 49 -12 86l-235 -248q38 -36 98 -36zM261 354q0 -50 10 -81
l231 245q-38 31 -93 31q-70 0 -109 -48t-39 -139v-8zM377 906h201l-103 -149h-149z" />
    <glyph glyph-name="oslashacute" unicode="&#x1ff;" horiz-adv-x="626" 
d="M22 7l64 68q-65 71 -65 180v8q0 125 83 200t210 75q96 0 167 -43l65 69l50 -46l-62 -66q70 -72 70 -184v-8q0 -126 -82.5 -199.5t-208.5 -73.5q-103 0 -173 45l-67 -71zM314 131q93 0 93 127v8q0 26 -4 46l-150 -160q23 -21 61 -21zM219 261q0 -23 3 -42l147 157
q-23 17 -55 17q-95 0 -95 -124v-8zM289 747h193l-104 -169h-141z" />
    <glyph glyph-name="uni0218" unicode="&#x218;" horiz-adv-x="655" 
d="M334 -13q-307 0 -315 242h215q5 -82 100 -82q39 0 59 16t20 43t-21.5 40t-80.5 21q-155 18 -215.5 68.5t-60.5 161.5q0 101 77 164.5t209 63.5q271 0 288 -228h-210q-8 69 -78 69q-34 0 -52.5 -14t-18.5 -38q0 -27 20.5 -39.5t79.5 -20.5q145 -15 212.5 -63t67.5 -161
q0 -104 -79 -173.5t-217 -69.5zM202 -206l39 175l172 -12l-101 -190z" />
    <glyph glyph-name="uni0219" unicode="&#x219;" horiz-adv-x="521" 
d="M259 -13q-116 0 -180 46.5t-66 134.5h180q6 -28 19.5 -41t45.5 -13q55 0 55 37q0 18 -20 27.5t-72 16.5q-109 12 -156 48t-47 118q0 86 65.5 131.5t167.5 45.5q108 0 169 -40.5t70 -132.5h-177q-11 49 -59 49q-52 0 -52 -36q0 -18 18.5 -26.5t63.5 -13.5
q119 -15 170 -50.5t51 -116.5q0 -93 -65 -138.5t-181 -45.5zM135 -206l39 175l172 -12l-101 -190z" />
    <glyph glyph-name="uni021A" unicode="&#x21a;" horiz-adv-x="629" 
d="M200 541h-180v174h589v-174h-181v-541h-228v541zM191 -206l39 175l172 -12l-101 -190z" />
    <glyph glyph-name="uni021B" unicode="&#x21b;" horiz-adv-x="396" 
d="M265 -12q-193 0 -193 187v216h-61v132h61v107h197v-107h100v-132h-100v-197q0 -51 51 -51q25 0 49 8v-148q-51 -15 -104 -15zM90 -206l39 175l172 -12l-101 -190z" />
    <glyph glyph-name="uni0237" unicode="&#x237;" horiz-adv-x="303" 
d="M-9 -42q33 2 47 15t14 43v507h197v-512q0 -95 -57 -144.5t-201 -49.5v141z" />
    <glyph glyph-name="uni02BC" unicode="&#x2bc;" horiz-adv-x="321" 
d="M42 459l78 269l171 -55l-140 -256z" />
    <glyph glyph-name="circumflex" unicode="&#x2c6;" horiz-adv-x="400" 
d="M133 746h138l120 -166h-137l-56 53l-56 -53h-134z" />
    <glyph glyph-name="caron" unicode="&#x2c7;" horiz-adv-x="400" 
d="M8 746h137l56 -52l56 52h134l-125 -166h-138z" />
    <glyph glyph-name="breve" unicode="&#x2d8;" horiz-adv-x="400" 
d="M200 581q-77 0 -121 42t-48 121h119q5 -45 50 -45q46 0 51 45h118q-5 -79 -50.5 -121t-118.5 -42z" />
    <glyph glyph-name="dotaccent" unicode="&#x2d9;" horiz-adv-x="400" 
d="M200 570q-45 0 -74 26.5t-29 68.5t29 69t74 27q44 0 73.5 -27t29.5 -69t-29 -68.5t-74 -26.5z" />
    <glyph glyph-name="ring" unicode="&#x2da;" horiz-adv-x="400" 
d="M200 642q20 0 32 13.5t12 34.5q0 22 -12 35.5t-32 13.5t-32 -13.5t-12 -35.5q0 -21 12 -34.5t32 -13.5zM200 574q-50 0 -85 34t-35 82t35.5 82.5t84.5 34.5t84.5 -34.5t35.5 -82.5t-35 -82t-85 -34z" />
    <glyph glyph-name="ogonek" unicode="&#x2db;" horiz-adv-x="400" 
d="M194 -182q-51 0 -85 20.5t-34 57.5q0 36 24 59.5t64 44.5h108q-38 -32 -38 -59q0 -26 30 -26q17 0 25 4v-84q-36 -17 -94 -17z" />
    <glyph glyph-name="tilde" unicode="&#x2dc;" horiz-adv-x="400" 
d="M266 581q-33 0 -70 16t-48 16q-25 0 -30 -30h-104q5 81 36.5 121.5t81.5 40.5q30 0 68.5 -16t52.5 -16q26 0 30 31h104q-6 -80 -39 -121.5t-82 -41.5z" />
    <glyph glyph-name="hungarumlaut" unicode="&#x2dd;" horiz-adv-x="400" 
d="M91 747h148l-78 -169h-114zM272 747h148l-77 -169h-115z" />
    <glyph glyph-name="uni037E" unicode="&#x37e;" horiz-adv-x="326" 
d="M8 -79l81 272l182 -63l-148 -252zM178 272q-47 0 -78.5 31t-31.5 76t31.5 76.5t78.5 31.5q48 0 80 -31.5t32 -76.5t-32 -76t-80 -31z" />
    <glyph glyph-name="tonos" unicode="&#x384;" horiz-adv-x="400" 
d="M175 747h193l-104 -169h-141z" />
    <glyph glyph-name="dieresistonos" unicode="&#x385;" horiz-adv-x="494" 
d="M213 768h142l-84 -185h-105zM421 578q-33 0 -56.5 23t-23.5 55t23.5 55t56.5 23q35 0 57.5 -22.5t22.5 -55.5t-22.5 -55.5t-57.5 -22.5zM72 578q-33 0 -56.5 23t-23.5 55t23.5 55t56.5 23q34 0 57.5 -23t23.5 -55t-23.5 -55t-57.5 -23z" />
    <glyph glyph-name="Alphatonos" unicode="&#x386;" horiz-adv-x="760" 
d="M234 715h293l224 -715h-240l-33 119h-226l-32 -119h-211zM295 273h141l-70 259zM-13 716h193l-104 -169h-141z" />
    <glyph glyph-name="anoteleia" unicode="&#x387;" horiz-adv-x="302" 
d="M150 219q-47 0 -78.5 31t-31.5 76t31.5 76.5t78.5 31.5q48 0 80 -31.5t32 -76.5t-32 -76t-80 -31z" />
    <glyph glyph-name="Epsilontonos" unicode="&#x388;" horiz-adv-x="620" 
d="M65 715h508v-174h-282v-101h224v-159h-224v-107h298v-174h-524v715zM-155 716h193l-104 -169h-141z" />
    <glyph glyph-name="Etatonos" unicode="&#x389;" horiz-adv-x="794" 
d="M65 715h227v-264h210v264h227v-715h-227v275h-210v-275h-227v715zM-155 716h193l-104 -169h-141z" />
    <glyph glyph-name="Iotatonos" unicode="&#x38a;" horiz-adv-x="366" 
d="M68 715h229v-715h-229v715zM-155 716h193l-104 -169h-141z" />
    <glyph glyph-name="Omicrontonos" unicode="&#x38c;" horiz-adv-x="820" 
d="M411 165q67 0 106.5 50t39.5 139v8q0 90 -39.5 138.5t-108.5 48.5q-67 0 -106 -48t-39 -139v-8q0 -91 39 -140t108 -49zM405 -13q-174 0 -276 100.5t-102 265.5v8q0 163 109 264t273 101q169 0 276.5 -96.5t107.5 -262.5v-8q0 -168 -106 -270t-282 -102zM-93 716h193
l-104 -169h-141z" />
    <glyph glyph-name="Upsilontonos" unicode="&#x38e;" horiz-adv-x="692" 
d="M237 305l-232 410h246l109 -224l110 224h217l-222 -409v-306h-228v305zM-203 716h193l-104 -169h-141z" />
    <glyph glyph-name="Omegatonos" unicode="&#x38f;" horiz-adv-x="826" 
d="M264 351q0 -149 107 -237v-114h-338v167h98q-43 31 -71.5 88t-28.5 117v6q0 151 107.5 249t273.5 98q170 0 276.5 -93.5t106.5 -248.5v-6q0 -65 -28 -122t-71 -88h97v-167h-338v114q107 87 107 237v8q0 93 -39 141.5t-111 48.5q-70 0 -109 -48.5t-39 -141.5v-8zM-93 716
h193l-104 -169h-141z" />
    <glyph glyph-name="iotadieresistonos" unicode="&#x390;" horiz-adv-x="302" 
d="M53 523h196v-523h-196v523zM141 768h142l-84 -185h-105zM349 578q-33 0 -56.5 23t-23.5 55t23.5 55t56.5 23q35 0 57.5 -22.5t22.5 -55.5t-22.5 -55.5t-57.5 -22.5zM0 578q-33 0 -56.5 23t-23.5 55t23.5 55t56.5 23q34 0 57.5 -23t23.5 -55t-23.5 -55t-57.5 -23z" />
    <glyph glyph-name="Alpha" unicode="&#x391;" horiz-adv-x="760" 
d="M234 715h293l224 -715h-240l-33 119h-226l-32 -119h-211zM295 273h141l-70 259z" />
    <glyph glyph-name="Beta" unicode="&#x392;" horiz-adv-x="690" 
d="M65 715h338q125 0 184.5 -51t59.5 -136v-4q0 -125 -124 -154q66 -12 104.5 -53.5t38.5 -113.5v-4q0 -199 -265 -199h-336v715zM358 149q85 0 85 75v4q0 73 -90 73h-67v-152h72zM355 436q42 0 60 15t18 48v4q0 64 -79 64h-68v-131h69z" />
    <glyph glyph-name="Gamma" unicode="&#x393;" horiz-adv-x="575" 
d="M65 715h490v-175h-262v-540h-228v715z" />
    <glyph glyph-name="uni0394" unicode="&#x394;" horiz-adv-x="772" 
d="M16 24l215 691h312l213 -691v-24h-740v24zM266 173h215l-107 383z" />
    <glyph glyph-name="Epsilon" unicode="&#x395;" horiz-adv-x="620" 
d="M65 715h508v-174h-282v-101h224v-159h-224v-107h298v-174h-524v715z" />
    <glyph glyph-name="Zeta" unicode="&#x396;" horiz-adv-x="627" 
d="M10 24l286 521h-246v170h563v-24l-283 -520h266v-171h-586v24z" />
    <glyph glyph-name="Eta" unicode="&#x397;" horiz-adv-x="794" 
d="M65 715h227v-264h210v264h227v-715h-227v275h-210v-275h-227v715z" />
    <glyph glyph-name="Theta" unicode="&#x398;" horiz-adv-x="839" 
d="M415 -13q-181 0 -284.5 98t-103.5 268v8q0 168 110 266t282 98q176 0 284.5 -93.5t108.5 -264.5v-8q0 -173 -107 -272.5t-290 -99.5zM420 160q73 0 116 52.5t43 142.5v8q0 90 -43 140t-117 50t-116 -49.5t-42 -141.5v-8q0 -91 43 -142.5t116 -51.5zM333 427h173v-135
h-173v135z" />
    <glyph glyph-name="Iota" unicode="&#x399;" horiz-adv-x="366" 
d="M68 715h229v-715h-229v715z" />
    <glyph glyph-name="Kappa" unicode="&#x39a;" horiz-adv-x="746" 
d="M65 715h227v-271l198 271h235l-251 -330l265 -385h-261l-186 286v-286h-227v715z" />
    <glyph glyph-name="Lambda" unicode="&#x39b;" horiz-adv-x="741" 
d="M732 0h-245l-132 471l-134 -471h-212l229 715h263z" />
    <glyph glyph-name="Mu" unicode="&#x39c;" horiz-adv-x="958" 
d="M65 715h294l121 -347l123 347h288v-715h-225v422l-163 -422h-76l-160 422v-422h-202v715z" />
    <glyph glyph-name="Nu" unicode="&#x39d;" horiz-adv-x="787" 
d="M65 715h254l203 -378v378h199v-715h-217l-239 428v-428h-200v715z" />
    <glyph glyph-name="Xi" unicode="&#x39e;" horiz-adv-x="632" 
d="M594 715v-179h-555v179h555zM547 441v-164h-462v164h462zM32 180h568v-180h-568v180z" />
    <glyph glyph-name="Omicron" unicode="&#x39f;" horiz-adv-x="820" 
d="M411 165q67 0 106.5 50t39.5 139v8q0 90 -39.5 138.5t-108.5 48.5q-67 0 -106 -48t-39 -139v-8q0 -91 39 -140t108 -49zM405 -13q-174 0 -276 100.5t-102 265.5v8q0 163 109 264t273 101q169 0 276.5 -96.5t107.5 -262.5v-8q0 -168 -106 -270t-282 -102z" />
    <glyph glyph-name="Pi" unicode="&#x3a0;" horiz-adv-x="788" 
d="M65 715h658v-715h-227v533h-203v-533h-228v715z" />
    <glyph glyph-name="Rho" unicode="&#x3a1;" horiz-adv-x="665" 
d="M65 715h285q294 0 294 -245v-4q0 -113 -72.5 -173t-211.5 -60h-69v-233h-226v715zM338 385q91 0 91 80v4q0 41 -22 59t-68 18h-48v-161h47z" />
    <glyph glyph-name="Sigma" unicode="&#x3a3;" horiz-adv-x="616" 
d="M42 548v167h529v-168h-268l152 -176l-151 -194h281v-177h-547v142l165 217z" />
    <glyph glyph-name="Tau" unicode="&#x3a4;" horiz-adv-x="629" 
d="M200 541h-180v174h589v-174h-181v-541h-228v541z" />
    <glyph glyph-name="Upsilon" unicode="&#x3a5;" horiz-adv-x="692" 
d="M237 305l-232 410h246l109 -224l110 224h217l-222 -409v-306h-228v305z" />
    <glyph glyph-name="Phi" unicode="&#x3a6;" horiz-adv-x="972" 
d="M383 41q-169 8 -262.5 96t-93.5 222v7q0 132 98.5 219.5t257.5 97.5v60h204v-60q163 -10 260.5 -94t97.5 -217v-7q0 -137 -94.5 -225.5t-263.5 -98.5v-69h-204v69zM247 360q0 -65 35 -105t101 -51v317q-136 -22 -136 -154v-7zM725 367q0 63 -36 103t-102 51v-318
q66 11 102 52.5t36 104.5v7z" />
    <glyph glyph-name="Chi" unicode="&#x3a7;" horiz-adv-x="773" 
d="M236 368l-202 347h259l100 -201l98 201h232l-187 -339l219 -376h-258l-123 235l-123 -235h-233z" />
    <glyph glyph-name="Psi" unicode="&#x3a8;" horiz-adv-x="920" 
d="M360 160q-157 8 -237.5 90t-80.5 213v252h215v-237q0 -67 23.5 -102.5t79.5 -44.5v384h205v-381q110 23 110 150v231h204v-237q0 -135 -79 -219t-235 -98v-161h-205v160z" />
    <glyph glyph-name="uni03A9" unicode="&#x3a9;" horiz-adv-x="826" 
d="M264 351q0 -149 107 -237v-114h-338v167h98q-43 31 -71.5 88t-28.5 117v6q0 151 107.5 249t273.5 98q170 0 276.5 -93.5t106.5 -248.5v-6q0 -65 -28 -122t-71 -88h97v-167h-338v114q107 87 107 237v8q0 93 -39 141.5t-111 48.5q-70 0 -109 -48.5t-39 -141.5v-8z" />
    <glyph glyph-name="Iotadieresis" unicode="&#x3aa;" horiz-adv-x="366" 
d="M68 715h229v-715h-229v715zM69 752q-38 0 -64.5 26t-26.5 63t26.5 63t64.5 26q39 0 65.5 -25.5t26.5 -63.5q0 -37 -26.5 -63t-65.5 -26zM296 752q-38 0 -64.5 26t-26.5 63t26.5 63t64.5 26q39 0 65.5 -25.5t26.5 -63.5q0 -37 -26.5 -63t-65.5 -26z" />
    <glyph glyph-name="Upsilondieresis" unicode="&#x3ab;" horiz-adv-x="692" 
d="M237 305l-232 410h246l109 -224l110 224h217l-222 -409v-306h-228v305zM241 752q-38 0 -64.5 26t-26.5 63t26.5 63t64.5 26q39 0 65.5 -25.5t26.5 -63.5q0 -37 -26.5 -63t-65.5 -26zM468 752q-38 0 -64.5 26t-26.5 63t26.5 63t64.5 26q39 0 65.5 -25.5t26.5 -63.5
q0 -37 -26.5 -63t-65.5 -26z" />
    <glyph glyph-name="alphatonos" unicode="&#x3ac;" horiz-adv-x="638" 
d="M310 137q42 0 65.5 31.5t23.5 91.5v8q0 123 -87 123q-89 0 -89 -124v-8q0 -122 87 -122zM239 -13q-92 0 -154 69t-62 200v8q0 130 62 201.5t154 71.5q107 0 154 -86v72h197v-523h-197v83q-49 -96 -154 -96zM315 747h193l-104 -169h-141z" />
    <glyph glyph-name="epsilontonos" unicode="&#x3ad;" horiz-adv-x="583" 
d="M134 273q-43 9 -71.5 40t-28.5 74q0 66 62.5 108.5t196.5 42.5q72 0 127 -16.5t94 -57.5t48 -105h-184q-7 52 -73 52q-70 0 -70 -48q0 -17 11.5 -30t37.5 -13h93v-103h-91q-64 0 -64 -46q0 -49 83 -49q78 0 83 56h179q-17 -191 -273 -191q-137 0 -204.5 42t-67.5 120
q0 46 29.5 79.5t82.5 44.5zM287 747h193l-104 -169h-141z" />
    <glyph glyph-name="etatonos" unicode="&#x3ae;" horiz-adv-x="629" 
d="M47 523h197v-84q51 99 173 99q77 0 122.5 -49.5t45.5 -144.5v-518h-196v474q0 80 -67 80q-78 0 -78 -91v-289h-197v523zM292 747h193l-104 -169h-141z" />
    <glyph glyph-name="iotatonos" unicode="&#x3af;" horiz-adv-x="302" 
d="M53 523h196v-523h-196v523zM135 747h193l-104 -169h-141z" />
    <glyph glyph-name="upsilondieresistonos" unicode="&#x3b0;" horiz-adv-x="620" 
d="M309 -13q-131 0 -199.5 67.5t-68.5 183.5v285h197v-298q0 -91 72 -91t72 89v300h197v-281q0 -119 -68.5 -187t-201.5 -68zM281 768h142l-84 -185h-105zM489 578q-33 0 -56.5 23t-23.5 55t23.5 55t56.5 23q35 0 57.5 -22.5t22.5 -55.5t-22.5 -55.5t-57.5 -22.5zM140 578
q-33 0 -56.5 23t-23.5 55t23.5 55t56.5 23q34 0 57.5 -23t23.5 -55t-23.5 -55t-57.5 -23z" />
    <glyph glyph-name="alpha" unicode="&#x3b1;" horiz-adv-x="638" 
d="M310 137q42 0 65.5 31.5t23.5 91.5v8q0 123 -87 123q-89 0 -89 -124v-8q0 -122 87 -122zM239 -13q-92 0 -154 69t-62 200v8q0 130 62 201.5t154 71.5q107 0 154 -86v72h197v-523h-197v83q-49 -96 -154 -96z" />
    <glyph glyph-name="beta" unicode="&#x3b2;" horiz-adv-x="640" 
d="M306 466q51 -2 76 20t25 60v5q0 31 -22.5 51.5t-59.5 20.5t-59 -25.5t-22 -71.5v-285q0 -48 25.5 -75.5t61.5 -27.5q40 0 64 25t24 74v6q0 99 -113 95v128zM471 413q69 -17 108.5 -68t39.5 -121v-7q0 -99 -63.5 -161.5t-162.5 -62.5q-47 0 -87.5 22t-61.5 63v-252h-197
v689q0 123 75 183t200 60q118 0 190 -50.5t72 -140.5v-4q0 -51 -31.5 -93.5t-81.5 -56.5z" />
    <glyph glyph-name="gamma" unicode="&#x3b3;" horiz-adv-x="624" 
d="M432 523h188l-210 -516v-181h-195v181l-211 516h212l108 -309z" />
    <glyph glyph-name="delta" unicode="&#x3b4;" horiz-adv-x="624" 
d="M106 749h441v-148h-188l117 -115q68 -66 97 -115t29 -117v-8q0 -113 -83.5 -186t-207.5 -73q-126 0 -208 69.5t-82 187.5v7q0 94 59.5 159.5t156.5 65.5q15 0 27 -4l-158 154v123zM402 256q0 51 -24 82t-66 31q-44 0 -67 -29t-23 -82v-7q0 -119 90 -119t90 116v8z" />
    <glyph glyph-name="epsilon" unicode="&#x3b5;" horiz-adv-x="583" 
d="M134 273q-43 9 -71.5 40t-28.5 74q0 66 62.5 108.5t196.5 42.5q72 0 127 -16.5t94 -57.5t48 -105h-184q-7 52 -73 52q-70 0 -70 -48q0 -17 11.5 -30t37.5 -13h93v-103h-91q-64 0 -64 -46q0 -49 83 -49q78 0 83 56h179q-17 -191 -273 -191q-137 0 -204.5 42t-67.5 120
q0 46 29.5 79.5t82.5 44.5z" />
    <glyph glyph-name="zeta" unicode="&#x3b6;" horiz-adv-x="520" 
d="M258 0q-115 0 -176 56.5t-61 156.5q0 90 56 190t139 181h-159v165h466v-40q-124 -124 -211.5 -261t-87.5 -215q0 -41 21.5 -58.5t65.5 -17.5h39q82 0 123 -40.5t41 -109.5q0 -58 -30 -153h-151q19 55 19 90q0 30 -12.5 43t-41.5 13h-40z" />
    <glyph glyph-name="eta" unicode="&#x3b7;" horiz-adv-x="629" 
d="M47 523h197v-84q51 99 173 99q77 0 122.5 -49.5t45.5 -144.5v-518h-196v474q0 80 -67 80q-78 0 -78 -91v-289h-197v523z" />
    <glyph glyph-name="theta" unicode="&#x3b8;" horiz-adv-x="642" 
d="M607 364q0 -177 -71.5 -277t-214.5 -100t-215 98t-72 273v30q0 171 76.5 270.5t210.5 99.5t210 -95t76 -270v-29zM321 614q-52 0 -74.5 -43t-24.5 -131h197q-2 88 -24.5 131t-73.5 43zM322 130q50 0 72.5 44.5t24.5 129.5h-197q1 -87 24 -130.5t76 -43.5z" />
    <glyph glyph-name="iota" unicode="&#x3b9;" horiz-adv-x="302" 
d="M53 523h196v-523h-196v523z" />
    <glyph glyph-name="kappa" unicode="&#x3ba;" horiz-adv-x="593" 
d="M244 313l139 210h203l-171 -243l176 -280h-218l-129 214v-214h-197v523h197v-210z" />
    <glyph glyph-name="lambda" unicode="&#x3bb;" horiz-adv-x="611" 
d="M185 557q-12 30 -28 41.5t-45 11.5q-24 0 -66 -11v141q51 18 125 18q64 0 111 -33.5t82 -125.5l157 -414q15 -38 45 -38q20 0 40 4v-147q-37 -13 -96 -13q-111 0 -155 123l-63 179l-91 -293h-204l205 514z" />
    <glyph glyph-name="uni03BC" unicode="&#x3bc;" horiz-adv-x="630" 
d="M47 523h197v-314q0 -78 66 -78q78 0 78 90v302h197v-523h-193v69q-24 -68 -86 -68q-40 0 -62 34v-209h-197v697z" />
    <glyph glyph-name="nu" unicode="&#x3bd;" horiz-adv-x="604" 
d="M5 523h210l99 -318l100 318h185l-191 -523h-211z" />
    <glyph glyph-name="xi" unicode="&#x3be;" horiz-adv-x="531" 
d="M364 156q81 0 121 -40.5t40 -109.5q0 -53 -30 -152h-151q19 55 19 90q0 30 -12.5 43t-41.5 13h-31q-119 0 -188 55t-69 154q0 68 42 115.5t107 59.5q-103 35 -103 120q0 81 89 111h-120v134h470v-154h-144q-101 0 -101 -68q0 -30 23.5 -48t65.5 -18h112v-157h-136
q-104 0 -104 -78q0 -70 96 -70h46z" />
    <glyph glyph-name="omicron" unicode="&#x3bf;" horiz-adv-x="626" 
d="M314 132q90 0 90 127v7q0 126 -90 126q-93 0 -93 -123v-8q0 -129 93 -129zM313 -13q-127 0 -209 71.5t-82 196.5v8q0 125 82.5 199.5t209.5 74.5q126 0 208 -73t82 -196v-8q0 -126 -82.5 -199.5t-208.5 -73.5z" />
    <glyph glyph-name="pi" unicode="&#x3c0;" horiz-adv-x="666" 
d="M394 382h-123v-382h-195v382h-64v141h642v-141h-64v-382h-196v382z" />
    <glyph glyph-name="rho" unicode="&#x3c1;" horiz-adv-x="631" 
d="M321 132q88 0 88 126v8q0 126 -90 126q-91 0 -91 -123v-8q0 -129 93 -129zM364 -4q-40 0 -77 20t-56 57v-247h-198v437q0 126 80 200.5t206 74.5q125 0 207.5 -73.5t82.5 -196.5v-8q0 -122 -69.5 -193t-175.5 -71z" />
    <glyph glyph-name="uni03C2" unicode="&#x3c2;" horiz-adv-x="585" 
d="M222 264q0 -112 105 -112h22q83 0 128.5 -39.5t45.5 -106.5q0 -47 -31 -152h-150q1 7 6.5 27.5t9 37.5t3.5 28q0 29 -13 41t-41 12h-14q-120 0 -196 69t-76 186v8q0 128 81 201.5t203 73.5q109 0 182 -53t79 -168h-185q-11 69 -76 69q-83 0 -83 -113v-9z" />
    <glyph glyph-name="sigma" unicode="&#x3c3;" horiz-adv-x="655" 
d="M313 -13q-127 0 -209.5 71.5t-82.5 196.5v8q0 123 80 191.5t208 68.5h334v-141h-114q34 -18 52 -53.5t18 -75.5v-7q0 -120 -80.5 -189.5t-205.5 -69.5zM314 132q90 0 90 126v10q0 123 -90 123q-92 0 -92 -120v-10q0 -129 92 -129z" />
    <glyph glyph-name="tau" unicode="&#x3c4;" horiz-adv-x="498" 
d="M332 -8q-189 0 -189 201v189h-131v141h467v-141h-139v-170q0 -38 14.5 -54t49.5 -16q23 0 53 6v-145q-49 -11 -125 -11z" />
    <glyph glyph-name="upsilon" unicode="&#x3c5;" horiz-adv-x="620" 
d="M309 -13q-131 0 -199.5 67.5t-68.5 183.5v285h197v-298q0 -91 72 -91t72 89v300h197v-281q0 -119 -68.5 -187t-201.5 -68z" />
    <glyph glyph-name="phi" unicode="&#x3c6;" horiz-adv-x="842" 
d="M820 262q0 -129 -83.5 -197.5t-218.5 -70.5v-168h-194v168q-139 2 -221 69t-82 197v8q0 109 64.5 178.5t188.5 84.5v-144q-32 -12 -45.5 -41t-13.5 -83v-8q0 -61 24.5 -90.5t84.5 -34.5v400q56 8 140 8q164 0 260 -72.5t96 -195.5v-8zM627 268q0 126 -109 127v-265
q60 0 84.5 34t24.5 96v8z" />
    <glyph glyph-name="chi" unicode="&#x3c7;" horiz-adv-x="606" 
d="M189 196l-82 145q-20 36 -58 36q-19 0 -37 -6v141q48 22 102 22t90 -19.5t62 -68.5l57 -109l78 186h198l-179 -342l99 -171q20 -34 52 -34q17 0 32 4v-145q-43 -15 -101 -15q-96 0 -155 105l-62 117l-96 -216h-190z" />
    <glyph glyph-name="psi" unicode="&#x3c8;" horiz-adv-x="851" 
d="M234 254q0 -109 94 -119v388h194v-388q95 10 95 119v269h195v-265q0 -127 -81.5 -193t-208.5 -70v-169h-194v169q-132 2 -211 66.5t-79 194.5v267h196v-269z" />
    <glyph glyph-name="omega" unicode="&#x3c9;" horiz-adv-x="843" 
d="M518 214q0 -83 48 -83q56 0 56 115v8q0 61 -18 95.5t-64 45.5v143q137 -7 209 -82.5t72 -203.5v-8q0 -115 -61 -186t-168 -71q-123 0 -171 106q-18 -44 -61 -75t-108 -31q-111 0 -171 70.5t-60 186.5v8q0 129 72.5 204t209.5 82v-143q-46 -11 -63.5 -45t-17.5 -95v-8
q0 -116 55 -116q48 0 48 83v135h193v-135z" />
    <glyph glyph-name="iotadieresis" unicode="&#x3ca;" horiz-adv-x="302" 
d="M53 523h196v-523h-196v523zM43 570q-38 0 -64.5 26t-26.5 63t26.5 63t64.5 26q39 0 65.5 -26t26.5 -63t-26.5 -63t-65.5 -26zM260 570q-38 0 -64 26t-26 63t26 63t64 26q39 0 65.5 -26t26.5 -63t-26.5 -63t-65.5 -26z" />
    <glyph glyph-name="upsilondieresis" unicode="&#x3cb;" horiz-adv-x="620" 
d="M309 -13q-131 0 -199.5 67.5t-68.5 183.5v285h197v-298q0 -91 72 -91t72 89v300h197v-281q0 -119 -68.5 -187t-201.5 -68zM200 570q-38 0 -64.5 26t-26.5 63t26.5 63t64.5 26q39 0 65.5 -26t26.5 -63t-26.5 -63t-65.5 -26zM417 570q-38 0 -64 26t-26 63t26 63t64 26
q39 0 65.5 -26t26.5 -63t-26.5 -63t-65.5 -26z" />
    <glyph glyph-name="omicrontonos" unicode="&#x3cc;" horiz-adv-x="626" 
d="M314 132q90 0 90 127v7q0 126 -90 126q-93 0 -93 -123v-8q0 -129 93 -129zM313 -13q-127 0 -209 71.5t-82 196.5v8q0 125 82.5 199.5t209.5 74.5q126 0 208 -73t82 -196v-8q0 -126 -82.5 -199.5t-208.5 -73.5zM293 747h193l-104 -169h-141z" />
    <glyph glyph-name="upsilontonos" unicode="&#x3cd;" horiz-adv-x="620" 
d="M309 -13q-131 0 -199.5 67.5t-68.5 183.5v285h197v-298q0 -91 72 -91t72 89v300h197v-281q0 -119 -68.5 -187t-201.5 -68zM289 747h193l-104 -169h-141z" />
    <glyph glyph-name="omegatonos" unicode="&#x3ce;" horiz-adv-x="843" 
d="M518 214q0 -83 48 -83q56 0 56 115v8q0 61 -18 95.5t-64 45.5v143q137 -7 209 -82.5t72 -203.5v-8q0 -115 -61 -186t-168 -71q-123 0 -171 106q-18 -44 -61 -75t-108 -31q-111 0 -171 70.5t-60 186.5v8q0 129 72.5 204t209.5 82v-143q-46 -11 -63.5 -45t-17.5 -95v-8
q0 -116 55 -116q48 0 48 83v135h193v-135zM404 747h193l-104 -169h-141z" />
    <glyph glyph-name="uni0401" unicode="&#x401;" horiz-adv-x="620" 
d="M65 715h508v-174h-282v-101h224v-159h-224v-107h298v-174h-524v715zM213 752q-38 0 -64.5 26t-26.5 63t26.5 63t64.5 26q39 0 65.5 -25.5t26.5 -63.5q0 -37 -26.5 -63t-65.5 -26zM440 752q-38 0 -64.5 26t-26.5 63t26.5 63t64.5 26q39 0 65.5 -25.5t26.5 -63.5
q0 -37 -26.5 -63t-65.5 -26z" />
    <glyph glyph-name="uni0402" unicode="&#x402;" horiz-adv-x="855" 
d="M428 410q18 10 42 21q54 22 120 22q113 0 175 -64.5t62 -171.5q0 -114 -58.5 -177.5t-176.5 -63.5q-64 0 -115 24v156q22 -13 61 -13q63 0 63 71q0 68 -81 68q-34 0 -68 -15q-12 -5 -24 -14v-253h-228v541h-180v174h589v-174h-181v-131z" />
    <glyph glyph-name="uni0403" unicode="&#x403;" horiz-adv-x="574" 
d="M65 715h485v-175h-257v-540h-228v715zM279 906h201l-103 -149h-149z" />
    <glyph glyph-name="uni0404" unicode="&#x404;" horiz-adv-x="764" 
d="M746 258q-18 -133 -107 -202t-233 -69q-187 0 -282.5 98t-95.5 268v8q0 164 104.5 264.5t265.5 100.5q299 0 338 -264h-234q-15 87 -103 87q-99 0 -124 -108h219v-159h-221q23 -115 130 -115q99 0 117 91h226z" />
    <glyph glyph-name="uni0405" unicode="&#x405;" horiz-adv-x="653" 
d="M334 -13q-307 0 -315 242h215q5 -82 100 -82q39 0 59 16t20 43t-21.5 40t-80.5 21q-155 18 -215.5 68.5t-60.5 161.5q0 101 77 164.5t209 63.5q271 0 288 -228h-210q-8 69 -78 69q-34 0 -52.5 -14t-18.5 -38q0 -27 20.5 -39.5t79.5 -20.5q145 -15 212.5 -63t67.5 -161
q0 -104 -79 -173.5t-217 -69.5z" />
    <glyph glyph-name="uni0406" unicode="&#x406;" horiz-adv-x="366" 
d="M68 715h229v-715h-229v715z" />
    <glyph glyph-name="uni0407" unicode="&#x407;" horiz-adv-x="366" 
d="M68 715h229v-715h-229v715zM69 752q-38 0 -64.5 26t-26.5 63t26.5 63t64.5 26q39 0 65.5 -25.5t26.5 -63.5q0 -37 -26.5 -63t-65.5 -26zM296 752q-38 0 -64.5 26t-26.5 63t26.5 63t64.5 26q39 0 65.5 -25.5t26.5 -63.5q0 -37 -26.5 -63t-65.5 -26z" />
    <glyph glyph-name="uni0408" unicode="&#x408;" horiz-adv-x="489" 
d="M168 -9q-84 0 -136 25v167q43 -13 85 -13q90 0 90 93v452h227v-453q0 -271 -266 -271z" />
    <glyph glyph-name="uni0409" unicode="&#x409;" horiz-adv-x="1056" 
d="M464 540h-132q-7 -194 -11 -234q-13 -157 -64 -238t-162 -81q-13 0 -25.5 1.5t-21.5 3t-16 3.5t-10 3l-4 2v172l6 -3q10 -2 20 -2q37 0 55.5 42.5t27.5 130.5q9 84 9 375h555v-239h60q140 0 212 -59t72 -172v-4q0 -241 -294 -241h-277v540zM730 167q46 0 68 16.5t22 56.5
v4q0 78 -91 78h-38v-155h39z" />
    <glyph glyph-name="uni040A" unicode="&#x40a;" horiz-adv-x="1070" 
d="M744 167q47 0 68.5 16.5t21.5 56.5v4q0 78 -91 78h-38v-155h39zM479 275h-186v-275h-228v715h228v-264h186v264h226v-239h60q140 0 212 -59t72 -172v-4q0 -241 -294 -241h-276v275z" />
    <glyph glyph-name="uni040B" unicode="&#x40b;" horiz-adv-x="865" 
d="M428 410q18 10 42 21q54 22 120 22q120 0 178.5 -67.5t58.5 -191.5v-194h-226v186q0 50 -19 73t-67 23q-33 0 -65 -15q-11 -5 -22 -14v-253h-228v541h-180v174h589v-174h-181v-131z" />
    <glyph glyph-name="uni040C" unicode="&#x40c;" horiz-adv-x="746" 
d="M352 906h201l-103 -149h-149zM65 715h227v-271l198 271h235l-251 -330l265 -385h-261l-186 286v-286h-227v715z" />
    <glyph glyph-name="uni040D" unicode="&#x40d;" horiz-adv-x="809" 
d="M65 0v715h228v-412l227 412h224v-715h-227v416l-227 -416h-225zM239 906h202l47 -149h-149z" />
    <glyph glyph-name="uni040E" unicode="&#x40e;" horiz-adv-x="679" 
d="M357 749q-80 0 -124 41t-49 116h130q5 -49 43 -49q36 0 44 49h129q-6 -75 -51 -116t-122 -41zM204 -11q-59 0 -94 15v173q21 -9 63 -9q44 0 74 41l-241 506h235l118 -273l107 273h213l-219 -511q-50 -115 -104 -165t-152 -50z" />
    <glyph glyph-name="uni040F" unicode="&#x40f;" horiz-adv-x="784" 
d="M65 0v715h228v-540h199v540h227v-715h-231l-5 -130h-185l-5 130h-228z" />
    <glyph glyph-name="uni0410" unicode="&#x410;" horiz-adv-x="760" 
d="M234 715h293l224 -715h-240l-33 119h-226l-32 -119h-211zM295 273h141l-70 259z" />
    <glyph glyph-name="uni0411" unicode="&#x411;" horiz-adv-x="670" 
d="M651 232q0 -232 -282 -232h-304v715h515v-174h-291v-87h85q137 0 207 -57t70 -161v-4zM344 160q88 0 88 72v4q0 73 -89 73h-54v-149h55z" />
    <glyph glyph-name="uni0412" unicode="&#x412;" horiz-adv-x="690" 
d="M65 715h338q125 0 184.5 -51t59.5 -136v-4q0 -125 -124 -154q66 -12 104.5 -53.5t38.5 -113.5v-4q0 -199 -265 -199h-336v715zM358 149q85 0 85 75v4q0 73 -90 73h-67v-152h72zM355 436q42 0 60 15t18 48v4q0 64 -79 64h-68v-131h69z" />
    <glyph glyph-name="uni0413" unicode="&#x413;" horiz-adv-x="574" 
d="M65 715h485v-175h-257v-540h-228v715z" />
    <glyph glyph-name="uni0414" unicode="&#x414;" horiz-adv-x="776" 
d="M304 322q-12 -102 -34 -147h194v366h-149q-7 -181 -11 -219zM189 -130h-196v305h47q55 26 71 169q9 74 9 371h569v-540h87v-305h-196l-7 130h-377z" />
    <glyph glyph-name="uni0415" unicode="&#x415;" horiz-adv-x="620" 
d="M65 715h508v-174h-282v-101h224v-159h-224v-107h298v-174h-524v715z" />
    <glyph glyph-name="uni0416" unicode="&#x416;" horiz-adv-x="1045" 
d="M411 300l-166 -300h-237l225 377l-215 338h227l166 -285v285h221v-283l167 283h224l-216 -327l230 -388h-247l-158 299v-299h-221v300z" />
    <glyph glyph-name="uni0417" unicode="&#x417;" horiz-adv-x="668" 
d="M330 -12q-133 0 -216.5 66t-98.5 194h214q18 -89 101 -89q82 0 82 70q0 66 -75 66h-68v144h66q35 0 51 14t16 46q0 28 -19.5 42.5t-50.5 14.5q-79 0 -93 -87h-209q15 125 95 191t215 66q129 0 207 -57t78 -143q0 -126 -123 -157q66 -10 104.5 -51t38.5 -111
q0 -99 -87.5 -159t-227.5 -60z" />
    <glyph glyph-name="uni0418" unicode="&#x418;" horiz-adv-x="809" 
d="M65 0v715h228v-412l227 412h224v-715h-227v416l-227 -416h-225z" />
    <glyph glyph-name="uni0419" unicode="&#x419;" horiz-adv-x="809" 
d="M399 749q-79 0 -123 41t-49 116h130q5 -49 42 -49q38 0 44 49h129q-6 -75 -51 -116t-122 -41zM65 0v715h228v-412l227 412h224v-715h-227v416l-227 -416h-225z" />
    <glyph glyph-name="uni041A" unicode="&#x41a;" horiz-adv-x="746" 
d="M65 715h227v-271l198 271h235l-251 -330l265 -385h-261l-186 286v-286h-227v715z" />
    <glyph glyph-name="uni041B" unicode="&#x41b;" horiz-adv-x="760" 
d="M317 268q-17 -139 -67 -210t-155 -71q-13 0 -25.5 1.5t-21.5 3t-16 3.5t-10 3l-4 2v172l6 -3q10 -2 20 -2q35 0 53.5 39t27.5 120q11 106 11 389h559v-715h-227v540h-136q-6 -190 -15 -272z" />
    <glyph glyph-name="uni041C" unicode="&#x41c;" horiz-adv-x="958" 
d="M65 715h294l121 -347l123 347h288v-715h-225v422l-163 -422h-76l-160 422v-422h-202v715z" />
    <glyph glyph-name="uni041D" unicode="&#x41d;" horiz-adv-x="794" 
d="M65 715h227v-264h210v264h227v-715h-227v275h-210v-275h-227v715z" />
    <glyph glyph-name="uni041E" unicode="&#x41e;" horiz-adv-x="820" 
d="M411 165q67 0 106.5 50t39.5 139v8q0 90 -39.5 138.5t-108.5 48.5q-67 0 -106 -48t-39 -139v-8q0 -91 39 -140t108 -49zM405 -13q-174 0 -276 100.5t-102 265.5v8q0 163 109 264t273 101q169 0 276.5 -96.5t107.5 -262.5v-8q0 -168 -106 -270t-282 -102z" />
    <glyph glyph-name="uni041F" unicode="&#x41f;" horiz-adv-x="784" 
d="M492 539h-199v-539h-228v715h654v-715h-227v539z" />
    <glyph glyph-name="uni0420" unicode="&#x420;" horiz-adv-x="665" 
d="M65 715h285q294 0 294 -245v-4q0 -113 -72.5 -173t-211.5 -60h-69v-233h-226v715zM338 385q91 0 91 80v4q0 41 -22 59t-68 18h-48v-161h47z" />
    <glyph glyph-name="uni0421" unicode="&#x421;" horiz-adv-x="764" 
d="M408 -13q-189 0 -284.5 98t-95.5 268v8q0 164 104.5 264.5t265.5 100.5q149 0 238.5 -70.5t101.5 -211.5h-234q-11 103 -105 103q-63 0 -97.5 -47.5t-34.5 -137.5v-8q0 -90 35 -137.5t101 -47.5q106 0 118 105h226q-10 -138 -101.5 -212.5t-237.5 -74.5z" />
    <glyph glyph-name="uni0422" unicode="&#x422;" horiz-adv-x="629" 
d="M200 541h-180v174h589v-174h-181v-541h-228v541z" />
    <glyph glyph-name="uni0423" unicode="&#x423;" horiz-adv-x="679" 
d="M204 -11q-59 0 -94 15v173q21 -9 63 -9q44 0 74 41l-241 506h235l118 -273l107 273h213l-219 -511q-50 -115 -104 -165t-152 -50z" />
    <glyph glyph-name="uni0424" unicode="&#x424;" horiz-adv-x="940" 
d="M583 649q152 -4 242.5 -79t90.5 -205v-8q0 -129 -94 -203t-239 -78v-86h-226v86q-153 4 -243 78t-90 205v8q0 129 94.5 203.5t238.5 78.5v86h226v-86zM357 494q-50 -2 -82.5 -34t-32.5 -92v-8q0 -63 32 -94.5t83 -33.5v262zM583 230q50 2 82.5 34t32.5 92v8
q0 63 -31.5 94.5t-83.5 33.5v-262z" />
    <glyph glyph-name="uni0425" unicode="&#x425;" horiz-adv-x="773" 
d="M236 368l-202 347h259l100 -201l98 201h232l-187 -339l219 -376h-258l-123 235l-123 -235h-233z" />
    <glyph glyph-name="uni0426" unicode="&#x426;" horiz-adv-x="805" 
d="M609 -130l-7 130h-537v715h228v-540h199v540h227v-540h86v-305h-196z" />
    <glyph glyph-name="uni0427" unicode="&#x427;" horiz-adv-x="753" 
d="M462 0v266q-1 -1 -11 -5.5t-21.5 -9t-28 -9.5t-39 -8t-46.5 -3q-140 0 -207 73.5t-67 224.5v186h226v-192q0 -65 24 -93.5t77 -28.5q48 0 93 27v287h226v-715h-226z" />
    <glyph glyph-name="uni0428" unicode="&#x428;" horiz-adv-x="1087" 
d="M65 715h224v-540h143v540h224v-540h143v540h223v-715h-957v715z" />
    <glyph glyph-name="uni0429" unicode="&#x429;" horiz-adv-x="1112" 
d="M916 -130l-7 130h-844v715h224v-540h143v540h224v-540h143v540h223v-540h90v-305h-196z" />
    <glyph glyph-name="uni042A" unicode="&#x42a;" horiz-adv-x="776" 
d="M177 541h-159v174h385v-232h69q139 0 211 -60.5t72 -173.5v-4q0 -245 -293 -245h-285v541zM451 167q90 0 90 77v4q0 80 -91 80h-47v-161h48z" />
    <glyph glyph-name="uni042B" unicode="&#x42b;" horiz-adv-x="965" 
d="M899 0h-224v715h224v-715zM65 715h225v-232h61q139 0 210.5 -60.5t71.5 -173.5v-4q0 -245 -292 -245h-276v715zM330 167q45 0 67 18t22 59v4q0 80 -90 80h-39v-161h40z" />
    <glyph glyph-name="uni042C" unicode="&#x42c;" horiz-adv-x="665" 
d="M65 715h226v-232h69q139 0 211.5 -60.5t72.5 -173.5v-4q0 -245 -294 -245h-285v715zM339 167q90 0 90 77v4q0 80 -91 80h-47v-161h48z" />
    <glyph glyph-name="uni042D" unicode="&#x42d;" horiz-adv-x="763" 
d="M358 -13q-141 0 -232 69.5t-109 201.5h226q18 -91 118 -91q104 0 129 114h-221v159h222q-22 109 -121 109q-92 0 -109 -87h-232q36 264 343 264q156 0 259.5 -98t103.5 -255v-8q0 -176 -95 -277t-282 -101z" />
    <glyph glyph-name="uni042E" unicode="&#x42e;" horiz-adv-x="1104" 
d="M702 -13q-147 0 -241 78t-115 212h-54v-277h-227v715h227v-268h57q26 127 124 202.5t233 75.5q162 0 266.5 -96t104.5 -262v-8q0 -168 -102.5 -270t-272.5 -102zM706 165q63 0 99 50t36 140v8q0 89 -37 137.5t-99 48.5t-97.5 -48t-35.5 -139v-8q0 -91 36 -140t98 -49z
" />
    <glyph glyph-name="uni042F" unicode="&#x42f;" horiz-adv-x="714" 
d="M369 548q-91 0 -91 -75v-4q0 -81 92 -81h55v160h-56zM249 0h-235l176 293q-58 16 -93.5 65t-35.5 119v4q0 115 75 174.5t222 59.5h291v-715h-224v246h-40z" />
    <glyph glyph-name="uni0430" unicode="&#x430;" horiz-adv-x="585" 
d="M198 -13q-77 0 -127.5 39.5t-50.5 118.5q0 90 70.5 130.5t210.5 40.5h45v9q0 38 -12 57t-49 19q-56 0 -62 -56h-184q6 94 74.5 143.5t183.5 49.5q117 0 180.5 -50t63.5 -150v-338h-190v60q-41 -73 -153 -73zM269 119q34 0 55.5 17.5t21.5 46.5v27h-42q-50 0 -70 -11
t-20 -39q0 -41 55 -41z" />
    <glyph glyph-name="uni0431" unicode="&#x431;" horiz-adv-x="626" 
d="M313 -13q-290 0 -290 336v21q0 381 324 399l49 2q112 5 154 20v-146q-51 -24 -160 -29l-40 -2q-83 -5 -126.5 -46t-55.5 -118h6q56 91 185 91q109 0 177 -72t68 -186v-8q0 -120 -82.5 -191t-208.5 -71zM314 129q90 0 90 118v8q0 117 -90 117q-92 0 -92 -115v-7
q0 -121 92 -121z" />
    <glyph glyph-name="uni0432" unicode="&#x432;" horiz-adv-x="573" 
d="M48 523h296q96 0 143 -34.5t47 -96.5v-2q0 -94 -103 -117q120 -18 120 -120v-2q0 -151 -201 -151h-302v523zM242 413v-95h44q57 0 57 49v1q0 45 -62 45h-39zM242 218v-109h50q65 0 65 54v1q0 54 -59 54h-56z" />
    <glyph glyph-name="uni0433" unicode="&#x433;" horiz-adv-x="456" 
d="M244 386v-386h-196v523h392v-137h-196z" />
    <glyph glyph-name="uni0434" unicode="&#x434;" horiz-adv-x="631" 
d="M255 258q-6 -76 -25 -121h127v251h-97q-2 -91 -5 -130zM180 -127h-170v264h27q42 23 53 137q7 78 7 249h454v-386h70v-264h-170l-2 127h-267z" />
    <glyph glyph-name="uni0435" unicode="&#x435;" horiz-adv-x="604" 
d="M311 -13q-129 0 -209.5 71t-80.5 197v8q0 125 83 200t207 75q118 0 195 -69t77 -203v-48h-363q4 -47 29.5 -72t68.5 -25q69 0 82 56h184q-12 -92 -80.5 -141t-192.5 -49zM393 321q-5 90 -82 90q-37 0 -60.5 -23t-29.5 -67h172z" />
    <glyph glyph-name="uni0436" unicode="&#x436;" horiz-adv-x="818" 
d="M313 224l-103 -224h-204l146 280l-138 243h196l103 -210v210h190v-210l102 210h194l-137 -236l150 -287h-210l-99 223v-223h-190v224z" />
    <glyph glyph-name="uni0437" unicode="&#x437;" horiz-adv-x="547" 
d="M510 392q0 -98 -105 -118q118 -18 118 -118v-3q0 -72 -65.5 -119t-181.5 -47q-229 0 -260 201h173q18 -69 82 -69q54 0 54 49v3q0 43 -57 43h-56v107h52q50 0 50 39v3q0 36 -49 36q-55 0 -69 -57h-171q12 96 79 146t170 50q111 0 173.5 -40t62.5 -103v-3z" />
    <glyph glyph-name="uni0438" unicode="&#x438;" horiz-adv-x="631" 
d="M48 0v523h195v-292l148 292h192v-523h-195v291l-148 -291h-192z" />
    <glyph glyph-name="uni0439" unicode="&#x439;" horiz-adv-x="631" 
d="M313 582q-79 0 -122.5 42t-48.5 118h129q6 -54 42 -54q38 0 44 54h129q-7 -76 -51.5 -118t-121.5 -42zM48 0v523h195v-292l148 292h192v-523h-195v291l-148 -291h-192z" />
    <glyph glyph-name="uni043A" unicode="&#x43a;" horiz-adv-x="588" 
d="M244 215v-215h-197v523h197v-201l127 201h202l-161 -236l174 -287h-218z" />
    <glyph glyph-name="uni043B" unicode="&#x43b;" horiz-adv-x="605" 
d="M265 231q-10 -125 -50 -184t-129 -59q-30 0 -48 5q-9 3 -16 6v139l5 -2q2 -1 16 -1q26 0 39 29.5t18 95.5q5 53 5 155l2 108h450v-523h-196v386h-88q-2 -99 -8 -155z" />
    <glyph glyph-name="uni043C" unicode="&#x43c;" horiz-adv-x="760" 
d="M206 320v-320h-158v523h251l84 -241l91 241h238v-523h-190v320l-125 -320h-73z" />
    <glyph glyph-name="uni043D" unicode="&#x43d;" horiz-adv-x="625" 
d="M381 196h-137v-196h-196v523h196v-190h137v190h196v-523h-196v196z" />
    <glyph glyph-name="uni043E" unicode="&#x43e;" horiz-adv-x="626" 
d="M314 132q90 0 90 127v7q0 126 -90 126q-93 0 -93 -123v-8q0 -129 93 -129zM313 -13q-127 0 -209 71.5t-82 196.5v8q0 125 82.5 199.5t209.5 74.5q126 0 208 -73t82 -196v-8q0 -126 -82.5 -199.5t-208.5 -73.5z" />
    <glyph glyph-name="uni043F" unicode="&#x43f;" horiz-adv-x="615" 
d="M371 386h-127v-386h-196v523h519v-523h-196v386z" />
    <glyph glyph-name="uni0440" unicode="&#x440;" horiz-adv-x="646" 
d="M47 523h197v-76q53 90 160 90q95 0 157 -70.5t62 -201.5v-8q0 -131 -62 -200.5t-158 -69.5q-112 0 -159 88v-249h-197v697zM331 137q92 0 92 122v8q0 124 -93 124q-44 0 -67.5 -32t-23.5 -92v-8q0 -122 92 -122z" />
    <glyph glyph-name="uni0441" unicode="&#x441;" horiz-adv-x="585" 
d="M300 -13q-123 0 -200.5 69t-77.5 198v8q0 129 80 202t203 73q109 0 181.5 -52.5t80.5 -167.5h-185q-6 35 -22 52t-50 17q-88 0 -88 -120v-8q0 -128 91 -128q34 0 55 20.5t25 58.5h177q-4 -104 -72.5 -163t-197.5 -59z" />
    <glyph glyph-name="uni0442" unicode="&#x442;" horiz-adv-x="509" 
d="M495 386h-143v-386h-195v386h-143v137h481v-137z" />
    <glyph glyph-name="uni0443" unicode="&#x443;" 
d="M214 52l-209 471h213l99 -261l92 261h186l-279 -697h-187z" />
    <glyph glyph-name="uni0444" unicode="&#x444;" horiz-adv-x="830" 
d="M511 537q129 -6 210 -74.5t81 -192.5v-8q0 -124 -82 -197t-209 -77v-162h-192v162q-130 6 -210.5 74.5t-80.5 192.5v8q0 124 82 197t209 77v212h192v-212zM511 125q45 5 71 39.5t26 91.5v8q0 126 -97 137v-276zM319 400q-46 -5 -71.5 -39.5t-25.5 -91.5v-8
q0 -126 97 -137v276z" />
    <glyph glyph-name="uni0445" unicode="&#x445;" horiz-adv-x="613" 
d="M180 265l-161 258h226l71 -128l71 128h201l-163 -243l180 -280h-226l-84 146l-88 -146h-199z" />
    <glyph glyph-name="uni0446" unicode="&#x446;" horiz-adv-x="647" 
d="M470 -127l-6 127h-416v523h196v-386h127v386h196v-386h70v-264h-167z" />
    <glyph glyph-name="uni0447" unicode="&#x447;" horiz-adv-x="602" 
d="M357 0v214q-61 -61 -156 -61q-78 0 -121.5 48.5t-43.5 144.5v177h197v-145q0 -40 12.5 -59t44.5 -19q43 0 67 29v194h197v-523h-197z" />
    <glyph glyph-name="uni0448" unicode="&#x448;" horiz-adv-x="860" 
d="M48 523h194v-386h91v386h194v-386h92v386h193v-523h-764v523z" />
    <glyph glyph-name="uni0449" unicode="&#x449;" horiz-adv-x="894" 
d="M718 -127l-6 127h-664v523h194v-386h91v386h194v-386h92v386h193v-386h72v-264h-166z" />
    <glyph glyph-name="uni044A" unicode="&#x44a;" horiz-adv-x="646" 
d="M134 388h-120v135h314v-154h83q103 0 158.5 -49t55.5 -134v-3q0 -86 -55 -134.5t-163 -48.5h-273v388zM366 125q67 0 67 57v3q0 59 -67 59h-38v-119h38z" />
    <glyph glyph-name="uni044B" unicode="&#x44b;" horiz-adv-x="803" 
d="M562 523h193v-523h-193v523zM48 523h195v-154h75q102 0 157.5 -49t55.5 -134v-3q0 -86 -55 -134.5t-163 -48.5h-265v523zM274 125q67 0 67 57v3q0 59 -67 59h-31v-119h31z" />
    <glyph glyph-name="uni044C" unicode="&#x44c;" horiz-adv-x="561" 
d="M48 523h195v-154h83q103 0 158.5 -49t55.5 -134v-3q0 -86 -55.5 -134.5t-163.5 -48.5h-273v523zM280 125q67 0 67 57v3q0 59 -67 59h-37v-119h37z" />
    <glyph glyph-name="uni044D" unicode="&#x44d;" horiz-adv-x="585" 
d="M285 -13q-244 0 -269 207h177q20 -68 81 -68q68 0 85 80h-146v112h146q-12 72 -80 72q-58 0 -74 -58h-185q11 105 84 155.5t178 50.5q123 0 202.5 -71t79.5 -199v-8q0 -130 -78 -201.5t-201 -71.5z" />
    <glyph glyph-name="uni044E" unicode="&#x44e;" horiz-adv-x="862" 
d="M557 -12q-104 0 -175.5 50.5t-92.5 142.5q-1 2 -4 16h-42v-197h-195v523h195v-191h44q20 96 94 151t177 55q124 0 203.5 -73t79.5 -196v-8q0 -126 -80.5 -199.5t-203.5 -73.5zM558 133q83 0 83 126v8q0 126 -83 126t-83 -124v-8q0 -128 83 -128z" />
    <glyph glyph-name="uni044F" unicode="&#x44f;" horiz-adv-x="572" 
d="M291 397q-69 0 -69 -53v-3q0 -56 69 -56h39v112h-39zM204 0h-203l118 208q-89 38 -89 138v3q0 80 55.5 127t158.5 47h280v-523h-194v167h-41z" />
    <glyph glyph-name="uni0451" unicode="&#x451;" horiz-adv-x="604" 
d="M311 -13q-129 0 -209.5 71t-80.5 197v8q0 125 83 200t207 75q118 0 195 -69t77 -203v-48h-363q4 -47 29.5 -72t68.5 -25q69 0 82 56h184q-12 -92 -80.5 -141t-192.5 -49zM393 321q-5 90 -82 90q-37 0 -60.5 -23t-29.5 -67h172zM197 570q-38 0 -64.5 26t-26.5 63t26.5 63
t64.5 26q39 0 65.5 -26t26.5 -63t-26.5 -63t-65.5 -26zM414 570q-38 0 -64 26t-26 63t26 63t64 26q39 0 65.5 -26t26.5 -63t-26.5 -63t-65.5 -26z" />
    <glyph glyph-name="uni0452" unicode="&#x452;" horiz-adv-x="629" 
d="M389 300q0 80 -67 80q-78 0 -78 -91v-289h-197v582h-53v102h53v65h197v-65h151v-102h-151v-143q51 99 173 99q77 0 122.5 -49.5t45.5 -144.5v-302q0 -118 -56 -173t-201 -55v141q32 2 46.5 18t14.5 56v271z" />
    <glyph glyph-name="uni0453" unicode="&#x453;" horiz-adv-x="456" 
d="M244 386v-386h-196v523h392v-137h-196zM228 747h193l-104 -169h-141z" />
    <glyph glyph-name="uni0454" unicode="&#x454;" horiz-adv-x="585" 
d="M569 194q-25 -207 -269 -207q-123 0 -201 69t-78 199v8q0 128 81 201.5t203 73.5q105 0 177 -50.5t83 -155.5h-185q-14 58 -72 58q-64 0 -81 -72h146v-112h-147q17 -80 85 -80q63 0 81 68h177z" />
    <glyph glyph-name="uni0455" unicode="&#x455;" horiz-adv-x="523" 
d="M261 -13q-116 0 -180 46.5t-66 134.5h180q6 -28 19.5 -41t45.5 -13q55 0 55 37q0 18 -20 27.5t-72 16.5q-109 12 -156 48t-47 118q0 86 65.5 131.5t167.5 45.5q108 0 169 -40.5t70 -132.5h-177q-11 49 -59 49q-52 0 -52 -36q0 -18 18.5 -26.5t63.5 -13.5
q119 -15 170 -50.5t51 -116.5q0 -93 -65 -138.5t-181 -45.5z" />
    <glyph glyph-name="uni0456" unicode="&#x456;" horiz-adv-x="302" 
d="M53 523h196v-523h-196v523zM151 562q-46 0 -76.5 28t-30.5 71q0 44 30.5 72t76.5 28q45 0 75.5 -28t30.5 -72q0 -43 -30.5 -71t-75.5 -28z" />
    <glyph glyph-name="uni0457" unicode="&#x457;" horiz-adv-x="302" 
d="M43 570q-38 0 -64.5 26t-26.5 63t26.5 63t64.5 26q39 0 65.5 -26t26.5 -63t-26.5 -63t-65.5 -26zM258 570q-38 0 -64 26t-26 63t26 63t64 26q39 0 65.5 -26t26.5 -63t-26.5 -63t-65.5 -26zM53 523h196v-523h-196v523z" />
    <glyph glyph-name="uni0458" unicode="&#x458;" horiz-adv-x="302" 
d="M-9 -42q33 2 47 15t14 43v507h197v-512q0 -95 -57 -144.5t-201 -49.5v141zM151 562q-46 0 -76.5 28t-30.5 71q0 44 30.5 72t76.5 28q45 0 75.5 -28t30.5 -72q0 -43 -30.5 -71t-75.5 -28z" />
    <glyph glyph-name="uni0459" unicode="&#x459;" horiz-adv-x="853" 
d="M350 386h-77q-2 -81 -6 -142q-10 -132 -50.5 -194t-130.5 -62q-30 0 -48 5q-9 3 -16 6v139l5 -2q2 -1 16 -1q26 0 39.5 32t18.5 103q5 76 5 253h439v-154h73q103 0 158.5 -49t55.5 -134v-3q0 -86 -55.5 -134.5t-163.5 -48.5h-263v386zM573 125q66 0 66 57v3q0 59 -66 59
h-28v-119h28z" />
    <glyph glyph-name="uni045A" unicode="&#x45a;" horiz-adv-x="873" 
d="M593 125q67 0 67 57v3q0 59 -67 59h-28v-119h28zM371 196h-127v-196h-196v523h196v-190h127v190h194v-154h73q103 0 158.5 -49t55.5 -134v-3q0 -86 -55 -134.5t-163 -48.5h-263v196z" />
    <glyph glyph-name="uni045B" unicode="&#x45b;" horiz-adv-x="629" 
d="M-6 684h53v66h197v-66h151v-103h-151v-142q51 98 173 98q77 0 122.5 -49t45.5 -144v-344h-197v300q0 80 -66 80q-78 0 -78 -91v-289h-197v581h-53v103z" />
    <glyph glyph-name="uni045C" unicode="&#x45c;" horiz-adv-x="588" 
d="M283 747h193l-104 -169h-141zM244 215v-215h-197v523h197v-201l127 201h202l-161 -236l174 -287h-218z" />
    <glyph glyph-name="uni045D" unicode="&#x45d;" horiz-adv-x="631" 
d="M48 0v523h195v-292l148 292h192v-523h-195v291l-148 -291h-192zM150 747h193l52 -169h-141z" />
    <glyph glyph-name="uni045E" unicode="&#x45e;" 
d="M314 582q-79 0 -122.5 42t-48.5 118h129q6 -54 42 -54q38 0 44 54h128q-6 -76 -50.5 -118t-121.5 -42zM214 52l-209 471h213l99 -261l92 261h186l-279 -697h-187z" />
    <glyph glyph-name="uni045F" unicode="&#x45f;" horiz-adv-x="615" 
d="M48 0v523h196v-386h127v386h196v-523h-175l-2 -127h-163l-3 127h-176z" />
    <glyph glyph-name="uni0490" unicode="&#x490;" horiz-adv-x="580" 
d="M293 539v-539h-228v715h284l7 134h196v-310h-259z" />
    <glyph glyph-name="uni0491" unicode="&#x491;" horiz-adv-x="456" 
d="M244 386v-386h-196v523h213l5 134h167v-271h-189z" />
    <glyph glyph-name="Wgrave" unicode="&#x1e80;" horiz-adv-x="1009" 
d="M10 715h229l82 -427l86 427h197l97 -432l87 432h210l-166 -715h-229l-100 427l-101 -427h-226zM340 906h202l47 -149h-149z" />
    <glyph glyph-name="wgrave" unicode="&#x1e81;" horiz-adv-x="854" 
d="M5 523h205l68 -293l80 293h158l70 -293l79 293h184l-166 -523h-185l-73 273l-72 -273h-191zM265 747h193l52 -169h-141z" />
    <glyph glyph-name="Wacute" unicode="&#x1e82;" horiz-adv-x="1009" 
d="M10 715h229l82 -427l86 427h197l97 -432l87 432h210l-166 -715h-229l-100 427l-101 -427h-226zM478 906h201l-103 -149h-149z" />
    <glyph glyph-name="wacute" unicode="&#x1e83;" horiz-adv-x="854" 
d="M5 523h205l68 -293l80 293h158l70 -293l79 293h184l-166 -523h-185l-73 273l-72 -273h-191zM419 747h193l-104 -169h-141z" />
    <glyph glyph-name="Wdieresis" unicode="&#x1e84;" horiz-adv-x="1009" 
d="M10 715h229l82 -427l86 427h197l97 -432l87 432h210l-166 -715h-229l-100 427l-101 -427h-226zM393 752q-38 0 -64.5 26t-26.5 63t26.5 63t64.5 26q39 0 65.5 -25.5t26.5 -63.5q0 -37 -26.5 -63t-65.5 -26zM620 752q-38 0 -64.5 26t-26.5 63t26.5 63t64.5 26
q39 0 65.5 -25.5t26.5 -63.5q0 -37 -26.5 -63t-65.5 -26z" />
    <glyph glyph-name="wdieresis" unicode="&#x1e85;" horiz-adv-x="854" 
d="M5 523h205l68 -293l80 293h158l70 -293l79 293h184l-166 -523h-185l-73 273l-72 -273h-191zM327 570q-38 0 -64.5 26t-26.5 63t26.5 63t64.5 26q39 0 65.5 -26t26.5 -63t-26.5 -63t-65.5 -26zM544 570q-38 0 -64 26t-26 63t26 63t64 26q39 0 65.5 -26t26.5 -63t-26.5 -63
t-65.5 -26z" />
    <glyph glyph-name="Ygrave" unicode="&#x1ef2;" horiz-adv-x="692" 
d="M237 305l-232 410h246l109 -224l110 224h217l-222 -409v-306h-228v305zM188 906h202l47 -149h-149z" />
    <glyph glyph-name="ygrave" unicode="&#x1ef3;" 
d="M214 52l-209 471h213l99 -261l92 261h186l-279 -697h-187zM141 747h193l52 -169h-141z" />
    <glyph glyph-name="uni2009" unicode="&#x2009;" horiz-adv-x="83" 
 />
    <glyph glyph-name="endash" unicode="&#x2013;" horiz-adv-x="543" 
d="M46 351h451v-112h-451v112z" />
    <glyph glyph-name="emdash" unicode="&#x2014;" horiz-adv-x="958" 
d="M46 351h866v-112h-866v112z" />
    <glyph glyph-name="quoteleft" unicode="&#x2018;" horiz-adv-x="321" 
d="M28 473l141 255l110 -40l-78 -271z" />
    <glyph glyph-name="quoteright" unicode="&#x2019;" horiz-adv-x="321" 
d="M42 459l78 269l171 -55l-140 -256z" />
    <glyph glyph-name="quotesinglbase" unicode="&#x201a;" horiz-adv-x="319" 
d="M38 -63l78 270l172 -56l-141 -256z" />
    <glyph glyph-name="quotedblleft" unicode="&#x201c;" horiz-adv-x="555" 
d="M28 473l141 255l110 -40l-78 -271zM265 473l140 255l109 -40l-78 -271z" />
    <glyph glyph-name="quotedblright" unicode="&#x201d;" horiz-adv-x="555" 
d="M42 459l78 269l171 -55l-140 -256zM277 459l78 269l173 -55l-141 -256z" />
    <glyph glyph-name="quotedblbase" unicode="&#x201e;" horiz-adv-x="555" 
d="M38 -63l78 270l172 -56l-141 -256zM273 -63l78 270l173 -56l-141 -256z" />
    <glyph glyph-name="dagger" unicode="&#x2020;" horiz-adv-x="411" 
d="M127 464h-105v136h105v115h157v-115h105v-136h-105v-251h-157v251z" />
    <glyph glyph-name="daggerdbl" unicode="&#x2021;" horiz-adv-x="411" 
d="M127 497h-105v123h105v95h157v-95h105v-123h-105v-66h105v-123h-105v-95h-157v95h-105v123h105v66z" />
    <glyph glyph-name="bullet" unicode="&#x2022;" horiz-adv-x="379" 
d="M189 150q-64 0 -107.5 44.5t-43.5 107.5t43.5 107.5t107.5 44.5q65 0 108.5 -44t43.5 -108t-43.5 -108t-108.5 -44z" />
    <glyph glyph-name="ellipsis" unicode="&#x2026;" horiz-adv-x="909" 
d="M150 -12q-47 0 -78.5 31.5t-31.5 76.5t31 76t79 31t80 -31t32 -76t-32 -76.5t-80 -31.5zM453 -12q-48 0 -78.5 31t-30.5 77t31 76.5t78 30.5q48 0 80 -31t32 -76q0 -46 -32 -77t-80 -31zM756 -12q-48 0 -78.5 31t-30.5 77t30.5 76.5t78.5 30.5t80.5 -31t32.5 -76
q0 -46 -32 -77t-81 -31z" />
    <glyph glyph-name="perthousand" unicode="&#x2030;" horiz-adv-x="1240" 
d="M216 475q52 0 52 71q0 69 -52 69q-24 0 -38 -18.5t-14 -50.5q0 -34 14 -52.5t38 -18.5zM216 363q-90 0 -141.5 51t-51.5 131q0 76 55 127t138 51t138 -49t55 -125q0 -80 -52.5 -133t-140.5 -53zM620 715h102l-508 -715h-101zM613 99q52 0 52 71q0 69 -52 69
q-24 0 -38 -18.5t-14 -50.5q0 -34 14 -52.5t38 -18.5zM613 -13q-90 0 -141.5 51t-51.5 131q0 77 55 128t138 51q84 0 138.5 -49t54.5 -126q0 -80 -52.5 -133t-140.5 -53zM1024 99q52 0 52 71q0 69 -52 69q-25 0 -38.5 -18.5t-13.5 -50.5q0 -71 52 -71zM1023 -13
q-90 0 -141 51t-51 131q0 77 55 128t138 51t138 -49t55 -126q0 -80 -53 -133t-141 -53z" />
    <glyph glyph-name="uni2032" unicode="&#x2032;" horiz-adv-x="256" 
d="M52 715h183l-63 -281h-139z" />
    <glyph glyph-name="uni2033" unicode="&#x2033;" horiz-adv-x="478" 
d="M52 715h183l-63 -281h-139zM274 715h183l-64 -281h-139z" />
    <glyph glyph-name="guilsinglleft" unicode="&#x2039;" horiz-adv-x="304" 
d="M25 261l124 194h129l-119 -194l119 -194h-129z" />
    <glyph glyph-name="guilsinglright" unicode="&#x203a;" horiz-adv-x="304" 
d="M145 261l-119 194h129l124 -194l-124 -194h-129z" />
    <glyph glyph-name="fraction" unicode="&#x2044;" horiz-adv-x="178" 
d="M324 715h99l-569 -715h-100z" />
    <glyph glyph-name="Euro" unicode="&#x20ac;" horiz-adv-x="728" 
d="M21 452h61q21 123 106 198.5t213 75.5q135 0 211 -66.5t88 -198.5h-209q-10 94 -92 94q-79 0 -97 -103h139l-13 -74h-131v-46h123l-12 -74h-107q9 -49 32 -73t67 -24q47 0 69 25.5t28 81.5h208q-33 -281 -311 -281q-136 0 -216 73.5t-96 197.5h-61v74h56v46h-56v74z" />
    <glyph glyph-name="uni20B4" unicode="&#x20b4;" horiz-adv-x="670" 
d="M334 -13q-138 0 -212.5 57t-74.5 155q0 36 11 66h-38v73h94q31 25 86 48h-180v73h367q22 21 22 54q0 53 -63 53q-65 0 -73 -69h-210q21 228 282 228q129 0 202 -52.5t73 -142.5q0 -41 -10 -71h41v-73h-87q-27 -27 -70 -48h157v-73h-353q-37 -22 -37 -62q0 -56 71 -56
q48 0 67 21.5t23 60.5h214q-12 -242 -302 -242z" />
    <glyph glyph-name="uni20B8" unicode="&#x20b8;" horiz-adv-x="609" 
d="M20 642v73h569v-73h-569zM190 415h-170v174h569v-174h-171v-415h-228v415z" />
    <glyph glyph-name="uni20BD" unicode="&#x20bd;" horiz-adv-x="703" 
d="M376 385q91 0 91 80v4q0 41 -22 59t-68 18h-48v-161h47zM329 112v-112h-226v112h-90v73h90v47h-90v74h90v409h285q294 0 294 -245v-4q0 -113 -72.5 -173.5t-211.5 -60.5h-69v-47h205v-73h-205z" />
    <glyph glyph-name="uni2116" unicode="&#x2116;" horiz-adv-x="1196" 
d="M958 328q-93 0 -153 50.5t-60 140.5v6q0 91 60.5 144.5t153.5 53.5q92 0 152 -51.5t60 -141.5v-5q0 -92 -60.5 -144.5t-152.5 -52.5zM959 445q52 0 52 79v5q0 77 -52 77q-54 0 -54 -75v-5q0 -81 54 -81zM65 715h254l171 -364v364h198v-715h-218l-206 415v-415h-199v715z
M760 270h397v-100h-397v100z" />
    <glyph glyph-name="trademark" unicode="&#x2122;" horiz-adv-x="768" 
d="M341 715h137l54 -146l55 146h139v-321h-117v170l-66 -170h-37l-65 170v-170h-100v321zM109 623h-81v92h277v-92h-80v-229h-116v229z" />
    <glyph glyph-name="Omega" unicode="&#x2126;" horiz-adv-x="826" 
d="M264 351q0 -149 107 -237v-114h-338v167h98q-43 31 -71.5 88t-28.5 117v6q0 151 107.5 249t273.5 98q170 0 276.5 -93.5t106.5 -248.5v-6q0 -65 -28 -122t-71 -88h97v-167h-338v114q107 87 107 237v8q0 93 -39 141.5t-111 48.5q-70 0 -109 -48.5t-39 -141.5v-8z" />
    <glyph glyph-name="onethird" unicode="&#x2153;" horiz-adv-x="829" 
d="M104 576l-83 -45v116l104 68h124v-382h-145v243zM629 715h99l-569 -715h-100zM633 -7q-171 0 -176 137h127q5 -38 40 -38q34 0 34 31q0 29 -41 29h-31v79h31q43 0 43 31q0 27 -31 27q-32 0 -38 -35h-126q6 61 48 97.5t120 36.5q77 0 119.5 -28t42.5 -79q0 -65 -69 -82
q34 -5 55.5 -27.5t21.5 -54.5q0 -57 -43 -90.5t-127 -33.5z" />
    <glyph glyph-name="twothirds" unicode="&#x2154;" horiz-adv-x="879" 
d="M7 351l129 132q37 38 53.5 60.5t16.5 42.5q0 30 -28 30q-30 0 -36 -51h-131q2 77 48.5 116.5t126.5 39.5t120.5 -34.5t40.5 -89.5q0 -37 -19.5 -67.5t-58.5 -67.5l-28 -26h108v-103h-342v18zM695 715h99l-569 -715h-100zM683 -7q-171 0 -176 137h127q5 -38 40 -38
q34 0 34 31q0 29 -41 29h-31v79h31q43 0 43 31q0 27 -31 27q-32 0 -38 -35h-126q6 61 48 97.5t120 36.5q77 0 119.5 -28t42.5 -79q0 -65 -69 -82q34 -5 55.5 -27.5t21.5 -54.5q0 -57 -43 -90.5t-127 -33.5z" />
    <glyph glyph-name="oneeighth" unicode="&#x215b;" horiz-adv-x="824" 
d="M104 576l-83 -45v116l104 68h124v-382h-145v243zM619 715h99l-569 -715h-100zM625 -7q-179 0 -179 114q0 69 70 92q-53 24 -53 78q0 52 46 81.5t117 29.5q74 0 118 -29t44 -82q0 -56 -53 -77q68 -21 68 -89q0 -57 -45.5 -87.5t-132.5 -30.5zM625 88q17 0 27.5 10t10.5 26
q0 15 -10.5 25t-27.5 10q-38 0 -38 -36q0 -16 10.5 -25.5t27.5 -9.5zM626 231q14 0 24 9.5t10 23.5t-10 23t-24 9q-15 0 -25 -9t-10 -24q0 -14 10 -23t25 -9z" />
    <glyph glyph-name="threeeighths" unicode="&#x215c;" horiz-adv-x="866" 
d="M196 326q-171 0 -176 137h127q5 -38 40 -38q34 0 34 31q0 29 -41 29h-31v79h31q43 0 43 31q0 27 -31 27q-32 0 -38 -35h-126q6 61 48 97.5t120 36.5q77 0 119.5 -28t42.5 -79q0 -65 -69 -82q34 -5 55.5 -27.5t21.5 -54.5q0 -57 -43 -90.5t-127 -33.5zM672 715h99
l-569 -715h-100zM665 -7q-179 0 -179 114q0 69 70 92q-53 24 -53 78q0 52 46 81.5t117 29.5q74 0 118 -29t44 -82q0 -56 -53 -77q68 -21 68 -89q0 -57 -45.5 -87.5t-132.5 -30.5zM665 88q17 0 27.5 10t10.5 26q0 15 -10.5 25t-27.5 10q-38 0 -38 -36q0 -16 10.5 -25.5
t27.5 -9.5zM666 231q14 0 24 9.5t10 23.5t-10 23t-24 9q-15 0 -25 -9t-10 -24q0 -14 10 -23t25 -9z" />
    <glyph glyph-name="fiveeighths" unicode="&#x215d;" horiz-adv-x="850" 
d="M189 326q-83 0 -124.5 35.5t-42.5 94.5h131q5 -26 32 -26q32 0 32 37q0 35 -35 35q-27 0 -35 -23h-114l12 236h293v-100h-194l-4 -78q33 51 103 51q54 0 86 -30.5t32 -87.5q0 -67 -45 -105.5t-127 -38.5zM656 715h99l-569 -715h-100zM651 -7q-179 0 -179 114q0 69 70 92
q-53 24 -53 78q0 52 46 81.5t117 29.5q74 0 118 -29t44 -82q0 -56 -53 -77q68 -21 68 -89q0 -57 -45.5 -87.5t-132.5 -30.5zM651 88q17 0 27.5 10t10.5 26q0 15 -10.5 25t-27.5 10q-38 0 -38 -36q0 -16 10.5 -25.5t27.5 -9.5zM652 231q14 0 24 9.5t10 23.5t-10 23t-24 9
q-15 0 -25 -9t-10 -24q0 -14 10 -23t25 -9z" />
    <glyph glyph-name="seveneighths" unicode="&#x215e;" horiz-adv-x="819" 
d="M169 602h-147v113h328v-14l-139 -368h-144zM606 715h99l-569 -715h-100zM619 -7q-179 0 -179 114q0 69 70 92q-53 24 -53 78q0 52 46 81.5t117 29.5q74 0 118 -29t44 -82q0 -56 -53 -77q68 -21 68 -89q0 -57 -45.5 -87.5t-132.5 -30.5zM619 88q17 0 27.5 10t10.5 26
q0 15 -10.5 25t-27.5 10q-38 0 -38 -36q0 -16 10.5 -25.5t27.5 -9.5zM620 231q14 0 24 9.5t10 23.5t-10 23t-24 9q-15 0 -25 -9t-10 -24q0 -14 10 -23t25 -9z" />
    <glyph glyph-name="Delta" unicode="&#x2206;" horiz-adv-x="772" 
d="M16 24l215 691h312l213 -691v-24h-740v24zM266 173h215l-107 383z" />
    <glyph glyph-name="minus" unicode="&#x2212;" horiz-adv-x="582" 
d="M38 414h507v-149h-507v149z" />
    <glyph glyph-name="approxequal" unicode="&#x2248;" horiz-adv-x="593" 
d="M36 113q6 96 46.5 142t99.5 46q45 0 122 -19.5t97 -19.5q40 0 45 44h111q-4 -92 -44.5 -140.5t-99.5 -48.5q-45 0 -123 20t-98 20q-38 0 -45 -44h-111zM36 341q6 96 46.5 142t99.5 46q45 0 122 -19t97 -19q41 0 45 42h111q-4 -90 -44.5 -138.5t-99.5 -48.5
q-45 0 -123 19.5t-98 19.5q-38 0 -45 -44h-111z" />
    <glyph glyph-name="notequal" unicode="&#x2260;" horiz-adv-x="570" 
d="M38 492h250l37 96h122l-37 -96h121v-131h-172l-26 -68h198v-131h-248l-37 -96h-123l37 96h-122v131h172l27 68h-199v131z" />
    <glyph glyph-name="lessequal" unicode="&#x2264;" horiz-adv-x="514" 
d="M40 376v37l428 229v-174l-149 -72l149 -73v-176zM40 126h428v-126h-428v126z" />
    <glyph glyph-name="greaterequal" unicode="&#x2265;" horiz-adv-x="514" 
d="M46 323l149 73l-149 72v174l428 -229v-37l-428 -229v176zM46 126h428v-126h-428v126z" />
    <glyph glyph-name="uni24C5" unicode="&#x24c5;" horiz-adv-x="842" 
d="M274 562h165q169 0 169 -140v-2q0 -134 -161 -134h-38v-129h-135v405zM431 376q50 0 50 44v2q0 39 -49 39h-23v-85h22zM420 31q136 0 229.5 92t93.5 236q0 143 -92 234t-229 91q-138 0 -230.5 -91.5t-92.5 -235.5t93.5 -235t227.5 -91zM420 -21q-161 0 -273.5 109
t-112.5 269q0 159 112.5 269t275.5 110q165 0 276 -109t111 -268q0 -161 -113 -270.5t-276 -109.5z" />
    <glyph glyph-name="zero.tab" unicode="&#xe44f;" 
d="M303 157q37 0 50 27t13 95v157q0 67 -14.5 95t-50.5 28q-38 0 -52.5 -28t-14.5 -95v-157q0 -67 15.5 -94.5t53.5 -27.5zM296 -13q-128 0 -197.5 75t-69.5 217v156q0 139 75 214.5t196 75.5q122 0 196.5 -72t74.5 -213v-156q0 -143 -72.5 -220t-202.5 -77z" />
    <glyph glyph-name="one.tab" unicode="&#xe450;" 
d="M242 493l-166 -108v188l196 142h197v-715h-227v493z" />
    <glyph glyph-name="two.tab" unicode="&#xe451;" 
d="M20 31l212 258q64 81 89.5 123t25.5 84q0 65 -52 65q-30 0 -44 -25t-17 -87h-203q8 276 274 276q129 0 195.5 -57.5t66.5 -157.5q0 -68 -35.5 -127t-107.5 -138l-70 -75h211v-170h-545v31z" />
    <glyph glyph-name="three.tab" unicode="&#xe452;" 
d="M306 -13q-144 0 -214 63t-75 190h195q2 -47 20 -69t61 -22q72 0 72 72q0 73 -75 73h-58v137h56q78 0 78 71q0 62 -64 62q-70 0 -76 -84h-192q5 116 75 180.5t197 64.5q122 0 189.5 -52t67.5 -145q0 -118 -114 -154q58 -12 93.5 -54t35.5 -104q0 -106 -70 -167.5
t-202 -61.5z" />
    <glyph glyph-name="four.tab" unicode="&#xe453;" 
d="M309 135h-294v77l245 503h247v-434h70v-146h-70v-135h-198v135zM313 281v262l-124 -262h124z" />
    <glyph glyph-name="five.tab" unicode="&#xe454;" 
d="M294 -13q-133 0 -197.5 61.5t-68.5 183.5h190q2 -39 18.5 -56t56.5 -17q66 0 66 91q0 41 -21.5 63t-60.5 22q-64 0 -98 -49h-131l16 429h461v-163h-307l-6 -152q51 81 156 81q97 0 149 -61t52 -170q0 -123 -71.5 -193t-203.5 -70z" />
    <glyph glyph-name="six.tab" unicode="&#xe455;" 
d="M314 -13q-144 0 -215 85t-71 239v73q0 161 81 251t216 90q237 0 244 -217h-185q-7 61 -58 61q-98 0 -99 -185q50 80 144 80q90 0 148 -56.5t58 -167.5q0 -115 -70 -184t-193 -69zM309 150q35 0 56.5 24t21.5 62q0 41 -21.5 64t-57.5 23t-58.5 -22.5t-22.5 -61.5
q0 -41 23 -65t59 -24z" />
    <glyph glyph-name="seven.tab" unicode="&#xe456;" 
d="M298 536h-265v179h542v-23l-248 -692h-226z" />
    <glyph glyph-name="eight.tab" unicode="&#xe457;" 
d="M300 -13q-131 0 -204.5 56t-73.5 159q0 127 119 173q-92 46 -92 147q0 95 72 149t181 54q112 0 182 -53.5t70 -148.5q0 -103 -91 -147q115 -43 115 -169q0 -103 -73.5 -161.5t-204.5 -58.5zM301 148q36 0 57.5 21t21.5 57q0 37 -21 58.5t-57 21.5t-58 -21t-22 -58
q0 -36 21.5 -57.5t57.5 -21.5zM303 431q30 0 50 19.5t20 51.5t-20.5 51.5t-50.5 19.5q-29 0 -49.5 -19.5t-20.5 -50.5q0 -32 20.5 -52t50.5 -20z" />
    <glyph glyph-name="nine.tab" unicode="&#xe458;" 
d="M284 -12q-246 0 -256 220h186q7 -63 65 -63q52 0 73 43t22 141q-50 -79 -145 -79q-90 0 -148 55t-58 166q0 115 71 185t193 70q142 0 213.5 -82.5t71.5 -239.5v-78q0 -162 -75 -250t-213 -88zM292 393q36 0 58.5 22.5t22.5 60.5q0 41 -23 65.5t-59 24.5q-35 0 -56.5 -24
t-21.5 -62q0 -41 21.5 -64t57.5 -23z" />
    <glyph glyph-name="cent.tab" unicode="&#xe459;" 
d="M279 -11q-114 9 -183.5 77.5t-69.5 188.5v8q0 116 71 188.5t182 84.5v93h74v-93q95 -9 157 -64t68 -155h-174q-7 56 -51 73v-266q55 18 61 85h167q-3 -95 -62.5 -153.5t-165.5 -66.5v-124h-74v124zM216 257q0 -107 63 -130v263q-63 -24 -63 -125v-8z" />
    <glyph glyph-name="dollar.tab" unicode="&#xe45a;" 
d="M264 -10q-119 8 -182.5 69.5t-67.5 167.5h186q5 -70 64 -85v128q-126 18 -182 71.5t-56 158.5q0 94 63.5 155t174.5 69v89h77v-90q218 -19 231 -220h-182q-6 53 -49 67v-122q116 -17 178.5 -67t62.5 -153q0 -99 -60 -164.5t-181 -73.5v-125h-77v125zM207 517
q0 -24 12.5 -36.5t44.5 -20.5v113q-57 -10 -57 -56zM395 204q0 21 -12 33t-42 20v-116q54 13 54 63z" />
    <glyph glyph-name="Euro.tab" unicode="&#xe45b;" 
d="M11 454h46q6 129 79 200.5t187 71.5q240 0 247 -246h-181q-2 45 -17 63.5t-48 18.5q-35 0 -52.5 -25.5t-19.5 -82.5h131l-13 -74h-118v-47h110l-12 -73h-98q2 -58 18.5 -83t54.5 -25q36 0 52 20t18 70h178q-2 -132 -66.5 -193.5t-190.5 -61.5q-118 0 -186 70.5t-73 202.5
h-46v73h46v47h-46v74z" />
    <glyph glyph-name="a.alt" unicode="&#xe4c0;" horiz-adv-x="638" 
d="M239 -13q-92 0 -154 69t-62 200v8q0 130 62 201.5t154 71.5q107 0 154 -86v72h197v-523h-197v83q-49 -96 -154 -96zM310 137q42 0 65.5 31.5t23.5 91.5v8q0 123 -87 123q-89 0 -89 -124v-8q0 -122 87 -122z" />
    <glyph glyph-name="t.alt" unicode="&#xe4d3;" horiz-adv-x="386" 
d="M82 391h-71v132h71v107h197v-107h92v-132h-92v-391h-197v391z" />
    <glyph glyph-name="f_i" unicode="&#xfb01;" horiz-adv-x="689" 
d="M75 391h-64v132h64v39q0 99 57.5 147.5t157.5 48.5q49 0 83 -10v-142q-20 6 -45 6q-28 0 -42 -14t-14 -37v-38h101v-132h-101v-391h-197v391zM439 523h196v-523h-196v523zM537 562q-46 0 -76.5 28t-30.5 71q0 44 30.5 72t76.5 28q45 0 75.5 -28t30.5 -72q0 -43 -30.5 -71
t-75.5 -28z" />
    <glyph glyph-name="f_l" unicode="&#xfb02;" horiz-adv-x="687" 
d="M75 391h-64v132h64v39q0 99 57.5 147.5t157.5 48.5q49 0 83 -10v-142q-20 6 -45 6q-28 0 -42 -14t-14 -37v-38h101v-132h-101v-391h-197v391zM438 750h196v-750h-196v750z" />
    <glyph glyph-name="hyphen.uc" horiz-adv-x="412" 
d="M49 403h314v-154h-314v154z" />
    <glyph glyph-name="four.old" horiz-adv-x="679" 
d="M360 38h-349v70l296 511h262v-443h91v-138h-91v-130h-209v130zM365 176v284l-154 -284h154z" />
    <glyph glyph-name="zero.num" horiz-adv-x="435" 
d="M217 435q27 0 39 20.5t12 66.5v6q0 47 -12 66t-40 19q-27 0 -38 -19.5t-11 -65.5v-7q0 -46 11.5 -66t38.5 -20zM214 326q-93 0 -142.5 50t-49.5 145v6q0 91 54.5 142.5t140.5 51.5t141 -48t55 -143v-5q0 -95 -52.5 -147t-146.5 -52z" />
    <glyph glyph-name="nine.oldtab" 
d="M289 298q36 0 60 24.5t24 65.5q0 42 -24 67.5t-61 25.5q-36 0 -59 -25t-23 -66q0 -43 23 -67.5t60 -24.5zM283 -107q-119 0 -184 56t-70 167h179q9 -67 73 -67q50 0 70.5 43.5t20.5 144.5q-46 -73 -143 -73q-91 0 -149 52.5t-58 161.5q0 114 72 184t193 70
q140 0 210.5 -84t70.5 -236v-80q0 -163 -74 -251t-211 -88z" />
    <glyph glyph-name="eight.oldtab" 
d="M300 -13q-129 0 -202 56t-73 158q0 60 32 105t91 68q-96 45 -96 148q0 95 71 149.5t180 54.5t178.5 -53.5t69.5 -149.5q0 -104 -96 -148q120 -44 120 -168q0 -103 -73 -161.5t-202 -58.5zM302 432q31 0 51.5 20.5t20.5 54.5q0 33 -20.5 53.5t-50.5 20.5t-51 -20.5
t-21 -53.5t20.5 -54t50.5 -21zM301 139q36 0 58.5 22t22.5 60q0 39 -21.5 61.5t-59.5 22.5q-36 0 -58.5 -22.5t-22.5 -60.5t22 -60.5t59 -22.5z" />
    <glyph glyph-name="seven.oldtab" 
d="M295 445h-262v174h539v-23l-250 -688h-225z" />
    <glyph glyph-name="six.oldtab" 
d="M315 -13q-141 0 -212 84t-71 237v78q0 160 80 250t214 90q112 0 175 -53.5t68 -162.5h-183q-7 62 -60 62q-97 0 -98 -198q55 81 147 81q91 0 147 -53t56 -163q0 -115 -70.5 -183.5t-192.5 -68.5zM315 141q36 0 59 24.5t23 65.5q0 43 -23 67.5t-60 24.5q-36 0 -60 -24
t-24 -65q0 -42 24 -67.5t61 -25.5z" />
    <glyph glyph-name="five.oldtab" 
d="M294 -104q-132 0 -197.5 61t-66.5 174h186q3 -39 20 -58.5t57 -19.5q73 0 73 95q0 91 -86 91q-64 0 -97 -51h-129l16 431h454v-160h-303l-6 -157q53 81 154 81q93 0 145 -60t52 -165q0 -124 -70.5 -193t-201.5 -69z" />
    <glyph glyph-name="four.oldtab" 
d="M307 38h-294v69l245 512h247v-444h72v-137h-72v-130h-198v130zM312 175v276l-129 -276h129z" />
    <glyph glyph-name="three.oldtab" 
d="M298 -105q-140 0 -209 66t-73 183h191q5 -94 85 -94q76 0 76 78q0 77 -80 77h-56v130h54q81 0 81 77q0 30 -17 48.5t-50 18.5q-72 0 -78 -87h-189q6 108 77.5 174t196.5 66q120 0 185.5 -52t65.5 -145q0 -121 -112 -154q59 -12 94 -54t35 -105q0 -105 -72 -166t-205 -61z
" />
    <glyph glyph-name="two.oldtab" 
d="M20 29l222 214q57 55 82 93.5t25 75.5q0 61 -57 61q-32 0 -49 -23t-23 -72h-189q8 121 79 187.5t197 66.5q120 0 186 -54.5t66 -145.5q0 -60 -31.5 -110.5t-95.5 -109.5l-67 -61h199v-151h-544v29z" />
    <glyph glyph-name="one.oldtab" 
d="M252 412l-171 -109v175l200 141h181v-619h-210v412z" />
    <glyph glyph-name="zero.oldtab" 
d="M296 -13q-126 0 -196 74.5t-70 210.5v78q0 132 74.5 207t194.5 75q122 0 196.5 -71t74.5 -207v-78q0 -135 -73 -212t-201 -77zM302 154q37 0 52 28t15 90v78q0 63 -15.5 91t-53.5 28q-37 0 -53 -28.5t-16 -90.5v-78q0 -62 16.5 -90t54.5 -28z" />
    <glyph glyph-name="yen.oldtab" 
d="M56 375h131l-165 319h217l75 -184l74 184h190l-161 -319h138v-72h-146v-45h146v-72h-146v-186h-213v186h-140v72h140v45h-140v72z" />
    <glyph glyph-name="sterling.oldtab" 
d="M26 397h40q-9 43 -9 79q0 109 74 168t185 59q245 0 251 -240h-186q-5 44 -17 60t-40 16q-60 0 -60 -75q0 -36 4 -67h143v-120h-129q2 -30 2 -45q0 -27 -8 -54q45 -15 64 -15q49 0 53 51h186q-4 -105 -56 -164t-142 -59q-51 0 -104 24.5t-67 24.5q-35 0 -40 -40h-158
q6 115 85 169q9 29 9 63q0 17 -5 45h-75v120z" />
    <glyph glyph-name="f.short" horiz-adv-x="384" 
d="M75 391h-64v132h64v39q0 99 57.5 147.5t157.5 48.5q49 0 83 -10v-142q-20 6 -45 6q-28 0 -42 -14t-14 -37v-38h101v-132h-101v-391h-197v391z" />
    <glyph glyph-name="f_f.short" horiz-adv-x="722" 
d="M75 391h-64v132h64v33q0 99 57 147.5t156 48.5q47 0 83 -11v-142q-21 7 -44 7q-55 0 -55 -51v-32h141v39q0 99 57.5 147.5t156.5 48.5q50 0 84 -10v-142q-20 6 -45 6q-28 0 -42 -14t-14 -37v-38h101v-132h-101v-391h-197v391h-141v-391h-197v391z" />
    <glyph glyph-name="Euro.oldtab" 
d="M23 440h43q6 125 76.5 194.5t181.5 69.5q234 0 241 -238h-176q-3 44 -17 62t-47 18q-34 0 -50.5 -24.5t-18.5 -81.5h127l-12 -71h-115v-46h107l-12 -71h-95q2 -57 18 -81t52 -24q34 0 50.5 20t18.5 68h172q-4 -248 -248 -248q-116 0 -182 68.5t-71 196.5h-43v71h43v46
h-43v71z" />
    <glyph glyph-name="dollar.oldtab" 
d="M210 501q0 -22 12 -34.5t43 -20.5v109q-55 -10 -55 -54zM396 198q0 21 -11.5 32.5t-43.5 19.5v-113q55 12 55 61zM265 -10q-117 9 -179 69t-65 161h182q5 -67 62 -82v124q-125 21 -179 71t-54 152q0 91 62.5 150t170.5 67v87h76v-88q213 -19 229 -213h-180q-6 49 -49 64
v-117q115 -17 176 -65.5t61 -148.5q0 -96 -59 -159.5t-178 -71.5v-121h-76v121z" />
    <glyph glyph-name="braceright.tab" horiz-adv-x="300" 
d="M13 -21q45 3 58 23t4 68l-17 95q-11 59 12 95.5t88 56.5q-65 21 -88 56.5t-12 94.5l17 96q8 46 -4.5 64.5t-57.5 21.5v127q149 0 203 -56.5t26 -183.5l-19 -84q-7 -36 6.5 -55t57.5 -22v-121q-44 -4 -57.5 -23t-6.5 -55l19 -85q27 -124 -27 -182t-202 -58v127z" />
    <glyph glyph-name="braceleft.tab" horiz-adv-x="300" 
d="M287 -148q-148 0 -202 58t-27 182l19 85q7 36 -6.5 55t-57.5 23v121q44 3 57.5 22t6.5 55l-19 84q-28 127 26 183.5t203 56.5v-127q-45 -3 -57.5 -21.5t-4.5 -64.5l17 -96q11 -59 -12 -94.5t-88 -56.5q65 -20 88 -56.5t12 -95.5l-17 -95q-9 -48 4 -68t58 -23v-127z" />
    <glyph glyph-name="bracketright.tab" horiz-adv-x="300" 
d="M13 -21h71v670h-71v127h246v-924h-246v127z" />
    <glyph glyph-name="bracketleft.tab" horiz-adv-x="300" 
d="M41 776h246v-127h-71v-670h71v-127h-246v924z" />
    <glyph glyph-name="parenright.tab" horiz-adv-x="300" 
d="M-11 -148q110 214 110 462q0 243 -110 461h135q29 -42 50 -80.5t45.5 -96.5t37.5 -130.5t13 -153.5q0 -82 -13 -154.5t-37.5 -131t-45.5 -96.5t-50 -80h-135z" />
    <glyph glyph-name="parenleft.tab" horiz-adv-x="300" 
d="M176 -148q-29 42 -50 80t-45.5 96.5t-37.5 131t-13 154.5q0 81 13 153.5t37.5 130.5t45.5 96.5t50 80.5h135q-110 -208 -110 -461q0 -259 110 -462h-135z" />
    <glyph glyph-name="semicolon.tab" horiz-adv-x="300" 
d="M-18 -79l81 272l182 -63l-148 -252zM152 272q-47 0 -78.5 31t-31.5 76t31.5 76.5t78.5 31.5q48 0 80 -31.5t32 -76.5t-32 -76t-80 -31z" />
    <glyph glyph-name="colon.tab" horiz-adv-x="300" 
d="M149 -12q-48 0 -78.5 31t-30.5 77t31 76.5t78 30.5q48 0 80.5 -31t32.5 -76q0 -46 -32 -77t-81 -31zM149 272q-47 0 -78 31t-31 76q0 46 31 77t78 31q48 0 80.5 -31.5t32.5 -76.5t-32.5 -76t-80.5 -31z" />
    <glyph glyph-name="comma.tab" horiz-adv-x="300" 
d="M5 -79l81 272l182 -63l-148 -252z" />
    <glyph glyph-name="period.tab" horiz-adv-x="300" 
d="M148 -12q-48 0 -78.5 31t-30.5 77t30.5 76.5t78.5 30.5t80.5 -31t32.5 -76q0 -46 -32 -77t-81 -31z" />
    <glyph glyph-name="greaterequal.tab" 
d="M88 323l149 73l-149 72v174l428 -229v-37l-428 -229v176zM88 126h428v-126h-428v126z" />
    <glyph glyph-name="lessequal.tab" 
d="M83 376v37l428 229v-174l-149 -72l149 -73v-176zM83 126h428v-126h-428v126z" />
    <glyph glyph-name="greater.tab" 
d="M74 231l192 91l-192 99v172l452 -252v-36l-452 -251v177z" />
    <glyph glyph-name="less.tab" 
d="M75 304v37l452 251v-178l-193 -90l193 -99v-172z" />
    <glyph glyph-name="approxequal.tab" 
d="M43 113q6 96 46.5 142t99.5 46q45 0 119 -19.5t94 -19.5q39 0 45 44h110q-4 -92 -44.5 -140.5t-99.5 -48.5q-45 0 -119.5 20t-94.5 20q-38 0 -46 -44h-110zM43 341q6 96 46.5 142t99.5 46q44 0 118.5 -19t94.5 -19q39 0 45 42h110q-4 -90 -44.5 -138.5t-99.5 -48.5
q-45 0 -119.5 19.5t-94.5 19.5q-38 0 -46 -44h-110z" />
    <glyph glyph-name="notequal.tab" 
d="M53 492h250l37 96h122l-37 -96h121v-131h-172l-26 -68h198v-131h-248l-37 -96h-123l37 96h-122v131h172l27 68h-199v131z" />
    <glyph glyph-name="equal.tab" 
d="M61 293h478v-131h-478v131zM61 492h478v-131h-478v131z" />
    <glyph glyph-name="divide.tab" 
d="M299 34q-42 0 -71 28t-29 70q0 40 29.5 68.5t70.5 28.5t70.5 -28.5t29.5 -68.5q0 -42 -29 -70t-71 -28zM46 407h507v-134h-507v134zM299 450q-41 0 -70.5 28.5t-29.5 68.5q0 42 29 70t71 28t71 -28t29 -70q0 -40 -29.5 -68.5t-70.5 -28.5z" />
    <glyph glyph-name="multiply.tab" 
d="M47 185l152 152l-155 154l103 104l154 -156l153 152l102 -102l-152 -152l155 -154l-104 -104l-154 156l-152 -152z" />
    <glyph glyph-name="plusminus.tab" 
d="M221 343h-173v142h173v162h157v-162h174v-142h-174v-161h-157v161zM48 126h507v-126h-507v126z" />
    <glyph glyph-name="minus.tab" 
d="M54 414h492v-149h-492v149z" />
    <glyph glyph-name="plus.tab" 
d="M222 269h-166v142h166v181h156v-181h166v-142h-166v-182h-156v182z" />
    <glyph glyph-name="perthousand.tab" horiz-adv-x="1000" 
d="M176 481q19 0 27 16.5t8 57.5q0 42 -8 58.5t-27 16.5t-27.5 -16.5t-8.5 -57.5t8.5 -58t27.5 -17zM175 385q-74 0 -115.5 46t-41.5 124q0 76 44.5 122t113.5 46t113.5 -44t44.5 -120q0 -79 -42.5 -126.5t-116.5 -47.5zM530 715h99l-492 -715h-98zM486 84q19 0 27.5 16.5
t8.5 57.5t-8.5 57t-27.5 16t-27.5 -16t-8.5 -56q0 -41 8.5 -58t27.5 -17zM485 -13q-74 0 -115.5 46.5t-41.5 124.5q0 75 44.5 121t113.5 46q70 0 114 -44t44 -120q0 -79 -42.5 -126.5t-116.5 -47.5zM825 84q19 0 27 16.5t8 57.5t-8 57t-27 16t-27.5 -16t-8.5 -56
q0 -41 8.5 -58t27.5 -17zM824 -13q-74 0 -116 46.5t-42 124.5q0 75 45 121t114 46t113 -44t44 -120q0 -79 -43 -126.5t-115 -47.5z" />
    <glyph glyph-name="percent.tab" horiz-adv-x="800" 
d="M213 488q47 0 47 67t-47 67t-47 -66q0 -68 47 -68zM212 383q-84 0 -132.5 48.5t-48.5 123.5q0 72 52 120t130 48t129.5 -46.5t51.5 -118.5q0 -76 -49 -125.5t-133 -49.5zM597 715h102l-492 -715h-101zM588 92q46 0 46 67t-46 67q-48 0 -48 -66q0 -68 48 -68zM587 -13
q-84 0 -132.5 48.5t-48.5 123.5q0 72 52 120.5t130 48.5t129.5 -46.5t51.5 -118.5q0 -76 -49.5 -126t-132.5 -50z" />
    <glyph glyph-name="two.num" horiz-adv-x="366" 
d="M4 351l129 132q37 38 53.5 60.5t16.5 42.5q0 30 -28 30q-30 0 -36 -51h-131q2 77 48.5 116.5t126.5 39.5t120.5 -34.5t40.5 -89.5q0 -37 -19.5 -67.5t-58.5 -67.5l-28 -26h108v-103h-342v18z" />
    <glyph glyph-name="uni045D.bgr" horiz-adv-x="628" 
d="M218 -13q-78 0 -126.5 49.5t-48.5 143.5v343h197v-309q0 -80 66 -80q78 0 78 91v298h197v-523h-197v81q-49 -94 -166 -94zM142 747h193l52 -169h-141z" />
    <glyph glyph-name="three.num" horiz-adv-x="385" 
d="M193 326q-171 0 -176 137h127q5 -38 40 -38q34 0 34 31q0 29 -41 29h-31v79h31q43 0 43 31q0 27 -31 27q-32 0 -38 -35h-126q6 61 48 97.5t120 36.5q77 0 119.5 -28t42.5 -79q0 -65 -69 -82q34 -5 55.5 -27.5t21.5 -54.5q0 -57 -43 -90.5t-127 -33.5z" />
    <glyph glyph-name="four.num" horiz-adv-x="408" 
d="M201 403h-190v54l157 258h172v-218h48v-94h-48v-70h-139v70zM205 497v124l-72 -124h72z" />
    <glyph glyph-name="uni20B4.old" horiz-adv-x="655" 
d="M325 -13q-132 0 -204.5 55t-72.5 147q0 38 11 68h-38v71h92q30 23 84 46h-176v71h357q21 20 21 53q0 50 -63 50q-62 0 -70 -66h-202q20 221 273 221q123 0 195 -52t72 -139q0 -36 -9 -67h38v-71h-83q-25 -25 -67 -46h150v-71h-340q-38 -22 -38 -60q0 -55 72 -55
q46 0 64.5 21t22.5 59h204q-11 -235 -293 -235z" />
    <glyph glyph-name="uni20B4.oldtab" 
d="M300 -13q-126 0 -193 56t-67 155q0 32 9 59h-34v71h85q31 25 78 46h-163v71h331q20 20 20 53q0 50 -61 50q-59 0 -66 -66h-184q17 221 253 221q116 0 182 -52.5t66 -143.5q0 -30 -8 -62h35v-71h-77q-22 -23 -63 -46h140v-71h-316q-35 -22 -35 -60q0 -55 67 -55
q43 0 60.5 21t21.5 59h189q-6 -235 -270 -235z" />
    <glyph glyph-name="uni20B4.tab" 
d="M301 -13q-126 0 -193 57.5t-67 159.5q0 31 8 61h-32v73h82q30 26 78 48h-160v73h328q20 20 20 54q0 53 -57 53t-65 -69h-187q20 228 253 228q116 0 181.5 -54t65.5 -148q0 -41 -8 -64h35v-73h-76q-21 -24 -63 -48h139v-73h-315q-34 -21 -34 -62q0 -56 65 -56q43 0 59 21
t20 61h191q-8 -242 -268 -242z" />
    <glyph glyph-name="five.num" horiz-adv-x="378" 
d="M186 326q-83 0 -124.5 35.5t-42.5 94.5h131q5 -26 32 -26q32 0 32 37q0 35 -35 35q-27 0 -35 -23h-114l12 236h293v-100h-194l-4 -78q33 51 103 51q54 0 86 -30.5t32 -87.5q0 -67 -45 -105.5t-127 -38.5z" />
    <glyph glyph-name="uni20B8.old" horiz-adv-x="591" 
d="M20 623v71h552v-71h-552zM185 402h-165v169h552v-169h-165v-402h-222v402z" />
    <glyph glyph-name="uni20B8.oldtab" 
d="M35 623v71h525v-71h-525zM188 402h-153v169h525v-169h-151v-402h-221v402z" />
    <glyph glyph-name="uni20B8.tab" 
d="M39 642v73h522v-73h-522zM186 415h-147v174h522v-174h-147v-415h-228v415z" />
    <glyph glyph-name="six.num" horiz-adv-x="404" 
d="M212 326q-190 0 -190 193v11q0 86 54 138.5t137 52.5q153 0 164 -123h-131q-6 22 -29 22q-46 0 -51 -80q30 40 90 40q57 0 93 -28t36 -89q0 -63 -46 -100t-127 -37zM210 421q17 0 27 11t10 29q0 17 -10 28t-27 11t-26.5 -11t-9.5 -29t9.5 -28.5t26.5 -10.5z" />
    <glyph glyph-name="uni20BD.old" horiz-adv-x="690" 
d="M372 374q88 0 88 77v4q0 74 -87 74h-46v-155h45zM327 108v-108h-219v108h-88v71h88v47h-88v71h88v397h276q284 0 284 -238v-4q0 -109 -70 -167.5t-204 -58.5h-67v-47h199v-71h-199z" />
    <glyph glyph-name="uni20BD.oldtab" 
d="M325 374q79 0 79 77v4q0 74 -78 74h-42v-155h41zM284 108v-108h-195v108h-79v71h79v47h-79v71h79v397h246q254 0 254 -238v-4q0 -109 -62.5 -167.5t-182.5 -58.5h-60v-47h178v-71h-178z" />
    <glyph glyph-name="uni20BD.tab" 
d="M285 112v-112h-199v112h-76v73h76v47h-76v74h76v409h245q257 0 257 -245v-4q0 -112 -62.5 -173t-181.5 -61h-59v-47h182v-73h-182zM321 385q77 0 77 80v4q0 41 -18.5 59t-57.5 18h-37v-161h36z" />
    <glyph glyph-name="seven.num" horiz-adv-x="357" 
d="M166 602h-147v113h328v-14l-139 -368h-144z" />
    <glyph glyph-name="eight.num" horiz-adv-x="393" 
d="M197 326q-179 0 -179 114q0 69 70 92q-53 24 -53 78q0 52 46 81.5t117 29.5q74 0 118 -29t44 -82q0 -56 -53 -77q68 -21 68 -89q0 -57 -45.5 -87.5t-132.5 -30.5zM197 421q17 0 27.5 10t10.5 26q0 15 -10.5 25t-27.5 10q-38 0 -38 -36q0 -16 10.5 -25.5t27.5 -9.5z
M198 564q14 0 24 9.5t10 23.5t-10 23t-24 9q-15 0 -25 -9t-10 -24q0 -14 10 -23t25 -9z" />
    <glyph glyph-name="nine.num" horiz-adv-x="404" 
d="M192 326q-75 0 -118 32t-48 91h132q6 -22 31 -22q46 0 48 78q-26 -38 -83 -38q-135 0 -135 117q0 63 46.5 100t126.5 37q94 0 142 -53t48 -140v-8q0 -94 -48.5 -144t-141.5 -50zM192 547q17 0 27 10.5t10 27.5q0 18 -10 29.5t-27 11.5t-26.5 -11.5t-9.5 -29.5
q0 -38 36 -38z" />
    <glyph glyph-name="zero.den" horiz-adv-x="435" 
d="M217 102q27 0 39 20.5t12 66.5v6q0 47 -12 66t-40 19q-27 0 -38 -19.5t-11 -65.5v-7q0 -46 11.5 -66t38.5 -20zM214 -7q-93 0 -142.5 50t-49.5 145v6q0 91 54.5 142.5t140.5 51.5t141 -48t55 -143v-5q0 -95 -52.5 -147t-146.5 -52z" />
    <glyph glyph-name="one.den" horiz-adv-x="297" 
d="M102 243l-83 -45v116l104 68h124v-382h-145v243z" />
    <glyph glyph-name="two.den" horiz-adv-x="366" 
d="M4 18l129 132q37 38 53.5 60.5t16.5 42.5q0 30 -28 30q-30 0 -36 -51h-131q2 77 48.5 116.5t126.5 39.5t120.5 -34.5t40.5 -89.5q0 -37 -19.5 -67.5t-58.5 -67.5l-28 -26h108v-103h-342v18z" />
    <glyph glyph-name="uni021B.alt" horiz-adv-x="386" 
d="M60 -206l39 175l172 -12l-101 -190zM82 391h-71v132h71v107h197v-107h92v-132h-92v-391h-197v391z" />
    <glyph glyph-name="uni0437.bgr" horiz-adv-x="542" 
d="M524 27q0 -101 -67 -161t-194 -60q-118 0 -184 56.5t-76 151.5h192q7 -72 64 -72q70 0 70 85v5q0 43 -18 63.5t-61 20.5h-50v132h41q73 0 73 74v9q0 70 -55 70q-57 0 -61 -85h-183q9 117 77.5 169.5t176.5 52.5q110 0 173 -55t63 -137v-7q0 -55 -31 -95t-78 -52
q128 -32 128 -158v-7z" />
    <glyph glyph-name="uni0449.bgr" horiz-adv-x="967" 
d="M791 -127l-6 127h-93v80q-55 -95 -165 -95q-103 0 -140 85q-67 -85 -172 -85q-77 0 -123.5 50t-46.5 143v345h196v-309q0 -34 16 -52t43 -18q33 0 51 20.5t18 58.5v300h195v-309q0 -34 16 -52t43 -18q33 0 51 20.5t18 58.5v300h197v-386h68v-264h-166z" />
    <glyph glyph-name="three.den" horiz-adv-x="385" 
d="M193 -7q-171 0 -176 137h127q5 -38 40 -38q34 0 34 31q0 29 -41 29h-31v79h31q43 0 43 31q0 27 -31 27q-32 0 -38 -35h-126q6 61 48 97.5t120 36.5q77 0 119.5 -28t42.5 -79q0 -65 -69 -82q34 -5 55.5 -27.5t21.5 -54.5q0 -57 -43 -90.5t-127 -33.5z" />
    <glyph glyph-name="uni044A.bgr" horiz-adv-x="637" 
d="M14 388v135h304v-156q38 3 65 2q116 -1 174.5 -47t58.5 -131v-6q0 -88 -66 -142.5t-184 -54.5q-130 0 -186 57.5t-56 169.5v173h-110zM369 108q54 0 54 70v4q0 66 -64 66q-19 0 -41 -2v-67q0 -71 51 -71z" />
    <glyph glyph-name="four.den" horiz-adv-x="408" 
d="M201 70h-190v54l157 258h172v-218h48v-94h-48v-70h-139v70zM205 164v124l-72 -124h72z" />
    <glyph glyph-name="five.den" horiz-adv-x="379" 
d="M186 -7q-83 0 -124.5 35.5t-42.5 94.5h131q5 -26 32 -26q32 0 32 37q0 35 -35 35q-27 0 -35 -23h-114l12 236h293v-100h-194l-4 -78q33 51 103 51q54 0 86 -30.5t32 -87.5q0 -67 -45 -105.5t-127 -38.5z" />
    <glyph glyph-name="six.den" horiz-adv-x="404" 
d="M212 -7q-190 0 -190 193v11q0 86 54 138.5t137 52.5q153 0 164 -123h-131q-6 22 -29 22q-46 0 -51 -80q30 40 90 40q57 0 93 -28t36 -89q0 -63 -46 -100t-127 -37zM210 88q17 0 27 11t10 29q0 17 -10 28t-27 11t-26.5 -11t-9.5 -29t9.5 -28.5t26.5 -10.5z" />
    <glyph glyph-name="seven.den" horiz-adv-x="357" 
d="M166 269h-147v113h328v-14l-139 -368h-144z" />
    <glyph glyph-name="florin.tab" 
d="M82 415h101l17 119q26 191 230 191q44 0 81 -11v-146q-21 7 -49 7q-59 0 -68 -58l-15 -102h121v-132h-139l-65 -465h-196l65 465h-83v132z" />
    <glyph glyph-name="uni0431.locl" horiz-adv-x="626" 
d="M313 -13q-127 0 -209.5 68.5t-82.5 187.5v7q0 78 45.5 138.5t126.5 77.5q3 1 29 4l15 2q-88 23 -132 55t-44 92q0 61 42 95.5t124 34.5h163q120 0 169 15v-138q-39 -22 -176 -22h-143q-27 0 -27 -19q0 -20 74 -42q76 -20 129 -42t98 -55t67.5 -79.5t22.5 -107.5v-9
q0 -121 -82.5 -192t-208.5 -71zM314 132q90 0 90 116v7q0 117 -90 117q-92 0 -92 -116v-7q0 -117 92 -117z" />
    <glyph glyph-name="yen.tab" 
d="M48 370h135l-168 345h224l75 -193l75 193h196l-167 -345h144v-73h-151v-47h151v-74h-151v-176h-219v176h-144v74h144v47h-144v73z" />
    <glyph glyph-name="eight.den" horiz-adv-x="393" 
d="M197 -7q-179 0 -179 114q0 69 70 92q-53 24 -53 78q0 52 46 81.5t117 29.5q74 0 118 -29t44 -82q0 -56 -53 -77q68 -21 68 -89q0 -57 -45.5 -87.5t-132.5 -30.5zM197 88q17 0 27.5 10t10.5 26q0 15 -10.5 25t-27.5 10q-38 0 -38 -36q0 -16 10.5 -25.5t27.5 -9.5zM198 231
q14 0 24 9.5t10 23.5t-10 23t-24 9q-15 0 -25 -9t-10 -24q0 -14 10 -23t25 -9z" />
    <glyph glyph-name="nine.den" horiz-adv-x="404" 
d="M192 -7q-75 0 -118 32t-48 91h132q6 -22 31 -22q46 0 48 78q-26 -38 -83 -38q-135 0 -135 117q0 63 46.5 100t126.5 37q94 0 142 -53t48 -140v-8q0 -94 -48.5 -144t-141.5 -50zM192 214q17 0 27 10.5t10 27.5q0 18 -10 29.5t-27 11.5t-26.5 -11.5t-9.5 -29.5
q0 -38 36 -38z" />
    <glyph glyph-name="zero.sub" horiz-adv-x="435" 
d="M217 -24q27 0 39 20.5t12 66.5v6q0 47 -12 66t-40 19q-27 0 -38 -19.5t-11 -65.5v-7q0 -46 11.5 -66t38.5 -20zM214 -133q-93 0 -142.5 50t-49.5 145v6q0 91 54.5 142.5t140.5 51.5t141 -48t55 -143v-5q0 -95 -52.5 -147t-146.5 -52z" />
    <glyph glyph-name="one.sub" horiz-adv-x="297" 
d="M102 117l-83 -45v116l104 68h124v-382h-145v243z" />
    <glyph glyph-name="sterling.tab" 
d="M27 405h42q-10 39 -10 87q0 113 72 173t185 60q129 0 189.5 -61t63.5 -185h-180q-5 44 -19.5 60.5t-44.5 16.5q-65 0 -65 -77q0 -32 5 -74h153v-115h-137q3 -26 3 -51q0 -24 -9 -55q54 -16 70 -16q52 0 56 52h182q-3 -108 -54 -168.5t-142 -60.5q-52 0 -108 25t-72 25
q-36 0 -41 -41h-154q8 134 87 180q8 26 8 59q0 25 -6 51h-74v115z" />
    <glyph glyph-name="two.sub" horiz-adv-x="366" 
d="M4 -108l129 132q37 38 53.5 60.5t16.5 42.5q0 30 -28 30q-30 0 -36 -51h-131q2 77 48.5 116.5t126.5 39.5t120.5 -34.5t40.5 -89.5q0 -37 -19.5 -67.5t-58.5 -67.5l-28 -26h108v-103h-342v18z" />
    <glyph glyph-name="three.sub" horiz-adv-x="385" 
d="M193 -133q-171 0 -176 137h127q5 -38 40 -38q34 0 34 31q0 29 -41 29h-31v79h31q43 0 43 31q0 27 -31 27q-32 0 -38 -35h-126q6 61 48 97.5t120 36.5q77 0 119.5 -28t42.5 -79q0 -65 -69 -82q34 -5 55.5 -27.5t21.5 -54.5q0 -57 -43 -90.5t-127 -33.5z" />
    <glyph glyph-name="four.sub" horiz-adv-x="408" 
d="M201 -56h-190v54l157 258h172v-218h48v-94h-48v-70h-139v70zM205 38v124l-72 -124h72z" />
    <glyph glyph-name="space.tab" horiz-adv-x="300" 
 />
    <glyph glyph-name="uni0433.bgr" horiz-adv-x="525" 
d="M256 -13q-111 0 -175.5 43t-64.5 126q0 73 50 108.5t153 55.5q57 11 77 21.5t20 28.5q0 36 -47 36q-28 0 -42 -11.5t-19 -35.5h-177q29 179 249 179q100 0 161 -42t61 -121q0 -74 -45 -110.5t-147 -55.5q-59 -9 -79 -20.5t-20 -32.5q0 -35 52 -35q32 0 46 13t18 41h181
q-5 -91 -69 -139.5t-183 -48.5z" />
    <glyph glyph-name="uni043F.bgr" horiz-adv-x="629" 
d="M47 523h197v-84q51 99 173 99q77 0 122.5 -49.5t45.5 -144.5v-344h-196v300q0 80 -67 80q-78 0 -78 -91v-289h-197v523z" />
    <glyph glyph-name="uni0448.bgr" horiz-adv-x="935" 
d="M889 0h-197v80q-55 -95 -165 -95q-103 0 -140 85q-67 -85 -172 -85q-77 0 -123.5 50t-46.5 143v345h196v-309q0 -34 16 -52t43 -18q33 0 51 20.5t18 58.5v300h195v-309q0 -34 16 -52t43 -18q33 0 51 20.5t18 58.5v300h197v-523z" />
    <glyph glyph-name="uni044E.bgr" horiz-adv-x="862" 
d="M557 -12q-106 0 -178 53t-92 150l-2 6h-42v-197h-195v749h195v-417h44q20 96 94 151t177 55q124 0 203.5 -73t79.5 -196v-8q0 -126 -80.5 -199.5t-203.5 -73.5zM558 133q83 0 83 126v8q0 126 -83 126t-83 -124v-8q0 -128 83 -128z" />
    <glyph glyph-name="nine.old" horiz-adv-x="658" 
d="M309 -106q-125 0 -196 58t-81 164h199q14 -63 78 -63q56 0 79.5 43t27.5 152q-55 -84 -160 -84q-100 0 -165.5 56.5t-65.5 161.5q0 114 78.5 182t214.5 68q310 0 310 -352v-31q0 -166 -82.5 -260.5t-236.5 -94.5zM318 297q40 0 64 26t24 65q0 40 -23.5 66t-64.5 26
q-39 0 -62.5 -26t-23.5 -66t23 -65.5t63 -25.5z" />
    <glyph glyph-name="eight.old" horiz-adv-x="646" 
d="M323 -13q-140 0 -219.5 56t-79.5 158q0 60 35.5 105t99.5 68q-105 48 -105 148q0 95 77.5 149.5t193.5 54.5q120 0 195 -53.5t75 -149.5q0 -101 -105 -148q63 -22 97.5 -65.5t34.5 -102.5q0 -103 -79.5 -161.5t-219.5 -58.5zM324 139q40 0 64 22.5t24 60.5
q0 39 -23.5 61.5t-64.5 22.5q-40 0 -64.5 -22.5t-24.5 -60.5q0 -39 24.5 -61.5t64.5 -22.5zM325 432q33 0 55 20.5t22 53.5t-22 53.5t-55 20.5t-55 -20.5t-22 -53.5t22 -53.5t55 -20.5z" />
    <glyph glyph-name="seven.old" horiz-adv-x="580" 
d="M297 445h-277v174h553v-23l-255 -688h-225z" />
    <glyph glyph-name="six.old" horiz-adv-x="658" 
d="M340 -12q-161 0 -236 91t-75 253v35q0 167 89 263t231 96q122 0 190.5 -55t79.5 -161h-199q-12 57 -70 57q-102 0 -108 -195q52 84 160 84q100 0 165.5 -57.5t65.5 -165.5q0 -111 -78.5 -178t-214.5 -67zM340 140q39 0 62.5 26t23.5 66t-23 65.5t-63 25.5t-64 -26
t-24 -66t23.5 -65.5t64.5 -25.5z" />
    <glyph glyph-name="uni0434.bgr" horiz-adv-x="644" 
d="M314 171q44 0 68 28.5t24 79.5v7q0 49 -24 77.5t-68 28.5q-45 0 -68.5 -28t-23.5 -79v-8q0 -49 24 -77.5t68 -28.5zM299 -194q-259 0 -280 198h195q7 -29 25.5 -45.5t60.5 -16.5q100 0 100 100v81q-49 -92 -159 -92q-94 0 -156.5 65.5t-62.5 182.5v8q0 114 63 182.5
t155 68.5q112 0 160 -87v72h197v-478q0 -118 -75.5 -178.5t-222.5 -60.5z" />
    <glyph glyph-name="five.old" horiz-adv-x="620" 
d="M304 -104q-136 0 -209 65t-75 170h196q4 -37 23 -57.5t63 -20.5q40 0 62 27t22 67q0 42 -26 66.5t-70 24.5q-70 0 -109 -50h-133l17 431h487v-162h-333l-6 -155q56 78 171 78q96 0 153.5 -60.5t57.5 -170.5q0 -117 -76.5 -185t-214.5 -68z" />
    <glyph glyph-name="uni0438.bgr" horiz-adv-x="628" 
d="M218 -13q-78 0 -126.5 49.5t-48.5 143.5v343h197v-309q0 -80 66 -80q78 0 78 91v298h197v-523h-197v81q-47 -94 -166 -94z" />
    <glyph glyph-name="uni043F.locl" horiz-adv-x="615" 
d="M371 386h-127v-386h-196v523h519v-523h-196v386z" />
    <glyph glyph-name="one.num" horiz-adv-x="297" 
d="M102 576l-83 -45v116l104 68h124v-382h-145v243z" />
    <glyph glyph-name="five.sub" horiz-adv-x="379" 
d="M186 -133q-83 0 -124.5 35.5t-42.5 94.5h131q5 -26 32 -26q32 0 32 37q0 35 -35 35q-27 0 -35 -23h-114l12 236h293v-100h-194l-4 -78q33 51 103 51q54 0 86 -30.5t32 -87.5q0 -67 -45 -105.5t-127 -38.5z" />
    <glyph glyph-name="uni044C.bgr" horiz-adv-x="558" 
d="M287 -12q-130 0 -186 57.5t-56 169.5v308h194v-156q38 3 65 2q116 -1 174.5 -47t58.5 -131v-6q0 -88 -66 -142.5t-184 -54.5zM290 108q54 0 54 70v4q0 66 -64 66q-19 0 -41 -2v-67q0 -71 51 -71z" />
    <glyph glyph-name="three.old" horiz-adv-x="625" 
d="M318 -104q-286 0 -299 248h192q8 -93 95 -93q41 0 62.5 21t21.5 57q0 76 -92 76h-59v130h55q92 0 92 75q0 33 -18.5 51t-51.5 18q-78 0 -90 -87h-190q6 108 79 174t208 66q123 0 192 -52.5t69 -143.5q0 -114 -119 -156q135 -34 135 -165q0 -98 -72.5 -158.5t-209.5 -60.5
z" />
    <glyph glyph-name="uni0439.bgr" horiz-adv-x="628" 
d="M308 582q-80 0 -123 41.5t-48 118.5h128q6 -54 43 -54q36 0 44 54h128q-6 -76 -50.5 -118t-121.5 -42zM218 -13q-78 0 -126.5 49.5t-48.5 143.5v343h197v-309q0 -80 66 -80q78 0 78 91v298h197v-523h-197v81q-47 -94 -166 -94z" />
    <glyph glyph-name="uni0414.bgr" horiz-adv-x="772" 
d="M278 175h184l-92 327zM203 -130h-196v305h63l178 540h272l181 -540h64v-305h-196l-7 130h-352z" />
    <glyph glyph-name="uni0416.bgr" horiz-adv-x="1045" 
d="M411 300l-166 -300h-237l225 377l-215 338h227l166 -285v285h221v-283l167 283h224l-216 -327l230 -388h-247l-158 299v-299h-221v300z" />
    <glyph glyph-name="uni041A.bgr" horiz-adv-x="746" 
d="M293 285v-285h-228v715h228v-270l197 270h236l-252 -330l265 -385h-261z" />
    <glyph glyph-name="uni0436.bgr" horiz-adv-x="818" 
d="M313 224l-103 -224h-204l146 280l-138 243h196l103 -210v436h190v-436l102 210h194l-137 -236l150 -287h-210l-99 223v-223h-190v224z" />
    <glyph glyph-name="two.old" horiz-adv-x="594" 
d="M9 29l222 214q64 62 91.5 98.5t27.5 72.5q0 59 -62 59q-69 0 -79 -95h-189q5 120 79 187t203 67q121 0 189.5 -55t68.5 -145q0 -58 -32.5 -108.5t-98.5 -111.5l-66 -61h203v-151h-557v29z" />
    <glyph glyph-name="one.old" horiz-adv-x="444" 
d="M159 412l-127 -76v175l157 108h180v-619h-210v412z" />
    <glyph glyph-name="uni0432.bgr" horiz-adv-x="558" 
d="M30 477q0 142 67.5 212.5t189.5 70.5q112 0 173 -50.5t61 -144.5v-9q0 -63 -34 -108t-88 -57q68 -11 104 -54t36 -112v-5q0 -100 -69.5 -167t-187.5 -67q-122 0 -187 63.5t-65 185.5v242zM224 447h26q43 0 62 23.5t19 70.5v9q0 40 -11.5 57t-37.5 17q-58 0 -58 -118v-59z
M282 121q64 0 64 101v10q0 48 -20 69t-67 21h-35v-98q0 -52 12.5 -77.5t45.5 -25.5z" />
    <glyph glyph-name="zero.old" horiz-adv-x="680" 
d="M341 147q101 0 101 154v19q0 78 -24.5 115.5t-77.5 37.5q-102 0 -102 -151v-21q0 -78 25 -116t78 -38zM337 -13q-141 0 -226.5 82t-85.5 229v21q0 146 88.5 229.5t226.5 83.5t226 -80.5t88 -227.5v-20q0 -148 -87.5 -232.5t-229.5 -84.5z" />
    <glyph glyph-name="uni0424.bgr" horiz-adv-x="951" 
d="M589 678q156 -6 246.5 -87t90.5 -224v-8q0 -141 -95 -221.5t-242 -86.5v-61h-225v61q-156 6 -246.5 87t-90.5 223v8q0 141 95 222t242 87v57h225v-57zM364 521q-52 -2 -85.5 -39.5t-33.5 -111.5v-8q0 -75 33 -112.5t86 -39.5v311zM589 208q52 2 85.5 39.5t33.5 110.5v8
q0 76 -32 113.5t-87 39.5v-311z" />
    <glyph glyph-name="yen.old" horiz-adv-x="639" 
d="M58 359h130l-180 335h237l88 -210l89 210h210l-173 -335h132v-71h-156v-46h156v-71h-156v-171h-221v171h-156v71h156v46h-156v71z" />
    <glyph glyph-name="sterling.old" horiz-adv-x="657" 
d="M31 397h46q-10 34 -10 80q0 108 77.5 167t199.5 59q136 0 204 -64.5t72 -178.5h-200q-5 42 -21.5 60.5t-47.5 18.5t-49 -20t-18 -55q0 -29 5 -67h165v-120h-148q2 -30 2 -45q0 -27 -8 -54q62 -17 76 -17q53 0 56 53h199q-4 -99 -59 -161t-152 -62q-57 0 -121 24.5
t-81 24.5q-39 0 -44 -40h-161q12 135 100 178q8 26 8 54q0 22 -6 45h-84v120z" />
    <glyph glyph-name="Euro.old" horiz-adv-x="706" 
d="M20 438h60q18 119 101.5 192t207.5 73q266 0 289 -256h-201q-12 91 -90 91t-95 -100h137l-14 -71h-127v-45h120l-12 -71h-104q9 -48 31 -71.5t65 -23.5q45 0 67 25t27 79h201q-30 -273 -301 -273q-131 0 -209 71.5t-94 192.5h-59v71h55v45h-55v71z" />
    <glyph glyph-name="uni0442.bgr" horiz-adv-x="935" 
d="M47 523h197v-80q55 95 165 95q103 0 140 -85q67 85 172 85q77 0 123.5 -50t46.5 -143v-345h-196v309q0 34 -16 52t-43 18q-33 0 -51 -20.5t-18 -58.5v-300h-195v309q0 34 -16 52t-43 18q-33 0 -51 -20.5t-18 -58.5v-300h-197v523z" />
    <glyph glyph-name="six.sub" horiz-adv-x="404" 
d="M212 -133q-190 0 -190 193v11q0 86 54 138.5t137 52.5q153 0 164 -123h-131q-6 22 -29 22q-46 0 -51 -80q30 40 90 40q57 0 93 -28t36 -89q0 -63 -46 -100t-127 -37zM210 -38q17 0 27 11t10 29q0 17 -10 28t-27 11t-26.5 -11t-9.5 -29t9.5 -28.5t26.5 -10.5z" />
    <glyph glyph-name="seven.sub" horiz-adv-x="357" 
d="M166 143h-147v113h328v-14l-139 -368h-144z" />
    <glyph glyph-name="eight.sub" horiz-adv-x="393" 
d="M197 -133q-179 0 -179 114q0 69 70 92q-53 24 -53 78q0 52 46 81.5t117 29.5q74 0 118 -29t44 -82q0 -56 -53 -77q68 -21 68 -89q0 -57 -45.5 -87.5t-132.5 -30.5zM197 -38q17 0 27.5 10t10.5 26q0 15 -10.5 25t-27.5 10q-38 0 -38 -36q0 -16 10.5 -25.5t27.5 -9.5z
M198 105q14 0 24 9.5t10 23.5t-10 23t-24 9q-15 0 -25 -9t-10 -24q0 -14 10 -23t25 -9z" />
    <glyph glyph-name="nine.sub" horiz-adv-x="404" 
d="M192 -133q-75 0 -118 32t-48 91h132q6 -22 31 -22q46 0 48 78q-26 -38 -83 -38q-135 0 -135 117q0 63 46.5 100t126.5 37q94 0 142 -53t48 -140v-8q0 -94 -48.5 -144t-141.5 -50zM192 88q17 0 27 10.5t10 27.5q0 18 -10 29.5t-27 11.5t-26.5 -11.5t-9.5 -29.5
q0 -38 36 -38z" />
    <glyph glyph-name="hungarumlaut.uc" horiz-adv-x="400" 
d="M71 906h163l-75 -149h-130zM272 906h164l-75 -149h-130z" />
    <glyph glyph-name="dollar.old" horiz-adv-x="639" 
d="M279 -10q-123 9 -188.5 69t-70.5 161h194q5 -67 65 -82v126q-132 18 -189 68.5t-57 152.5q0 91 66 150.5t180 67.5v86h81v-87q225 -19 242 -214h-190q-6 51 -52 65v-118q123 -17 186.5 -64.5t63.5 -147.5q0 -96 -62.5 -160.5t-187.5 -72.5v-121h-81v121zM417 197
q0 21 -12.5 33t-44.5 20v-114q57 13 57 61zM221 501q0 -23 12.5 -35t45.5 -20v110q-58 -10 -58 -55z" />
    <glyph glyph-name="tilde.uc" horiz-adv-x="400" 
d="M266 755q-32 0 -70.5 16t-50.5 16q-25 0 -30 -30h-109q6 80 40.5 120t85.5 40q31 0 70.5 -16t53.5 -16q24 0 29 30h110q-6 -79 -42.5 -119.5t-86.5 -40.5z" />
    <glyph glyph-name="ring.uc" horiz-adv-x="400" 
d="M200 810q20 0 32.5 14t12.5 36q0 23 -12.5 36.5t-32.5 13.5t-32.5 -13.5t-12.5 -36.5q0 -22 12.5 -36t32.5 -14zM200 742q-51 0 -86.5 35t-35.5 83t35.5 83t86.5 35t86.5 -35t35.5 -83t-35.5 -83t-86.5 -35z" />
    <glyph glyph-name="dotaccent.uc" horiz-adv-x="400" 
d="M200 752q-45 0 -74 27t-29 68q0 42 29 69t74 27q44 0 73 -27t29 -69q0 -41 -29 -68t-73 -27z" />
    <glyph glyph-name="breve.uc" horiz-adv-x="400" 
d="M200 749q-78 0 -122 41t-49 116h124q5 -42 47 -42t47 42h124q-5 -75 -50.5 -116t-120.5 -41z" />
    <glyph glyph-name="caron.uc" horiz-adv-x="400" 
d="M4 906h142l54 -47l54 47h139l-115 -149h-164z" />
    <glyph glyph-name="circumflex.uc" horiz-adv-x="400" 
d="M120 906h164l110 -149h-142l-54 47l-54 -47h-139z" />
    <glyph glyph-name="acute.uc" horiz-adv-x="400" 
d="M166 906h201l-103 -149h-149z" />
    <glyph glyph-name="uni041B.bgr" horiz-adv-x="740" 
d="M354 479l-134 -479h-212l232 715h256l236 -715h-245z" />
    <glyph glyph-name="macron.uc" horiz-adv-x="400" 
d="M33 884h333v-115h-333v115z" />
    <glyph glyph-name="dieresis.uc" horiz-adv-x="400" 
d="M86 752q-38 0 -64.5 26t-26.5 63t26.5 63t64.5 26q39 0 65.5 -25.5t26.5 -63.5q0 -37 -26.5 -63t-65.5 -26zM313 752q-38 0 -64.5 26t-26.5 63t26.5 63t64.5 26q39 0 65.5 -25.5t26.5 -63.5q0 -37 -26.5 -63t-65.5 -26z" />
    <glyph glyph-name="grave.uc" horiz-adv-x="400" 
d="M36 906h202l47 -149h-149z" />
    <glyph glyph-name="at.uc" horiz-adv-x="922" 
d="M461 -85q-198 0 -315.5 116t-117.5 292q0 129 64 230.5t166 154.5t221 53q180 0 297 -99t117 -262q0 -140 -63.5 -208t-156.5 -68q-128 0 -152 80q-39 -81 -130 -81q-75 0 -118.5 49.5t-43.5 136.5q0 104 56.5 169t139.5 65q79 0 106 -57l7 49h159l-34 -274
q-8 -64 42 -64q45 0 76 51t31 155q0 129 -90.5 208.5t-239.5 79.5q-157 0 -262 -101.5t-105 -268.5q0 -149 90.5 -242t258.5 -93q83 0 152 25.5t107 63.5h94q-53 -73 -147.5 -116.5t-208.5 -43.5zM444 249q31 0 51 30t20 78q0 62 -57 62q-30 0 -48.5 -28.5t-18.5 -73.5
q0 -30 13.5 -49t39.5 -19z" />
    <glyph glyph-name="bar.uc" horiz-adv-x="270" 
d="M67 776h136v-860h-136v860z" />
    <glyph glyph-name="backslash.uc" horiz-adv-x="440" 
d="M-7 776h154l301 -860h-155z" />
    <glyph glyph-name="slash.uc" horiz-adv-x="440" 
d="M292 776h155l-301 -860h-155z" />
    <glyph glyph-name="braceright.uc" horiz-adv-x="425" 
d="M37 47q53 2 70.5 21.5t11.5 65.5l-8 81q-5 52 21.5 86t82.5 46q-56 13 -82.5 46.5t-21.5 84.5l8 81q6 46 -11 62.5t-71 20.5v142q162 0 229.5 -53.5t47.5 -177.5l-10 -63q-6 -35 16 -55.5t76 -20.5v-137q-54 0 -76 -20.5t-16 -56.5l10 -64q19 -120 -49 -176t-228 -56v143
z" />
    <glyph glyph-name="braceleft.uc" horiz-adv-x="425" 
d="M388 -96q-160 0 -228.5 56t-48.5 176l10 64q6 35 -16.5 56t-75.5 21v137q53 0 75.5 20.5t16.5 55.5l-10 63q-20 124 47.5 177.5t229.5 53.5v-142q-54 -4 -71.5 -21t-11.5 -62l9 -81q5 -51 -21.5 -84.5t-82.5 -46.5q56 -12 82.5 -46.5t21.5 -85.5l-9 -81q-6 -46 12 -65.5
t71 -21.5v-143z" />
    <glyph glyph-name="bracketright.uc" horiz-adv-x="419" 
d="M38 48h120v594h-120v142h319v-879h-319v143z" />
    <glyph glyph-name="bracketleft.uc" horiz-adv-x="419" 
d="M61 784h321v-142h-122v-594h122v-143h-321v879z" />
    <glyph glyph-name="space_uni0326" horiz-adv-x="400" 
d="M90 -206l39 175l172 -12l-101 -190z" />
    <glyph glyph-name="parenright.uc" horiz-adv-x="362" 
d="M10 -98q129 216 129 442q0 225 -129 441h150q166 -202 166 -441q0 -240 -166 -442h-150z" />
    <glyph glyph-name="parenleft.uc" horiz-adv-x="362" 
d="M202 -98q-166 202 -166 442q0 238 166 441h150q-129 -209 -129 -441q0 -233 129 -442h-150z" />
    <glyph glyph-name="guillemotright.uc" horiz-adv-x="477" 
d="M145 301l-119 196h121l124 -196l-124 -196h-121zM325 301l-119 196h121l124 -196l-124 -196h-121z" />
    <glyph glyph-name="guillemotleft.uc" horiz-adv-x="477" 
d="M25 301l124 196h121l-119 -196l119 -196h-121zM206 301l124 196h121l-119 -196l119 -196h-121z" />
    <glyph glyph-name="guilsinglright.uc" horiz-adv-x="304" 
d="M145 301l-119 196h129l124 -196l-124 -196h-129z" />
    <glyph glyph-name="uni0442.locl" horiz-adv-x="505" 
d="M493 386h-143v-386h-195v386h-143v137h481v-137z" />
    <glyph glyph-name="guilsinglleft.uc" horiz-adv-x="304" 
d="M25 301l124 196h129l-119 -196l119 -196h-129z" />
    <glyph glyph-name="emdash.uc" horiz-adv-x="958" 
d="M46 385h866v-111h-866v111z" />
    <glyph glyph-name="idotaccent" horiz-adv-x="303" 
d="M151 562q-46 0 -76.5 28t-30.5 71q0 44 30.5 72t76.5 28q45 0 75.5 -28t30.5 -72q0 -43 -30.5 -71t-75.5 -28zM53 523h196v-523h-196v523z" />
    <glyph glyph-name="endash.uc" horiz-adv-x="543" 
d="M46 385h451v-111h-451v111z" />
    <glyph glyph-name="plus.sub" horiz-adv-x="361" 
d="M130 22h-96v99h96v99h101v-99h96v-99h-96v-98h-101v98z" />
    <glyph glyph-name="exclamdown.uc" horiz-adv-x="343" 
d="M172 726q48 0 81 -30t33 -74t-33.5 -75t-80.5 -31t-81 31t-34 75t33.5 74t81.5 30zM282 0h-221l29 474h164z" />
    <glyph glyph-name="questiondown.uc" horiz-adv-x="569" 
d="M401 460q0 -35 -17.5 -69t-32.5 -50t-47 -47q-22 -20 -33 -31.5t-21 -29t-10 -33.5q0 -52 53 -52q58 0 69 80h192q-4 -115 -79 -177.5t-198 -62.5q-120 0 -185.5 50t-65.5 143q0 79 68 147q14 14 38 35.5t38 34.5t27 31.5t17 34.5v9h187v-13zM307 725q49 0 82.5 -30
t33.5 -74t-33.5 -75t-82.5 -31q-47 0 -80.5 31t-33.5 75t33 74t81 30z" />
    <glyph glyph-name="caron.alt" horiz-adv-x="400" 
d="M153 750h140l-50 -175h-98z" />
    <glyph glyph-name="registered.alt" horiz-adv-x="842" 
d="M256 563h168q172 0 172 -133v-2q0 -74 -66 -106l89 -164h-138l-72 136h-20v-136h-133v405zM416 380q49 0 49 41v3q0 38 -48 38h-28v-82h27zM420 31q136 0 229.5 92t93.5 236q0 143 -92 234t-229 91q-138 0 -230.5 -91.5t-92.5 -235.5t93.5 -235t227.5 -91zM420 -21
q-161 0 -273.5 109t-112.5 269q0 159 112.5 269t275.5 110q165 0 276 -109t111 -268q0 -161 -113 -270.5t-276 -109.5z" />
    <glyph glyph-name="space_uni0326.alt" horiz-adv-x="400" 
d="M111 577l101 190l110 -27l-39 -175z" />
    <glyph glyph-name="tcommaaccent.alt" horiz-adv-x="386" 
d="M60 -206l39 175l172 -12l-101 -190zM82 391h-71v132h71v107h197v-107h92v-132h-92v-391h-197v391z" />
    <glyph glyph-name="tcaron.alt" horiz-adv-x="386" 
d="M82 391h-71v132h71v107h197v-107h92v-132h-92v-391h-197v391zM325 750h140l-50 -175h-98z" />
    <glyph glyph-name="tbar.alt" horiz-adv-x="386" 
d="M11 331h71v60h-71v132h71v107h197v-107h92v-132h-92v-60h92v-106h-92v-225h-197v225h-71v106z" />
    <glyph glyph-name="germandbls.alt" horiz-adv-x="706" 
d="M479 -9q-208 0 -213 173h163q4 -50 40 -50q33 0 33 36q0 9 -3 16t-7 11.5t-13.5 10t-16 8.5t-22 9.5t-24.5 10.5q-27 13 -44 23t-37.5 27t-31 39.5t-10.5 50.5q0 32 17 63.5t37 52.5t37 44.5t17 41.5q0 58 -70 58q-40 0 -63.5 -21.5t-23.5 -64.5v-530h-197v527
q0 111 79 173t209 62q117 0 188.5 -45t71.5 -128q0 -40 -18 -74t-40 -52t-40 -36t-18 -30q0 -11 13 -20t55 -30q5 -3 8 -4t7.5 -3.5t8.5 -4.5q116 -58 116 -163q0 -87 -57.5 -134t-150.5 -47z" />
    <glyph glyph-name="uni043A.bgr" horiz-adv-x="588" 
d="M244 215v-215h-197v749h197v-427l127 201h202l-161 -236l174 -287h-218z" />
    <glyph glyph-name="uni043D.bgr" horiz-adv-x="625" 
d="M381 196h-137v-196h-196v523h196v-190h137v190h196v-523h-196v196z" />
    <glyph glyph-name="atilde.alt" horiz-adv-x="638" 
d="M239 -13q-92 0 -154 69t-62 200v8q0 130 62 201.5t154 71.5q107 0 154 -86v72h197v-523h-197v83q-49 -96 -154 -96zM310 137q42 0 65.5 31.5t23.5 91.5v8q0 123 -87 123q-89 0 -89 -124v-8q0 -122 87 -122zM392 581q-33 0 -70 16t-48 16q-25 0 -30 -30h-104
q5 81 36.5 121.5t81.5 40.5q30 0 68.5 -16t52.5 -16q26 0 30 31h104q-6 -80 -39 -121.5t-82 -41.5z" />
    <glyph glyph-name="aringacute.alt" horiz-adv-x="638" 
d="M239 -13q-92 0 -154 69t-62 200v8q0 130 62 201.5t154 71.5q107 0 154 -86v72h197v-523h-197v83q-49 -96 -154 -96zM310 137q42 0 65.5 31.5t23.5 91.5v8q0 123 -87 123q-89 0 -89 -124v-8q0 -122 87 -122zM325 638q20 0 32 13.5t12 34.5q0 22 -12 35.5t-32 13.5
t-32 -13.5t-12 -35.5q0 -21 12 -34.5t32 -13.5zM325 570q-50 0 -85 34t-35 82t35.5 82.5t84.5 34.5t84.5 -34.5t35.5 -82.5t-35 -82t-85 -34zM306 978h201l-103 -149h-149z" />
    <glyph glyph-name="aring.alt" horiz-adv-x="638" 
d="M239 -13q-92 0 -154 69t-62 200v8q0 130 62 201.5t154 71.5q107 0 154 -86v72h197v-523h-197v83q-49 -96 -154 -96zM310 137q42 0 65.5 31.5t23.5 91.5v8q0 123 -87 123q-89 0 -89 -124v-8q0 -122 87 -122zM325 642q20 0 32 13.5t12 34.5q0 22 -12 35.5t-32 13.5
t-32 -13.5t-12 -35.5q0 -21 12 -34.5t32 -13.5zM325 574q-50 0 -85 34t-35 82t35.5 82.5t84.5 34.5t84.5 -34.5t35.5 -82.5t-35 -82t-85 -34z" />
    <glyph glyph-name="uni0433.locl" horiz-adv-x="452" 
d="M244 386v-386h-196v523h392v-137h-196z" />
    <glyph glyph-name="uni0446.bgr" horiz-adv-x="660" 
d="M483 -127l-6 127h-93v81q-47 -94 -166 -94q-78 0 -126.5 49.5t-48.5 143.5v343h197v-309q0 -80 66 -80q78 0 78 91v298h197v-386h69v-264h-167z" />
    <glyph glyph-name="uni0447.bgr" horiz-adv-x="602" 
d="M357 0v214q-61 -61 -156 -61q-78 0 -121.5 48.5t-43.5 144.5v177h197v-145q0 -40 12.5 -59t44.5 -19q43 0 67 29v194h197v-523h-197z" />
    <glyph glyph-name="aogonek.alt" horiz-adv-x="638" 
d="M499 -182q-55 0 -87 22t-32 60q0 36 23 58t64 42h-74v83q-49 -96 -154 -96q-92 0 -154 69t-62 200v8q0 130 62 201.5t154 71.5q107 0 154 -86v72h197v-510q-53 -42 -53 -72q0 -26 30 -26q17 0 25 4v-84q-32 -17 -93 -17zM310 137q42 0 65.5 31.5t23.5 91.5v8
q0 123 -87 123q-89 0 -89 -124v-8q0 -122 87 -122z" />
    <glyph glyph-name="uni043B.bgr" horiz-adv-x="597" 
d="M593 0h-210l-97 317l-95 -317h-186l188 523h211z" />
    <glyph glyph-name="amacron.alt" horiz-adv-x="638" 
d="M239 -13q-92 0 -154 69t-62 200v8q0 130 62 201.5t154 71.5q107 0 154 -86v72h197v-523h-197v83q-49 -96 -154 -96zM310 137q42 0 65.5 31.5t23.5 91.5v8q0 123 -87 123q-89 0 -89 -124v-8q0 -122 87 -122zM168 712h316v-107h-316v107z" />
    <glyph glyph-name="agrave.alt" horiz-adv-x="638" 
d="M239 -13q-92 0 -154 69t-62 200v8q0 130 62 201.5t154 71.5q107 0 154 -86v72h197v-523h-197v83q-49 -96 -154 -96zM310 137q42 0 65.5 31.5t23.5 91.5v8q0 123 -87 123q-89 0 -89 -124v-8q0 -122 87 -122zM156 747h193l52 -169h-141z" />
    <glyph glyph-name="adieresis.alt" horiz-adv-x="638" 
d="M239 -13q-92 0 -154 69t-62 200v8q0 130 62 201.5t154 71.5q107 0 154 -86v72h197v-523h-197v83q-49 -96 -154 -96zM310 137q42 0 65.5 31.5t23.5 91.5v8q0 123 -87 123q-89 0 -89 -124v-8q0 -122 87 -122zM217 570q-38 0 -64.5 26t-26.5 63t26.5 63t64.5 26
q39 0 65.5 -26t26.5 -63t-26.5 -63t-65.5 -26zM434 570q-38 0 -64 26t-26 63t26 63t64 26q39 0 65.5 -26t26.5 -63t-26.5 -63t-65.5 -26z" />
    <glyph glyph-name="acircumflex.alt" horiz-adv-x="638" 
d="M239 -13q-92 0 -154 69t-62 200v8q0 130 62 201.5t154 71.5q107 0 154 -86v72h197v-523h-197v83q-49 -96 -154 -96zM310 137q42 0 65.5 31.5t23.5 91.5v8q0 123 -87 123q-89 0 -89 -124v-8q0 -122 87 -122zM259 746h138l120 -166h-137l-56 53l-56 -53h-134z" />
    <glyph glyph-name="abreve.alt" horiz-adv-x="638" 
d="M239 -13q-92 0 -154 69t-62 200v8q0 130 62 201.5t154 71.5q107 0 154 -86v72h197v-523h-197v83q-49 -96 -154 -96zM310 137q42 0 65.5 31.5t23.5 91.5v8q0 123 -87 123q-89 0 -89 -124v-8q0 -122 87 -122zM326 581q-77 0 -121 42t-48 121h119q5 -45 50 -45q46 0 51 45
h118q-5 -79 -50.5 -121t-118.5 -42z" />
    <glyph glyph-name="aacute.alt" horiz-adv-x="638" 
d="M239 -13q-92 0 -154 69t-62 200v8q0 130 62 201.5t154 71.5q107 0 154 -86v72h197v-523h-197v83q-49 -96 -154 -96zM310 137q42 0 65.5 31.5t23.5 91.5v8q0 123 -87 123q-89 0 -89 -124v-8q0 -122 87 -122zM303 747h193l-104 -169h-141z" />
    <glyph glyph-name="minus.sup" horiz-adv-x="361" 
d="M34 639h293v-100h-293v100z" />
    <glyph glyph-name="plus.sup" horiz-adv-x="361" 
d="M130 539h-96v100h96v98h101v-98h96v-100h-96v-97h-101v97z" />
    <glyph glyph-name="nine.sup" horiz-adv-x="404" 
d="M192 385q-75 0 -118 32t-48 91h132q6 -22 31 -22q46 0 48 78q-26 -38 -83 -38q-135 0 -135 117q0 63 46.5 100t126.5 37q94 0 142 -53t48 -140v-8q0 -94 -48.5 -144t-141.5 -50zM192 606q17 0 27 10.5t10 27.5q0 18 -10 29.5t-27 11.5t-26.5 -11.5t-9.5 -29.5
q0 -38 36 -38z" />
    <glyph glyph-name="eight.sup" horiz-adv-x="393" 
d="M197 385q-179 0 -179 114q0 69 70 92q-53 24 -53 78q0 52 46 81.5t117 29.5q74 0 118 -29t44 -82q0 -56 -53 -77q68 -21 68 -89q0 -57 -45.5 -87.5t-132.5 -30.5zM197 480q17 0 27.5 10t10.5 26q0 15 -10.5 25t-27.5 10q-38 0 -38 -36q0 -16 10.5 -25.5t27.5 -9.5z
M198 623q14 0 24 9.5t10 23.5t-10 23t-24 9q-15 0 -25 -9t-10 -24q0 -14 10 -23t25 -9z" />
    <glyph glyph-name="seven.sup" horiz-adv-x="357" 
d="M166 661h-147v113h328v-14l-139 -368h-144z" />
    <glyph glyph-name="six.sup" horiz-adv-x="404" 
d="M212 385q-190 0 -190 193v11q0 86 54 138.5t137 52.5q153 0 164 -123h-131q-6 22 -29 22q-46 0 -51 -80q30 40 90 40q57 0 93 -28t36 -89q0 -63 -46 -100t-127 -37zM210 480q17 0 27 11t10 29q0 17 -10 28t-27 11t-26.5 -11t-9.5 -29t9.5 -28.5t26.5 -10.5z" />
    <glyph glyph-name="uni0430.alt" horiz-adv-x="638" 
d="M239 -13q-92 0 -154 69t-62 200v8q0 130 62 201.5t154 71.5q107 0 154 -86v72h197v-523h-197v83q-49 -96 -154 -96zM310 137q42 0 65.5 31.5t23.5 91.5v8q0 123 -87 123q-89 0 -89 -124v-8q0 -122 87 -122z" />
    <glyph glyph-name="five.sup" horiz-adv-x="379" 
d="M186 385q-83 0 -124.5 35.5t-42.5 94.5h131q5 -26 32 -26q32 0 32 37q0 35 -35 35q-27 0 -35 -23h-114l12 236h293v-100h-194l-4 -78q33 51 103 51q54 0 86 -30.5t32 -87.5q0 -67 -45 -105.5t-127 -38.5z" />
    <glyph glyph-name="uni0434.locl" horiz-adv-x="624" 
d="M255 258q-6 -76 -25 -121h127v251h-97q-2 -91 -5 -130zM180 -127h-170v264h27q42 23 53 137q7 78 7 249h454v-386h70v-264h-170l-2 127h-267z" />
    <glyph glyph-name="four.sup" horiz-adv-x="408" 
d="M201 462h-190v54l157 258h172v-218h48v-94h-48v-70h-139v70zM205 556v124l-72 -124h72z" />
    <glyph glyph-name="three.sup" horiz-adv-x="385" 
d="M193 385q-171 0 -176 137h127q5 -38 40 -38q34 0 34 31q0 29 -41 29h-31v79h31q43 0 43 31q0 27 -31 27q-32 0 -38 -35h-126q6 61 48 97.5t120 36.5q77 0 119.5 -28t42.5 -79q0 -65 -69 -82q34 -5 55.5 -27.5t21.5 -54.5q0 -57 -43 -90.5t-127 -33.5z" />
    <glyph glyph-name="two.sup" horiz-adv-x="366" 
d="M4 410l129 132q37 38 53.5 60.5t16.5 42.5q0 30 -28 30q-30 0 -36 -51h-131q2 77 48.5 116.5t126.5 39.5t120.5 -34.5t40.5 -89.5q0 -37 -19.5 -67.5t-58.5 -67.5l-28 -26h108v-103h-342v18z" />
    <glyph glyph-name="one.sup" horiz-adv-x="297" 
d="M102 635l-83 -45v116l104 68h124v-382h-145v243z" />
    <glyph glyph-name="zero.sup" horiz-adv-x="435" 
d="M217 494q27 0 39 20.5t12 66.5v6q0 47 -12 66t-40 19q-27 0 -38 -19.5t-11 -65.5v-7q0 -46 11.5 -66t38.5 -20zM214 385q-93 0 -142.5 50t-49.5 145v6q0 91 54.5 142.5t140.5 51.5t141 -48t55 -143v-5q0 -95 -52.5 -147t-146.5 -52z" />
    <glyph glyph-name="minus.sub" horiz-adv-x="361" 
d="M34 121h293v-99h-293v99z" />
    </font>
</defs>
</svg>
